<?xml version="1.0" encoding="utf-8"?>
<!-- Generator: Adobe Illustrator 20.1.0, SVG Export Plug-In . SVG Version: 6.00 Build 0)  -->
<svg version="1.1" id="Layer_1" xmlns="http://www.w3.org/2000/svg" xmlns:xlink="http://www.w3.org/1999/xlink" x="0px" y="0px"
	 viewBox="0 0 102 102" style="enable-background:new 0 0 102 102;" xml:space="preserve">
<style type="text/css">
	.st0{clip-path:url(#SVGID_2_);}
	.st1{fill:#8C613E;}
	.st2{fill:#515052;}
	.st3{fill:#FFFFFF;}
	.st4{fill:#E2C2AA;}
	.st5{opacity:0.1;fill:#FFFFFF;enable-background:new    ;}
	.st6{opacity:0.1;enable-background:new    ;}
	.st7{opacity:0.13;fill:#FFFFFF;enable-background:new    ;}
	.st8{fill:url(#SVGID_3_);stroke:#FFFFFF;stroke-width:3;stroke-miterlimit:10;}
</style>
<g>
	<defs>
		<circle id="SVGID_1_" cx="51.4" cy="51" r="48.3"/>
	</defs>
	<clipPath id="SVGID_2_">
		<use xlink:href="#SVGID_1_"  style="overflow:visible;"/>
	</clipPath>
	<g class="st0">
		<g>
			<path class="st1" d="M82.3,64.6c0,0-0.1,19.2,0.4,21.4c0.2,1,1.5,3.3,1.8,4.9s0.5,5.6,0.5,5.6H71c0,0,0-3.4,1.4-5.8
				c1.3-2.4,2.8-2.8,3.6-5.8c0.7-3-2-17.5-2-17.5"/>
			<path class="st2" d="M86.7,98.1H69.4l0-1.5c0-0.2,0.1-3.8,1.6-6.5c0.6-1.1,1.2-1.8,1.7-2.4c0.8-0.9,1.3-1.5,1.7-3
				c0.4-1.8-0.9-11-2-16.9c-0.2-0.8,0.4-1.6,1.2-1.8c0.8-0.1,1.6,0.4,1.8,1.2c0.5,2.5,2.7,15,2,18.2c-0.5,2.2-1.4,3.2-2.3,4.3
				c-0.5,0.6-1,1.1-1.4,1.9c-0.6,1.1-0.9,2.5-1.1,3.6h10.8c-0.1-1.3-0.2-3-0.4-3.8c-0.1-0.8-0.6-1.9-1-2.8c-0.4-0.9-0.7-1.6-0.8-2.1
				c-0.5-2.2-0.4-18.5-0.4-21.7c0-0.8,0.7-1.5,1.5-1.5c0,0,0,0,0,0c0.8,0,1.5,0.7,1.5,1.5c0,7.4,0,19.6,0.4,21
				c0.1,0.3,0.4,1,0.6,1.6c0.5,1.1,1,2.3,1.2,3.4c0.3,1.7,0.5,5.6,0.5,5.8L86.7,98.1z"/>
		</g>
		<g>
			<polygon class="st2" points="71,96.6 72.9,89.9 84.1,89.4 85.1,96.6 			"/>
		</g>
		<g>
			<path class="st1" d="M46.9,60.1l-1.6,14.8c0,0,1.5,8.6,0.3,11.8c-0.6,1.5-2.3,3.5-3.1,5.5c-0.9,2.2-0.7,4.3-0.7,4.3l12.9,0.1
				c0,0,0.2-2.1-0.4-4.5c-0.5-2-1.9-4-1.9-6c-0.1-4.4,2.3-22.8,2.3-22.8"/>
			<path class="st2" d="M56,98.2L40.4,98l-0.1-1.4c0-0.1-0.2-2.5,0.8-5c0.5-1.2,1.2-2.4,1.9-3.4c0.5-0.8,1-1.6,1.2-2.1
				c0.8-2,0.2-7.8-0.4-11l0-0.2l1.6-15c0.1-0.8,0.8-1.5,1.7-1.4c0.8,0.1,1.4,0.8,1.4,1.7l-1.5,14.6c0.3,1.6,1.4,9.1,0.2,12.4
				c-0.3,0.8-0.9,1.7-1.5,2.7c-0.6,1-1.2,1.9-1.6,2.8c-0.3,0.8-0.5,1.6-0.6,2.3l9.8,0.1c0-0.7-0.1-1.6-0.4-2.6
				c-0.2-0.6-0.5-1.3-0.8-2.1c-0.6-1.4-1.2-2.8-1.2-4.3c-0.1-4.5,2.2-22.3,2.3-23c0.1-0.8,0.9-1.4,1.7-1.3c0.8,0.1,1.4,0.9,1.3,1.7
				c0,0.2-2.3,18.3-2.3,22.6c0,0.9,0.5,2,0.9,3.2c0.3,0.8,0.7,1.6,0.9,2.5c0.7,2.6,0.4,4.9,0.4,5L56,98.2z"/>
		</g>
		<g>
			<polygon class="st2" points="41.8,96.5 43.7,89.4 53.3,89.4 54.7,96.6 			"/>
		</g>
		<g>
			<path class="st1" d="M91.9,47.4c7.6,3.5,8.6,13.9,8.6,13.9l-2.7-1.1L97.6,66l-3.4-4l-1.3,2.8c0,0-0.7-4.1-4.3-9.5
				S78.5,44.8,78.5,44.8S84.2,43.9,91.9,47.4z"/>
			<path class="st2" d="M97.6,67.5c-0.4,0-0.9-0.2-1.2-0.5l-1.8-2.2l-0.3,0.7c-0.3,0.6-0.9,0.9-1.6,0.8c-0.7-0.1-1.2-0.6-1.3-1.2
				c0,0-0.7-3.9-4.1-8.9c-3.4-5.1-9.7-10.1-9.8-10.1c-0.5-0.4-0.7-1-0.5-1.6c0.1-0.6,0.6-1,1.2-1.1c0.3,0,6.3-1,14.3,2.7l0,0
				c8.4,3.8,9.4,14.7,9.5,15.2c0,0.5-0.2,1-0.6,1.4c-0.4,0.3-1,0.4-1.5,0.2l-0.6-0.3L99.1,66c0,0.6-0.4,1.2-1,1.4
				C97.9,67.5,97.8,67.5,97.6,67.5z M94.2,60.5c0.4,0,0.9,0.2,1.2,0.5l0.8,1l0.1-1.9c0-0.5,0.3-1,0.7-1.2c0.4-0.3,0.9-0.3,1.4-0.1
				l0.1,0c-0.8-3.1-2.7-8-7.2-10.1c-3.4-1.6-6.5-2.2-8.7-2.4c2.2,2,5.2,5,7.3,8.1c1.7,2.5,2.7,4.7,3.4,6.4c0.2-0.2,0.5-0.3,0.8-0.3
				C94.1,60.5,94.2,60.5,94.2,60.5z"/>
		</g>
		<g>
			
				<ellipse transform="matrix(7.173605e-02 -0.9974 0.9974 7.173605e-02 2.1891 114.339)" class="st1" cx="62.5" cy="56" rx="15.4" ry="30.5"/>
			<path class="st2" d="M65.8,73c-1.5,0-3-0.1-4.5-0.2C53,72.2,45.2,70,39.5,66.6c-6-3.6-9.2-8.2-8.9-12.9
				c0.7-9.4,15.2-15.8,33.1-14.5c17.9,1.3,31.4,9.7,30.7,19.1c-0.3,4.7-4.1,8.8-10.6,11.5C78.8,71.9,72.5,73,65.8,73z M59.4,42
				c-13.8,0-25.2,5.1-25.7,11.9C33.4,57.4,36,61,41,64c5.3,3.2,12.6,5.3,20.5,5.8c7.9,0.6,15.4-0.4,21.1-2.8
				c5.4-2.2,8.5-5.4,8.7-8.9c0.5-7.5-12.2-14.8-27.9-15.9C62.1,42.1,60.7,42,59.4,42z"/>
		</g>
		<g>
			<path class="st1" d="M91.4,58.6c0,0-1.4,24-1,26.6c0.4,2.6,2.2,4.1,3.1,6.4c0.9,2.3,0.9,5.1,0.9,5.1l-16.2,0.1
				c0,0-0.3-2.4,0.7-4.3c1-1.8,2.6-3.3,3.8-6.6c1.1-3.3,0.2-20.5,0.2-20.5"/>
			<path class="st2" d="M76.9,98.4L76.7,97c0-0.3-0.3-3,0.9-5.1c0.4-0.7,0.8-1.4,1.3-2.1c0.8-1.2,1.7-2.4,2.4-4.3
				c0.7-2.2,0.5-13.4,0.1-19.9c0-0.8,0.6-1.6,1.4-1.6c0.9,0,1.6,0.6,1.6,1.4c0.1,1.8,0.9,17.6-0.3,21.1c-0.8,2.3-1.9,3.9-2.8,5.1
				c-0.4,0.6-0.8,1.2-1.1,1.7c-0.3,0.6-0.5,1.4-0.5,2l13-0.1c-0.1-0.9-0.3-2-0.7-3c-0.3-0.8-0.8-1.5-1.2-2.3
				c-0.8-1.2-1.7-2.6-1.9-4.5c-0.4-2.7,0.8-24.5,1-27c0-0.8,0.8-1.5,1.6-1.4c0.8,0,1.5,0.8,1.4,1.6c-0.5,9.2-1.3,24.6-1,26.3
				c0.2,1.2,0.8,2.2,1.5,3.3c0.5,0.8,1.1,1.7,1.5,2.8c1,2.6,1,5.5,1.1,5.6l0,1.5L76.9,98.4z"/>
		</g>
		<g>
			<path class="st1" d="M49.9,68.8c0,0,2.1,12.3,2.2,15.5c0.1,3.2-1.8,5.3-2.5,7.5C48.8,94,49,96.5,49,96.5l14.4,0.1
				c0,0-0.1-3.1-1-5c-0.9-1.9-3.1-3.8-3.6-7.7c-0.6-3.9,1.1-14.8,1.1-14.8"/>
			<path class="st2" d="M65,98.1L47.6,98l-0.1-1.4c0-0.1-0.2-2.9,0.7-5.3c0.3-0.8,0.7-1.5,1-2.3c0.8-1.5,1.5-2.9,1.4-4.7
				c-0.1-3.1-2.2-15.2-2.2-15.3c-0.1-0.8,0.4-1.6,1.2-1.8c0.8-0.1,1.6,0.4,1.8,1.2c0.1,0.5,2.1,12.4,2.2,15.7
				c0.1,2.6-0.9,4.6-1.7,6.2c-0.3,0.7-0.7,1.3-0.9,1.9c-0.3,0.9-0.4,1.9-0.5,2.7l11.3,0.1c-0.1-0.9-0.3-2-0.7-2.8
				c-0.2-0.5-0.6-1-1-1.5c-1.1-1.6-2.4-3.5-2.8-6.6c-0.6-4,1-14.8,1.1-15.2c0.1-0.8,0.9-1.4,1.7-1.3c0.8,0.1,1.4,0.9,1.3,1.7
				c-0.5,3-1.5,11.4-1.1,14.3c0.4,2.4,1.4,4,2.3,5.3c0.4,0.6,0.8,1.3,1.2,1.9c1,2.1,1.1,5.3,1.2,5.6L65,98.1z"/>
		</g>
		<g>
			<path class="st1" d="M31.1,33.4c0,0-0.7-3.4-5.6-4.4s-11.1-5.7-11.1-5.7s0.5,6.6,5.2,12.2s9.3,3.5,9.3,3.5"/>
			<path class="st2" d="M26.5,40.8c-2.1,0-5-0.8-8-4.4c-4.9-5.9-5.5-12.7-5.5-12.9c0-0.5,0.2-1,0.6-1.2c0.4-0.2,1-0.2,1.4,0.1
				c0.1,0,6,4.5,10.6,5.4c5.7,1.2,6.6,5.2,6.6,5.4c0.1,0.7-0.3,1.3-1,1.5c-0.7,0.1-1.3-0.3-1.5-1c0-0.1-0.7-2.6-4.7-3.5
				c-3.2-0.7-6.7-2.7-9.1-4.2c0.6,2.3,1.8,5.7,4.4,8.7c4,4.8,7.6,3.2,7.8,3.2c0.6-0.3,1.4,0,1.7,0.6c0.3,0.6,0,1.4-0.6,1.7
				C29.2,40.3,28.1,40.8,26.5,40.8z"/>
		</g>
		<g>
			<path class="st1" d="M57.7,34.1c0,0,0.3-3.4,7.5-4.8c7.2-1.3,10.6-4,10.6-4s1,6.7-4.2,10.4s-8.8,3.2-8.8,3.2"/>
			<path class="st2" d="M63.3,40.2c-0.4,0-0.7,0-0.7,0c-0.7-0.1-1.2-0.7-1-1.4c0.1-0.7,0.8-1.2,1.4-1c0,0,3.3,0.4,7.9-3
				c2.8-2.1,3.6-5.2,3.7-7.2c-1.8,1-4.8,2.2-9.1,3c-6,1.1-6.5,3.7-6.5,3.7c-0.1,0.7-0.7,1.2-1.4,1.1c-0.7-0.1-1.1-0.7-1.1-1.3
				c0-0.4,0.7-4.4,8.6-5.9c6.8-1.2,10-3.7,10-3.8c0.4-0.3,0.8-0.4,1.2-0.2c0.4,0.2,0.7,0.5,0.8,1c0,0.3,1,7.5-4.7,11.6
				C68.1,39.8,64.7,40.2,63.3,40.2z"/>
		</g>
		<g>
			<path class="st1" d="M45.9,27.6c-25.9-0.8-17.3,29-13.4,40c3.8,10.6,17.3,12.7,22.5,1.9C60.9,57.6,71.8,28.5,45.9,27.6z"/>
			<path class="st2" d="M44.6,78.2c-0.2,0-0.5,0-0.7,0c-5.6-0.3-10.6-4.2-12.6-10c-3.3-9.3-8-26.3-1.2-35.6
				c3.2-4.4,8.6-6.6,15.9-6.3c7.4,0.2,12.6,2.7,15.4,7.4c6.4,10.5-1.4,29.1-5,36.6C53.9,75.2,49.6,78.2,44.6,78.2z M44.9,29.1
				c-5.8,0-10,1.7-12.5,5.2c-6.2,8.6-1,25.9,1.6,33c1.7,4.7,5.6,7.8,10.1,8.1c4.1,0.2,7.7-2.1,9.8-6.3c2.7-5.5,10.9-24.2,5.2-33.8
				c-2.3-3.8-6.7-5.8-13-6C45.6,29.1,45.2,29.1,44.9,29.1z"/>
		</g>
		<g>
			<path class="st2" d="M53.2,73.4c-5.5,6.6-14.4,5.5-19-1.4c0,0,4-4.4,9.9-4.3C49.9,67.7,53.2,73.4,53.2,73.4z"/>
		</g>
		<g>
			<g>
				<circle class="st3" cx="37.9" cy="40.4" r="6"/>
			</g>
			<g>
				<circle cx="38.3" cy="40.8" r="4.9"/>
			</g>
			<g>
				<circle class="st3" cx="35.9" cy="38.3" r="1.6"/>
			</g>
		</g>
		<g>
			<g>
				<circle class="st3" cx="52.4" cy="40.8" r="6"/>
			</g>
			<g>
				<circle cx="52.8" cy="41.2" r="4.9"/>
			</g>
			<g>
				<circle class="st3" cx="50.5" cy="38.6" r="1.6"/>
			</g>
		</g>
		<g>
			<polygon class="st2" points="49,96.5 50.3,90.1 61.3,89.9 63.4,96.6 			"/>
		</g>
		<g>
			<polygon class="st2" points="78.3,96.9 81,89.6 92.3,89.4 94.4,96.7 			"/>
		</g>
		<g>
			<path class="st4" d="M52.2,30.2l0.1-3.7c0,0,12.6,0,19,0.2c6.4,0.2,9.3-3.7,10-7.9c0.7-4.3-0.9-10.8-3.8-9.3s-0.5,6.8-2.1,7.5
				c-1.6,0.7-2.4-3.4-4.7-2.5c-2.3,0.9-0.9,5.3-2.5,5.5c-1.6,0.2-2-3.5-4.3-2.8s0,5.5-2.2,5.4c-2.2-0.1-8.3-0.2-10.4-0.3
				c-2.1-0.1-3.4,1.2-3.4,3s-0.1,2.1-0.1,4.8C47.7,32.8,52.2,32.7,52.2,30.2z"/>
			<path class="st2" d="M50,33.4c-0.7,0-1.4-0.2-2-0.5c-1-0.6-1.5-1.6-1.5-2.8l0.1-4.8c0-1.2,0.5-2.3,1.4-3c0.9-0.8,2-1.2,3.3-1.1
				l10.1,0.3c0-0.3,0-0.8,0-1.1c0-1.4-0.1-3.6,2-4.3c2.2-0.7,3.4,1.1,4,2c0.1,0.1,0.2,0.3,0.3,0.5c0-0.3,0.1-0.5,0.1-0.8
				c0.2-1.4,0.4-3.5,2.3-4.3c2.1-0.9,3.5,0.8,4.2,1.7c0.1,0.1,0.2,0.3,0.3,0.4c0-0.4,0-0.8,0-1.2c-0.1-1.9-0.2-4.7,2.2-5.9
				C78,7.7,79.1,7.8,80,8.5c2.4,1.8,3,7.2,2.5,10.4c-0.9,5.8-5.2,9.1-11.3,9c-5.1-0.1-14.4-0.2-17.7-0.2l-0.1,2.5
				c0,1.1-0.6,2.1-1.7,2.7C51.3,33.2,50.6,33.4,50,33.4z M51.2,23.5c-0.6,0-1.1,0.2-1.5,0.5c-0.3,0.3-0.5,0.7-0.5,1.2L49,30.1
				c0,0.4,0.1,0.5,0.3,0.6c0.3,0.2,0.9,0.2,1.3,0c0.3-0.2,0.4-0.4,0.4-0.5l0,0l0.1-3.7c0-0.7,0.6-1.2,1.3-1.2c0,0,0,0,0,0
				c0.1,0,12.7,0,19,0.2c6.9,0.2,8.4-4.8,8.7-6.9c0.5-3.3-0.4-7.2-1.5-8c-0.1-0.1-0.2-0.1-0.5,0c-0.9,0.4-0.9,1.8-0.8,3.6
				c0.1,1.6,0.1,3.3-1.4,4c-1.6,0.7-2.7-0.7-3.4-1.5c-0.9-1-1-1.1-1.3-1c-0.5,0.2-0.6,1.1-0.8,2.3c-0.1,1.3-0.4,3.1-2.1,3.3
				c-1.5,0.2-2.3-1-2.9-1.8c-0.8-1.1-0.9-1.1-1.3-1C64,18.4,64,19.5,64,20.1c0,1.1,0,2.3-0.7,3.1c-0.3,0.3-0.8,0.6-1.6,0.6
				L51.2,23.5C51.2,23.5,51.2,23.5,51.2,23.5z"/>
		</g>
		<g>
			<path class="st4" d="M38.9,29.8l0.1-3.7c0,0-12.6-0.6-19-0.8c-6.4-0.2-9.1-4.2-9.6-8.5c-0.5-4.3,1.4-10.7,4.3-9.1
				s0.1,6.8,1.7,7.6c1.6,0.8,2.6-3.3,4.8-2.2s0.6,5.3,2.2,5.6c1.6,0.3,2.2-3.4,4.5-2.6c2.3,0.8-0.3,5.5,1.9,5.5s8.3,0.2,10.4,0.3
				s3.3,1.4,3.2,3.1s-0.1,2.1-0.1,4.8C43.3,32.7,38.8,32.4,38.9,29.8z"/>
			<path class="st2" d="M41.2,33.1c0,0-0.1,0-0.1,0c-2-0.1-3.5-1.5-3.5-3.3l0,0l0.1-2.5c-3.3-0.2-12.6-0.6-17.7-0.7
				C13.8,26.4,9.8,22.8,9.2,17c-0.3-3.2,0.5-8.6,3.1-10.3c1-0.6,2.1-0.7,3.1-0.1c2.3,1.3,2.1,4.2,1.9,6c0,0.3-0.1,0.8-0.1,1.2
				c0.1-0.1,0.3-0.3,0.4-0.4c0.8-0.8,2.2-2.4,4.3-1.5c1.9,0.9,2,3,2.1,4.4c0,0.2,0,0.5,0.1,0.8c0.1-0.1,0.2-0.3,0.4-0.5
				c0.7-0.9,2-2.5,4.1-1.8c2,0.7,1.9,3,1.8,4.4c0,0.3-0.1,0.8,0,1.1l10.1,0.3c2.7,0.1,4.5,1.9,4.5,4.4L44.6,30
				C44.5,31.8,43.1,33.1,41.2,33.1z M40.1,29.9c0,0.7,1,0.8,1,0.8c0.4,0,0.9-0.1,0.9-0.7l0.1-4.8c0-1.1-0.7-1.8-2-1.8L29.8,23
				c-0.8,0-1.3-0.4-1.6-0.7c-0.7-0.8-0.7-2-0.6-3.1c0-0.6,0.1-1.7-0.1-1.8c-0.3-0.1-0.5-0.1-1.3,1c-0.6,0.8-1.5,2-3,1.7
				c-1.7-0.3-1.8-2.1-1.9-3.4c-0.1-1.2-0.2-2.1-0.6-2.3c-0.3-0.1-0.5-0.1-1.3,0.9c-0.7,0.8-1.9,2-3.5,1.3c-1.5-0.7-1.3-2.5-1.2-4
				c0.2-1.8,0.2-3.1-0.6-3.6c-0.3-0.1-0.4-0.1-0.5,0c-1.1,0.8-2.3,4.6-1.9,7.9c0.2,2.1,1.5,7.2,8.4,7.3c6.3,0.2,18.9,0.8,19,0.8
				c0.7,0,1.2,0.6,1.2,1.3L40.1,29.9z"/>
		</g>
	</g>
</g>
<g>
	<path class="st5" d="M4.5,62.7C3.6,58.9,3.1,55,3.1,51c0-26.7,21.6-48.3,48.3-48.3c3.7,0,7.3,0.4,10.7,1.2
		C72.7,6.3,44.9-1,22.4,22.2S7.2,73.4,4.5,62.7z"/>
	<path class="st6" d="M99.7,51c0,26.7-21.6,48.3-48.3,48.3c-14.7,0-27.8-6.6-36.7-16.9c-4.3-5,31.4,8.1,54.3-13.8s13-55.3,16.6-51.8
		C94.3,25.6,99.7,37.7,99.7,51z"/>
	<circle class="st7" cx="26.9" cy="33.8" r="9"/>
	<circle class="st7" cx="32.5" cy="21.4" r="3.4"/>
	
		<radialGradient id="SVGID_3_" cx="51.4" cy="2483" r="48.3" gradientTransform="matrix(1 0 0 1 0 -2432)" gradientUnits="userSpaceOnUse">
		<stop  offset="0.4322" style="stop-color:#FFFFFF;stop-opacity:0"/>
		<stop  offset="0.9846" style="stop-color:#FFFFFF;stop-opacity:0.2919"/>
		<stop  offset="1" style="stop-color:#FFFFFF;stop-opacity:0.3"/>
	</radialGradient>
	<circle class="st8" cx="51.4" cy="51" r="48.3"/>
</g>
</svg>
