<?xml version="1.0" encoding="utf-8"?>
<!-- Generator: Adobe Illustrator 20.1.0, SVG Export Plug-In . SVG Version: 6.00 Build 0)  -->
<svg version="1.1" id="Layer_1" xmlns="http://www.w3.org/2000/svg" xmlns:xlink="http://www.w3.org/1999/xlink" x="0px" y="0px"
	 viewBox="0 0 60 60" style="enable-background:new 0 0 60 60;" xml:space="preserve">
<style type="text/css">
	.st0{fill:#8C613E;stroke:#515052;stroke-width:1.933;stroke-linecap:round;stroke-miterlimit:10;}
	.st1{fill:#515052;}
	.st2{fill:#8C613E;stroke:#515052;stroke-width:1.933;stroke-linecap:round;stroke-linejoin:round;stroke-miterlimit:10;}
	.st3{fill:#8C613E;stroke:#515052;stroke-width:1.933;stroke-miterlimit:10;}
	.st4{fill:#8C613E;stroke:#515052;stroke-width:1.5942;stroke-linecap:round;stroke-linejoin:round;stroke-miterlimit:10;}
	.st5{fill:#8C613E;stroke:#515052;stroke-width:1.8299;stroke-miterlimit:10;}
	.st6{fill:#FFFFFF;}
	.st7{fill:#E2C2AA;stroke:#515052;stroke-width:1.5942;stroke-linecap:round;stroke-linejoin:round;stroke-miterlimit:10;}
</style>
<path class="st0" d="M47.3,36.6c0,0-0.1,12.2,0.2,13.6c0.1,0.6,1,2.1,1.2,3.1s0.3,3.6,0.3,3.6h-9c0,0,0-2.2,0.9-3.7
	c0.8-1.5,1.8-1.8,2.3-3.7S42,38.3,42,38.3"/>
<polygon class="st1" points="40.1,56.9 41.3,52.6 48.4,52.3 49.1,56.9 "/>
<path class="st0" d="M24.8,33.7l-1,9.4c0,0,1,5.4,0.2,7.5c-0.4,1-1.5,2.2-2,3.5c-0.5,1.4-0.5,2.8-0.5,2.8l8.2,0.1
	c0,0,0.1-1.3-0.2-2.8c-0.3-1.2-1.2-2.5-1.2-3.8c0-2.8,1.4-14.5,1.4-14.5"/>
<polygon class="st1" points="21.6,56.8 22.8,52.3 28.8,52.3 29.7,56.9 "/>
<path class="st2" d="M53.4,26.6c4.9,2.2,5.5,8.9,5.5,8.9l-1.7-0.7L57,38.4l-2.1-2.5L54,37.7c0,0-0.5-2.6-2.7-6
	C49,28.2,44.9,25,44.9,25S48.5,24.4,53.4,26.6z"/>
<ellipse transform="matrix(7.173605e-02 -0.9974 0.9974 7.173605e-02 0.2294 64.3982)" class="st3" cx="34.7" cy="32.1" rx="9.8" ry="19.4"/>
<path class="st0" d="M53.1,33.8c0,0-0.9,15.3-0.6,16.9c0.2,1.7,1.4,2.6,2,4.1C55,56.3,55,58,55,58l-10.3,0.1c0,0-0.2-1.6,0.4-2.7
	c0.6-1.2,1.7-2.1,2.4-4.2c0.7-2.1,0.1-13,0.1-13"/>
<path class="st0" d="M26.7,40.2c0,0,1.3,7.8,1.4,9.8c0.1,2.1-1.1,3.4-1.6,4.8c-0.5,1.4-0.4,3-0.4,3l9.2,0.1c0,0,0-2-0.6-3.2
	c-0.6-1.2-2-2.4-2.3-4.9C32,47.4,33,40.5,33,40.5"/>
<path class="st4" d="M14.7,17.7c0,0-0.4-2.1-3.6-2.8c-3.2-0.7-7.1-3.6-7.1-3.6s0.3,4.2,3.3,7.8s5.9,2.2,5.9,2.2"/>
<path class="st4" d="M31.6,18.1c0,0,0.2-2.2,4.8-3c4.6-0.8,6.7-2.6,6.7-2.6s0.6,4.2-2.7,6.6c-3.3,2.4-5.6,2-5.6,2"/>
<path class="st5" d="M24.2,14c-16.4-0.5-11,18.4-8.5,25.5c2.4,6.8,11,8.1,14.3,1.2C33.7,33.1,40.6,14.6,24.2,14z"/>
<path class="st1" d="M28.8,43.1c-3.5,4.2-9.1,3.5-12.1-0.9c0,0,2.6-2.8,6.3-2.7C26.7,39.5,28.8,43.1,28.8,43.1z"/>
<g>
	<circle class="st6" cx="19" cy="22.2" r="3.8"/>
	<circle cx="19.3" cy="22.4" r="3.1"/>
	<circle class="st6" cx="17.8" cy="20.8" r="1"/>
</g>
<g>
	<circle class="st6" cx="28.3" cy="22.4" r="3.8"/>
	<circle cx="28.5" cy="22.6" r="3.1"/>
	<circle class="st6" cx="27.1" cy="21" r="1"/>
</g>
<polygon class="st1" points="26.1,57.8 27,53.8 34,53.6 35.3,57.9 "/>
<polygon class="st1" points="44.7,58.1 46.4,53.4 53.6,53.3 55,58 "/>
<path class="st7" d="M28.2,15.7l0.1-2.4c0,0,8,0,12.1,0.1s5.9-2.3,6.4-5c0.4-2.7-0.6-6.9-2.4-5.9c-1.9,0.9-0.3,4.3-1.3,4.8
	c-1,0.4-1.5-2.2-3-1.6c-1.4,0.6-0.6,3.4-1.6,3.5c-1,0.1-1.3-2.2-2.8-1.8c-1.5,0.4,0,3.5-1.4,3.4c-1.4,0-5.3-0.1-6.6-0.2
	c-1.3,0-2.1,0.8-2.2,1.9s0,1.3-0.1,3.1C25.3,17.3,28.1,17.3,28.2,15.7z"/>
<path class="st7" d="M19.7,15.4l0.1-2.4c0,0-8-0.4-12.1-0.5S1.9,9.9,1.6,7.2s0.9-6.8,2.7-5.8s0.1,4.3,1.1,4.8S7,4.2,8.5,4.8
	s0.4,3.4,1.4,3.6c1,0.2,1.4-2.2,2.9-1.6s-0.2,3.5,1.2,3.5c1.4,0,5.3,0.1,6.6,0.2c1.3,0,2.1,0.9,2.1,2s0,1.3-0.1,3.1
	S19.6,17.1,19.7,15.4z"/>
</svg>
