<?xml version="1.0" encoding="utf-8"?>
<!-- Generator: Adobe Illustrator 20.1.0, SVG Export Plug-In . SVG Version: 6.00 Build 0)  -->
<svg version="1.1" id="Layer_1" xmlns="http://www.w3.org/2000/svg" xmlns:xlink="http://www.w3.org/1999/xlink" x="0px" y="0px"
	 viewBox="0 0 60 60" style="enable-background:new 0 0 60 60;" xml:space="preserve">
<style type="text/css">
	.st0{stroke:#414042;stroke-width:2;stroke-miterlimit:10;}
	.st1{fill:#FFFFFF;stroke:#414042;stroke-width:2;stroke-miterlimit:10;}
	.st2{fill:none;stroke:#414042;stroke-width:2;stroke-miterlimit:10;}
	.st3{fill:#FFFFFF;}
</style>
<path class="st0" d="M49.7,55.7H10c-1.5,0-2.8-1.2-2.8-2.8v-8.8c0-8.2,6.6-14.8,14.8-14.8h15.7c8.2,0,14.8,6.6,14.8,14.8v8.8
	C52.5,54.5,51.3,55.7,49.7,55.7z"/>
<path class="st1" d="M55.6,11.9c0-4.5-3.7-8.2-8.2-8.2c-2.3,0-4.4,1-5.9,2.5c-3.4-2.3-7.5-3.7-12-3.7c-4.3,0-8.3,1.3-11.6,3.5
	c-1.5-1.4-3.4-2.3-5.6-2.3c-4.5,0-8.2,3.7-8.2,8.2c0,3.3,1.9,6.1,4.7,7.4c-0.3,1.4-0.5,2.9-0.5,4.4c0,9.5,4.5,17.4,21.2,17.4
	s21.2-7.3,21.2-17.4c0-1.4-0.1-2.8-0.4-4.2C53.4,18.3,55.6,15.3,55.6,11.9z"/>
<path d="M8.8,19.2c-2.8-1.3-4.7-4.1-4.7-7.4c0-4.5,3.7-8.2,8.2-8.2c2.2,0,4.2,0.9,5.6,2.3l-0.1,1.4c0,0-2.2,3.8-3.8,6.1
	s-3.9,5.1-3.9,5.1L8.8,19.2z"/>
<path d="M50.6,19.6c2.8-1.3,4.7-4.1,4.7-7.4c0-4.5-3.7-8.2-8.2-8.2C45,4,43,4.9,41.5,6.3l0.1,1.4c0,0,2.2,3.8,3.8,6.1
	c1.6,2.3,3.9,5.1,3.9,5.1L50.6,19.6z"/>
<path class="st0" d="M21,48.8c4.1,0,7.4,3.3,7.4,7.4v0.5c0,0.5-0.4,0.9-0.9,0.9H15.7c-1.6,0-2.8-1.3-2.8-2.8c0,0-0.5-1.2,0-6
	s2.7-10.7,2.7-10.7"/>
<path class="st0" d="M38.4,48.8c-4.1,0-7.4,3.3-7.4,7.4v0.5c0,0.5,0.4,0.9,0.9,0.9h11.8c1.6,0,2.8-1.3,2.8-2.8c0,0,0.3-0.7,0-6
	s-2-11.2-2-11.2"/>
<path d="M28.2,28.1L26.7,26c-0.3-0.5,0-1.2,0.6-1.2h5c0.6,0,1,0.7,0.6,1.2l-1.4,2.1C30.7,29.3,29,29.3,28.2,28.1z"/>
<path d="M27.9,14c2.1,3.8-2.2,5.7-5.9,7.8s-7.1,4.4-9.2,0.6s0.4-6.6,4.1-8.7S25.8,10.3,27.9,14z"/>
<path d="M31.5,14c-2.1,3.8,2.2,5.7,5.9,7.8c3.8,2.1,7.1,4.4,9.2,0.6c2.1-3.8-0.4-6.6-4.1-8.7S33.6,10.3,31.5,14z"/>
<path class="st2" d="M55.6,11.9c0-4.5-3.7-8.2-8.2-8.2c-2.3,0-4.4,1-5.9,2.5c-3.4-2.3-7.5-3.7-12-3.7c-4.3,0-8.3,1.3-11.6,3.5
	c-1.5-1.4-3.4-2.3-5.6-2.3c-4.5,0-8.2,3.7-8.2,8.2c0,3.3,1.9,6.1,4.7,7.4c-0.3,1.4-0.5,2.9-0.5,4.4c0,9.5,4.5,17.4,21.2,17.4
	s21.2-7.3,21.2-17.4c0-1.4-0.1-2.8-0.4-4.2C53.4,18.3,55.6,15.3,55.6,11.9z"/>
<g>
	<circle class="st3" cx="21.3" cy="17.2" r="3.4"/>
	<circle cx="21.5" cy="17.4" r="2.7"/>
	<circle class="st3" cx="20.2" cy="16" r="0.9"/>
</g>
<g>
	<circle class="st3" cx="38.2" cy="17.2" r="3.4"/>
	<circle cx="38.4" cy="17.4" r="2.7"/>
	<circle class="st3" cx="37.1" cy="16" r="0.9"/>
</g>
</svg>
