<?xml version="1.0" encoding="utf-8"?>
<!-- Generator: Adobe Illustrator 20.1.0, SVG Export Plug-In . SVG Version: 6.00 Build 0)  -->
<svg version="1.1" id="Layer_1" xmlns="http://www.w3.org/2000/svg" xmlns:xlink="http://www.w3.org/1999/xlink" x="0px" y="0px"
	 viewBox="0 0 994 1007.9" style="enable-background:new 0 0 994 1007.9;" xml:space="preserve">
<style type="text/css">
	.st0{fill:#E6E7E8;stroke:#BCBEC0;stroke-width:16;stroke-miterlimit:10;}
	.st1{fill:#15BAFF;}
	.st2{fill:#0888B5;}
	.st3{fill:#00D48A;}
	.st4{fill:none;stroke:#FFFFFF;stroke-width:18;stroke-linecap:round;stroke-linejoin:round;stroke-miterlimit:10;}
</style>
<path class="st0" d="M797.7,966.5H196.3c-27.8,0-50.3-22.5-50.3-50.3v-824c0-27.8,22.5-50.3,50.3-50.3h601.5
	c27.8,0,50.3,22.5,50.3,50.3v824C848,944,825.5,966.5,797.7,966.5z"/>
<g>
	<path class="st1" d="M114.2,165.9C47.8,174,12,181.8,12,181.8L29.1,241L12,299.1c0,0,29.1-6.3,83.3-13.5c11-1.5,19.3-10.9,19.2-22
		L114.2,165.9z"/>
	<path class="st2" d="M110.2,276.9c5.2-6.6,4.3-16,4.3-16l-0.3-95c-31.3,3.8-38.7,4.7-55.8,7.6l7.6,83.7c0,0,2,4.9,25,8.1
		C114,268.3,105,283.5,110.2,276.9z"/>
	<path class="st1" d="M880.5,165.9c66.4,8.2,102.2,15.9,102.2,15.9L963.6,238l19.2,61.2c0,0-29.1-6.3-83.3-13.5
		c-11-1.5-19.3-10.9-19.2-22L880.5,165.9z"/>
	<path class="st2" d="M884.6,276.9c-5.2-6.6-4.3-16-4.3-16l0.3-95c31.3,3.8,38.7,4.7,55.8,7.6l-7.6,83.7c0,0-2,4.9-25,8.1
		C880.8,268.3,889.8,283.5,884.6,276.9z"/>
	<path class="st1" d="M928,144.9c0-3-2.1-5.6-5-6.1c-29.1-5.7-183.3-33.6-426-33.6S100.2,133,71,138.7c-2.9,0.6-5,3.1-5,6.1v112.3
		c0,0,160.5-34.6,431-34.6s431,34.6,431,34.6V144.9z"/>
</g>
<g>
	<circle class="st3" cx="794.1" cy="913.6" r="92"/>
	<polyline class="st4" points="737.1,907.6 779.8,950.3 852.6,877.6 	"/>
</g>
</svg>
