<?xml version="1.0" encoding="utf-8"?>
<!-- Generator: Adobe Illustrator 20.1.0, SVG Export Plug-In . SVG Version: 6.00 Build 0)  -->
<svg version="1.1" id="Layer_1" xmlns="http://www.w3.org/2000/svg" xmlns:xlink="http://www.w3.org/1999/xlink" x="0px" y="0px"
	 viewBox="0 0 1029 1060.9" style="enable-background:new 0 0 1029 1060.9;" xml:space="preserve">
<style type="text/css">
	.st0{fill:#E6E7E8;stroke:#BCBEC0;stroke-width:16;stroke-miterlimit:10;}
	.st1{fill:#0888B5;}
	.st2{fill:#15BAFF;}
	.st3{fill:#231F20;}
</style>
<path class="st0" d="M806.3,1041H204.8c-27.8,0-50.3-22.5-50.3-50.3V172.3c0-27.8,22.5-50.3,50.3-50.3h601.5
	c27.8,0,50.3,22.5,50.3,50.3v818.5C856.5,1018.5,834,1041,806.3,1041z"/>
<g>
	<path class="st1" d="M1015.1,81.3c-4.5-11.6-12.9-20.4-24.4-25.2c-6.3-2.7-12.7-4-18.9-4c-8.7,0-17,2.6-24.7,7.7
		c-9.8,6.5-17.5,16.2-23,29c-0.8,1.9-1.6,3.9-2.3,6c-1.6-4.1-4.4-8-8.2-11.3c-6-5.2-14.8-9.4-26.8-12.7c-9-2.5-17-3.7-24.2-3.7
		c-2.9,0-5.7,0.2-8.4,0.6c-5.4,0.8-9.7,2.4-13.1,4.4c-2.4-4.9-6.3-9.4-11.7-13.1c-6.5-4.6-15.3-8.4-26.9-11.6
		c-14.7-4.1-28.3-6.7-40.6-7.8c-3.2-0.3-6.2-0.4-9-0.4c-7.5,0-18.7,1.2-26.9,7.6c-1.1-2-2.2-3.8-3.5-5.5l-0.1-0.1
		c-7.3-9.4-17.7-15.1-30.3-16.6c-2-0.2-4-0.4-6-0.4c-6.7,0-15.4,1.4-24.4,6.9c-0.3-0.8-0.7-1.6-1.2-2.3c-5.2-8.7-16-10-20-10.5
		l-0.1,0c-3.6-0.4-7.5-0.6-11.5-0.6c-9,0-19.3,1-30.7,3c-13,2.2-22.5,5-29.1,8.5c-2.7,1.4-5,3.1-7.1,5c-2.3-4.7-5.2-8.7-8.5-12.1
		l-0.1-0.1c-8.2-8-19-12.3-31.2-12.3c-0.4,0-0.7,0-1.1,0c-8.4,0.2-19.2,2.4-29.2,10.6c-0.5-0.8-0.9-1.5-1.5-2.1
		c-5.5-6.8-14-7.6-20-7.6c-0.4,0-0.9,0-1.3,0l-0.1,0c-11.8,0.3-25.4,3-41.5,8.2c-12.6,4-21.6,8.1-27.6,12.5
		c-8.5,6.2-13.1,14.9-12.9,24.3c0,0.8,0.1,1.6,0.2,2.4c-8.9-11-19.7-19.5-32.2-25.2c-11.9-5.4-24.7-8.2-38.1-8.2
		c-6,0-12.1,0.6-18.4,1.6c-28.2,5-51.2,18-68.1,38.6c-10.2,12.3-16.5,25.9-18.9,40.5c-6.3-6.5-14.6-12.2-25.6-16.3
		c3.9-3.3,6.9-7.5,8.9-12.6c3-7.9,3.1-16.5,0-24.9c-4.2-11.5-12.7-21.9-25.4-30.8c-10.4-7.3-19.7-10.9-28.3-10.9
		c-3.4,0-6.6,0.6-9.7,1.7c-3.3,1.2-6.2,2.9-8.8,5.1c-1.5,1.2-2.5,2.1-3.3,2.6c-18.2,0.9-32.2,3.3-42.9,7.1
		c-25,9-43.9,24.3-56.2,45.5c-5.8,9.7-9.4,20.2-10.6,31.1c-1.2,11.1,0,21.8,3.6,31.8c5.4,15,15.3,27.1,29.5,36
		c-4.9,3.2-8.5,8-10.4,13.9c-2.1,6.2-1.7,13.2,1,20.8c3.9,10.7,9.9,21.1,17.9,30.8c9.3,11.2,17.7,17.4,26.4,19.6l0.2,0
		c4.4,1,9.5,1.5,15.4,1.5c6.1,0,13.2-0.6,21.2-1.6c14.7-2,28.5-5.3,40.9-9.8c28.8-10.4,50.2-26.4,63.5-47.3
		c4.9-7.7,8.4-15.6,10.5-23.6c5,6,11,11.3,18,15.7c14.1,9,30.3,13.6,48.1,13.6c6.6,0,13.5-0.6,20.5-1.9
		c26.2-4.6,48.5-16.7,66.2-35.9c2.1-2.3,4.1-4.7,6-7c2.3,10.1,9.9,17.9,21.8,21.6c9.4,3,21.8,4.4,37.7,4.4c1.8,0,3.7,0,5.7-0.1
		c19-0.4,33.1-1.7,43.4-4.1c7.6-1.7,13.8-5.3,18.6-10.5c5.3-5.8,8-13,7.9-20.7c-0.1-6.2-2.7-21.4-24.1-27.4c0,0-0.3-0.1-0.4-0.1
		c-0.5-3.4-1.1-10.1-1.4-22.8c1.1,0.6,2.1,1.2,3.1,1.7c5.2,2.6,11.3,3.9,18.2,3.9c0.4,0,0.7,0,1.1,0c12.8-0.3,23.7-4.8,32.5-13.4
		c4.7-4.5,8.5-10.2,11.3-16.8c0,0,0-0.1,0-0.1c1.3,1,2.6,1.9,3.7,2.6c0,0.2-0.1,0.5-0.1,0.8c-3.3,27.8-5.9,39.9-7.5,45.1l-0.1,0.2
		c-0.3,0.2-0.8,0.4-1.4,0.7l-0.3,0.1c-13.4,7-17.2,16.8-18.1,23.7c-1.6,13,5.2,24.1,18.5,30.5c9.9,4.7,23.8,8.1,42.4,10.3
		c13.3,1.6,24.5,2.4,33.5,2.4c3.7,0,7-0.1,10-0.4c7.7-0.7,14.4-3.3,19.9-7.8c6.1-5,9.7-11.7,10.7-19.4c0.7-6.2,0.3-21.6-20.1-30.4
		c0,0-0.3-0.1-0.4-0.2c0-3.5,0.3-10.1,1.8-22.8c1,0.8,1.9,1.5,2.8,2.1c5.1,3.5,11.3,5.7,18.5,6.5c2.1,0.2,4.2,0.4,6.2,0.4
		c10.2,0,19.6-3.1,27.8-9.2c5.3-3.8,9.8-8.9,13.5-15.1c1-1.7,1.9-3.5,2.7-5.2c2.4,2.1,3.5,3.3,4,3.9c0.4,1.1,1.2,4.1,2.5,11.3
		l11.4,66.6c-3.8-2.8-8.2-5-13.2-6.4c-3.5-1-7.1-1.5-10.6-1.5c-7,0-13.7,1.9-19.9,5.7c-9.1,5.5-15.5,14.1-18.5,24.8
		c-3.5,12.8-1.4,25.3,6,36.3c8.5,12.5,21.5,21.2,38.6,25.9c7.4,2,14.8,3.1,22.1,3.1c12.8,0,25.2-3.2,36.9-9.5
		c8.5-4.6,16.8-10.7,24.5-18.3c7.3-7.2,15.3-16.8,23.7-28.7l32-45c10.5-14.6,16.7-21.2,20-24.1c1.2-1.1,2.5-1.6,4.2-1.8
		c8.2-0.6,14.2-2.1,18.9-4.9c1.8-1.1,3.4-2.3,4.8-3.7c-1.3,11.3-1.4,22.6-0.3,33.5c0.8,7.5,1.8,14.1,3.5,19.7
		c-5.8,0.1-11.6,1.4-17.3,3.9c-11,4.6-19.2,12.9-24,24c-5.1,12-5.1,24.6,0,36.4c4.7,11,13.1,19.2,24.2,24c5.8,2.5,11.8,3.7,17.8,3.7
		c5.9,0,11.8-1.2,17.6-3.6c11.6-4.7,20.3-13.3,25.2-24.7c4.7-11.1,4.9-23,0.4-34.5c-2.1-5.6-5.1-10.5-8.9-14.6
		c3.7-1.7,7.8-4.1,12.4-7.2c9.7-6.6,18.9-15.1,27.3-25.1c8.4-10.1,14.9-20.4,19.3-30.7C1019.8,111.5,1020.7,95.5,1015.1,81.3z"/>
	<path class="st2" d="M81.8,40.3c9.2-3.3,22.2-5.4,38.8-6.3c2-0.1,3.5-0.4,4.6-0.8c0.9-0.3,3.3-2.1,7.2-5.3c1.2-1.1,2.7-1.9,4.3-2.5
		c6-2.2,14.1,0.3,24.2,7.4c10.1,7.1,16.8,15,19.9,23.6c1.8,5,1.9,9.8,0.1,14.4c-1.8,4.5-4.8,7.6-9.1,9.2c-3.6,1.3-6.8,1.6-9.5,1
		c-2.8-0.6-9.2-3.1-19.4-7.4c-14.4-6.2-26.8-7.4-37.2-3.6c-5,1.8-8.6,4.5-10.7,8c-2.1,3.5-2.5,7.2-1.1,11.2
		c2.8,7.8,11.8,11.2,27,10.2c20.6-1.2,33.9-1.6,40-0.9c26.9,2.8,44.3,15.1,52.1,36.7c6.9,19.1,4.8,37.6-6.5,55.3
		c-11.5,18.2-30.1,31.9-55.9,41.2c-11.5,4.2-24.1,7.2-37.8,9c-13.7,1.9-24.1,2-31.1,0.4c-5.3-1.3-11.5-6.2-18.4-14.6
		c-6.9-8.4-12.1-17.2-15.4-26.3c-1.6-4.4-1.9-8-0.9-10.9c1.2-3.7,3.5-6.1,6.9-7.4c3.4-1.2,7.3-0.7,11.7,1.7c2.6,1.3,9.3,6,20.2,14.2
		c5.1,3.8,11.9,6.1,20.4,6.8c8.4,0.7,16.5-0.3,24.2-3.1c6.6-2.4,11.6-5.6,14.8-9.6c3.2-4,4.2-7.9,2.8-11.7c-1.3-3.6-4-6.1-8.2-7.5
		c-4.2-1.4-10.3-2-18.4-1.6c-14.3,0.6-25.4,0.4-33.4-0.5c-8-0.9-15.8-2.9-23.5-5.9c-18.7-7.4-31-19.1-36.8-35.1
		c-2.9-7.9-3.8-16.3-2.8-25.1c1-8.8,3.8-17.2,8.6-25.1C44,61.2,60.1,48.2,81.8,40.3z"/>
	<path class="st2" d="M301.2,40.8c17.2-3,33.1-1.2,47.6,5.4c10.4,4.8,19.4,11.8,26.8,21c7.7,9.7,12.6,20.4,14.7,32
		c3.6,20.4-2.7,39.4-18.9,57c-15.5,16.8-34.7,27.2-57.8,31.2c-22.5,4-41.8,0.8-58-9.6c-15.7-10-25.3-25-28.8-45
		c-3.9-22.2,1.2-41.8,15.2-58.8C256.8,56.2,276.5,45.1,301.2,40.8z M295.7,75.3c-4.1,0.7-7.2,2.8-9.1,6.3c-2,3.5-2.5,7.8-1.6,12.9
		c1,5.6,3.4,13.1,7.2,22.5c3.8,9.4,7.9,17.5,12.1,24.6c4.3,7.2,9.7,10.2,16.3,9.1c8.4-1.5,11.6-7.5,9.8-18.1
		c-1.4-7.9-4-16.7-7.9-26.4c-3.9-9.7-7.9-17.4-12-23.2C306.2,77.1,301.3,74.5,295.7,75.3z"/>
	<path class="st2" d="M469.6,25.4c5.1-0.1,8.2,0.6,9.3,2c1.1,1.4,2.2,6,3.2,13.7c0.6,4.2,2.1,6.3,4.6,6.2c1.9,0,3.7-1.5,5.4-4.3
		c7.4-12.1,17.3-18.3,29.6-18.5c8.7-0.2,15.9,2.5,21.5,8c2.7,2.7,5,6.2,6.8,10.5c1.8,4.3,2.7,8.5,2.8,12.5c0.1,4.5-0.9,9.1-2.9,13.9
		c-2,4.8-4.6,8.7-7.9,11.8c-6,5.9-13.4,9-22.3,9.2c-4.9,0.1-9-0.7-12.3-2.3c-3.3-1.7-7.7-5-13.2-10.2c-2-2-3.9-2.9-5.6-2.9
		c-2.7,0.1-4.4,1.6-5.1,4.6c-0.8,3-1,9.4-0.8,19c0.3,14.4,1,24.2,2.2,29.5c0.7,2.9,1.7,4.8,2.9,5.9c1.2,1.1,3.8,2.1,7.7,3.2
		c8.6,2.4,13,6.8,13.2,13.2c0.1,3.9-1.2,7.4-3.9,10.3c-2.7,3-6.3,5-10.9,6c-9.1,2.1-22.6,3.3-40.3,3.7c-16.9,0.3-29.8-0.9-38.6-3.7
		c-7.9-2.5-11.9-7.1-12-13.7c-0.1-5,2.7-9.5,8.3-13.5c2.7-1.9,4.6-3.6,5.6-5.1c1-1.5,1.7-3.5,2-6.1c1.4-8.7,1.8-24.8,1.3-48.3
		c-0.1-4.3-0.6-7.4-1.6-9.2c-1-1.8-2.9-3.3-5.8-4.4c-6.8-2.5-10.3-6.3-10.4-11.4c-0.1-4.6,2.2-8.6,6.8-12
		c4.6-3.4,12.4-6.8,23.3-10.3C446.8,28.1,459.3,25.7,469.6,25.4z"/>
	<path class="st2" d="M638.9,32.9c5,0.6,8,1.7,8.9,3.2c0.9,1.6,1.4,6.2,1.3,14c0,4.2,1.2,6.5,3.7,6.8c1.9,0.2,3.9-0.9,5.9-3.5
		c9-10.9,19.6-15.7,31.8-14.2c8.6,1,15.4,4.7,20.2,10.9c2.3,3.1,4.1,6.9,5.3,11.4c1.2,4.5,1.6,8.8,1.1,12.7
		c-0.5,4.5-2.1,8.9-4.8,13.4c-2.6,4.4-5.8,8-9.5,10.6c-6.8,5.1-14.5,7.1-23.4,6c-4.8-0.6-8.8-1.9-11.9-4c-3.1-2.1-6.9-6.1-11.6-11.9
		c-1.8-2.2-3.5-3.4-5.2-3.6c-2.7-0.3-4.6,1-5.7,3.9c-1.2,2.9-2.3,9.1-3.5,18.7c-1.7,14.3-2.4,24.1-1.9,29.5c0.3,2.9,1,5,2.1,6.2
		c1.1,1.2,3.5,2.6,7.2,4.2c8.2,3.6,12,8.5,11.2,14.9c-0.5,3.9-2.2,7.1-5.3,9.7c-3.1,2.6-7,4-11.6,4.5c-9.3,0.8-22.8,0.2-40.4-1.9
		c-16.8-2-29.4-5-37.7-9c-7.5-3.6-10.8-8.6-10-15.2c0.6-4.9,4-9,10.1-12.2c3-1.5,5.1-2.9,6.3-4.2c1.2-1.3,2.2-3.3,2.9-5.8
		c2.5-8.4,5.2-24.3,8-47.7c0.5-4.3,0.4-7.4-0.3-9.3c-0.7-2-2.4-3.7-5.2-5.2c-6.4-3.5-9.3-7.7-8.7-12.7c0.5-4.6,3.3-8.2,8.4-10.9
		c5-2.7,13.2-5,24.5-7C616,32.5,628.7,31.8,638.9,32.9z"/>
	<path class="st2" d="M855.3,149.6l-32.1,45.1c-7.9,11.2-15.3,20.1-22,26.7c-6.7,6.6-13.8,11.9-21.1,15.8
		c-15.1,8.1-31.1,9.8-47.9,5.2c-13.6-3.8-23.7-10.4-30.2-19.9c-5-7.3-6.3-15.3-4-23.8c2-7.1,5.9-12.4,11.8-16
		c5.9-3.6,12.1-4.4,18.8-2.6c6.6,1.8,11.4,5.5,14.2,11.1c1.4,2.6,2.2,4.7,2.4,6.5c0.2,1.7,0.2,5.5,0,11.2c-0.1,4.3,1.6,7,5.2,8
		c2.9,0.8,5.6,0.2,8.2-1.7c2.6-2,4.4-4.8,5.5-8.4c1.2-4.3,0.8-12.2-1.2-23.7l-13.7-80c-1.5-8.3-2.8-13.7-4.1-16
		c-1.2-2.3-4.5-5.6-9.7-10c-1.6-1.2-2.8-3.1-3.6-5.7c-0.7-2.5-0.8-4.8-0.3-6.8c2.3-8.2,11.9-11.5,29-10c11.4,1.1,24,3.5,37.9,7.4
		c9.8,2.7,17.2,5.8,22.2,9.4c6.8,4.8,9.3,10.4,7.5,16.8c-0.6,2.3-2.4,4.7-5.4,7.3c-2.8,2.4-4.6,4.7-5.2,7c-0.6,2.2-0.8,4.6-0.5,7.3
		c0.3,2.7,1.2,7.3,2.8,13.8c1.7,7.4,3.9,11.5,6.6,12.2c2.9,0.8,6.6-1.2,11.2-6c4.6-4.8,7.6-9.9,9.1-15.1c1.2-4.2,1-8-0.6-11.3
		C843.9,98,843.2,94,844,91c1.3-4.7,5.5-7.6,12.5-8.7c7-1.1,15.8-0.2,26.3,2.7c19.5,5.4,28,12.8,25.4,22.2c-0.9,3.4-2.7,5.9-5.2,7.4
		c-2.6,1.5-6.7,2.5-12.5,2.9c-4.9,0.4-9.1,2.2-12.8,5.4C871.9,128,864.4,136.9,855.3,149.6z"/>
	<path class="st2" d="M932.5,194.7c7.6,3.2,13,8.9,16,16.9c3.1,7.9,3,15.7-0.2,23.2c-3.3,7.8-9,13.4-17,16.6c-8,3.3-16,3.3-23.8-0.1
		c-7.6-3.2-13.1-8.6-16.3-16.1c-3.5-8.1-3.5-16.3,0-24.6c3.2-7.6,8.6-13,16-16.1C915.5,191.1,924,191.1,932.5,194.7z M984.8,69.9
		c7.8,3.3,13.3,9,16.3,16.9c4.2,10.5,3.4,22.5-2.4,36c-3.8,9-9.5,17.9-17,26.9c-7.5,9-15.6,16.4-24.2,22.3
		c-9.8,6.6-16.5,9.2-20.1,7.7c-3.5-1.5-6-9.4-7.4-23.9c-1.1-10.6-0.9-21.5,0.5-32.5c1.4-11,3.9-20.6,7.3-28.8
		c4.3-10,10.1-17.5,17.4-22.3C964.4,66.2,974.2,65.4,984.8,69.9z"/>
</g>
<g>
	<g>
		<path class="st3" d="M238.8,825l-14.4-22.4h4.4l11.9,18.6l12.2-18.6h4.1L242.5,825v16.9h-3.7V825z"/>
		<path class="st3" d="M259.5,829.1c0-2,0.3-3.8,1-5.4s1.6-3.1,2.8-4.3c1.2-1.2,2.6-2.1,4.3-2.8s3.5-1,5.4-1c2,0,3.8,0.3,5.4,1
			c1.6,0.7,3.1,1.6,4.3,2.8c1.2,1.2,2.1,2.6,2.8,4.3s1,3.5,1,5.4s-0.3,3.8-1,5.4c-0.7,1.6-1.6,3.1-2.8,4.3c-1.2,1.2-2.6,2.1-4.3,2.8
			c-1.6,0.7-3.5,1-5.4,1c-2,0-3.8-0.3-5.4-1s-3.1-1.6-4.3-2.8c-1.2-1.2-2.1-2.6-2.8-4.3C259.9,832.9,259.5,831.1,259.5,829.1z
			 M262.9,829.1c0,1.4,0.2,2.8,0.7,4.1c0.5,1.3,1.1,2.4,2,3.3c0.9,0.9,2,1.7,3.2,2.2c1.3,0.6,2.7,0.8,4.2,0.8c1.6,0,3-0.3,4.2-0.8
			c1.3-0.6,2.3-1.3,3.2-2.2c0.9-0.9,1.6-2.1,2-3.3c0.5-1.3,0.7-2.6,0.7-4.1c0-1.4-0.2-2.8-0.7-4.1c-0.5-1.3-1.1-2.4-2-3.3
			c-0.9-0.9-2-1.7-3.2-2.2c-1.3-0.6-2.7-0.8-4.2-0.8c-1.6,0-3,0.3-4.2,0.8c-1.3,0.6-2.3,1.3-3.2,2.2c-0.9,0.9-1.6,2.1-2,3.3
			C263.1,826.3,262.9,827.7,262.9,829.1z"/>
		<path class="st3" d="M315.7,834.7c0,0.5,0,1.1,0.1,1.7c0,0.7,0.1,1.4,0.1,2.1c0,0.7,0,1.4,0.1,2c0,0.6,0.1,1.1,0.1,1.4h-3.3
			c0-1-0.1-1.9-0.1-2.8c0-0.9-0.1-1.5-0.1-1.7h-0.2c-0.7,1.4-1.8,2.6-3.3,3.6c-1.6,1-3.4,1.5-5.4,1.5c-2,0-3.6-0.3-4.9-0.9
			c-1.3-0.6-2.3-1.5-3-2.5c-0.7-1-1.2-2.2-1.5-3.5c-0.3-1.3-0.4-2.7-0.4-4.1v-15.3h3.3v15.1c0,1,0.1,2,0.3,3c0.2,1,0.5,1.9,1,2.6
			c0.5,0.8,1.1,1.4,1.9,1.9s1.9,0.7,3.2,0.7c1.2,0,2.4-0.2,3.5-0.6c1.1-0.4,2-1.1,2.8-1.9c0.8-0.9,1.4-2,1.9-3.3
			c0.5-1.3,0.7-2.9,0.7-4.6v-12.8h3.3V834.7z"/>
		<path class="st3" d="M339.2,823.5c0-0.5,0-1.1-0.1-1.7c0-0.7-0.1-1.4-0.1-2.1c0-0.7,0-1.4-0.1-2c0-0.6-0.1-1.1-0.1-1.4h3.3
			c0,1,0.1,1.9,0.1,2.8c0,0.9,0.1,1.5,0.1,1.7c0.9-1.5,1.9-2.8,3.3-3.7c1.3-1,3-1.4,4.9-1.4c0.3,0,0.7,0,1,0.1
			c0.3,0.1,0.6,0.1,1,0.2l-0.4,3.3c-0.4-0.1-0.9-0.2-1.3-0.2c-1.4,0-2.7,0.2-3.7,0.7c-1.1,0.5-1.9,1.1-2.6,1.9
			c-0.7,0.8-1.2,1.8-1.5,2.9c-0.3,1.1-0.5,2.3-0.5,3.5v14h-3.3V823.5z"/>
		<path class="st3" d="M377.7,831.2c0,1.3,0,2.4,0,3.4c0,1,0,1.9,0.1,2.8c0,0.9,0.1,1.6,0.1,2.4s0.1,1.5,0.2,2.2H375
			c-0.2-1.3-0.3-2.6-0.3-4.2h-0.1c-1,1.7-2.2,2.9-3.6,3.7c-1.4,0.8-3.2,1.2-5.4,1.2c-1.1,0-2.2-0.1-3.3-0.4c-1.1-0.3-2-0.7-2.9-1.3
			c-0.9-0.6-1.5-1.4-2.1-2.4c-0.5-1-0.8-2.1-0.8-3.5c0-2,0.5-3.5,1.5-4.7c1-1.1,2.2-2,3.7-2.6c1.5-0.6,3-0.9,4.7-1.1
			c1.6-0.2,3.1-0.2,4.4-0.2h3.9v-1.6c0-2.2-0.7-3.8-2.1-4.8c-1.4-1-3.1-1.4-5.2-1.4c-3,0-5.6,1-7.8,2.9l-1.9-2.3
			c1.2-1.2,2.7-2.1,4.6-2.7c1.8-0.6,3.6-0.9,5.2-0.9c3.1,0,5.6,0.7,7.4,2.2c1.9,1.5,2.8,3.8,2.8,7.1V831.2z M371,829.1
			c-1.4,0-2.8,0.1-4.1,0.3c-1.3,0.2-2.5,0.5-3.6,0.9c-1.1,0.4-1.9,1-2.5,1.8c-0.6,0.7-0.9,1.7-0.9,2.8c0,0.8,0.2,1.5,0.5,2.1
			c0.4,0.6,0.8,1.1,1.4,1.5c0.6,0.4,1.2,0.7,1.9,0.9c0.7,0.2,1.4,0.3,2.1,0.3c1.8,0,3.2-0.3,4.4-0.8c1.1-0.5,2.1-1.2,2.7-2
			c0.7-0.8,1.2-1.8,1.4-2.8c0.3-1.1,0.4-2.1,0.4-3.2v-1.7H371z"/>
		<path class="st3" d="M386.5,823.5c0-0.5,0-1.1-0.1-1.7c0-0.7-0.1-1.4-0.1-2.1c0-0.7,0-1.4-0.1-2c0-0.6-0.1-1.1-0.1-1.4h3.3
			c0,1,0.1,1.9,0.1,2.8c0,0.9,0.1,1.5,0.1,1.7h0.2c0.7-1.4,1.8-2.6,3.3-3.6c1.6-1,3.4-1.5,5.4-1.5c2,0,3.6,0.3,4.9,0.9
			c1.3,0.6,2.2,1.5,3,2.5c0.7,1,1.2,2.2,1.5,3.5c0.3,1.3,0.4,2.7,0.4,4.1v15.3h-3.3v-15.1c0-1-0.1-2-0.3-3c-0.2-1-0.5-1.9-1-2.6
			c-0.5-0.8-1.1-1.4-1.9-1.9c-0.8-0.5-1.9-0.7-3.2-0.7c-1.2,0-2.4,0.2-3.5,0.6c-1.1,0.4-2,1.1-2.8,1.9c-0.8,0.9-1.4,2-1.9,3.3
			c-0.5,1.3-0.7,2.9-0.7,4.6v12.8h-3.3V823.5z"/>
		<path class="st3" d="M430.4,829.1c0-2,0.3-3.8,1-5.4s1.6-3.1,2.8-4.3c1.2-1.2,2.6-2.1,4.3-2.8s3.5-1,5.4-1c2,0,3.8,0.3,5.4,1
			c1.6,0.7,3.1,1.6,4.3,2.8c1.2,1.2,2.1,2.6,2.8,4.3s1,3.5,1,5.4s-0.3,3.8-1,5.4c-0.7,1.6-1.6,3.1-2.8,4.3c-1.2,1.2-2.6,2.1-4.3,2.8
			c-1.6,0.7-3.5,1-5.4,1c-2,0-3.8-0.3-5.4-1s-3.1-1.6-4.3-2.8c-1.2-1.2-2.1-2.6-2.8-4.3C430.7,832.9,430.4,831.1,430.4,829.1z
			 M433.7,829.1c0,1.4,0.2,2.8,0.7,4.1c0.5,1.3,1.1,2.4,2,3.3c0.9,0.9,2,1.7,3.2,2.2c1.3,0.6,2.7,0.8,4.2,0.8c1.6,0,3-0.3,4.2-0.8
			c1.3-0.6,2.3-1.3,3.2-2.2c0.9-0.9,1.6-2.1,2-3.3c0.5-1.3,0.7-2.6,0.7-4.1c0-1.4-0.2-2.8-0.7-4.1c-0.5-1.3-1.1-2.4-2-3.3
			c-0.9-0.9-2-1.7-3.2-2.2c-1.3-0.6-2.7-0.8-4.2-0.8c-1.6,0-3,0.3-4.2,0.8c-1.3,0.6-2.3,1.3-3.2,2.2c-0.9,0.9-1.6,2.1-2,3.3
			C433.9,826.3,433.7,827.7,433.7,829.1z"/>
		<path class="st3" d="M486.5,834.7c0,0.5,0,1.1,0.1,1.7c0,0.7,0.1,1.4,0.1,2.1c0,0.7,0,1.4,0.1,2c0,0.6,0.1,1.1,0.1,1.4h-3.3
			c0-1-0.1-1.9-0.1-2.8c0-0.9-0.1-1.5-0.1-1.7H483c-0.7,1.4-1.8,2.6-3.3,3.6c-1.6,1-3.4,1.5-5.4,1.5c-2,0-3.6-0.3-4.9-0.9
			c-1.3-0.6-2.3-1.5-3-2.5c-0.7-1-1.2-2.2-1.5-3.5c-0.3-1.3-0.4-2.7-0.4-4.1v-15.3h3.3v15.1c0,1,0.1,2,0.3,3c0.2,1,0.5,1.9,1,2.6
			c0.5,0.8,1.1,1.4,1.9,1.9s1.9,0.7,3.2,0.7c1.2,0,2.4-0.2,3.5-0.6c1.1-0.4,2-1.1,2.8-1.9c0.8-0.9,1.4-2,1.9-3.3
			c0.5-1.3,0.7-2.9,0.7-4.6v-12.8h3.3V834.7z"/>
		<path class="st3" d="M508.2,819.3h-7.3V836c0,1.1,0.3,2,0.9,2.7c0.6,0.6,1.5,0.9,2.6,0.9c0.6,0,1.3-0.1,1.9-0.2
			c0.6-0.2,1.3-0.4,1.9-0.6l0.3,3c-0.6,0.2-1.4,0.4-2.2,0.6c-0.8,0.2-1.5,0.3-2.2,0.3c-1.2,0-2.2-0.2-3.1-0.5
			c-0.9-0.4-1.5-0.8-2.1-1.4c-0.5-0.6-0.9-1.3-1.1-2.1c-0.2-0.8-0.4-1.7-0.4-2.6v-16.7H492v-3h5.6v-7.4h3.3v7.4h7.3V819.3z"/>
		<path class="st3" d="M527.1,829.1c0-2,0.3-3.8,1-5.4s1.6-3.1,2.8-4.3c1.2-1.2,2.6-2.1,4.3-2.8s3.5-1,5.4-1c2,0,3.8,0.3,5.4,1
			s3.1,1.6,4.3,2.8s2.1,2.6,2.8,4.3s1,3.5,1,5.4s-0.3,3.8-1,5.4c-0.7,1.6-1.6,3.1-2.8,4.3c-1.2,1.2-2.6,2.1-4.3,2.8s-3.5,1-5.4,1
			c-2,0-3.8-0.3-5.4-1s-3.1-1.6-4.3-2.8c-1.2-1.2-2.1-2.6-2.8-4.3C527.4,832.9,527.1,831.1,527.1,829.1z M530.4,829.1
			c0,1.4,0.2,2.8,0.7,4.1s1.1,2.4,2,3.3c0.9,0.9,2,1.7,3.2,2.2c1.3,0.6,2.7,0.8,4.2,0.8s3-0.3,4.2-0.8c1.3-0.6,2.3-1.3,3.2-2.2
			c0.9-0.9,1.6-2.1,2-3.3c0.5-1.3,0.7-2.6,0.7-4.1c0-1.4-0.2-2.8-0.7-4.1c-0.5-1.3-1.1-2.4-2-3.3c-0.9-0.9-2-1.7-3.2-2.2
			s-2.7-0.8-4.2-0.8s-3,0.3-4.2,0.8c-1.3,0.6-2.3,1.3-3.2,2.2c-0.9,0.9-1.6,2.1-2,3.3S530.4,827.7,530.4,829.1z"/>
		<path class="st3" d="M563.4,819.3h-5.3v-3h5.3v-8.4c0-1.7,0.2-3,0.7-4.1c0.5-1.1,1.1-2,1.9-2.6c0.7-0.7,1.6-1.1,2.5-1.4
			c0.9-0.3,1.8-0.4,2.6-0.4c1.6,0,2.8,0.2,3.8,0.7l-0.7,2.9c-0.7-0.4-1.7-0.6-3-0.6c-3,0-4.5,2.3-4.5,6.8v7.2h6v3h-6v22.6h-3.3
			V819.3z"/>
		<path class="st3" d="M591.7,800h3.3v20.8h0.1c0.5-0.9,1.2-1.7,1.9-2.3c0.8-0.6,1.6-1.2,2.5-1.6c0.9-0.4,1.9-0.7,2.9-0.9
			c1-0.2,2-0.3,2.9-0.3c2,0,3.8,0.3,5.4,1s3.1,1.6,4.3,2.8s2.1,2.6,2.8,4.3s1,3.5,1,5.4s-0.3,3.8-1,5.4c-0.7,1.6-1.6,3.1-2.8,4.3
			c-1.2,1.2-2.6,2.1-4.3,2.8s-3.5,1-5.4,1c-1,0-1.9-0.1-2.9-0.3s-2-0.5-2.9-0.9c-0.9-0.4-1.7-1-2.5-1.6c-0.8-0.6-1.4-1.4-1.9-2.3
			H595v4.5h-3.3V800z M594.7,829.1c0,1.4,0.3,2.8,0.8,4.1s1.3,2.4,2.3,3.3s2.1,1.7,3.4,2.2c1.3,0.6,2.7,0.8,4.2,0.8
			c1.6,0,3-0.3,4.2-0.8c1.3-0.6,2.3-1.3,3.2-2.2c0.9-0.9,1.6-2.1,2-3.3c0.5-1.3,0.7-2.6,0.7-4.1c0-1.4-0.2-2.8-0.7-4.1
			c-0.5-1.3-1.1-2.4-2-3.3c-0.9-0.9-2-1.7-3.2-2.2s-2.7-0.8-4.2-0.8c-1.5,0-2.9,0.3-4.2,0.8c-1.3,0.6-2.4,1.3-3.4,2.2
			s-1.7,2.1-2.3,3.3S594.7,827.7,594.7,829.1z"/>
		<path class="st3" d="M648,834.7c0,0.5,0,1.1,0.1,1.7c0,0.7,0.1,1.4,0.1,2.1c0,0.7,0,1.4,0.1,2c0,0.6,0.1,1.1,0.1,1.4h-3.3
			c0-1-0.1-1.9-0.1-2.8c0-0.9-0.1-1.5-0.1-1.7h-0.2c-0.7,1.4-1.8,2.6-3.3,3.6c-1.6,1-3.4,1.5-5.4,1.5c-2,0-3.6-0.3-4.9-0.9
			s-2.3-1.5-3-2.5s-1.2-2.2-1.5-3.5s-0.4-2.7-0.4-4.1v-15.3h3.3v15.1c0,1,0.1,2,0.3,3c0.2,1,0.5,1.9,1,2.6c0.5,0.8,1.1,1.4,1.9,1.9
			c0.8,0.5,1.9,0.7,3.2,0.7c1.2,0,2.4-0.2,3.5-0.6c1.1-0.4,2-1.1,2.8-1.9c0.8-0.9,1.4-2,1.9-3.3c0.5-1.3,0.7-2.9,0.7-4.6v-12.8h3.3
			V834.7z"/>
		<path class="st3" d="M656.4,800h3.3v20.8h0.1c0.5-0.9,1.2-1.7,1.9-2.3c0.8-0.6,1.6-1.2,2.5-1.6c0.9-0.4,1.9-0.7,2.9-0.9
			c1-0.2,2-0.3,2.9-0.3c2,0,3.8,0.3,5.4,1s3.1,1.6,4.3,2.8s2.1,2.6,2.8,4.3s1,3.5,1,5.4s-0.3,3.8-1,5.4c-0.7,1.6-1.6,3.1-2.8,4.3
			c-1.2,1.2-2.6,2.1-4.3,2.8s-3.5,1-5.4,1c-1,0-1.9-0.1-2.9-0.3s-2-0.5-2.9-0.9c-0.9-0.4-1.7-1-2.5-1.6c-0.8-0.6-1.4-1.4-1.9-2.3
			h-0.1v4.5h-3.3V800z M659.4,829.1c0,1.4,0.3,2.8,0.8,4.1s1.3,2.4,2.3,3.3s2.1,1.7,3.4,2.2c1.3,0.6,2.7,0.8,4.2,0.8
			c1.6,0,3-0.3,4.2-0.8c1.3-0.6,2.3-1.3,3.2-2.2c0.9-0.9,1.6-2.1,2-3.3c0.5-1.3,0.7-2.6,0.7-4.1c0-1.4-0.2-2.8-0.7-4.1
			c-0.5-1.3-1.1-2.4-2-3.3c-0.9-0.9-2-1.7-3.2-2.2s-2.7-0.8-4.2-0.8c-1.5,0-2.9,0.3-4.2,0.8c-1.3,0.6-2.4,1.3-3.4,2.2
			s-1.7,2.1-2.3,3.3S659.4,827.7,659.4,829.1z"/>
		<path class="st3" d="M690.3,800h3.3v20.8h0.1c0.5-0.9,1.2-1.7,1.9-2.3c0.8-0.6,1.6-1.2,2.5-1.6c0.9-0.4,1.9-0.7,2.9-0.9
			c1-0.2,2-0.3,2.9-0.3c2,0,3.8,0.3,5.4,1s3.1,1.6,4.3,2.8s2.1,2.6,2.8,4.3s1,3.5,1,5.4s-0.3,3.8-1,5.4c-0.7,1.6-1.6,3.1-2.8,4.3
			c-1.2,1.2-2.6,2.1-4.3,2.8s-3.5,1-5.4,1c-1,0-1.9-0.1-2.9-0.3s-2-0.5-2.9-0.9c-0.9-0.4-1.7-1-2.5-1.6c-0.8-0.6-1.4-1.4-1.9-2.3
			h-0.1v4.5h-3.3V800z M693.3,829.1c0,1.4,0.3,2.8,0.8,4.1s1.3,2.4,2.3,3.3s2.1,1.7,3.4,2.2c1.3,0.6,2.7,0.8,4.2,0.8
			c1.6,0,3-0.3,4.2-0.8c1.3-0.6,2.3-1.3,3.2-2.2c0.9-0.9,1.6-2.1,2-3.3c0.5-1.3,0.7-2.6,0.7-4.1c0-1.4-0.2-2.8-0.7-4.1
			c-0.5-1.3-1.1-2.4-2-3.3c-0.9-0.9-2-1.7-3.2-2.2s-2.7-0.8-4.2-0.8c-1.5,0-2.9,0.3-4.2,0.8c-1.3,0.6-2.4,1.3-3.4,2.2
			s-1.7,2.1-2.3,3.3S693.3,827.7,693.3,829.1z"/>
		<path class="st3" d="M725.5,800h3.3v42h-3.3V800z"/>
		<path class="st3" d="M760.9,837.1c-1.3,2-2.9,3.4-4.8,4.2c-1.9,0.9-4,1.3-6.3,1.3c-2,0-3.7-0.3-5.3-1c-1.6-0.7-3-1.6-4.1-2.8
			c-1.1-1.2-2-2.6-2.6-4.3c-0.6-1.6-0.9-3.5-0.9-5.5c0-1.9,0.3-3.7,0.9-5.3c0.6-1.6,1.5-3,2.7-4.2c1.1-1.2,2.5-2.1,4.1-2.8
			c1.6-0.7,3.3-1,5.2-1c2,0,3.7,0.3,5.2,1c1.5,0.7,2.8,1.6,3.8,2.7c1,1.1,1.8,2.4,2.3,3.9c0.5,1.4,0.8,2.9,0.8,4.4v2.3h-21.5
			c0,0.7,0.1,1.6,0.4,2.7c0.3,1.1,0.8,2.2,1.5,3.2c0.7,1,1.7,1.9,3,2.7c1.2,0.7,2.8,1.1,4.8,1.1c1.7,0,3.3-0.4,4.9-1.2
			c1.6-0.8,2.8-1.9,3.7-3.3L760.9,837.1z M758.4,827c0-1.1-0.2-2.2-0.7-3.2s-1.1-1.9-1.9-2.6c-0.8-0.8-1.7-1.4-2.8-1.8
			c-1.1-0.4-2.2-0.7-3.5-0.7c-1.8,0-3.3,0.4-4.5,1.1c-1.2,0.7-2.2,1.6-2.9,2.6c-0.7,1-1.2,1.9-1.5,2.8c-0.3,0.9-0.4,1.5-0.4,1.9
			H758.4z"/>
		<path class="st3" d="M769.2,835.4c0.7,1.4,1.7,2.4,3.1,3.1c1.4,0.7,2.8,1.1,4.3,1.1c0.7,0,1.4-0.1,2.1-0.3s1.3-0.5,1.9-0.9
			c0.6-0.4,1-0.9,1.4-1.5c0.4-0.6,0.5-1.2,0.5-2c0-1.2-0.4-2.1-1.1-2.7c-0.8-0.6-1.7-1.1-2.8-1.4s-2.3-0.6-3.7-0.9
			c-1.3-0.2-2.6-0.6-3.7-1.1c-1.1-0.5-2-1.2-2.8-2.1c-0.8-0.9-1.1-2.1-1.1-3.8c0-1.3,0.3-2.3,0.8-3.3c0.5-0.9,1.2-1.7,2-2.3
			c0.8-0.6,1.8-1.1,2.8-1.4c1-0.3,2.1-0.4,3.2-0.4c2.1,0,3.9,0.4,5.5,1.2c1.5,0.8,2.7,2,3.6,3.7l-3,1.8c-0.6-1.2-1.4-2.1-2.4-2.7
			s-2.2-0.9-3.7-0.9c-0.6,0-1.2,0.1-1.9,0.3c-0.6,0.2-1.2,0.4-1.7,0.8s-1,0.8-1.3,1.3c-0.4,0.5-0.5,1.1-0.5,1.8c0,1.1,0.4,2,1.1,2.6
			c0.8,0.6,1.7,1,2.8,1.3s2.3,0.6,3.7,0.8s2.6,0.6,3.7,1.1c1.1,0.5,2,1.2,2.8,2.2c0.8,0.9,1.1,2.3,1.1,4c0,1.3-0.2,2.5-0.7,3.5
			c-0.5,1-1.2,1.8-2.1,2.5c-0.9,0.7-1.9,1.2-3,1.5c-1.1,0.3-2.3,0.5-3.5,0.5c-2.2,0-4.2-0.4-6.1-1.3c-1.8-0.9-3.2-2.2-4.2-3.9
			L769.2,835.4z"/>
		<path class="st3" d="M260.9,866.6h3.3v20.8h0.1c0.5-0.9,1.2-1.7,1.9-2.3c0.8-0.6,1.6-1.2,2.5-1.6c0.9-0.4,1.9-0.7,2.9-0.9
			c1-0.2,2-0.3,2.9-0.3c2,0,3.8,0.3,5.4,1c1.6,0.7,3.1,1.6,4.3,2.8c1.2,1.2,2.1,2.6,2.8,4.3s1,3.5,1,5.4s-0.3,3.8-1,5.4
			c-0.7,1.6-1.6,3.1-2.8,4.3c-1.2,1.2-2.6,2.1-4.3,2.8c-1.6,0.7-3.5,1-5.4,1c-1,0-1.9-0.1-2.9-0.3s-2-0.5-2.9-0.9
			c-0.9-0.4-1.7-1-2.5-1.6c-0.8-0.6-1.4-1.4-1.9-2.3h-0.1v4.5h-3.3V866.6z M263.9,895.7c0,1.4,0.3,2.8,0.8,4.1
			c0.6,1.3,1.3,2.4,2.3,3.3c1,0.9,2.1,1.7,3.4,2.2c1.3,0.6,2.7,0.8,4.2,0.8c1.6,0,3-0.3,4.2-0.8c1.3-0.6,2.3-1.3,3.2-2.2
			c0.9-0.9,1.6-2.1,2-3.3c0.5-1.3,0.7-2.6,0.7-4.1c0-1.4-0.2-2.8-0.7-4.1c-0.5-1.3-1.1-2.4-2-3.3c-0.9-0.9-2-1.7-3.2-2.2
			c-1.3-0.6-2.7-0.8-4.2-0.8c-1.5,0-2.9,0.3-4.2,0.8c-1.3,0.6-2.4,1.3-3.4,2.2c-1,0.9-1.7,2.1-2.3,3.3
			C264.2,892.9,263.9,894.3,263.9,895.7z"/>
		<path class="st3" d="M318.2,903.7c-1.3,2-2.9,3.4-4.8,4.2c-1.9,0.9-4,1.3-6.3,1.3c-2,0-3.7-0.3-5.3-1s-3-1.6-4.1-2.8
			c-1.1-1.2-2-2.6-2.6-4.3c-0.6-1.6-0.9-3.5-0.9-5.5c0-1.9,0.3-3.7,0.9-5.3c0.6-1.6,1.5-3,2.7-4.2c1.1-1.2,2.5-2.1,4.1-2.8
			c1.6-0.7,3.3-1,5.2-1c2,0,3.7,0.3,5.2,1c1.5,0.7,2.8,1.6,3.8,2.7c1,1.1,1.8,2.4,2.3,3.9c0.5,1.4,0.8,2.9,0.8,4.4v2.3h-21.5
			c0,0.7,0.1,1.6,0.4,2.7c0.3,1.1,0.8,2.2,1.5,3.2c0.7,1,1.7,1.9,3,2.7c1.2,0.7,2.8,1.1,4.8,1.1c1.7,0,3.3-0.4,4.9-1.2
			c1.6-0.8,2.8-1.9,3.7-3.3L318.2,903.7z M315.6,893.6c0-1.1-0.2-2.2-0.7-3.2c-0.5-1-1.1-1.9-1.9-2.6c-0.8-0.8-1.7-1.4-2.8-1.8
			c-1.1-0.4-2.2-0.7-3.5-0.7c-1.8,0-3.3,0.4-4.5,1.1c-1.2,0.7-2.2,1.6-2.9,2.6c-0.7,1-1.2,1.9-1.5,2.8c-0.3,0.9-0.4,1.5-0.4,1.9
			H315.6z"/>
		<path class="st3" d="M328.3,885.9H323v-3h5.3v-8.4c0-1.7,0.2-3,0.7-4.1c0.5-1.1,1.1-2,1.9-2.6c0.7-0.7,1.6-1.1,2.5-1.4
			c0.9-0.3,1.8-0.4,2.6-0.4c1.6,0,2.8,0.2,3.8,0.7l-0.7,2.9c-0.7-0.4-1.7-0.6-3-0.6c-3,0-4.5,2.3-4.5,6.8v7.2h6v3h-6v22.6h-3.3
			V885.9z"/>
		<path class="st3" d="M341.4,895.7c0-2,0.3-3.8,1-5.4s1.6-3.1,2.8-4.3c1.2-1.2,2.6-2.1,4.3-2.8s3.5-1,5.4-1c2,0,3.8,0.3,5.4,1
			c1.6,0.7,3.1,1.6,4.3,2.8c1.2,1.2,2.1,2.6,2.8,4.3s1,3.5,1,5.4s-0.3,3.8-1,5.4c-0.7,1.6-1.6,3.1-2.8,4.3c-1.2,1.2-2.6,2.1-4.3,2.8
			c-1.6,0.7-3.5,1-5.4,1c-2,0-3.8-0.3-5.4-1s-3.1-1.6-4.3-2.8c-1.2-1.2-2.1-2.6-2.8-4.3C341.7,899.5,341.4,897.7,341.4,895.7z
			 M344.7,895.7c0,1.4,0.2,2.8,0.7,4.1c0.5,1.3,1.1,2.4,2,3.3c0.9,0.9,2,1.7,3.2,2.2c1.3,0.6,2.7,0.8,4.2,0.8c1.6,0,3-0.3,4.2-0.8
			c1.3-0.6,2.3-1.3,3.2-2.2c0.9-0.9,1.6-2.1,2-3.3c0.5-1.3,0.7-2.6,0.7-4.1c0-1.4-0.2-2.8-0.7-4.1c-0.5-1.3-1.1-2.4-2-3.3
			c-0.9-0.9-2-1.7-3.2-2.2c-1.3-0.6-2.7-0.8-4.2-0.8c-1.6,0-3,0.3-4.2,0.8c-1.3,0.6-2.3,1.3-3.2,2.2c-0.9,0.9-1.6,2.1-2,3.3
			C344.9,892.9,344.7,894.3,344.7,895.7z"/>
		<path class="st3" d="M375.8,890.1c0-0.5,0-1.1-0.1-1.7c0-0.7-0.1-1.4-0.1-2.1c0-0.7,0-1.4-0.1-2c0-0.6-0.1-1.1-0.1-1.4h3.3
			c0,1,0.1,1.9,0.1,2.8c0,0.9,0.1,1.5,0.1,1.7c0.9-1.5,1.9-2.8,3.3-3.7c1.3-1,3-1.4,4.9-1.4c0.3,0,0.7,0,1,0.1
			c0.3,0.1,0.6,0.1,1,0.2l-0.4,3.3c-0.4-0.1-0.9-0.2-1.3-0.2c-1.4,0-2.7,0.2-3.7,0.7c-1.1,0.5-1.9,1.1-2.6,1.9
			c-0.7,0.8-1.2,1.8-1.5,2.9c-0.3,1.1-0.5,2.3-0.5,3.5v14h-3.3V890.1z"/>
		<path class="st3" d="M416.9,903.7c-1.3,2-2.9,3.4-4.8,4.2c-1.9,0.9-4,1.3-6.3,1.3c-2,0-3.7-0.3-5.3-1s-3-1.6-4.1-2.8
			c-1.1-1.2-2-2.6-2.6-4.3c-0.6-1.6-0.9-3.5-0.9-5.5c0-1.9,0.3-3.7,0.9-5.3c0.6-1.6,1.5-3,2.7-4.2c1.1-1.2,2.5-2.1,4.1-2.8
			c1.6-0.7,3.3-1,5.2-1c2,0,3.7,0.3,5.2,1c1.5,0.7,2.8,1.6,3.8,2.7c1,1.1,1.8,2.4,2.3,3.9c0.5,1.4,0.8,2.9,0.8,4.4v2.3h-21.5
			c0,0.7,0.1,1.6,0.4,2.7c0.3,1.1,0.8,2.2,1.5,3.2c0.7,1,1.7,1.9,3,2.7c1.2,0.7,2.8,1.1,4.8,1.1c1.7,0,3.3-0.4,4.9-1.2
			c1.6-0.8,2.8-1.9,3.7-3.3L416.9,903.7z M414.4,893.6c0-1.1-0.2-2.2-0.7-3.2c-0.5-1-1.1-1.9-1.9-2.6c-0.8-0.8-1.7-1.4-2.8-1.8
			c-1.1-0.4-2.2-0.7-3.5-0.7c-1.8,0-3.3,0.4-4.5,1.1c-1.2,0.7-2.2,1.6-2.9,2.6c-0.7,1-1.2,1.9-1.5,2.8c-0.3,0.9-0.4,1.5-0.4,1.9
			H414.4z"/>
		<path class="st3" d="M439.6,902c0.7,1.4,1.7,2.4,3.1,3.1c1.4,0.7,2.8,1.1,4.3,1.1c0.7,0,1.4-0.1,2.1-0.3c0.7-0.2,1.3-0.5,1.9-0.9
			c0.6-0.4,1-0.9,1.4-1.5c0.4-0.6,0.5-1.2,0.5-2c0-1.2-0.4-2.1-1.1-2.7c-0.8-0.6-1.7-1.1-2.8-1.4s-2.3-0.6-3.7-0.9
			c-1.3-0.2-2.6-0.6-3.7-1.1c-1.1-0.5-2-1.2-2.8-2.1c-0.8-0.9-1.1-2.1-1.1-3.8c0-1.3,0.3-2.3,0.8-3.3c0.5-0.9,1.2-1.7,2-2.3
			s1.8-1.1,2.8-1.4c1-0.3,2.1-0.4,3.2-0.4c2.1,0,3.9,0.4,5.5,1.2c1.5,0.8,2.7,2,3.6,3.7l-3,1.8c-0.6-1.2-1.4-2.1-2.4-2.7
			c-0.9-0.6-2.2-0.9-3.7-0.9c-0.6,0-1.2,0.1-1.9,0.3c-0.6,0.2-1.2,0.4-1.7,0.8c-0.5,0.3-1,0.8-1.3,1.3c-0.4,0.5-0.5,1.1-0.5,1.8
			c0,1.1,0.4,2,1.1,2.6c0.8,0.6,1.7,1,2.8,1.3s2.3,0.6,3.7,0.8s2.6,0.6,3.7,1.1c1.1,0.5,2,1.2,2.8,2.2c0.8,0.9,1.1,2.3,1.1,4
			c0,1.3-0.2,2.5-0.7,3.5c-0.5,1-1.2,1.8-2.1,2.5c-0.9,0.7-1.9,1.2-3,1.5c-1.1,0.3-2.3,0.5-3.5,0.5c-2.2,0-4.2-0.4-6.1-1.3
			s-3.2-2.2-4.2-3.9L439.6,902z"/>
		<path class="st3" d="M483.1,897.8c0,1.3,0,2.4,0,3.4c0,1,0,1.9,0.1,2.8c0,0.9,0.1,1.6,0.1,2.4s0.1,1.5,0.2,2.2h-3.1
			c-0.2-1.3-0.3-2.6-0.3-4.2h-0.1c-1,1.7-2.2,2.9-3.6,3.7c-1.4,0.8-3.2,1.2-5.4,1.2c-1.1,0-2.2-0.1-3.3-0.4c-1.1-0.3-2-0.7-2.9-1.3
			c-0.9-0.6-1.5-1.4-2.1-2.4c-0.5-1-0.8-2.1-0.8-3.5c0-2,0.5-3.5,1.5-4.7c1-1.1,2.2-2,3.7-2.6c1.5-0.6,3-0.9,4.7-1.1
			c1.6-0.2,3.1-0.2,4.4-0.2h3.9v-1.6c0-2.2-0.7-3.8-2.1-4.8c-1.4-1-3.1-1.4-5.2-1.4c-3,0-5.6,1-7.8,2.9l-1.9-2.3
			c1.2-1.2,2.7-2.1,4.6-2.7c1.8-0.6,3.6-0.9,5.2-0.9c3.1,0,5.6,0.7,7.4,2.2c1.9,1.5,2.8,3.8,2.8,7.1V897.8z M476.5,895.7
			c-1.4,0-2.8,0.1-4.1,0.3c-1.3,0.2-2.5,0.5-3.6,0.9c-1.1,0.4-1.9,1-2.5,1.8c-0.6,0.7-0.9,1.7-0.9,2.8c0,0.8,0.2,1.5,0.5,2.1
			c0.4,0.6,0.8,1.1,1.4,1.5c0.6,0.4,1.2,0.7,1.9,0.9c0.7,0.2,1.4,0.3,2.1,0.3c1.8,0,3.2-0.3,4.4-0.8c1.1-0.5,2.1-1.2,2.7-2
			c0.7-0.8,1.2-1.8,1.4-2.8c0.3-1.1,0.4-2.1,0.4-3.2v-1.7H476.5z"/>
		<path class="st3" d="M488.4,882.9h3.8l8.5,22l8.3-22h3.4l-10.1,25.6h-3.4L488.4,882.9z"/>
		<path class="st3" d="M517.4,872.7c0-0.7,0.2-1.3,0.7-1.8c0.5-0.5,1.1-0.7,1.8-0.7c0.7,0,1.3,0.2,1.8,0.7c0.5,0.5,0.7,1.1,0.7,1.8
			c0,0.7-0.2,1.3-0.7,1.8c-0.5,0.5-1.1,0.7-1.8,0.7c-0.7,0-1.3-0.2-1.8-0.7C517.7,874,517.4,873.4,517.4,872.7z M518.3,882.9h3.3
			v25.6h-3.3V882.9z"/>
		<path class="st3" d="M531,890.1c0-0.5,0-1.1-0.1-1.7c0-0.7-0.1-1.4-0.1-2.1c0-0.7,0-1.4-0.1-2s-0.1-1.1-0.1-1.4h3.3
			c0,1,0.1,1.9,0.1,2.8c0,0.9,0.1,1.5,0.1,1.7h0.2c0.7-1.4,1.8-2.6,3.3-3.6s3.4-1.5,5.4-1.5c2,0,3.6,0.3,4.9,0.9
			c1.3,0.6,2.2,1.5,3,2.5c0.7,1,1.2,2.2,1.5,3.5s0.4,2.7,0.4,4.1v15.3h-3.3v-15.1c0-1-0.1-2-0.3-3c-0.2-1-0.5-1.9-1-2.6
			c-0.5-0.8-1.1-1.4-1.9-1.9c-0.8-0.5-1.9-0.7-3.2-0.7c-1.2,0-2.4,0.2-3.5,0.6c-1.1,0.4-2,1.1-2.8,1.9c-0.8,0.9-1.4,2-1.9,3.3
			c-0.5,1.3-0.7,2.9-0.7,4.6v12.8H531V890.1z"/>
		<path class="st3" d="M587.6,906.9c0,3.2-0.5,5.8-1.4,7.7c-0.9,2-2.1,3.5-3.5,4.6c-1.4,1.1-2.9,1.8-4.5,2.2c-1.6,0.4-3,0.6-4.3,0.6
			c-1.3,0-2.6-0.1-3.8-0.4c-1.2-0.2-2.4-0.6-3.5-1.1s-2.1-1-3-1.7c-0.9-0.7-1.7-1.4-2.4-2.3l2.6-2.4c1.2,1.7,2.7,2.9,4.4,3.7
			c1.8,0.8,3.7,1.2,5.7,1.2c1.7,0,3.1-0.2,4.3-0.7c1.2-0.4,2.1-1,2.9-1.7c0.8-0.7,1.3-1.5,1.8-2.4c0.4-0.9,0.7-1.7,0.9-2.6
			c0.2-0.9,0.3-1.7,0.4-2.5c0-0.8,0.1-1.4,0.1-1.9v-3.6h-0.1c-1,1.6-2.3,2.8-3.9,3.7s-3.6,1.3-5.8,1.3c-1.9,0-3.7-0.3-5.3-1
			s-3.1-1.6-4.4-2.8c-1.2-1.2-2.2-2.6-2.9-4.2c-0.7-1.6-1.1-3.3-1.1-5.1c0-1.8,0.4-3.5,1.1-5.1c0.7-1.6,1.7-3,2.9-4.2
			c1.2-1.2,2.7-2.1,4.4-2.8c1.7-0.7,3.4-1.1,5.3-1.1c2.2,0,4.2,0.4,5.8,1.3c1.6,0.9,3,2.1,3.9,3.7h0.1v-4.3h3.3V906.9z M584.4,895.4
			c0-1.4-0.3-2.7-0.8-4c-0.5-1.2-1.3-2.3-2.2-3.2c-0.9-0.9-2-1.6-3.2-2.2c-1.2-0.5-2.6-0.8-4-0.8s-2.7,0.3-4,0.8
			c-1.2,0.5-2.3,1.3-3.2,2.2c-0.9,0.9-1.6,2-2.2,3.2c-0.5,1.2-0.8,2.6-0.8,4s0.3,2.7,0.8,4c0.5,1.2,1.3,2.3,2.2,3.2s2,1.6,3.2,2.2
			c1.2,0.5,2.6,0.8,4,0.8s2.7-0.3,4-0.8c1.2-0.5,2.3-1.3,3.2-2.2c0.9-0.9,1.6-2,2.2-3.2C584.1,898.1,584.4,896.8,584.4,895.4z"/>
		<path class="st3" d="M630.1,897.8c0,1.3,0,2.4,0,3.4c0,1,0,1.9,0.1,2.8c0,0.9,0.1,1.6,0.1,2.4s0.1,1.5,0.2,2.2h-3.1
			c-0.2-1.3-0.3-2.6-0.3-4.2h-0.1c-1,1.7-2.2,2.9-3.6,3.7c-1.4,0.8-3.2,1.2-5.4,1.2c-1.1,0-2.2-0.1-3.3-0.4c-1.1-0.3-2-0.7-2.9-1.3
			c-0.9-0.6-1.5-1.4-2.1-2.4c-0.5-1-0.8-2.1-0.8-3.5c0-2,0.5-3.5,1.5-4.7c1-1.1,2.2-2,3.7-2.6c1.5-0.6,3-0.9,4.7-1.1
			c1.6-0.2,3.1-0.2,4.4-0.2h3.9v-1.6c0-2.2-0.7-3.8-2.1-4.8c-1.4-1-3.1-1.4-5.2-1.4c-3,0-5.6,1-7.8,2.9l-1.9-2.3
			c1.2-1.2,2.7-2.1,4.6-2.7c1.8-0.6,3.6-0.9,5.2-0.9c3.1,0,5.6,0.7,7.4,2.2c1.8,1.5,2.8,3.8,2.8,7.1V897.8z M623.5,895.7
			c-1.4,0-2.8,0.1-4.1,0.3c-1.3,0.2-2.5,0.5-3.6,0.9c-1.1,0.4-1.9,1-2.5,1.8c-0.6,0.7-0.9,1.7-0.9,2.8c0,0.8,0.2,1.5,0.5,2.1
			c0.4,0.6,0.8,1.1,1.4,1.5c0.6,0.4,1.2,0.7,1.9,0.9c0.7,0.2,1.4,0.3,2.1,0.3c1.8,0,3.2-0.3,4.4-0.8c1.1-0.5,2.1-1.2,2.7-2
			c0.7-0.8,1.2-1.8,1.4-2.8c0.3-1.1,0.4-2.1,0.4-3.2v-1.7H623.5z"/>
		<path class="st3" d="M639.6,866.6h3.3v42h-3.3V866.6z"/>
		<path class="st3" d="M652.9,866.6h3.3v42h-3.3V866.6z"/>
		<path class="st3" d="M692.6,885.9h-7.3v16.7c0,1.1,0.3,2,0.9,2.7c0.6,0.6,1.5,0.9,2.6,0.9c0.6,0,1.3-0.1,1.9-0.2
			c0.6-0.2,1.3-0.4,1.9-0.6l0.3,3c-0.6,0.2-1.4,0.4-2.2,0.6c-0.8,0.2-1.5,0.3-2.2,0.3c-1.2,0-2.2-0.2-3.1-0.5
			c-0.9-0.4-1.5-0.8-2.1-1.4c-0.5-0.6-0.9-1.3-1.1-2.1c-0.2-0.8-0.4-1.7-0.4-2.6v-16.7h-5.5v-3h5.5v-7.4h3.3v7.4h7.3V885.9z"/>
		<path class="st3" d="M698.6,866.6h3.3v20.8h0.1c0.7-1.4,1.8-2.6,3.3-3.6s3.4-1.5,5.4-1.5c2,0,3.6,0.3,4.9,0.9
			c1.3,0.6,2.2,1.5,3,2.5c0.7,1,1.2,2.2,1.5,3.5s0.4,2.7,0.4,4.1v15.3h-3.3v-15.1c0-1-0.1-2-0.3-3c-0.2-1-0.5-1.9-1-2.6
			c-0.5-0.8-1.1-1.4-1.9-1.9c-0.8-0.5-1.9-0.7-3.2-0.7c-1.2,0-2.4,0.2-3.5,0.6c-1.1,0.4-2,1.1-2.8,1.9c-0.8,0.9-1.4,2-1.9,3.3
			c-0.5,1.3-0.7,2.9-0.7,4.6v12.8h-3.3V866.6z"/>
		<path class="st3" d="M752.1,903.7c-1.3,2-2.9,3.4-4.8,4.2c-1.9,0.9-4,1.3-6.3,1.3c-2,0-3.7-0.3-5.3-1c-1.6-0.7-3-1.6-4.1-2.8
			c-1.1-1.2-2-2.6-2.6-4.3c-0.6-1.6-0.9-3.5-0.9-5.5c0-1.9,0.3-3.7,0.9-5.3c0.6-1.6,1.5-3,2.7-4.2c1.1-1.2,2.5-2.1,4.1-2.8
			c1.6-0.7,3.3-1,5.2-1c2,0,3.7,0.3,5.2,1c1.5,0.7,2.8,1.6,3.8,2.7c1,1.1,1.8,2.4,2.3,3.9c0.5,1.4,0.8,2.9,0.8,4.4v2.3h-21.5
			c0,0.7,0.1,1.6,0.4,2.7c0.3,1.1,0.8,2.2,1.5,3.2c0.7,1,1.7,1.9,3,2.7c1.2,0.7,2.8,1.1,4.8,1.1c1.7,0,3.3-0.4,4.9-1.2
			c1.6-0.8,2.8-1.9,3.7-3.3L752.1,903.7z M749.5,893.6c0-1.1-0.2-2.2-0.7-3.2s-1.1-1.9-1.9-2.6c-0.8-0.8-1.7-1.4-2.8-1.8
			c-1.1-0.4-2.2-0.7-3.5-0.7c-1.8,0-3.3,0.4-4.5,1.1c-1.2,0.7-2.2,1.6-2.9,2.6c-0.7,1-1.2,1.9-1.5,2.8c-0.3,0.9-0.4,1.5-0.4,1.9
			H749.5z"/>
		<path class="st3" d="M300.1,964.4c0,1.3,0,2.4,0,3.4c0,1,0,1.9,0.1,2.8c0,0.9,0.1,1.6,0.1,2.4s0.1,1.5,0.2,2.2h-3.1
			c-0.2-1.3-0.3-2.6-0.3-4.2H297c-1,1.7-2.2,2.9-3.6,3.7c-1.4,0.8-3.2,1.2-5.4,1.2c-1.1,0-2.2-0.1-3.3-0.4c-1.1-0.3-2-0.7-2.9-1.3
			c-0.9-0.6-1.5-1.4-2.1-2.4c-0.5-1-0.8-2.1-0.8-3.5c0-2,0.5-3.5,1.5-4.7c1-1.1,2.2-2,3.7-2.6c1.5-0.6,3-0.9,4.7-1.1
			c1.6-0.2,3.1-0.2,4.4-0.2h3.9V958c0-2.2-0.7-3.8-2.1-4.8c-1.4-1-3.1-1.4-5.2-1.4c-3,0-5.6,1-7.8,2.9l-1.9-2.3
			c1.2-1.2,2.7-2.1,4.6-2.7c1.8-0.6,3.6-0.9,5.2-0.9c3.1,0,5.6,0.7,7.4,2.2c1.9,1.5,2.8,3.8,2.8,7.1V964.4z M293.4,962.3
			c-1.4,0-2.8,0.1-4.1,0.3c-1.3,0.2-2.5,0.5-3.6,0.9c-1.1,0.4-1.9,1-2.5,1.8c-0.6,0.7-0.9,1.7-0.9,2.8c0,0.8,0.2,1.5,0.5,2.1
			c0.4,0.6,0.8,1.1,1.4,1.5c0.6,0.4,1.2,0.7,1.9,0.9c0.7,0.2,1.4,0.3,2.1,0.3c1.8,0,3.2-0.3,4.4-0.8c1.1-0.5,2.1-1.2,2.7-2
			c0.7-0.8,1.2-1.8,1.4-2.8c0.3-1.1,0.4-2.1,0.4-3.2v-1.7H293.4z"/>
		<path class="st3" d="M309,956.7c0-0.5,0-1.1-0.1-1.7c0-0.7-0.1-1.4-0.1-2.1c0-0.7,0-1.4-0.1-2c0-0.6-0.1-1.1-0.1-1.4h3.3
			c0,1,0.1,1.9,0.1,2.8c0,0.9,0.1,1.5,0.1,1.7h0.2c0.7-1.4,1.8-2.6,3.3-3.6c1.6-1,3.4-1.5,5.4-1.5c2,0,3.6,0.3,4.9,0.9
			c1.3,0.6,2.2,1.5,3,2.5c0.7,1,1.2,2.2,1.5,3.5c0.3,1.3,0.4,2.7,0.4,4.1v15.3h-3.3V960c0-1-0.1-2-0.3-3c-0.2-1-0.5-1.9-1-2.6
			c-0.5-0.8-1.1-1.4-1.9-1.9c-0.8-0.5-1.9-0.7-3.2-0.7c-1.2,0-2.4,0.2-3.5,0.6c-1.1,0.4-2,1.1-2.8,1.9c-0.8,0.9-1.4,2-1.9,3.3
			c-0.5,1.3-0.7,2.9-0.7,4.6v12.8H309V956.7z"/>
		<path class="st3" d="M339.6,939.3c0-0.7,0.2-1.3,0.7-1.8c0.5-0.5,1.1-0.7,1.8-0.7c0.7,0,1.3,0.2,1.8,0.7c0.5,0.5,0.7,1.1,0.7,1.8
			c0,0.7-0.2,1.3-0.7,1.8c-0.5,0.5-1.1,0.7-1.8,0.7c-0.7,0-1.3-0.2-1.8-0.7C339.8,940.6,339.6,940,339.6,939.3z M340.4,949.5h3.3
			v25.6h-3.3V949.5z"/>
		<path class="st3" d="M353.1,956.7c0-0.5,0-1.1-0.1-1.7c0-0.7-0.1-1.4-0.1-2.1c0-0.7,0-1.4-0.1-2c0-0.6-0.1-1.1-0.1-1.4h3.3
			c0,1,0.1,1.9,0.1,2.8c0,0.9,0.1,1.5,0.1,1.7h0.2c0.7-1.4,1.8-2.6,3.3-3.6c1.6-1,3.4-1.5,5.4-1.5c1.7,0,3.3,0.4,4.7,1.3
			c1.4,0.9,2.4,2.3,3.1,4.2c0.8-1.9,2-3.3,3.6-4.2c1.6-0.9,3.3-1.3,5.1-1.3c2,0,3.6,0.3,4.9,0.9c1.3,0.6,2.2,1.5,3,2.5
			c0.7,1,1.2,2.2,1.5,3.5s0.4,2.7,0.4,4.1v15.3h-3.3V960c0-1-0.1-2-0.3-3c-0.2-1-0.5-1.9-1-2.6c-0.5-0.8-1.1-1.4-1.9-1.9
			c-0.8-0.5-1.9-0.7-3.2-0.7c-1.6,0-2.8,0.3-3.8,0.9c-1,0.6-1.8,1.3-2.4,2.2c-0.6,0.9-1,1.9-1.2,2.9c-0.2,1-0.4,2-0.4,2.9v14.4h-3.3
			v-15.4c0-2.4-0.4-4.3-1.3-5.7c-0.9-1.4-2.2-2.2-4-2.2c-1.2,0-2.4,0.2-3.5,0.6c-1.1,0.4-2,1.1-2.8,1.9c-0.8,0.9-1.4,2-1.9,3.3
			c-0.5,1.3-0.7,2.9-0.7,4.6v12.8h-3.3V956.7z"/>
		<path class="st3" d="M420.4,964.4c0,1.3,0,2.4,0,3.4c0,1,0,1.9,0.1,2.8c0,0.9,0.1,1.6,0.1,2.4s0.1,1.5,0.2,2.2h-3.1
			c-0.2-1.3-0.3-2.6-0.3-4.2h-0.1c-1,1.7-2.2,2.9-3.6,3.7c-1.4,0.8-3.2,1.2-5.4,1.2c-1.1,0-2.2-0.1-3.3-0.4c-1.1-0.3-2-0.7-2.9-1.3
			c-0.9-0.6-1.5-1.4-2.1-2.4c-0.5-1-0.8-2.1-0.8-3.5c0-2,0.5-3.5,1.5-4.7c1-1.1,2.2-2,3.7-2.6c1.5-0.6,3-0.9,4.7-1.1
			c1.6-0.2,3.1-0.2,4.4-0.2h3.9V958c0-2.2-0.7-3.8-2.1-4.8c-1.4-1-3.1-1.4-5.2-1.4c-3,0-5.6,1-7.8,2.9l-1.9-2.3
			c1.2-1.2,2.7-2.1,4.6-2.7c1.8-0.6,3.6-0.9,5.2-0.9c3.1,0,5.6,0.7,7.4,2.2c1.9,1.5,2.8,3.8,2.8,7.1V964.4z M413.7,962.3
			c-1.4,0-2.8,0.1-4.1,0.3c-1.3,0.2-2.5,0.5-3.6,0.9c-1.1,0.4-1.9,1-2.5,1.8c-0.6,0.7-0.9,1.7-0.9,2.8c0,0.8,0.2,1.5,0.5,2.1
			c0.4,0.6,0.8,1.1,1.4,1.5c0.6,0.4,1.2,0.7,1.9,0.9c0.7,0.2,1.4,0.3,2.1,0.3c1.8,0,3.2-0.3,4.4-0.8c1.1-0.5,2.1-1.2,2.7-2
			c0.7-0.8,1.2-1.8,1.4-2.8c0.3-1.1,0.4-2.1,0.4-3.2v-1.7H413.7z"/>
		<path class="st3" d="M429.8,933.2h3.3v42h-3.3V933.2z"/>
		<path class="st3" d="M442.6,968.6c0.7,1.4,1.7,2.4,3.1,3.1c1.4,0.7,2.8,1.1,4.3,1.1c0.7,0,1.4-0.1,2.1-0.3
			c0.7-0.2,1.3-0.5,1.9-0.9c0.6-0.4,1-0.9,1.4-1.5c0.4-0.6,0.5-1.2,0.5-2c0-1.2-0.4-2.1-1.1-2.7c-0.8-0.6-1.7-1.1-2.8-1.4
			s-2.3-0.6-3.7-0.9c-1.3-0.2-2.6-0.6-3.7-1.1c-1.1-0.5-2-1.2-2.8-2.1c-0.8-0.9-1.1-2.1-1.1-3.8c0-1.3,0.3-2.3,0.8-3.3
			c0.5-0.9,1.2-1.7,2-2.3s1.8-1.1,2.8-1.4c1-0.3,2.1-0.4,3.2-0.4c2.1,0,3.9,0.4,5.5,1.2c1.5,0.8,2.7,2,3.6,3.7l-3,1.8
			c-0.6-1.2-1.4-2.1-2.4-2.7c-0.9-0.6-2.2-0.9-3.7-0.9c-0.6,0-1.2,0.1-1.9,0.3c-0.6,0.2-1.2,0.4-1.7,0.8c-0.5,0.3-1,0.8-1.3,1.3
			c-0.4,0.5-0.5,1.1-0.5,1.8c0,1.1,0.4,2,1.1,2.6c0.8,0.6,1.7,1,2.8,1.3s2.3,0.6,3.7,0.8s2.6,0.6,3.7,1.1c1.1,0.5,2,1.2,2.8,2.2
			c0.8,0.9,1.1,2.3,1.1,4c0,1.3-0.2,2.5-0.7,3.5c-0.5,1-1.2,1.8-2.1,2.5c-0.9,0.7-1.9,1.2-3,1.5c-1.1,0.3-2.3,0.5-3.5,0.5
			c-2.2,0-4.2-0.4-6.1-1.3s-3.2-2.2-4.2-3.9L442.6,968.6z"/>
		<path class="st3" d="M466.3,972.8c0-0.7,0.3-1.4,0.8-1.9c0.5-0.5,1.1-0.8,1.9-0.8c0.7,0,1.4,0.3,1.9,0.8c0.5,0.5,0.8,1.1,0.8,1.9
			c0,0.7-0.3,1.4-0.8,1.9c-0.5,0.5-1.1,0.8-1.9,0.8c-0.7,0-1.4-0.3-1.9-0.8C466.6,974.2,466.3,973.6,466.3,972.8z"/>
		<path class="st3" d="M504.7,939.2h-13.4v-3.3h30.5v3.3h-13.4v36h-3.7V939.2z"/>
		<path class="st3" d="M526.9,956.7c0-0.5,0-1.1-0.1-1.7c0-0.7-0.1-1.4-0.1-2.1c0-0.7,0-1.4-0.1-2s-0.1-1.1-0.1-1.4h3.3
			c0,1,0.1,1.9,0.1,2.8c0,0.9,0.1,1.5,0.1,1.7c0.9-1.5,1.9-2.8,3.3-3.7c1.3-1,3-1.4,4.9-1.4c0.3,0,0.7,0,1,0.1
			c0.3,0.1,0.6,0.1,1,0.2l-0.4,3.3c-0.4-0.1-0.9-0.2-1.3-0.2c-1.4,0-2.7,0.2-3.7,0.7c-1.1,0.5-1.9,1.1-2.6,1.9
			c-0.7,0.8-1.2,1.8-1.5,2.9c-0.3,1.1-0.5,2.3-0.5,3.5v14h-3.3V956.7z"/>
		<path class="st3" d="M552.6,983.1c-0.6,1.7-1.5,3-2.6,3.9c-1.1,1-2.6,1.4-4.4,1.4c-0.6,0-1.1,0-1.7-0.1c-0.6-0.1-1.1-0.2-1.6-0.4
			l0.3-3.1c0.5,0.1,1,0.3,1.5,0.4c0.5,0.1,1,0.2,1.5,0.2c0.6,0,1.1-0.1,1.6-0.4c0.5-0.3,0.9-0.6,1.2-1c0.3-0.4,0.6-0.9,0.9-1.4
			c0.2-0.5,0.5-1,0.6-1.5l2.3-5.9l-10.4-25.8h3.7l8.5,21.6l8.3-21.6h3.6L552.6,983.1z"/>
		<path class="st3" d="M605.4,964.4c0,1.3,0,2.4,0,3.4c0,1,0,1.9,0.1,2.8c0,0.9,0.1,1.6,0.1,2.4s0.1,1.5,0.2,2.2h-3.1
			c-0.2-1.3-0.3-2.6-0.3-4.2h-0.1c-1,1.7-2.2,2.9-3.6,3.7c-1.4,0.8-3.2,1.2-5.4,1.2c-1.1,0-2.2-0.1-3.3-0.4c-1.1-0.3-2-0.7-2.9-1.3
			c-0.9-0.6-1.5-1.4-2.1-2.4c-0.5-1-0.8-2.1-0.8-3.5c0-2,0.5-3.5,1.5-4.7c1-1.1,2.2-2,3.7-2.6c1.5-0.6,3-0.9,4.7-1.1
			c1.6-0.2,3.1-0.2,4.4-0.2h3.9V958c0-2.2-0.7-3.8-2.1-4.8c-1.4-1-3.1-1.4-5.2-1.4c-3,0-5.6,1-7.8,2.9l-1.9-2.3
			c1.2-1.2,2.7-2.1,4.6-2.7c1.8-0.6,3.6-0.9,5.2-0.9c3.1,0,5.6,0.7,7.4,2.2c1.8,1.5,2.8,3.8,2.8,7.1V964.4z M598.8,962.3
			c-1.4,0-2.8,0.1-4.1,0.3c-1.3,0.2-2.5,0.5-3.6,0.9c-1.1,0.4-1.9,1-2.5,1.8c-0.6,0.7-0.9,1.7-0.9,2.8c0,0.8,0.2,1.5,0.5,2.1
			c0.4,0.6,0.8,1.1,1.4,1.5c0.6,0.4,1.2,0.7,1.9,0.9c0.7,0.2,1.4,0.3,2.1,0.3c1.8,0,3.2-0.3,4.4-0.8c1.1-0.5,2.1-1.2,2.7-2
			c0.7-0.8,1.2-1.8,1.4-2.8c0.3-1.1,0.4-2.1,0.4-3.2v-1.7H598.8z"/>
		<path class="st3" d="M640.1,973.5c0,3.2-0.5,5.8-1.4,7.7c-0.9,2-2.1,3.5-3.5,4.6c-1.4,1.1-2.9,1.8-4.5,2.2c-1.6,0.4-3,0.6-4.3,0.6
			c-1.3,0-2.6-0.1-3.8-0.4c-1.2-0.2-2.4-0.6-3.5-1.1s-2.1-1-3-1.7c-0.9-0.7-1.7-1.4-2.4-2.3l2.6-2.4c1.2,1.7,2.7,2.9,4.4,3.7
			c1.8,0.8,3.7,1.2,5.7,1.2c1.7,0,3.1-0.2,4.3-0.7c1.2-0.4,2.1-1,2.9-1.7c0.8-0.7,1.3-1.5,1.8-2.4c0.4-0.9,0.7-1.7,0.9-2.6
			c0.2-0.9,0.3-1.7,0.4-2.5c0-0.8,0.1-1.4,0.1-1.9v-3.6h-0.1c-1,1.6-2.3,2.8-3.9,3.7s-3.6,1.3-5.8,1.3c-1.9,0-3.7-0.3-5.3-1
			s-3.1-1.6-4.4-2.8c-1.2-1.2-2.2-2.6-2.9-4.2c-0.7-1.6-1.1-3.3-1.1-5.1c0-1.8,0.4-3.5,1.1-5.1c0.7-1.6,1.7-3,2.9-4.2
			c1.2-1.2,2.7-2.1,4.4-2.8c1.7-0.7,3.4-1.1,5.3-1.1c2.2,0,4.2,0.4,5.8,1.3c1.6,0.9,3,2.1,3.9,3.7h0.1v-4.3h3.3V973.5z M636.9,962
			c0-1.4-0.3-2.7-0.8-4c-0.5-1.2-1.3-2.3-2.2-3.2c-0.9-0.9-2-1.6-3.2-2.2c-1.2-0.5-2.6-0.8-4-0.8s-2.7,0.3-4,0.8
			c-1.2,0.5-2.3,1.3-3.2,2.2c-0.9,0.9-1.6,2-2.2,3.2c-0.5,1.2-0.8,2.6-0.8,4s0.3,2.7,0.8,4c0.5,1.2,1.3,2.3,2.2,3.2s2,1.6,3.2,2.2
			c1.2,0.5,2.6,0.8,4,0.8s2.7-0.3,4-0.8c1.2-0.5,2.3-1.3,3.2-2.2c0.9-0.9,1.6-2,2.2-3.2C636.6,964.7,636.9,963.4,636.9,962z"/>
		<path class="st3" d="M668.2,964.4c0,1.3,0,2.4,0,3.4c0,1,0,1.9,0.1,2.8c0,0.9,0.1,1.6,0.1,2.4s0.1,1.5,0.2,2.2h-3.1
			c-0.2-1.3-0.3-2.6-0.3-4.2h-0.1c-1,1.7-2.2,2.9-3.6,3.7c-1.4,0.8-3.2,1.2-5.4,1.2c-1.1,0-2.2-0.1-3.3-0.4c-1.1-0.3-2-0.7-2.9-1.3
			c-0.9-0.6-1.5-1.4-2.1-2.4c-0.5-1-0.8-2.1-0.8-3.5c0-2,0.5-3.5,1.5-4.7c1-1.1,2.2-2,3.7-2.6c1.5-0.6,3-0.9,4.7-1.1
			c1.6-0.2,3.1-0.2,4.4-0.2h3.9V958c0-2.2-0.7-3.8-2.1-4.8c-1.4-1-3.1-1.4-5.2-1.4c-3,0-5.6,1-7.8,2.9l-1.9-2.3
			c1.2-1.2,2.7-2.1,4.6-2.7c1.8-0.6,3.6-0.9,5.2-0.9c3.1,0,5.6,0.7,7.4,2.2c1.8,1.5,2.8,3.8,2.8,7.1V964.4z M661.5,962.3
			c-1.4,0-2.8,0.1-4.1,0.3c-1.3,0.2-2.5,0.5-3.6,0.9c-1.1,0.4-1.9,1-2.5,1.8c-0.6,0.7-0.9,1.7-0.9,2.8c0,0.8,0.2,1.5,0.5,2.1
			c0.4,0.6,0.8,1.1,1.4,1.5c0.6,0.4,1.2,0.7,1.9,0.9c0.7,0.2,1.4,0.3,2.1,0.3c1.8,0,3.2-0.3,4.4-0.8c1.1-0.5,2.1-1.2,2.7-2
			c0.7-0.8,1.2-1.8,1.4-2.8c0.3-1.1,0.4-2.1,0.4-3.2v-1.7H661.5z"/>
		<path class="st3" d="M676.8,939.3c0-0.7,0.2-1.3,0.7-1.8c0.5-0.5,1.1-0.7,1.8-0.7c0.7,0,1.3,0.2,1.8,0.7c0.5,0.5,0.7,1.1,0.7,1.8
			c0,0.7-0.2,1.3-0.7,1.8c-0.5,0.5-1.1,0.7-1.8,0.7c-0.7,0-1.3-0.2-1.8-0.7C677,940.6,676.8,940,676.8,939.3z M677.6,949.5h3.3v25.6
			h-3.3V949.5z"/>
		<path class="st3" d="M690.4,956.7c0-0.5,0-1.1-0.1-1.7c0-0.7-0.1-1.4-0.1-2.1c0-0.7,0-1.4-0.1-2s-0.1-1.1-0.1-1.4h3.3
			c0,1,0.1,1.9,0.1,2.8c0,0.9,0.1,1.5,0.1,1.7h0.2c0.7-1.4,1.8-2.6,3.3-3.6s3.4-1.5,5.4-1.5c2,0,3.6,0.3,4.9,0.9
			c1.3,0.6,2.2,1.5,3,2.5c0.7,1,1.2,2.2,1.5,3.5s0.4,2.7,0.4,4.1v15.3H709V960c0-1-0.1-2-0.3-3c-0.2-1-0.5-1.9-1-2.6
			c-0.5-0.8-1.1-1.4-1.9-1.9c-0.8-0.5-1.9-0.7-3.2-0.7c-1.2,0-2.4,0.2-3.5,0.6c-1.1,0.4-2,1.1-2.8,1.9c-0.8,0.9-1.4,2-1.9,3.3
			c-0.5,1.3-0.7,2.9-0.7,4.6v12.8h-3.3V956.7z"/>
		<path class="st3" d="M724.4,972.8c0-0.7,0.3-1.4,0.8-1.9c0.5-0.5,1.1-0.8,1.9-0.8c0.7,0,1.4,0.3,1.9,0.8c0.5,0.5,0.8,1.1,0.8,1.9
			c0,0.7-0.3,1.4-0.8,1.9c-0.5,0.5-1.1,0.8-1.9,0.8c-0.7,0-1.4-0.3-1.9-0.8C724.6,974.2,724.4,973.6,724.4,972.8z M728.7,964.8h-3.3
			v-29h3.3V964.8z"/>
	</g>
</g>
</svg>
