<?xml version="1.0" encoding="utf-8"?>
<!-- Generator: Adobe Illustrator 20.1.0, SVG Export Plug-In . SVG Version: 6.00 Build 0)  -->
<svg version="1.1" id="Layer_1" xmlns="http://www.w3.org/2000/svg" xmlns:xlink="http://www.w3.org/1999/xlink" x="0px" y="0px"
	 viewBox="0 0 1037.7 1056.5" style="enable-background:new 0 0 1037.7 1056.5;" xml:space="preserve">
<style type="text/css">
	.st0{fill:#E6E7E8;stroke:#BCBEC0;stroke-width:16;stroke-miterlimit:10;}
	.st1{fill:#0BA067;}
	.st2{fill:#00D48A;}
	.st3{fill:#231F20;}
</style>
<path class="st0" d="M822.6,1036.8H221.1c-27.8,0-50.3-22.5-50.3-50.3V168.1c0-27.8,22.5-50.3,50.3-50.3h601.5
	c27.8,0,50.3,22.5,50.3,50.3v818.5C872.9,1014.3,850.4,1036.8,822.6,1036.8z"/>
<g>
	<path class="st1" d="M173.9,158.5c-0.2-0.4-0.4-0.8-0.6-1.4l-0.1-0.1c-2.7-5.7-5.3-12.2-7.8-19.2c-3.4-9.4-3.3-13.5-3.2-14.6
		c0.1-1.3,1.1-6.8,7.7-22.4c5.6-12.9,7.8-16.8,8.4-17.9c0.7-1,1.6-1.9,3-2.8c6.1-3.5,10.2-7.2,12.7-11.5c3.3-5.8,3.8-12.7,1.4-19.5
		c-1.9-5.2-5.4-9.5-10.2-12.6c-4.2-2.7-9.1-4.2-14.1-4.2c-0.4,0-0.9,0-1.3,0c-3.9,0.2-10.1,1.2-26.6,7.1
		c-11.6,4.2-20.1,8.5-25.7,13.3c-3.6,3.1-6.1,6.2-7.6,9.2c-0.1,0-0.2-0.1-0.3-0.1c-3.5-1.5-7.3-2.3-11.4-2.3c-1.7,0-3.5,0.1-5.3,0.4
		c-8.2,1.2-18.8,4.2-32.4,9.1c-16.7,6-28.3,11.4-35.3,16.6c-16.1,11.7-13.5,24.9-11.7,30c2.4,6.7,7.3,11.7,13.7,14.1
		c3.2,1.2,7,1.7,14.3,1.7c0.5,0,2.4,0.2,6,1.8c9.8,4.5,19.8,10.1,29.8,16.4c5.5,3.5,7.1,5.4,7.4,5.7c0.2,0.3,1.5,2,3.3,7
		c4.9,13.6,6.6,20.6,7.1,23.8c-8.6,7.4-11.7,17.6-8.2,27.4c1.8,4.9,7.8,16.3,25.5,16.3c2,0,4.1-0.1,6.3-0.4
		c11.2-1.5,22.8-4.3,34.3-8.5c14.6-5.3,25.1-10.5,32.2-16.1c15.3-12.1,12.7-25.1,10.9-30.1C194.1,169.6,188.8,160.6,173.9,158.5z"/>
	<path class="st1" d="M465.8,102l-4.6-39.1c-0.5-4.5-0.8-8.3-1-11.4l0-0.2c-0.2-2.6-0.4-4.1-0.5-5c-1.6-14-11.3-23.1-24.5-23.1
		c-1.2,0-2.5,0.1-3.7,0.2c-13.4,1.6-27,4.9-40.3,9.9c-2.6,1-4.8,2-6.9,3.3c-3.6-3.6-8.7-5.8-14.6-5.8c-1,0-2.1,0.1-3.1,0.2
		c-14.3,1.7-28.6,5-42.5,9.8c-6.3,2.2-11.1,5.1-14.6,9c-3.3,3.6-5.3,8-5.9,12.6c-4.4-3.1-9.2-5.7-14.3-7.7
		c-8.1-3.2-16.6-4.7-25.3-4.7c-5.8,0-11.8,0.7-17.9,2.1c-21,4.9-37.7,15.7-49.6,31.9c-12.1,16.4-15.8,34.9-11.1,55
		c4.3,18.3,14.3,32,29.7,40.6c10,5.6,21,8.5,33,8.5c6.3,0,12.9-0.8,19.6-2.4c19.5-4.6,35.7-14.6,48.2-29.7
		c5.2-6.3,9.1-12.9,11.8-19.7c2.3,6,5.2,11,8.8,14.8c5.5,6.1,15.8,13.4,33.3,13.4c2.7,0,5.6-0.2,8.5-0.5c8.8-1,16.9-4.1,24.2-9.2
		c1.4,1.2,2.8,2,3.9,2.6c2.8,1.4,6.1,2,9.9,2c1.6,0,3.2-0.1,5.1-0.3c9-1.1,18.3-3.3,27.6-6.6c21.5-7.7,31.5-18.6,29.9-32.6
		C478,111.9,473.3,105.6,465.8,102z"/>
	<path class="st1" d="M1024.6,94c-4-9.3-11.1-16.1-20.6-19.6c-4.6-1.8-9.3-2.6-13.9-2.6c-7.6,0-14.8,2.4-21.2,7.1
		c-7.5,5.4-13.3,13.3-17.1,23.3c-2.7,7.2-4.5,15.5-5.3,24.8c-0.8,9-0.6,18,0.7,26.6c0.5,3.4,1,6.7,1.8,9.8c-2.9,0.6-5.8,1.6-8.6,2.9
		c-1.2,0.6-2.4,1.2-3.5,1.9c2.5-10.3,5.9-24,5.9-24c2.3-9.9,3.2-17.8,2.6-24.1c-0.7-7.4-3.6-14.5-8.5-21l-0.1-0.1
		c-6.6-8.6-15.8-14.6-27.1-17.9c-4.8-1.4-9.6-2.1-14.2-2.1c-4.4,0-8.6,0.6-12.6,1.9c0,0,0-0.1-0.1-0.1c-2.8-5.5-7.6-9.5-13.6-11.2
		c-3.6-1-8.5-1.6-16.5-1.7c-1.7,0-3.5-0.1-5.3-0.1c-5.1,0-10.4,0.2-15.9,0.5c-9.7,0.6-15.9,1.6-20.2,3.1c-0.5,0.2-1,0.4-1.5,0.6
		c0.2-4.9-1-9.3-3.5-12.8c4.4-4,7.3-9.2,8.6-15.3c1.8-8.8-0.9-17.1-7.6-23.6c-5.1-4.9-12-8.2-20.6-10c-4.4-0.9-9.1-1.3-13.9-1.3
		c-5.2,0-10.7,0.5-16.3,1.6c-20.3,3.7-25.7,15.9-27.1,22.9c-0.3,1.3-0.4,2.6-0.5,3.8c-0.9-0.4-1.8-0.7-2.7-1l-0.2-0.1
		c-5.3-1.5-11.4-2.6-18.2-3.2c-3.2-0.3-6.2-0.4-9-0.4c-6.6,0-12.2,0.8-16.9,2.4c-2.4,0.8-4.5,1.9-6.4,3.2c-2.1-2-4.6-3.8-7.5-5.2
		c-6.2-3-14.9-4.9-27.3-6c-6.1-0.5-11.8-0.8-17-0.8c-3,0-6,0.1-8.6,0.3c-7.7,0.5-13.5,2-17.9,4.1c-1.8-1.4-3.9-2.7-6.5-4
		c-6.9-3.3-16.5-5.5-29.3-6.6c-4.2-0.4-8.3-0.6-12.3-0.6c-6.4,0-12.5,0.5-18.4,1.4l-0.1,0c-21.5,3.6-25.1,17.6-25.6,23.5
		c-0.4,4.8,0.6,9.5,3.1,13.6c2.5,4.3,6.2,7.6,10.7,9.4l0.2,0.1l0.2,0.1c1.1,0.4,1.9,0.8,2.3,1c1.1,1.4,3.4,4.9,7.3,12.7l26.1,53.5
		c2.9,6,5.8,10.4,9.1,13.6c4.4,4.3,9.9,6.9,15.9,7.4c0.7,0.1,1.4,0.1,2.1,0.1c6.2,0,15.2-2.4,23.3-13.9l13.3-18.9l4.8,9.4
		c4.4,8.6,8.1,14.8,11.5,19c5.3,6.7,11.4,10.3,18.1,10.9c0.6,0.1,1.3,0.1,1.9,0.1c14.8,0,25.8-14.4,33.8-26.9l29.9-47.3
		c0.9-1.5,1.7-2.6,2.3-3.5c1.4,3.6,3.8,6.9,7.1,9.7c-0.2,1.4-0.5,3.2-0.8,5.6c-1.1,7.3-1.7,10.4-1.9,11.8
		c-1.6,7.7-2.8,10.8-3.3,11.8c0,0,0,0.1-0.1,0.1c-4.4,2.1-7,3.7-9,5.6c-3.3,3-5.6,7.1-6.6,12.1c-1.1,5.7-0.2,11.4,2.6,16.5
		c2.6,4.6,6.3,8.2,11.2,10.7l0.2,0.1c7.8,3.9,18,7.1,31.2,9.8c8.5,1.7,15.6,2.5,21.8,2.5c5.3,0,9.7-0.7,13.3-1.8
		c0.5,0.5,1.1,1,1.7,1.5c5.6,4.5,13.8,8.2,24.9,11.4c12,3.5,21.4,5.1,28.7,5.1c0.8,0,1.5,0,2.2-0.1c3-0.1,5.6-0.6,7.9-1.3
		c1.3,1.7,2.9,3.4,4.7,4.8c5,4,12.5,7.4,23.8,10.7c14.3,4.1,24.4,6.1,31.8,6.1c0.5,0,1,0,1.5,0c3.4-0.1,6.6-0.8,9.4-1.8
		c0,0.1,0.1,0.1,0.1,0.2c4.2,8.7,11.2,15.1,20.4,18.6c4.3,1.6,8.7,2.4,13.1,2.4c5.2,0,10.4-1.2,15.5-3.5c9.2-4.2,16-11.4,19.5-20.7
		c3.4-9.1,3.2-18.7-0.7-27.8c-1.1-2.7-2.5-5.2-4.2-7.4c1.5-1,3-2,4.6-3.2c7.1-5.3,13.7-11.8,19.6-19.6c6-7.8,10.5-15.7,13.5-23.6
		C1029.4,117.5,1029.5,105,1024.6,94z"/>
	<path class="st2" d="M65.6,83.4C78.2,78.8,88,76,95.1,75c3.2-0.5,6.1-0.2,8.5,0.8c2.4,1,4.1,2.7,4.8,4.8c0.6,1.7,0.5,3.6-0.3,5.9
		c-1.1,3.4-1.5,5.6-1,6.8c0.8,2.3,4,5.4,9.5,9.1c3.6,2.4,6.4,3.3,8.5,2.5c1.4-0.5,2.5-1.5,3.4-2.9c0.9-1.5,2-3.8,3.1-7.2
		c1.4-4.1,1.7-7,1.1-8.9c-0.4-1.2-0.9-2-1.4-2.4c-0.5-0.5-2-1.5-4.6-3c-1.8-1-3.2-2.8-4.1-5.3c-2.6-7.3,5.9-14.4,25.6-21.5
		c11.1-4,18.6-6.1,22.3-6.3c2.4-0.1,4.5,0.5,6.6,1.8c2,1.3,3.4,3,4.2,5c0.9,2.6,0.9,4.9-0.3,6.9c-1.1,1.9-3.6,4-7.3,6.1
		c-3.4,2-6.1,4.6-8,7.6c-2,3.1-5.1,9.7-9.6,20.1c-5.3,12.6-8.3,21.5-8.8,26.8c-0.5,5.2,0.8,12.3,4,21.2c2.7,7.5,5.5,14.3,8.3,20.4
		c1.7,3.8,3.3,6.3,4.8,7.5c1.4,1.2,3.8,2,7.2,2.5c5.6,0.8,9,3,10.3,6.6c3.1,8.7-8.2,17.8-34.1,27.1c-10.6,3.8-21,6.4-31.2,7.7
		c-8.6,1.1-13.8-0.9-15.7-6c-1.4-4,0-7.7,4.2-11.2c3.2-2.6,4.9-5.1,5.1-7.4c0.5-5.2-2.3-16-8.2-32.6c-1.9-5.1-3.8-9-5.9-11.5
		c-2.1-2.5-5.6-5.4-10.8-8.7c-10.7-6.8-21.2-12.7-31.7-17.5c-4.5-2.1-8.5-3.1-12-3.2c-5,0-8-0.3-9.2-0.7c-2.4-0.9-4-2.6-4.9-5.2
		c-1.5-4.3,0.6-8.6,6.4-12.8C39.8,93.7,50.3,88.8,65.6,83.4z"/>
	<path class="st2" d="M249.6,66.8c12.2-2.9,23.6-2.2,34.3,2c7.6,3,14.3,7.6,20,14c5.9,6.6,9.8,14.1,11.8,22.3
		c3.4,14.4-0.4,28.3-11.2,41.5c-10.4,12.6-23.7,20.8-40,24.6c-15.9,3.7-29.8,2.2-41.8-4.5c-11.6-6.5-19.1-16.9-22.4-31
		c-3.7-15.7-0.8-29.9,8.5-42.7C218.4,79.7,232.1,70.9,249.6,66.8z M247,91.7c-2.9,0.7-5,2.3-6.3,4.9c-1.3,2.6-1.5,5.7-0.6,9.3
		c0.9,4,3,9.3,6.1,15.8c3.1,6.5,6.3,12.2,9.6,17.1c3.3,5,7.3,6.9,12,5.8c5.9-1.4,8-5.8,6.2-13.4c-1.3-5.6-3.5-11.8-6.7-18.5
		c-3.2-6.8-6.3-12.1-9.5-16.1C254.6,92.6,250.9,91,247,91.7z"/>
	<path class="st2" d="M374.9,50.4l6.5,55.2c1.4,11.8,6,17.3,13.8,16.3c2-0.2,3.8-1,5.6-2.4c1.8-1.3,2.9-2.9,3.5-4.6
		c1.1-3.4,1-10.8-0.3-22.1c-1.3-11.1-2.6-18.7-3.8-22.7c-0.5-1.7-1.1-2.8-1.9-3.5c-0.8-0.7-2.2-1.4-4.2-2.2
		c-4.1-1.6-6.3-3.9-6.7-7.1c-0.5-4.2,2.5-7.5,9-9.9c12.3-4.6,24.5-7.6,36.8-9.1c6.9-0.8,10.7,2.4,11.6,9.7c0.1,0.7,0.2,2.3,0.4,4.6
		c0.2,3.3,0.6,7.3,1.1,12l5.3,44.9c0.3,2.3,2.5,4.2,6.6,5.6c3.5,1.2,5.5,3.4,5.8,6.5c0.7,6.1-6,11.7-20,16.7
		c-8.3,3-16.4,4.9-24.3,5.8c-3.3,0.4-5.5,0.3-6.8-0.3c-1.3-0.6-2.1-2-2.6-4.1c-0.8-4.2-2.4-6.1-4.6-5.9c-0.8,0.1-1.5,0.4-2.2,0.8
		c-0.6,0.5-2.5,2.1-5.7,4.9c-6.3,5.5-13.4,8.7-21.3,9.6c-13,1.5-22.7-1.2-28.9-8.1c-5.3-5.8-8.8-16.1-10.6-31.1
		c-0.7-5.6-1.2-10.3-1.6-14.3c-0.3-2.3-0.5-3.9-0.6-4.7c-0.7-5.8-1.7-10.1-3.1-12.7c-1.4-2.6-3.5-4.6-6.5-5.8
		c-2.8-1-4.6-1.9-5.4-2.7s-1.3-1.8-1.5-3.2c-0.6-5.2,2.9-9,10.5-11.7c13-4.5,26.1-7.5,39.4-9.1C372.3,45.5,374.5,47,374.9,50.4z"/>
	<path class="st2" d="M636.6,125.7l-9-17.8c-2.1-4-3.5-6.4-4.2-7.3c-0.6-0.8-1.6-1.3-2.7-1.4c-2.5-0.2-5.2,1.8-8.1,6.1l-19.6,27.9
		c-3.8,5.4-7.7,7.9-11.8,7.5c-2.5-0.2-4.8-1.3-6.7-3.2c-2-1.9-4-5.1-6.1-9.4l-26.2-53.7c-4.4-8.7-7.9-14.4-10.5-17.2
		c-1.3-1.2-3.7-2.5-7.2-3.8c-1.5-0.6-2.6-1.7-3.5-3.1c-0.9-1.5-1.2-3.1-1.1-4.8c0.5-5.2,4.8-8.6,13.1-10c8.3-1.3,17.4-1.6,27-0.7
		c21.7,1.9,32.2,6.9,31.5,15c-0.1,1.5-1.4,3.7-3.8,6.6c-0.5,0.6-0.7,1.2-0.8,1.9c-0.1,1.5,1.1,5.3,3.8,11.6c3,7.1,5.7,10.7,8.3,10.9
		c1.5,0.1,3.6-1.4,6.2-4.6c2.6-3.2,4-5.9,4.2-8c0.2-2.1-0.2-3.8-1.1-5.2c-0.9-1.3-3.2-3.6-6.7-6.6c-2.2-1.8-3.2-3.9-3-6.1
		c0.5-5.3,6.2-8.3,17.3-9c6.7-0.4,14.5-0.3,23.4,0.5c10.3,0.9,17.6,2.4,22,4.6c4.4,2.1,6.4,5.1,6.1,9c-0.1,1.6-0.5,2.8-1.1,3.7
		c-0.6,0.9-2.2,2.5-4.8,4.7c-0.8,0.8-1.3,1.8-1.4,3.1c-0.2,1.8,1.1,5.9,3.7,12.1c2.3,5.4,4.5,8.2,6.8,8.4c2.5,0.2,5.8-2.8,10.2-9.1
		c3.2-4.7,4.8-7.9,5-9.6c0.1-1.3-0.8-3.4-2.7-6.3c-1.4-2-2-4.2-1.8-6.4c0.3-3.5,2.1-5.9,5.4-6.9c4.7-1.6,11.3-2,19.9-1.2
		c5.8,0.5,10.9,1.4,15.3,2.7c2.5,0.8,4.6,2.1,6,3.9c1.5,1.8,2.1,3.8,1.9,6c-0.2,2.2-1.3,3.9-3.3,5.3c-0.4,0.3-2.8,1.1-7.4,2.2
		c-2.6,0.7-4.8,1.9-6.6,3.5c-1.8,1.6-4,4.6-6.8,9l-29.9,47.2c-8.8,13.8-16,20.4-21.7,19.9c-2.5-0.2-5-2-7.7-5.4
		S640.4,133.3,636.6,125.7z"/>
	<path class="st2" d="M794.7,73l-11.8,58.4c-0.9,4.6-1.2,8.1-0.8,10.4c0.4,2.3,1.7,4.6,3.9,7c1.8,1.9,2.9,3.4,3.4,4.6
		c0.5,1.2,0.6,2.6,0.3,4.2c-1.7,8.6-13.6,10.8-35.5,6.3c-11.8-2.4-21-5.2-27.5-8.5c-2.2-1.1-3.9-2.7-5-4.7c-1.1-2-1.4-4-1-6.2
		c0.4-1.8,1-3.1,2-4c0.9-0.9,3.1-2.1,6.6-3.7c2.4-1.1,4.4-3.3,5.9-6.6c1.6-3.3,3.1-8.4,4.5-15.3c0.4-2.2,1.1-6.4,2.1-12.5
		c0.9-6.1,1.4-9.7,1.5-10.7c0.2-2.8-1.3-5.3-4.3-7.5c-3.8-2.6-5.3-5.7-4.6-9.3c0.9-4.2,4.2-6.8,10.1-7.8c8.1-1.4,16.6-2.2,25.6-2.5
		c9-0.3,15.8,0.1,20.5,1C794.1,66.4,795.6,68.8,794.7,73z M783.7,24.9c5.8,1.2,10.2,3.2,13.2,6.1c3,2.9,4.1,6.1,3.3,9.8
		c-1,5.2-4.4,8.7-10.2,10.7c-9.1,3.1-19.5,3.5-31.1,1.1c-4.9-1-8.6-2.7-11.1-5.2c-3.4-3.2-4.7-6.9-3.8-11.2
		c1.2-5.8,6.2-9.5,15.1-11.1C768.2,23.5,776.4,23.5,783.7,24.9z"/>
	<path class="st2" d="M928.2,140.7l-8.6,35.1c-0.6,2.7-0.8,4.7-0.4,6.2c0.3,1.4,1.7,4.4,4,8.9c0.7,1.3,0.7,3,0.2,4.9
		c-1.3,4.3-4.7,6.6-10.4,6.8c-5.7,0.2-15.2-1.6-28.5-5.5c-9.1-2.6-15.2-5.3-18.5-7.9c-3.4-2.8-4.6-6-3.5-9.7
		c0.4-1.3,0.9-2.2,1.4-2.7c0.6-0.5,2.3-1.7,5.3-3.4c3.4-2,7.4-10.8,11.9-26.4c2.6-9.1,3.5-16.1,2.6-21c-0.7-4-3.4-6.6-8-8
		c-4.4-1.3-7.8-0.7-10.3,1.6c-2.5,2.4-4.8,7.2-6.9,14.7l-5.6,19.5c-1.1,3.9-1.6,6.6-1.6,8.2c0.1,1.6,0.9,4.8,2.5,9.8
		c0.4,1.4,0.4,2.8-0.1,4.4c-1.1,3.9-4.6,6-10.6,6.2c-5.9,0.3-14.6-1.2-26-4.5c-18.3-5.3-26.3-11.7-24.1-19.2
		c0.5-1.6,1.1-2.7,1.9-3.4c0.8-0.7,2.5-1.4,5-2.3c2.1-0.8,3.6-1.9,4.5-3.3c0.9-1.5,2.5-5.3,4.7-11.5c2.6-7.4,5.1-15.1,7.5-23.3
		c1.3-4.5,1.8-7.6,1.5-9.2c-0.3-1.6-1.8-3.9-4.5-6.9c-2.3-2.6-3.1-5.2-2.4-7.7c0.8-2.6,2.5-4.4,5.3-5.5c2.8-1,8.1-1.8,16-2.3
		c6.9-0.4,13.6-0.5,19.9-0.4c6.3,0.1,10.5,0.5,12.7,1.2c2,0.6,3.4,1.8,4.3,3.6c0.9,1.8,1.1,3.7,0.5,5.7c-0.1,0.2-0.3,1-0.8,2.4
		c-0.2,0.5-0.4,1-0.5,1.4c-0.9,3.2-0.1,5.1,2.6,5.9c1.6,0.5,3.6-0.3,6.1-2.3c8-6.5,17.4-8.2,28.2-5.1c8.3,2.4,14.7,6.6,19.4,12.6
		c3.2,4.3,5.1,8.7,5.5,13.4C930.9,126.1,930.2,132.5,928.2,140.7z"/>
	<path class="st2" d="M964.9,179.2c5.6,2.1,9.5,6,11.9,11.6c2.4,5.6,2.6,11.1,0.5,16.6c-2.2,5.7-6.1,9.8-11.7,12.4
		c-5.7,2.6-11.3,2.8-17,0.6c-5.6-2.1-9.6-5.8-12.2-11.1c-2.7-5.7-3-11.6-0.7-17.6c2.1-5.6,5.8-9.6,11-12
		C952.7,177.1,958.7,176.9,964.9,179.2z M998.7,88.4c5.7,2.2,9.7,6,12.2,11.6c3.3,7.4,3.1,16-0.7,25.8c-2.5,6.5-6.3,13.1-11.4,19.8
		c-5.1,6.7-10.7,12.2-16.7,16.7c-6.8,5-11.5,7-14.1,6.1c-2.6-1-4.6-6.6-6-16.9c-1.1-7.6-1.3-15.3-0.6-23.2
		c0.7-7.9,2.2-14.9,4.4-20.8c2.8-7.3,6.7-12.8,11.8-16.5C984,86.3,991,85.5,998.7,88.4z"/>
</g>
<g>
	<g>
		<path class="st3" d="M302,850.8l-14.4-22.4h4.4l11.9,18.6l12.2-18.6h4.1l-14.4,22.4v16.9H302V850.8z"/>
		<path class="st3" d="M322.8,854.9c0-2,0.3-3.8,1-5.4s1.6-3.1,2.8-4.3c1.2-1.2,2.6-2.1,4.3-2.8s3.5-1,5.4-1c2,0,3.8,0.3,5.4,1
			c1.6,0.7,3.1,1.6,4.3,2.8c1.2,1.2,2.1,2.6,2.8,4.3s1,3.5,1,5.4s-0.3,3.8-1,5.4c-0.7,1.6-1.6,3.1-2.8,4.3c-1.2,1.2-2.6,2.1-4.3,2.8
			c-1.6,0.7-3.5,1-5.4,1c-2,0-3.8-0.3-5.4-1s-3.1-1.6-4.3-2.8c-1.2-1.2-2.1-2.6-2.8-4.3C323.1,858.7,322.8,856.9,322.8,854.9z
			 M326.1,854.9c0,1.4,0.2,2.8,0.7,4.1c0.5,1.3,1.1,2.4,2,3.3c0.9,0.9,2,1.7,3.2,2.2c1.3,0.6,2.7,0.8,4.2,0.8c1.6,0,3-0.3,4.2-0.8
			c1.3-0.6,2.3-1.3,3.2-2.2c0.9-0.9,1.6-2.1,2-3.3c0.5-1.3,0.7-2.6,0.7-4.1c0-1.4-0.2-2.8-0.7-4.1c-0.5-1.3-1.1-2.4-2-3.3
			c-0.9-0.9-2-1.7-3.2-2.2c-1.3-0.6-2.7-0.8-4.2-0.8c-1.6,0-3,0.3-4.2,0.8c-1.3,0.6-2.3,1.3-3.2,2.2c-0.9,0.9-1.6,2.1-2,3.3
			C326.3,852.1,326.1,853.5,326.1,854.9z"/>
		<path class="st3" d="M378.9,860.6c0,0.5,0,1.1,0.1,1.7c0,0.7,0.1,1.4,0.1,2.1c0,0.7,0,1.4,0.1,2c0,0.6,0.1,1.1,0.1,1.4h-3.3
			c0-1-0.1-1.9-0.1-2.8c0-0.9-0.1-1.5-0.1-1.7h-0.2c-0.7,1.4-1.8,2.6-3.3,3.6c-1.6,1-3.4,1.5-5.4,1.5c-2,0-3.6-0.3-4.9-0.9
			c-1.3-0.6-2.3-1.5-3-2.5c-0.7-1-1.2-2.2-1.5-3.5c-0.3-1.3-0.4-2.7-0.4-4.1v-15.3h3.3v15.1c0,1,0.1,2,0.3,3c0.2,1,0.5,1.9,1,2.6
			c0.5,0.8,1.1,1.4,1.9,1.9s1.9,0.7,3.2,0.7c1.2,0,2.4-0.2,3.5-0.6c1.1-0.4,2-1.1,2.8-1.9c0.8-0.9,1.4-2,1.9-3.3
			c0.5-1.3,0.7-2.9,0.7-4.6v-12.8h3.3V860.6z"/>
		<path class="st3" d="M402.5,849.3c0-0.5,0-1.1-0.1-1.7c0-0.7-0.1-1.4-0.1-2.1c0-0.7,0-1.4-0.1-2c0-0.6-0.1-1.1-0.1-1.4h3.3
			c0,1,0.1,1.9,0.1,2.8c0,0.9,0.1,1.5,0.1,1.7c0.9-1.5,1.9-2.8,3.3-3.7c1.3-1,3-1.4,4.9-1.4c0.3,0,0.7,0,1,0.1
			c0.3,0.1,0.6,0.1,1,0.2l-0.4,3.3c-0.4-0.1-0.9-0.2-1.3-0.2c-1.4,0-2.7,0.2-3.7,0.7c-1.1,0.5-1.9,1.1-2.6,1.9
			c-0.7,0.8-1.2,1.8-1.5,2.9c-0.3,1.1-0.5,2.3-0.5,3.5v14h-3.3V849.3z"/>
		<path class="st3" d="M443.6,862.9c-1.3,2-2.9,3.4-4.8,4.2c-1.9,0.9-4,1.3-6.3,1.3c-2,0-3.7-0.3-5.3-1s-3-1.6-4.1-2.8
			c-1.1-1.2-2-2.6-2.6-4.3c-0.6-1.6-0.9-3.5-0.9-5.5c0-1.9,0.3-3.7,0.9-5.3c0.6-1.6,1.5-3,2.7-4.2c1.1-1.2,2.5-2.1,4.1-2.8
			c1.6-0.7,3.3-1,5.2-1c2,0,3.7,0.3,5.2,1c1.5,0.7,2.8,1.6,3.8,2.7c1,1.1,1.8,2.4,2.3,3.9c0.5,1.4,0.8,2.9,0.8,4.4v2.3h-21.5
			c0,0.7,0.1,1.6,0.4,2.7c0.3,1.1,0.8,2.2,1.5,3.2c0.7,1,1.7,1.9,3,2.7c1.2,0.7,2.8,1.1,4.8,1.1c1.7,0,3.3-0.4,4.9-1.2
			c1.6-0.8,2.8-1.9,3.7-3.3L443.6,862.9z M441,852.8c0-1.1-0.2-2.2-0.7-3.2c-0.5-1-1.1-1.9-1.9-2.6c-0.8-0.8-1.7-1.4-2.8-1.8
			c-1.1-0.4-2.2-0.7-3.5-0.7c-1.8,0-3.3,0.4-4.5,1.1c-1.2,0.7-2.2,1.6-2.9,2.6c-0.7,1-1.2,1.9-1.5,2.8c-0.3,0.9-0.4,1.5-0.4,1.9H441
			z"/>
		<path class="st3" d="M451.9,861.2c0.7,1.4,1.7,2.4,3.1,3.1c1.4,0.7,2.8,1.1,4.3,1.1c0.7,0,1.4-0.1,2.1-0.3
			c0.7-0.2,1.3-0.5,1.9-0.9c0.6-0.4,1-0.9,1.4-1.5c0.4-0.6,0.5-1.2,0.5-2c0-1.2-0.4-2.1-1.1-2.7c-0.8-0.6-1.7-1.1-2.8-1.4
			s-2.3-0.6-3.7-0.9c-1.3-0.2-2.6-0.6-3.7-1.1c-1.1-0.5-2-1.2-2.8-2.1c-0.8-0.9-1.1-2.1-1.1-3.8c0-1.3,0.3-2.3,0.8-3.3
			c0.5-0.9,1.2-1.7,2-2.3s1.8-1.1,2.8-1.4c1-0.3,2.1-0.4,3.2-0.4c2.1,0,3.9,0.4,5.5,1.2c1.5,0.8,2.7,2,3.6,3.7l-3,1.8
			c-0.6-1.2-1.4-2.1-2.4-2.7c-0.9-0.6-2.2-0.9-3.7-0.9c-0.6,0-1.2,0.1-1.9,0.3c-0.6,0.2-1.2,0.4-1.7,0.8c-0.5,0.3-1,0.8-1.3,1.3
			c-0.4,0.5-0.5,1.1-0.5,1.8c0,1.1,0.4,2,1.1,2.6c0.8,0.6,1.7,1,2.8,1.3s2.3,0.6,3.7,0.8s2.6,0.6,3.7,1.1c1.1,0.5,2,1.2,2.8,2.2
			c0.8,0.9,1.1,2.3,1.1,4c0,1.3-0.2,2.5-0.7,3.5c-0.5,1-1.2,1.8-2.1,2.5c-0.9,0.7-1.9,1.2-3,1.5c-1.1,0.3-2.3,0.5-3.5,0.5
			c-2.2,0-4.2-0.4-6.1-1.3s-3.2-2.2-4.2-3.9L451.9,861.2z"/>
		<path class="st3" d="M496.9,864c-1.3,1.5-2.7,2.6-4.3,3.4c-1.6,0.7-3.3,1.1-5.2,1.1c-2,0-3.8-0.3-5.4-1s-3.1-1.6-4.3-2.8
			c-1.2-1.2-2.1-2.6-2.8-4.3c-0.7-1.6-1-3.5-1-5.4s0.3-3.8,1-5.4s1.6-3.1,2.8-4.3c1.2-1.2,2.6-2.1,4.3-2.8s3.5-1,5.4-1
			c1.9,0,3.6,0.4,5.2,1.2c1.6,0.8,3,1.9,4.3,3.3l-2.7,2c-1-1.1-2-1.9-3.2-2.5c-1.1-0.6-2.4-0.9-3.7-0.9c-1.6,0-3,0.3-4.2,0.8
			c-1.3,0.6-2.3,1.3-3.2,2.2c-0.9,0.9-1.6,2.1-2,3.3c-0.5,1.3-0.7,2.6-0.7,4.1c0,1.4,0.2,2.8,0.7,4.1c0.5,1.3,1.1,2.4,2,3.3
			c0.9,0.9,2,1.7,3.2,2.2c1.3,0.6,2.7,0.8,4.2,0.8c1.4,0,2.7-0.3,3.9-1c1.2-0.6,2.2-1.5,3-2.6L496.9,864z"/>
		<path class="st3" d="M523.8,860.6c0,0.5,0,1.1,0.1,1.7c0,0.7,0.1,1.4,0.1,2.1c0,0.7,0,1.4,0.1,2c0,0.6,0.1,1.1,0.1,1.4h-3.3
			c0-1-0.1-1.9-0.1-2.8c0-0.9-0.1-1.5-0.1-1.7h-0.2c-0.7,1.4-1.8,2.6-3.3,3.6c-1.6,1-3.4,1.5-5.4,1.5c-2,0-3.6-0.3-4.9-0.9
			c-1.3-0.6-2.3-1.5-3-2.5c-0.7-1-1.2-2.2-1.5-3.5c-0.3-1.3-0.4-2.7-0.4-4.1v-15.3h3.3v15.1c0,1,0.1,2,0.3,3c0.2,1,0.5,1.9,1,2.6
			c0.5,0.8,1.1,1.4,1.9,1.9s1.9,0.7,3.2,0.7c1.2,0,2.4-0.2,3.5-0.6c1.1-0.4,2-1.1,2.8-1.9c0.8-0.9,1.4-2,1.9-3.3
			c0.5-1.3,0.7-2.9,0.7-4.6v-12.8h3.3V860.6z"/>
		<path class="st3" d="M555.6,862.9c-1.3,2-2.9,3.4-4.8,4.2c-1.9,0.9-4,1.3-6.3,1.3c-2,0-3.7-0.3-5.3-1c-1.6-0.7-3-1.6-4.1-2.8
			c-1.1-1.2-2-2.6-2.6-4.3c-0.6-1.6-0.9-3.5-0.9-5.5c0-1.9,0.3-3.7,0.9-5.3c0.6-1.6,1.5-3,2.7-4.2c1.1-1.2,2.5-2.1,4.1-2.8
			c1.6-0.7,3.3-1,5.2-1c2,0,3.7,0.3,5.2,1c1.5,0.7,2.8,1.6,3.8,2.7c1,1.1,1.8,2.4,2.3,3.9c0.5,1.4,0.8,2.9,0.8,4.4v2.3h-21.5
			c0,0.7,0.1,1.6,0.4,2.7c0.3,1.1,0.8,2.2,1.5,3.2c0.7,1,1.7,1.9,3,2.7c1.2,0.7,2.8,1.1,4.8,1.1c1.7,0,3.3-0.4,4.9-1.2
			c1.6-0.8,2.8-1.9,3.7-3.3L555.6,862.9z M553.1,852.8c0-1.1-0.2-2.2-0.7-3.2s-1.1-1.9-1.9-2.6c-0.8-0.8-1.7-1.4-2.8-1.8
			c-1.1-0.4-2.2-0.7-3.5-0.7c-1.8,0-3.3,0.4-4.5,1.1c-1.2,0.7-2.2,1.6-2.9,2.6c-0.7,1-1.2,1.9-1.5,2.8c-0.3,0.9-0.4,1.5-0.4,1.9
			H553.1z"/>
		<path class="st3" d="M586.3,863.3h-0.1c-0.5,0.9-1.2,1.7-1.9,2.3c-0.8,0.6-1.6,1.2-2.5,1.6c-0.9,0.4-1.9,0.7-2.9,0.9
			s-2,0.3-2.9,0.3c-2,0-3.8-0.3-5.4-1s-3.1-1.6-4.3-2.8c-1.2-1.2-2.1-2.6-2.8-4.3c-0.7-1.6-1-3.5-1-5.4s0.3-3.8,1-5.4
			s1.6-3.1,2.8-4.3c1.2-1.2,2.6-2.1,4.3-2.8s3.5-1,5.4-1c1,0,1.9,0.1,2.9,0.3c1,0.2,2,0.5,2.9,0.9c0.9,0.4,1.7,1,2.5,1.6
			c0.8,0.6,1.4,1.4,1.9,2.3h0.1v-20.8h3.3v42h-3.3V863.3z M586.6,854.9c0-1.4-0.3-2.8-0.8-4.1c-0.6-1.3-1.3-2.4-2.3-3.3
			c-1-0.9-2.1-1.7-3.4-2.2s-2.7-0.8-4.2-0.8c-1.6,0-3,0.3-4.2,0.8c-1.3,0.6-2.3,1.3-3.2,2.2c-0.9,0.9-1.6,2.1-2,3.3
			s-0.7,2.6-0.7,4.1c0,1.4,0.2,2.8,0.7,4.1s1.1,2.4,2,3.3c0.9,0.9,2,1.7,3.2,2.2c1.3,0.6,2.7,0.8,4.2,0.8c1.5,0,2.9-0.3,4.2-0.8
			c1.3-0.6,2.4-1.3,3.4-2.2c1-0.9,1.7-2.1,2.3-3.3C586.3,857.8,586.6,856.4,586.6,854.9z"/>
		<path class="st3" d="M632.1,857c0,1.3,0,2.4,0,3.4c0,1,0,1.9,0.1,2.8c0,0.9,0.1,1.6,0.1,2.4s0.1,1.5,0.2,2.2h-3.1
			c-0.2-1.3-0.3-2.6-0.3-4.2h-0.1c-1,1.7-2.2,2.9-3.6,3.7c-1.4,0.8-3.2,1.2-5.4,1.2c-1.1,0-2.2-0.1-3.3-0.4c-1.1-0.3-2-0.7-2.9-1.3
			c-0.9-0.6-1.5-1.4-2.1-2.4c-0.5-1-0.8-2.1-0.8-3.5c0-2,0.5-3.5,1.5-4.7c1-1.1,2.2-2,3.7-2.6c1.5-0.6,3-0.9,4.7-1.1
			c1.6-0.2,3.1-0.2,4.4-0.2h3.9v-1.6c0-2.2-0.7-3.8-2.1-4.8c-1.4-1-3.1-1.4-5.2-1.4c-3,0-5.6,1-7.8,2.9l-1.9-2.3
			c1.2-1.2,2.7-2.1,4.6-2.7c1.8-0.6,3.6-0.9,5.2-0.9c3.1,0,5.6,0.7,7.4,2.2c1.8,1.5,2.8,3.8,2.8,7.1V857z M625.5,854.9
			c-1.4,0-2.8,0.1-4.1,0.3c-1.3,0.2-2.5,0.5-3.6,0.9c-1.1,0.4-1.9,1-2.5,1.8c-0.6,0.7-0.9,1.7-0.9,2.8c0,0.8,0.2,1.5,0.5,2.1
			c0.4,0.6,0.8,1.1,1.4,1.5c0.6,0.4,1.2,0.7,1.9,0.9c0.7,0.2,1.4,0.3,2.1,0.3c1.8,0,3.2-0.3,4.4-0.8c1.1-0.5,2.1-1.2,2.7-2
			c0.7-0.8,1.2-1.8,1.4-2.8c0.3-1.1,0.4-2.1,0.4-3.2v-1.7H625.5z"/>
		<path class="st3" d="M641.6,825.8h3.3v42h-3.3V825.8z"/>
		<path class="st3" d="M654.9,825.8h3.3v42h-3.3V825.8z"/>
		<path class="st3" d="M694.6,845.1h-7.3v16.7c0,1.1,0.3,2,0.9,2.7c0.6,0.6,1.5,0.9,2.6,0.9c0.6,0,1.3-0.1,1.9-0.2
			c0.6-0.2,1.3-0.4,1.9-0.6l0.3,3c-0.6,0.2-1.4,0.4-2.2,0.6c-0.8,0.2-1.5,0.3-2.2,0.3c-1.2,0-2.2-0.2-3.1-0.5
			c-0.9-0.4-1.5-0.8-2.1-1.4c-0.5-0.6-0.9-1.3-1.1-2.1c-0.2-0.8-0.4-1.7-0.4-2.6v-16.7h-5.5v-3h5.5v-7.4h3.3v7.4h7.3V845.1z"/>
		<path class="st3" d="M700.6,825.8h3.3v20.8h0.1c0.7-1.4,1.8-2.6,3.3-3.6s3.4-1.5,5.4-1.5c2,0,3.6,0.3,4.9,0.9
			c1.3,0.6,2.2,1.5,3,2.5c0.7,1,1.2,2.2,1.5,3.5s0.4,2.7,0.4,4.1v15.3h-3.3v-15.1c0-1-0.1-2-0.3-3c-0.2-1-0.5-1.9-1-2.6
			c-0.5-0.8-1.1-1.4-1.9-1.9c-0.8-0.5-1.9-0.7-3.2-0.7c-1.2,0-2.4,0.2-3.5,0.6c-1.1,0.4-2,1.1-2.8,1.9c-0.8,0.9-1.4,2-1.9,3.3
			c-0.5,1.3-0.7,2.9-0.7,4.6v12.8h-3.3V825.8z"/>
		<path class="st3" d="M754.1,862.9c-1.3,2-2.9,3.4-4.8,4.2c-1.9,0.9-4,1.3-6.3,1.3c-2,0-3.7-0.3-5.3-1c-1.6-0.7-3-1.6-4.1-2.8
			c-1.1-1.2-2-2.6-2.6-4.3c-0.6-1.6-0.9-3.5-0.9-5.5c0-1.9,0.3-3.7,0.9-5.3c0.6-1.6,1.5-3,2.7-4.2c1.1-1.2,2.5-2.1,4.1-2.8
			c1.6-0.7,3.3-1,5.2-1c2,0,3.7,0.3,5.2,1c1.5,0.7,2.8,1.6,3.8,2.7c1,1.1,1.8,2.4,2.3,3.9c0.5,1.4,0.8,2.9,0.8,4.4v2.3h-21.5
			c0,0.7,0.1,1.6,0.4,2.7c0.3,1.1,0.8,2.2,1.5,3.2c0.7,1,1.7,1.9,3,2.7c1.2,0.7,2.8,1.1,4.8,1.1c1.7,0,3.3-0.4,4.9-1.2
			c1.6-0.8,2.8-1.9,3.7-3.3L754.1,862.9z M751.5,852.8c0-1.1-0.2-2.2-0.7-3.2s-1.1-1.9-1.9-2.6c-0.8-0.8-1.7-1.4-2.8-1.8
			c-1.1-0.4-2.2-0.7-3.5-0.7c-1.8,0-3.3,0.4-4.5,1.1c-1.2,0.7-2.2,1.6-2.9,2.6c-0.7,1-1.2,1.9-1.5,2.8c-0.3,0.9-0.4,1.5-0.4,1.9
			H751.5z"/>
		<path class="st3" d="M443.9,923.6c0,1.3,0,2.4,0,3.4c0,1,0,1.9,0.1,2.8c0,0.9,0.1,1.6,0.1,2.4s0.1,1.5,0.2,2.2h-3.1
			c-0.2-1.3-0.3-2.6-0.3-4.2h-0.1c-1,1.7-2.2,2.9-3.6,3.7c-1.4,0.8-3.2,1.2-5.4,1.2c-1.1,0-2.2-0.1-3.3-0.4c-1.1-0.3-2-0.7-2.9-1.3
			c-0.9-0.6-1.5-1.4-2.1-2.4c-0.5-1-0.8-2.1-0.8-3.5c0-2,0.5-3.5,1.5-4.7c1-1.1,2.2-2,3.7-2.6c1.5-0.6,3-0.9,4.7-1.1
			c1.6-0.2,3.1-0.2,4.4-0.2h3.9v-1.6c0-2.2-0.7-3.8-2.1-4.8c-1.4-1-3.1-1.4-5.2-1.4c-3,0-5.6,1-7.8,2.9l-1.9-2.3
			c1.2-1.2,2.7-2.1,4.6-2.7c1.8-0.6,3.6-0.9,5.2-0.9c3.1,0,5.6,0.7,7.4,2.2c1.9,1.5,2.8,3.8,2.8,7.1V923.6z M437.3,921.5
			c-1.4,0-2.8,0.1-4.1,0.3c-1.3,0.2-2.5,0.5-3.6,0.9c-1.1,0.4-1.9,1-2.5,1.8c-0.6,0.7-0.9,1.7-0.9,2.8c0,0.8,0.2,1.5,0.5,2.1
			c0.4,0.6,0.8,1.1,1.4,1.5c0.6,0.4,1.2,0.7,1.9,0.9c0.7,0.2,1.4,0.3,2.1,0.3c1.8,0,3.2-0.3,4.4-0.8c1.1-0.5,2.1-1.2,2.7-2
			c0.7-0.8,1.2-1.8,1.4-2.8c0.3-1.1,0.4-2.1,0.4-3.2v-1.7H437.3z"/>
		<path class="st3" d="M452.8,915.9c0-0.5,0-1.1-0.1-1.7c0-0.7-0.1-1.4-0.1-2.1c0-0.7,0-1.4-0.1-2c0-0.6-0.1-1.1-0.1-1.4h3.3
			c0,1,0.1,1.9,0.1,2.8c0,0.9,0.1,1.5,0.1,1.7h0.2c0.7-1.4,1.8-2.6,3.3-3.6c1.6-1,3.4-1.5,5.4-1.5c2,0,3.6,0.3,4.9,0.9
			c1.3,0.6,2.2,1.5,3,2.5c0.7,1,1.2,2.2,1.5,3.5c0.3,1.3,0.4,2.7,0.4,4.1v15.3h-3.3v-15.1c0-1-0.1-2-0.3-3c-0.2-1-0.5-1.9-1-2.6
			c-0.5-0.8-1.1-1.4-1.9-1.9c-0.8-0.5-1.9-0.7-3.2-0.7c-1.2,0-2.4,0.2-3.5,0.6c-1.1,0.4-2,1.1-2.8,1.9c-0.8,0.9-1.4,2-1.9,3.3
			c-0.5,1.3-0.7,2.9-0.7,4.6v12.8h-3.3V915.9z"/>
		<path class="st3" d="M483.4,898.6c0-0.7,0.2-1.3,0.7-1.8c0.5-0.5,1.1-0.7,1.8-0.7c0.7,0,1.3,0.2,1.8,0.7c0.5,0.5,0.7,1.1,0.7,1.8
			c0,0.7-0.2,1.3-0.7,1.8c-0.5,0.5-1.1,0.7-1.8,0.7c-0.7,0-1.3-0.2-1.8-0.7C483.7,899.9,483.4,899.3,483.4,898.6z M484.2,908.7h3.3
			v25.6h-3.3V908.7z"/>
		<path class="st3" d="M497,915.9c0-0.5,0-1.1-0.1-1.7c0-0.7-0.1-1.4-0.1-2.1c0-0.7,0-1.4-0.1-2c0-0.6-0.1-1.1-0.1-1.4h3.3
			c0,1,0.1,1.9,0.1,2.8c0,0.9,0.1,1.5,0.1,1.7h0.2c0.7-1.4,1.8-2.6,3.3-3.6c1.6-1,3.4-1.5,5.4-1.5c1.7,0,3.3,0.4,4.7,1.3
			c1.4,0.9,2.4,2.3,3.1,4.2c0.8-1.9,2-3.3,3.6-4.2c1.6-0.9,3.3-1.3,5.1-1.3c2,0,3.6,0.3,4.9,0.9s2.2,1.5,3,2.5
			c0.7,1,1.2,2.2,1.5,3.5s0.4,2.7,0.4,4.1v15.3h-3.3v-15.1c0-1-0.1-2-0.3-3c-0.2-1-0.5-1.9-1-2.6c-0.5-0.8-1.1-1.4-1.9-1.9
			c-0.8-0.5-1.9-0.7-3.2-0.7c-1.6,0-2.8,0.3-3.8,0.9c-1,0.6-1.8,1.3-2.4,2.2c-0.6,0.9-1,1.9-1.2,2.9c-0.2,1-0.4,2-0.4,2.9v14.4h-3.3
			v-15.4c0-2.4-0.4-4.3-1.3-5.7c-0.9-1.4-2.2-2.2-4-2.2c-1.2,0-2.4,0.2-3.5,0.6c-1.1,0.4-2,1.1-2.8,1.9c-0.8,0.9-1.4,2-1.9,3.3
			c-0.5,1.3-0.7,2.9-0.7,4.6v12.8H497V915.9z"/>
		<path class="st3" d="M564.2,923.6c0,1.3,0,2.4,0,3.4c0,1,0,1.9,0.1,2.8c0,0.9,0.1,1.6,0.1,2.4s0.1,1.5,0.2,2.2h-3.1
			c-0.2-1.3-0.3-2.6-0.3-4.2h-0.1c-1,1.7-2.2,2.9-3.6,3.7c-1.4,0.8-3.2,1.2-5.4,1.2c-1.1,0-2.2-0.1-3.3-0.4c-1.1-0.3-2-0.7-2.9-1.3
			c-0.9-0.6-1.5-1.4-2.1-2.4c-0.5-1-0.8-2.1-0.8-3.5c0-2,0.5-3.5,1.5-4.7c1-1.1,2.2-2,3.7-2.6c1.5-0.6,3-0.9,4.7-1.1
			c1.6-0.2,3.1-0.2,4.4-0.2h3.9v-1.6c0-2.2-0.7-3.8-2.1-4.8c-1.4-1-3.1-1.4-5.2-1.4c-3,0-5.6,1-7.8,2.9l-1.9-2.3
			c1.2-1.2,2.7-2.1,4.6-2.7c1.8-0.6,3.6-0.9,5.2-0.9c3.1,0,5.6,0.7,7.4,2.2c1.8,1.5,2.8,3.8,2.8,7.1V923.6z M557.6,921.5
			c-1.4,0-2.8,0.1-4.1,0.3c-1.3,0.2-2.5,0.5-3.6,0.9c-1.1,0.4-1.9,1-2.5,1.8c-0.6,0.7-0.9,1.7-0.9,2.8c0,0.8,0.2,1.5,0.5,2.1
			c0.4,0.6,0.8,1.1,1.4,1.5c0.6,0.4,1.2,0.7,1.9,0.9c0.7,0.2,1.4,0.3,2.1,0.3c1.8,0,3.2-0.3,4.4-0.8c1.1-0.5,2.1-1.2,2.7-2
			c0.7-0.8,1.2-1.8,1.4-2.8c0.3-1.1,0.4-2.1,0.4-3.2v-1.7H557.6z"/>
		<path class="st3" d="M573.7,892.4h3.3v42h-3.3V892.4z"/>
		<path class="st3" d="M586.5,927.8c0.7,1.4,1.7,2.4,3.1,3.1c1.4,0.7,2.8,1.1,4.3,1.1c0.7,0,1.4-0.1,2.1-0.3s1.3-0.5,1.9-0.9
			c0.6-0.4,1-0.9,1.4-1.5c0.4-0.6,0.5-1.2,0.5-2c0-1.2-0.4-2.1-1.1-2.7c-0.8-0.6-1.7-1.1-2.8-1.4s-2.3-0.6-3.7-0.9
			c-1.3-0.2-2.6-0.6-3.7-1.1c-1.1-0.5-2-1.2-2.8-2.1c-0.8-0.9-1.1-2.1-1.1-3.8c0-1.3,0.3-2.3,0.8-3.3c0.5-0.9,1.2-1.7,2-2.3
			c0.8-0.6,1.8-1.1,2.8-1.4c1-0.3,2.1-0.4,3.2-0.4c2.1,0,3.9,0.4,5.5,1.2c1.5,0.8,2.7,2,3.6,3.7l-3,1.8c-0.6-1.2-1.4-2.1-2.4-2.7
			s-2.2-0.9-3.7-0.9c-0.6,0-1.2,0.1-1.9,0.3c-0.6,0.2-1.2,0.4-1.7,0.8s-1,0.8-1.3,1.3c-0.4,0.5-0.5,1.1-0.5,1.8c0,1.1,0.4,2,1.1,2.6
			c0.8,0.6,1.7,1,2.8,1.3s2.3,0.6,3.7,0.8s2.6,0.6,3.7,1.1c1.1,0.5,2,1.2,2.8,2.2c0.8,0.9,1.1,2.3,1.1,4c0,1.3-0.2,2.5-0.7,3.5
			c-0.5,1-1.2,1.8-2.1,2.5c-0.9,0.7-1.9,1.2-3,1.5c-1.1,0.3-2.3,0.5-3.5,0.5c-2.2,0-4.2-0.4-6.1-1.3c-1.8-0.9-3.2-2.2-4.2-3.9
			L586.5,927.8z"/>
		<path class="st3" d="M613.2,932c0-0.7,0.3-1.4,0.8-1.9c0.5-0.5,1.1-0.8,1.9-0.8c0.7,0,1.4,0.3,1.9,0.8c0.5,0.5,0.8,1.1,0.8,1.9
			c0,0.7-0.3,1.4-0.8,1.9c-0.5,0.5-1.1,0.8-1.9,0.8c-0.7,0-1.4-0.3-1.9-0.8C613.5,933.4,613.2,932.8,613.2,932z M617.6,924h-3.3v-29
			h3.3V924z"/>
	</g>
</g>
</svg>
