<?xml version="1.0" encoding="utf-8"?>
<!-- Generator: Adobe Illustrator 20.1.0, SVG Export Plug-In . SVG Version: 6.00 Build 0)  -->
<svg version="1.1" id="Layer_1" xmlns="http://www.w3.org/2000/svg" xmlns:xlink="http://www.w3.org/1999/xlink" x="0px" y="0px"
	 viewBox="0 0 63.7 84.4" style="enable-background:new 0 0 63.7 84.4;" xml:space="preserve">
<style type="text/css">
	.st0{fill:#BCBEC0;stroke:#939598;stroke-width:5;stroke-miterlimit:10;}
	.st1{fill:none;stroke:#939598;stroke-width:9.8765;stroke-miterlimit:10;}
	.st2{fill:#939598;}
</style>
<g>
	<path class="st0" d="M55,81.5h-46c-3.1,0-5.6-2.5-5.6-5.6V44.6c0-3.1,2.5-5.6,5.6-5.6h46c3.1,0,5.6,2.5,5.6,5.6v31.2
		C60.6,78.9,58.1,81.5,55,81.5z"/>
	<path class="st1" d="M15.4,39c0,0,0-6.5,0-17.5c0-19.3,33-19.3,33,0c0,11.6,0,17.5,0,17.5"/>
	<path class="st2" d="M37.3,55.3c0-3.1-2.5-5.6-5.6-5.6c-3.1,0-5.6,2.5-5.6,5.6c0,2.2,1.3,4.1,3.1,5v10c0,0.5,0.4,1,1,1H33
		c0.5,0,1-0.4,1-1v-9.9C35.9,59.5,37.3,57.6,37.3,55.3z"/>
</g>
</svg>
