<?xml version="1.0" encoding="utf-8"?>
<!-- Generator: Adobe Illustrator 20.1.0, SVG Export Plug-In . SVG Version: 6.00 Build 0)  -->
<svg version="1.1" id="Layer_1" xmlns="http://www.w3.org/2000/svg" xmlns:xlink="http://www.w3.org/1999/xlink" x="0px" y="0px"
	 viewBox="0 0 102 102" style="enable-background:new 0 0 102 102;" xml:space="preserve">
<style type="text/css">
	.st0{fill:url(#SVGID_1_);}
	.st1{opacity:0.1;fill:#FFFFFF;}
	.st2{opacity:5.000000e-02;}
	.st3{fill:none;stroke:#D8C32A;stroke-width:3;stroke-miterlimit:10;}
	.st4{opacity:0.13;fill:#FFFFFF;}
</style>
<radialGradient id="SVGID_1_" cx="51" cy="51" r="48.3333" gradientUnits="userSpaceOnUse">
	<stop  offset="3.000000e-03" style="stop-color:#FCEA47"/>
	<stop  offset="0.3188" style="stop-color:#F8E644"/>
	<stop  offset="0.645" style="stop-color:#EDD93B"/>
	<stop  offset="0.975" style="stop-color:#DAC52B"/>
	<stop  offset="1" style="stop-color:#D8C32A"/>
</radialGradient>
<circle class="st0" cx="51" cy="51" r="48.3"/>
<path class="st1" d="M4.1,62.7C3.2,58.9,2.7,55,2.7,51C2.7,24.3,24.3,2.7,51,2.7c3.7,0,7.3,0.4,10.8,1.2C72.3,6.3,44.4-1,22,22.2
	S6.8,73.4,4.1,62.7z"/>
<path class="st2" d="M99.3,51c0,26.7-21.6,48.3-48.3,48.3c-14.7,0-27.9-6.6-36.7-16.9c-4.3-5,31.4,8.1,54.3-13.8s13-55.4,16.6-51.8
	C93.9,25.6,99.3,37.7,99.3,51z"/>
<circle class="st3" cx="51" cy="51" r="48.3"/>
<circle class="st4" cx="26.4" cy="33.8" r="9"/>
<circle class="st4" cx="32.1" cy="21.4" r="3.4"/>
</svg>
