<?xml version="1.0" encoding="utf-8"?>
<!-- Generator: Adobe Illustrator 20.1.0, SVG Export Plug-In . SVG Version: 6.00 Build 0)  -->
<svg version="1.1" id="Layer_1" xmlns="http://www.w3.org/2000/svg" xmlns:xlink="http://www.w3.org/1999/xlink" x="0px" y="0px"
	 viewBox="0 0 60 60" style="enable-background:new 0 0 60 60;" xml:space="preserve">
<style type="text/css">
	.st0{fill:#8E6A49;stroke:#58595B;stroke-width:2;stroke-miterlimit:10;}
	.st1{fill:#77573D;stroke:#58595B;stroke-width:2;stroke-linecap:round;stroke-miterlimit:10;}
	.st2{fill:#A88162;}
	.st3{fill:#FFFFFF;}
	.st4{fill:#E8D6C4;}
	.st5{fill:none;stroke:#58595B;stroke-width:2;stroke-miterlimit:10;}
	.st6{fill:#8E6A49;}
	.st7{fill:#58595B;}
	.st8{fill:#564131;}
</style>
<ellipse class="st0" cx="30.3" cy="18.4" rx="21.6" ry="15.9"/>
<path class="st1" d="M47.6,8.9c0,0,7.7,3.4,9.7,10.2c2.2,7.5,2.1,17.3-6.9,25.9S19.7,59.2,12.5,58.3c-6.8-0.8-9.9-14.8-5.1-20.2
	s16.2-1,27.1-4.8s15.8-11.6,16.2-15.9S47.6,8.9,47.6,8.9z"/>
<g>
	<circle class="st0" cx="7.2" cy="12.3" r="4.9"/>
	<circle class="st0" cx="32.7" cy="12.3" r="4.9"/>
	<ellipse class="st0" cx="19.9" cy="21.7" rx="16.7" ry="14.5"/>
	<path class="st2" d="M27.7,34.5c-2,0.7-5.5,1.7-7.8,1.7c-2.6,0-5-0.5-7.2-1.4c0,0,1.8-9.4,7.2-9.4S27.7,34.5,27.7,34.5z"/>
	<g>
		<circle class="st3" cx="14.5" cy="17.9" r="4.4"/>
		<circle cx="14.8" cy="18.1" r="3.6"/>
		<circle class="st3" cx="13.1" cy="16.3" r="1.2"/>
	</g>
	<g>
		<circle class="st3" cx="26.1" cy="18.1" r="4.4"/>
		<circle cx="26.4" cy="18.4" r="3.6"/>
		<circle class="st3" cx="24.7" cy="16.6" r="1.2"/>
	</g>
	<path class="st4" d="M17.5,29.2l-0.5,3.5c0,0.2,0.1,0.3,0.2,0.3l2.5,0.2c0.1,0,0.3-0.1,0.3-0.3l0.2-3.6L17.5,29.2z"/>
	<path class="st4" d="M20.2,29.4l0.2,3.5c0,0.1,0.1,0.3,0.3,0.3l2.6-0.2c0.2,0,0.3-0.2,0.2-0.3L23,29.2L20.2,29.4z"/>
	<ellipse class="st5" cx="19.9" cy="21.7" rx="16.7" ry="14.5"/>
	<g>
		<path class="st6" d="M24.5,28.6c0,0-0.1,0.1-0.3,0.2c-0.2,0.1-0.5,0.3-1,0.4c-0.8,0.3-2,0.5-3.2,0.5c-0.6,0-1.2-0.1-1.7-0.2
			c-0.5-0.1-1-0.2-1.4-0.4c-0.4-0.1-0.7-0.3-1-0.5c-0.2-0.1-0.3-0.2-0.3-0.2s0.6,0.2,1.4,0.3c0.4,0.1,0.9,0.1,1.4,0.1
			c0.5,0,1.1,0.1,1.6,0.1c1.1,0,2.2,0,3.1-0.1C24,28.8,24.5,28.6,24.5,28.6z"/>
	</g>
	<path class="st7" d="M22,27.5c0,1.1-1.1,2-2,2c-0.9,0-2-0.9-2-2s0.9-1.3,2-1.3C21.2,26.2,22,26.4,22,27.5z"/>
</g>
<g>
	<path class="st8" d="M7,45.5c0,0,2.3-0.4,5.7-0.9c1.7-0.3,3.7-0.6,5.8-1c2.1-0.3,4.4-0.8,6.6-1.2c2.3-0.4,4.5-1,6.6-1.5
		c2.1-0.5,4-1.1,5.6-1.7c3.3-1.1,5.4-1.9,5.4-1.9s-2,1.1-5.3,2.4c-1.6,0.6-3.5,1.3-5.6,1.9c-2.1,0.6-4.3,1.2-6.6,1.6
		c-1.1,0.2-2.3,0.5-3.4,0.6c-1.1,0.2-2.2,0.3-3.3,0.5c-1.1,0.2-2.1,0.3-3.1,0.4c-1,0.1-1.9,0.2-2.8,0.3c-1.7,0.2-3.2,0.3-4.2,0.3
		C7.5,45.4,7,45.5,7,45.5z"/>
</g>
<g>
	<path class="st8" d="M40.2,44.5c0,0-0.4,0.2-1.1,0.5c-0.7,0.3-1.7,0.7-2.9,1.1c-1.2,0.4-2.6,0.8-4.2,1.3c-1.5,0.4-3.2,0.8-4.9,1.1
		c-3.3,0.6-6.7,1-9.3,1.2c-1.3,0.1-2.3,0.1-3.1,0.1c-0.7,0-1.2,0-1.2,0s1.7-0.3,4.2-0.8c2.5-0.4,5.8-1,9.2-1.6
		c1.7-0.3,3.3-0.7,4.9-1c1.5-0.3,3-0.7,4.2-0.9C38.6,44.8,40.2,44.5,40.2,44.5z"/>
</g>
<g>
	<path class="st8" d="M21.2,39.2c0,0,0.4,0.8,1.1,2.1c0.6,1.2,1.4,2.9,2.3,4.5c0.4,0.8,0.9,1.6,1.4,2.3c0.5,0.7,0.9,1.4,1.3,2
		c0.8,1.2,1.3,1.9,1.3,1.9s-0.7-0.6-1.6-1.7c-0.9-1.1-2.1-2.6-3-4.2c-0.9-1.7-1.6-3.4-2.1-4.7C21.5,40.2,21.2,39.2,21.2,39.2z"/>
</g>
<g>
	<path class="st8" d="M29.6,37.8c0,0,0.3,0.8,0.7,1.9c0.4,1.1,0.9,2.7,1.4,4.2c0.5,1.5,1.2,3,1.6,4.1c0.4,1.1,0.7,1.9,0.7,1.9
		s-0.5-0.6-1.1-1.7c-0.6-1-1.4-2.5-1.9-4c-0.6-1.5-0.9-3.1-1.1-4.3C29.7,38.6,29.6,37.8,29.6,37.8z"/>
</g>
<g>
	<path class="st8" d="M15,41.5c0,0,0.4,0.7,1,1.7c0.6,1,1.4,2.5,2.2,3.8c0.8,1.4,1.7,2.7,2.4,3.7c0.6,1,1.1,1.7,1.1,1.7
		S21,52,20.2,51.1c-0.8-0.9-1.8-2.2-2.7-3.6c-0.8-1.4-1.5-2.9-1.9-4C15.2,42.3,15,41.5,15,41.5z"/>
</g>
</svg>
