<?xml version="1.0" encoding="utf-8"?>
<!-- Generator: Adobe Illustrator 20.1.0, SVG Export Plug-In . SVG Version: 6.00 Build 0)  -->
<svg version="1.1" id="Layer_1" xmlns="http://www.w3.org/2000/svg" xmlns:xlink="http://www.w3.org/1999/xlink" x="0px" y="0px"
	 viewBox="0 0 102 102" style="enable-background:new 0 0 102 102;" xml:space="preserve">
<style type="text/css">
	.st0{clip-path:url(#SVGID_2_);}
	.st1{fill:#9E8B7D;}
	.st2{fill:#58595B;}
	.st3{fill:#7F6F63;}
	.st4{fill:#E8D8CD;}
	.st5{fill:#CCB9AC;}
	.st6{fill:#FFFFFF;}
	.st7{opacity:0.1;fill:#FFFFFF;enable-background:new    ;}
	.st8{opacity:0.1;enable-background:new    ;}
	.st9{opacity:0.13;fill:#FFFFFF;enable-background:new    ;}
	.st10{fill:url(#SVGID_3_);stroke:#FFFFFF;stroke-width:3;stroke-miterlimit:10;}
</style>
<g>
	<defs>
		<circle id="SVGID_1_" cx="51.4" cy="51" r="48.3"/>
	</defs>
	<clipPath id="SVGID_2_">
		<use xlink:href="#SVGID_1_"  style="overflow:visible;"/>
	</clipPath>
	<g class="st0">
		<g>
			<path class="st1" d="M45.1,90.8c0,3.4-4.6,4.5-9.9,4.5s-9.1-1.1-9.1-4.5s3.9-7.8,9.1-7.8S45.1,87.4,45.1,90.8z"/>
			<path class="st2" d="M35.2,96.8c-7.1,0-10.7-2-10.7-6c0-4.3,4.7-9.4,10.7-9.4c6.2,0,11.4,5.2,11.4,9.4
				C46.7,93.5,44.7,96.8,35.2,96.8z M35.2,84.5c-4.4,0-7.6,3.7-7.6,6.3c0,2,2.5,2.9,7.6,2.9c2,0,8.3-0.2,8.3-2.9
				C43.6,88.3,39.8,84.5,35.2,84.5z"/>
		</g>
		<g>
			<path class="st1" d="M78.1,90.8c0,3.4-4.6,4.5-9.9,4.5c-5.2,0-9.1-1.1-9.1-4.5s3.9-7.8,9.1-7.8C73.4,82.9,78.1,87.4,78.1,90.8z"
				/>
			<path class="st2" d="M68.2,96.8c-7.1,0-10.7-2-10.7-6c0-4.3,4.7-9.4,10.7-9.4c6.2,0,11.4,5.2,11.4,9.4
				C79.6,93.5,77.6,96.8,68.2,96.8z M68.2,84.5c-4.4,0-7.6,3.7-7.6,6.3c0,2,2.5,2.9,7.6,2.9c2,0,8.3-0.2,8.3-2.9
				C76.5,88.3,72.7,84.5,68.2,84.5z"/>
		</g>
		<g>
			<path class="st1" d="M19.7,82.9l-4.1-0.1l-0.1-4l-4.6-2.1l1.2-4.1l-4-5l2.9-1.9L9,60.1l3.5-2.1l-0.7-6.2l4-1l0.4-6.4l4.3-0.5
				l0.9-5.6l4.7,0.9l1.2-5.2l4.7,1.3l2.2-5.2l3.9,1.9l2.9-4.1l3.8,1.9l3.6-4.1l3.4,3.2l4.4-3l2.3,3.8l4.6-2.1l2.2,3.9l4.7-1.5l1,3.8
				l4.5-0.9l1.1,3.5l4.6-1l0.4,4.5l4.1,0.1v4.1l4.3,1l-0.7,3.4l4.1,1.7L92,54.5l3.5,2.4l-1.8,2.4l3,3.2l-1.9,3l2.4,3.3l-2.6,1.8
				l1.2,4l-3.3,1.1l1,4.7l-5.1,1c0,0-7.5,10.2-35.6,10.2S19.7,82.9,19.7,82.9z"/>
			<path class="st2" d="M52.8,93.2c-24.2,0-31.9-6.5-33.8-8.8l-3.4-0.1c-0.8,0-1.5-0.7-1.5-1.5l-0.1-3l-3.7-1.7
				c-0.7-0.3-1.1-1.1-0.9-1.8l1-3.4l-3.5-4.4c-0.3-0.3-0.4-0.8-0.3-1.2c0.1-0.4,0.3-0.8,0.7-1.1L9.1,65l-1.6-4.5
				c-0.2-0.7,0-1.5,0.7-1.8l2.7-1.6L10.3,52c-0.1-0.8,0.4-1.5,1.2-1.7l2.9-0.7l0.3-5.3c0-0.8,0.6-1.4,1.4-1.4l3.1-0.4l0.7-4.4
				c0.1-0.4,0.3-0.8,0.6-1c0.3-0.2,0.8-0.3,1.2-0.3l3.3,0.6l0.9-3.8c0.1-0.4,0.4-0.8,0.7-1c0.4-0.2,0.8-0.3,1.2-0.2l3.4,1l1.7-4
				c0.2-0.4,0.5-0.7,0.9-0.9c0.4-0.2,0.8-0.1,1.2,0.1l2.7,1.4l2.1-3c0.4-0.6,1.3-0.8,2-0.5l2.7,1.4l2.8-3.2c0.3-0.3,0.7-0.5,1.1-0.5
				c0.4,0,0.8,0.1,1.1,0.4l2.5,2.3l3.4-2.3c0.3-0.2,0.8-0.3,1.2-0.2c0.4,0.1,0.8,0.3,1,0.7l1.6,2.6l3.4-1.5c0.7-0.3,1.6,0,2,0.7
				l1.6,2.8l3.5-1.1c0.4-0.1,0.8-0.1,1.2,0.1c0.4,0.2,0.6,0.6,0.7,1l0.6,2.4l3.1-0.6c0.8-0.1,1.5,0.3,1.8,1.1l0.7,2.2l3.2-0.7
				c0.4-0.1,0.9,0,1.2,0.3c0.4,0.3,0.6,0.7,0.6,1.1l0.3,3.1l2.7,0.1c0.8,0,1.5,0.7,1.5,1.5v2.9l3.1,0.7c0.8,0.2,1.3,1,1.2,1.8
				l-0.5,2.1l2.9,1.2c0.8,0.3,1.1,1.2,0.9,1.9l-1.1,3.1l2.6,1.8c0.3,0.2,0.6,0.6,0.6,1c0.1,0.4,0,0.8-0.3,1.2l-1,1.4l2.1,2.2
				c0.5,0.5,0.6,1.3,0.2,1.9l-1.4,2.1l1.8,2.4c0.2,0.3,0.3,0.8,0.3,1.2c-0.1,0.4-0.3,0.8-0.6,1l-1.6,1.2l0.9,3
				c0.2,0.8-0.2,1.7-1,1.9l-2,0.7l0.7,3.4c0.1,0.4,0,0.8-0.2,1.2c-0.2,0.3-0.6,0.6-1,0.7l-4.6,0.9C87.3,85,78.1,93.2,52.8,93.2z
				 M21.1,82.1c0.1,0.2,5.5,8,31.7,8c26.7,0,34.3-9.5,34.4-9.6c0.2-0.3,0.6-0.5,0.9-0.6l3.6-0.7L91,76c-0.2-0.8,0.3-1.5,1-1.8
				l1.9-0.6l-0.8-2.6c-0.2-0.6,0-1.3,0.6-1.7l1.3-0.9l-1.5-2c-0.4-0.5-0.4-1.2-0.1-1.8l1.3-2l-2.2-2.3c-0.5-0.5-0.6-1.4-0.1-2
				l0.9-1.1l-2.2-1.5c-0.6-0.4-0.8-1.1-0.6-1.8l1-2.9l-2.8-1.1c-0.7-0.3-1.1-1-0.9-1.8l0.4-1.9l-2.8-0.6c-0.7-0.2-1.2-0.8-1.2-1.5
				v-2.6l-2.6-0.1c-0.8,0-1.4-0.6-1.5-1.4l-0.2-2.7l-2.9,0.6c-0.8,0.2-1.6-0.3-1.8-1.1l-0.7-2.2l-3.1,0.6c-0.8,0.2-1.6-0.3-1.8-1.1
				L69,31.9l-3.2,1c-0.7,0.2-1.4-0.1-1.8-0.7l-1.5-2.7l-3.3,1.5c-0.7,0.3-1.5,0.1-2-0.6L55.7,28l-3,2.1c-0.6,0.4-1.4,0.4-1.9-0.1
				l-2.2-2.1l-2.6,2.9c-0.5,0.5-1.2,0.7-1.9,0.4l-2.6-1.3l-2.1,3c-0.4,0.6-1.3,0.8-2,0.5L35,32.1l-1.5,3.7c-0.3,0.7-1.1,1.1-1.8,0.9
				l-3.2-0.9l-0.8,3.6c-0.2,0.8-1,1.3-1.8,1.2l-3.2-0.6l-0.6,4c-0.1,0.7-0.7,1.2-1.4,1.3l-3,0.3l-0.3,5.1c0,0.7-0.5,1.3-1.2,1.4
				L13.5,53l0.6,4.8c0.1,0.6-0.2,1.2-0.8,1.5l-2.4,1.4l1.5,4.4c0.2,0.7,0,1.4-0.6,1.8l-1.5,1l3,3.7c0.3,0.4,0.4,0.9,0.3,1.4
				l-0.8,2.8l3.4,1.5c0.5,0.2,0.9,0.8,0.9,1.4l0.1,2.6l2.7,0.1C20.3,81.4,20.8,81.7,21.1,82.1z"/>
		</g>
		<g>
			<path class="st3" d="M22.9,56.4c-3.1-1.3-5.3-4.4-5.3-8c0-4.8,3.9-8.7,8.7-8.7s8.7,3.9,8.7,8.7"/>
			<path class="st2" d="M22.9,58c-0.2,0-0.4,0-0.6-0.1c-3.8-1.6-6.2-5.3-6.2-9.4c0-5.6,4.6-10.2,10.2-10.2c5.6,0,10.2,4.6,10.2,10.2
				c0,0.9-0.7,1.5-1.5,1.5s-1.5-0.7-1.5-1.5c0-3.9-3.2-7.1-7.1-7.1s-7.1,3.2-7.1,7.1c0,2.9,1.7,5.4,4.3,6.5c0.8,0.3,1.2,1.2,0.8,2
				C24.1,57.6,23.5,58,22.9,58z"/>
		</g>
		<g>
			<path class="st3" d="M70.1,48.9c0-3.4,2-6.6,5.3-8c4.4-1.8,9.5,0.2,11.3,4.6s-0.2,9.5-4.6,11.3"/>
			<path class="st2" d="M82.1,58.4c-0.6,0-1.2-0.4-1.4-1c-0.3-0.8,0-1.7,0.8-2c3.6-1.5,5.3-5.7,3.8-9.3c-1.5-3.6-5.7-5.3-9.3-3.8
				c-2.6,1.1-4.4,3.7-4.4,6.5c0,0.9-0.7,1.5-1.5,1.5c0,0,0,0,0,0c-0.9,0-1.5-0.7-1.5-1.6c0-4.1,2.5-7.8,6.3-9.4
				C80,37.3,86,39.8,88.1,45c1.1,2.5,1.1,5.3,0,7.8c-1,2.5-3,4.5-5.5,5.5C82.5,58.4,82.3,58.4,82.1,58.4z"/>
		</g>
		<g>
			<path class="st4" d="M86.3,74.9l1.7-2.3l-0.7-2.4l0.6-2.3l-1.3-1.7l0.5-2.3l-2.3-1.7L85,60l-2.3-1.5v-2.4l-3-1.2l-1-3.3l-2.9,0.5
				l-1.7-3.3l-3,0.1L70,45.7L66.7,46l-1.6-2.3l-3.3,0.1L60.4,42l-3.9,1.5l-1.8-1.8l-3.4,1.5L49,41.7l-2.8,1.6l-1.8-0.8l-1.8,2.1
				l-3.2-1.1l-1.6,3.3h-3.6l-0.5,2.4l-3-0.4l-1.3,3.4l-3-0.4l-1.2,3.9L21.9,56l0.1,3.1l-2.9,1.3l0.7,3.5l-2.3,3l1.8,2.9L17,73.6
				l2.3,2.2L18,78.4l2.4,3.2c5.9,6.4,18.8,9,32.4,9c12.5,0,26.8-2.5,34.6-10.4l-0.9-1.9l1.2-2L86.3,74.9z"/>
		</g>
		<g>
			<path class="st5" d="M47.9,82.2c0,0-3.4-10-2-12.3c2.2-3.7,11.6-3.8,14.1-0.2c1.5,2.1-1.2,12-2.1,12.5S49.1,83.2,47.9,82.2z"/>
		</g>
		<g>
			<g>
				<circle class="st6" cx="43.5" cy="58.2" r="6"/>
			</g>
			<g>
				<circle cx="43.9" cy="58.5" r="4.9"/>
			</g>
			<g>
				<circle class="st6" cx="41.5" cy="56" r="1.6"/>
			</g>
		</g>
		<g>
			<g>
				<circle class="st6" cx="61.5" cy="58.5" r="6"/>
			</g>
			<g>
				<circle cx="61.9" cy="58.9" r="4.9"/>
			</g>
			<g>
				<circle class="st6" cx="59.6" cy="56.4" r="1.6"/>
			</g>
		</g>
		<g>
			<path class="st2" d="M52.8,75c4.2-0.2,6.9,6.4,5,7.3c-0.9,0.5-2.9,1.1-4.7,1.2c-2,0-4-0.7-4.8-1.1C46.8,81.7,48.5,75.1,52.8,75z"
				/>
		</g>
		<g>
			<path class="st6" d="M73.8,83.3c0,0-3.7-1.1-7.4-2.3c-0.9-0.3-1.8-0.5-2.7-0.8c-0.9-0.2-1.7-0.4-2.4-0.6
				c-1.4-0.3-2.4-0.5-2.4-0.5s1-0.3,2.5-0.3c0.8,0,1.6,0,2.6,0.1c0.9,0.1,1.9,0.3,2.9,0.6c1.9,0.5,3.8,1.3,5,2.2
				C73.1,82.5,73.8,83.3,73.8,83.3z"/>
		</g>
		<g>
			<path class="st6" d="M74,74c0,0-1,0.1-2.4,0.4c-1.4,0.3-3.3,0.6-5.2,0.9c-1.8,0.4-3.7,0.8-5.1,1.1C59.9,76.8,59,77,59,77
				s0.7-0.7,2.1-1.4c1.3-0.7,3.2-1.5,5.1-1.8c1-0.2,1.9-0.3,2.9-0.4c0.9-0.1,1.8,0,2.5,0c0.7,0.1,1.4,0.2,1.8,0.3
				C73.8,73.9,74,74,74,74z"/>
		</g>
		<g>
			<path class="st6" d="M74.1,79c0,0-1-0.1-2.4-0.2c-1.4-0.1-3.3-0.3-5.2-0.4c-0.5,0-0.9-0.1-1.4-0.1c-0.5,0-0.9-0.1-1.4-0.1
				c-0.9,0-1.7-0.1-2.4-0.1c-1.4,0-2.4,0-2.4,0s0.9-0.5,2.3-0.8c0.7-0.2,1.6-0.3,2.5-0.4c0.9-0.1,1.9-0.1,2.9,0c0.5,0,1,0.1,1.4,0.1
				c0.5,0.1,0.9,0.1,1.4,0.2c0.9,0.2,1.7,0.4,2.4,0.7C73.3,78.3,74.1,79,74.1,79z"/>
		</g>
		<g>
			<path class="st6" d="M32.1,83.3c0,0,0.7-0.8,2-1.6c1.3-0.8,3.1-1.6,5-2.2c0.9-0.3,2-0.5,2.9-0.6c0.9-0.1,1.8-0.2,2.6-0.1
				c1.5,0,2.5,0.3,2.5,0.3s-1,0.2-2.4,0.5c-0.7,0.2-1.5,0.4-2.4,0.6c-0.9,0.2-1.8,0.5-2.7,0.8C35.8,82.1,32.1,83.3,32.1,83.3z"/>
		</g>
		<g>
			<path class="st6" d="M31.9,74c0,0,0.2-0.1,0.7-0.2c0.4-0.1,1-0.2,1.8-0.3c0.7-0.1,1.6-0.1,2.5,0c0.9,0.1,1.9,0.2,2.9,0.4
				c2,0.4,3.8,1.1,5.1,1.8c1.3,0.7,2.1,1.4,2.1,1.4s-0.9-0.2-2.4-0.6c-1.4-0.3-3.3-0.8-5.1-1.1c-1.9-0.3-3.8-0.7-5.2-0.9
				C32.8,74.1,31.9,74,31.9,74z"/>
		</g>
		<g>
			<path class="st6" d="M31.8,79c0,0,0.8-0.6,2.2-1.1c0.7-0.3,1.5-0.5,2.4-0.7c0.4-0.1,0.9-0.2,1.4-0.2c0.5-0.1,1-0.1,1.4-0.1
				c1-0.1,2,0,2.9,0c0.9,0.1,1.8,0.2,2.5,0.4c1.4,0.3,2.3,0.8,2.3,0.8s-1,0-2.4,0c-0.7,0-1.5,0-2.4,0.1c-0.4,0-0.9,0-1.4,0.1
				c-0.5,0-0.9,0-1.4,0.1c-1.9,0.2-3.8,0.3-5.2,0.4C32.8,78.9,31.8,79,31.8,79z"/>
		</g>
		<g>
			<path class="st2" d="M52.8,93.2c-28.7,0-34.2-9.1-34.4-9.5C18,82.9,18.2,82,19,81.6c0.7-0.4,1.7-0.2,2.1,0.6c0,0.1,5.3,8,31.7,8
				c26.7,0,34.3-9.5,34.4-9.6c0.5-0.7,1.5-0.8,2.2-0.3c0.7,0.5,0.8,1.5,0.3,2.2C89.3,82.8,81.3,93.2,52.8,93.2z"/>
		</g>
	</g>
</g>
<g>
	<path class="st7" d="M4.5,62.7C3.6,58.9,3.1,55,3.1,51c0-26.7,21.6-48.3,48.3-48.3c3.7,0,7.3,0.4,10.7,1.2
		C72.7,6.3,44.9-1,22.4,22.2S7.2,73.4,4.5,62.7z"/>
	<path class="st8" d="M99.7,51c0,26.7-21.6,48.3-48.3,48.3c-14.7,0-27.8-6.6-36.7-16.9c-4.3-5,31.4,8.1,54.3-13.8s13-55.3,16.6-51.8
		C94.3,25.6,99.7,37.7,99.7,51z"/>
	<circle class="st9" cx="26.9" cy="33.8" r="9"/>
	<circle class="st9" cx="32.5" cy="21.4" r="3.4"/>
	
		<radialGradient id="SVGID_3_" cx="51.4" cy="-563" r="48.3" gradientTransform="matrix(1 0 0 -1 0 -512)" gradientUnits="userSpaceOnUse">
		<stop  offset="0.4322" style="stop-color:#FFFFFF;stop-opacity:0"/>
		<stop  offset="0.9846" style="stop-color:#FFFFFF;stop-opacity:0.2919"/>
		<stop  offset="1" style="stop-color:#FFFFFF;stop-opacity:0.3"/>
	</radialGradient>
	<circle class="st10" cx="51.4" cy="51" r="48.3"/>
</g>
</svg>
