<?xml version="1.0" encoding="utf-8"?>
<!-- Generator: Adobe Illustrator 20.1.0, SVG Export Plug-In . SVG Version: 6.00 Build 0)  -->
<svg version="1.1" id="Layer_1" xmlns="http://www.w3.org/2000/svg" xmlns:xlink="http://www.w3.org/1999/xlink" x="0px" y="0px"
	 viewBox="0 0 60 60" style="enable-background:new 0 0 60 60;" xml:space="preserve">
<style type="text/css">
	.st0{fill:#9E8B7D;stroke:#58595B;stroke-width:2;stroke-miterlimit:10;}
	.st1{fill:#9E8B7D;stroke:#58595B;stroke-width:2;stroke-linecap:round;stroke-linejoin:round;stroke-miterlimit:10;}
	.st2{fill:#7F6F63;stroke:#58595B;stroke-width:2;stroke-linecap:round;stroke-linejoin:round;stroke-miterlimit:10;}
	.st3{fill:#E8D8CD;}
	.st4{fill:#CCB9AC;}
	.st5{fill:#FFFFFF;}
	.st6{fill:#58595B;}
	.st7{fill:none;stroke:#58595B;stroke-width:2;stroke-linecap:round;stroke-linejoin:round;stroke-miterlimit:10;}
</style>
<path class="st0" d="M25.2,49.6c0,2.2-3,2.9-6.4,2.9s-5.9-0.7-5.9-2.9c0-2.2,2.5-5.1,5.9-5.1S25.2,47.4,25.2,49.6z"/>
<path class="st0" d="M46.5,49.6c0,2.2-3,2.9-6.4,2.9s-5.9-0.7-5.9-2.9c0-2.2,2.5-5.1,5.9-5.1S46.5,47.4,46.5,49.6z"/>
<path class="st1" d="M8.8,44.5l-2.7-0.1L6,41.8l-3-1.3l0.8-2.7l-2.6-3.2l1.9-1.3l-1.3-3.6l2.3-1.3l-0.5-4l2.6-0.6l0.2-4.2l2.7-0.3
	l0.5-3.6l3.1,0.5l0.8-3.4l3.1,0.9l1.4-3.4l2.5,1.3l1.9-2.7l2.4,1.3l2.4-2.7l2.2,2l2.8-2l1.5,2.4l3-1.3l1.4,2.5l3.1-0.9l0.6,2.4
	l2.9-0.5l0.7,2.3l3-0.6l0.2,2.9l2.7,0.1v2.7l2.7,0.6l-0.5,2.2l2.7,1.1l-0.9,2.7l2.3,1.6l-1.2,1.6l2,2l-1.3,2l1.6,2.1l-1.6,1.2
	l0.8,2.6l-2.1,0.7l0.6,3.1l-3.3,0.6c0,0-4.9,6.6-23,6.6S8.8,44.5,8.8,44.5z"/>
<path class="st2" d="M10.8,27.4c-2-0.8-3.4-2.8-3.4-5.2c0-3.1,2.5-5.6,5.6-5.6s5.6,2.5,5.6,5.6"/>
<path class="st2" d="M41.3,22.5c0-2.2,1.3-4.2,3.4-5.1c2.8-1.2,6.1,0.2,7.3,3c1.2,2.8-0.2,6.1-3,7.3"/>
<path class="st3" d="M51.8,39.3l1.1-1.5l-0.5-1.6l0.4-1.5l-0.9-1.1l0.3-1.5l-1.5-1.1l0.2-1.4l-1.5-0.9v-1.6l-2-0.8l-0.6-2.1L45,24.6
	l-1.1-2.1l-2,0.1l-0.7-2.1l-2.1,0.2l-1-1.5L36,19.3l-0.9-1.2L32.6,19l-1.2-1.2l-2.2,0.9l-1.5-0.9l-1.8,1l-1.2-0.5l-1.2,1.3l-2-0.7
	l-1,2.1h-2.4l-0.3,1.6l-2-0.2L15,24.6l-2-0.2l-0.8,2.5l-2.1,0.3l0.1,2L8.4,30l0.4,2.3l-1.5,2l1.2,1.9L7,38.4l1.5,1.4l-0.8,1.7
	l1.5,2.1c3.8,4.2,12.1,5.8,20.9,5.8c8.1,0,17.3-1.6,22.4-6.7L52,41.6l0.8-1.3L51.8,39.3z"/>
<path class="st4" d="M27,44c0,0-2.2-6.5-1.3-8c1.4-2.4,7.5-2.5,9.1-0.2c1,1.3-0.8,7.8-1.3,8.1C33,44.3,27.8,44.7,27,44z"/>
<g>
	<circle class="st5" cx="24.1" cy="28.5" r="3.9"/>
	<circle cx="24.4" cy="28.7" r="3.2"/>
	<circle class="st5" cx="22.9" cy="27.1" r="1"/>
</g>
<g>
	<circle class="st5" cx="35.8" cy="28.7" r="3.9"/>
	<circle cx="36" cy="29" r="3.2"/>
	<circle class="st5" cx="34.5" cy="27.3" r="1"/>
</g>
<path class="st6" d="M30.1,39.4c2.7-0.1,4.5,4.1,3.2,4.7c-0.6,0.3-1.9,0.7-3.1,0.8c-1.3,0-2.6-0.5-3.1-0.7
	C26.3,43.7,27.4,39.5,30.1,39.4z"/>
<g>
	<path class="st5" d="M43.7,44.7c0,0-2.4-0.7-4.8-1.5c-0.6-0.2-1.2-0.3-1.8-0.5c-0.6-0.2-1.1-0.3-1.6-0.4c-0.9-0.2-1.6-0.3-1.6-0.3
		s0.6-0.2,1.6-0.2c0.5,0,1.1,0,1.7,0.1c0.6,0.1,1.3,0.2,1.9,0.4c1.2,0.3,2.4,0.9,3.3,1.4C43.3,44.2,43.7,44.7,43.7,44.7z"/>
</g>
<g>
	<path class="st5" d="M43.9,38.7c0,0-0.6,0.1-1.6,0.3c-0.9,0.2-2.1,0.4-3.3,0.6c-1.2,0.2-2.4,0.5-3.3,0.7c-0.9,0.2-1.5,0.4-1.5,0.4
		s0.5-0.4,1.3-0.9c0.8-0.5,2-0.9,3.3-1.2c0.6-0.1,1.3-0.2,1.9-0.3c0.6,0,1.2,0,1.6,0c0.5,0,0.9,0.1,1.2,0.2
		C43.7,38.6,43.9,38.7,43.9,38.7z"/>
</g>
<g>
	<path class="st5" d="M43.9,41.9c0,0-0.6-0.1-1.5-0.1c-0.9-0.1-2.1-0.2-3.3-0.3c-0.3,0-0.6,0-0.9-0.1c-0.3,0-0.6,0-0.9,0
		c-0.6,0-1.1,0-1.6,0c-0.9,0-1.6,0-1.6,0s0.6-0.3,1.5-0.5c0.5-0.1,1-0.2,1.6-0.3c0.6-0.1,1.2-0.1,1.9,0c0.3,0,0.6,0.1,0.9,0.1
		c0.3,0,0.6,0.1,0.9,0.1c0.6,0.1,1.1,0.3,1.6,0.4C43.4,41.5,43.9,41.9,43.9,41.9z"/>
</g>
<g>
	<path class="st5" d="M16.8,44.7c0,0,0.4-0.5,1.3-1c0.8-0.5,2-1,3.3-1.4c0.6-0.2,1.3-0.3,1.9-0.4c0.6-0.1,1.2-0.1,1.7-0.1
		c1,0,1.6,0.2,1.6,0.2s-0.6,0.1-1.6,0.3c-0.5,0.1-1,0.2-1.6,0.4c-0.6,0.1-1.1,0.3-1.8,0.5C19.2,44,16.8,44.7,16.8,44.7z"/>
</g>
<g>
	<path class="st5" d="M16.6,38.7c0,0,0.1-0.1,0.4-0.1c0.3-0.1,0.7-0.2,1.2-0.2c0.5,0,1-0.1,1.6,0c0.6,0,1.2,0.1,1.9,0.3
		c1.3,0.3,2.5,0.7,3.3,1.2c0.8,0.5,1.3,0.9,1.3,0.9s-0.6-0.2-1.5-0.4c-0.9-0.2-2.1-0.5-3.3-0.7c-1.2-0.2-2.4-0.4-3.3-0.6
		C17.3,38.8,16.6,38.7,16.6,38.7z"/>
</g>
<g>
	<path class="st5" d="M16.6,41.9c0,0,0.5-0.4,1.4-0.7c0.4-0.2,1-0.3,1.6-0.4c0.3-0.1,0.6-0.1,0.9-0.1c0.3,0,0.6-0.1,0.9-0.1
		c0.6,0,1.3,0,1.9,0c0.6,0.1,1.1,0.2,1.6,0.3c0.9,0.2,1.5,0.5,1.5,0.5s-0.6,0-1.6,0c-0.5,0-1,0-1.6,0c-0.3,0-0.6,0-0.9,0
		c-0.3,0-0.6,0-0.9,0.1c-1.2,0.1-2.4,0.2-3.3,0.3C17.2,41.9,16.6,41.9,16.6,41.9z"/>
</g>
<path class="st7" d="M53.2,43.5c0,0-4.9,6.6-23,6.6S8.8,44.5,8.8,44.5"/>
</svg>
