<?xml version="1.0" encoding="utf-8"?>
<!-- Generator: Adobe Illustrator 20.1.0, SVG Export Plug-In . SVG Version: 6.00 Build 0)  -->
<svg version="1.1" id="Layer_1" xmlns="http://www.w3.org/2000/svg" xmlns:xlink="http://www.w3.org/1999/xlink" x="0px" y="0px"
	 viewBox="0 0 102 102" style="enable-background:new 0 0 102 102;" xml:space="preserve">
<style type="text/css">
	.st0{clip-path:url(#SVGID_2_);}
	.st1{fill:#EFB9E2;}
	.st2{fill:#6D6E71;}
	.st3{fill:#E6E7E8;}
	.st4{fill:#939598;}
	.st5{fill:#BCBEC0;}
	.st6{fill:#FFFFFF;}
	.st7{opacity:0.1;fill:#FFFFFF;enable-background:new    ;}
	.st8{opacity:0.1;enable-background:new    ;}
	.st9{opacity:0.13;fill:#FFFFFF;enable-background:new    ;}
	.st10{fill:url(#SVGID_3_);stroke:#FFFFFF;stroke-width:3;stroke-miterlimit:10;}
</style>
<g>
	<defs>
		<circle id="SVGID_1_" cx="51.4" cy="51" r="48.3"/>
	</defs>
	<clipPath id="SVGID_2_">
		<use xlink:href="#SVGID_1_"  style="overflow:visible;"/>
	</clipPath>
	<g class="st0">
		<g>
			<path class="st1" d="M73,66.1l2.8,4c0,0-4.5,1.7-2.5,4.2c2,2.5,4.6-1,4.6-1s0.7,2.6,3.7,1.2c3-1.4,0.6-4.1,0.6-4.1s3.7,0,2.5-3.3
				c-1.1-2.9-5.4,1.2-5.4,1.2l-2.8-4.5"/>
			<path class="st2" d="M75,76.8c-0.8,0-1.9-0.3-2.9-1.5c-1-1.3-1-2.4-0.8-3.2c0.3-1.2,1.2-2,2.1-2.6l-1.7-2.4
				c-0.5-0.7-0.4-1.8,0.4-2.3c0.8-0.5,1.8-0.4,2.3,0.4l2.8,4c0.3,0.4,0.4,1,0.2,1.5c-0.2,0.5-0.5,0.9-1,1.1c-0.9,0.4-1.8,1-1.9,1.3
				l0,0c0,0,0,0.1,0.2,0.2c0.1,0.1,0.3,0.3,0.4,0.3c0.4,0,1.2-0.7,1.6-1.2c0.4-0.5,1-0.8,1.6-0.7c0.6,0.1,1.1,0.6,1.3,1.2
				c0,0.1,0.1,0.3,0.3,0.3c0.2,0.1,0.5,0,1.1-0.2c0.3-0.2,0.5-0.3,0.5-0.4c0-0.2-0.2-0.8-0.5-1.1c-0.4-0.5-0.5-1.2-0.2-1.8
				c0.3-0.6,0.9-1,1.5-1c0,0,0,0,0,0c0.4,0,1-0.2,1.1-0.3c0,0,0-0.3-0.1-0.7c-0.6,0.1-1.9,0.9-2.8,1.8C80,69.8,79.5,70,79,69.9
				c-0.5-0.1-0.9-0.3-1.2-0.8L75,64.7c-0.5-0.8-0.3-1.8,0.5-2.3c0.8-0.5,1.8-0.3,2.3,0.5l1.8,2.9c1.2-0.9,2.9-1.7,4.4-1.4
				c1,0.2,1.8,0.9,2.2,2c0.7,1.9,0.3,3.1-0.2,3.8c-0.4,0.5-0.9,0.9-1.4,1.2c0.1,0.5,0.2,1.1,0.1,1.7c-0.2,0.8-0.7,2-2.4,2.8
				c-1.8,0.9-3.1,0.6-3.9,0.3c-0.3-0.1-0.5-0.2-0.7-0.4C77,76.3,76.1,76.8,75,76.8C75,76.8,75,76.8,75,76.8z"/>
		</g>
		<g>
			<path class="st3" d="M7.4,50.6c0,0-7.4,11.8-3.1,25.9S19.8,98.1,42,95.9c23.7-2.4,44.5,2.9,46.8,3.5c6.2,1.5,9.1,0.1,2.5-3.1
				C88,94.7,67.6,88.8,41.1,91C6.8,93.9,11,67.2,11,67.2"/>
			<path class="st2" d="M93,101.6c-1.2,0-2.8-0.2-4.6-0.7c-7.1-1.7-25.5-5.5-46.2-3.4C20.5,99.7,7.6,93,2.8,77.1
				C-1.7,62.3,5.7,50.2,6,49.7l2.8,1.8C8.8,51.6,1.9,62.9,6,76.1c4.4,14.4,15.8,20.1,35.9,18.1c21.2-2.1,40.1,1.7,47.2,3.5
				c0.9,0.2,1.6,0.4,2.2,0.4c-0.2-0.1-0.4-0.2-0.7-0.3c-2.5-1.2-22.4-7.4-49.4-5.1c-12.1,1-21-1.4-26.4-7.3
				c-7.1-7.6-5.5-18-5.4-18.4l3.3,0.5c0,0.1-1.3,9.3,4.6,15.6c4.7,5,12.7,7.1,23.7,6.2c25.6-2.2,46.7,3.3,51.1,5.4
				c2.7,1.3,5.4,2.9,4.6,5.1C96.2,101,95,101.6,93,101.6z"/>
		</g>
		<g>
			<path class="st4" d="M76.9,51.9c-0.5,9.4-6,19.4-27.3,23.4s-39.3-4-43-16.2c-3.8-12.6,9.2-32.5,35-24.8S77.3,42.4,76.9,51.9z"/>
			<path class="st2" d="M38.9,78C22.3,78,8.4,70.8,5,59.6c-2-6.9,0.5-15.3,6.3-21.1c7.3-7.3,18.5-9.4,30.8-5.7
				c5.2,1.6,9.7,2.8,13.8,3.9C71.7,41.1,79,43.1,78.6,52c-0.6,13.1-10.3,21.5-28.7,25C46.2,77.6,42.5,78,38.9,78z M30.5,34.2
				c-8.6,0-14,3.8-16.8,6.6c-5,4.9-7.1,12.1-5.4,17.8c3.2,10.6,19.4,19.1,41.1,15.1c16.9-3.1,25.4-10.3,25.9-21.9
				c0.3-5.9-4.3-7.5-20.3-11.9c-4-1.1-8.6-2.4-13.8-4C37.1,34.7,33.6,34.2,30.5,34.2z"/>
		</g>
		<g>
			<g>
				<ellipse transform="matrix(0.5886 -0.8084 0.8084 0.5886 -6.1089 44.888)" class="st4" cx="41.1" cy="28.4" rx="7.8" ry="9.6"/>
				<path class="st2" d="M42.7,38.6c-2.5,0-5.1-0.9-7.3-2.5c-5-3.6-6.6-10.1-3.5-14.3c1.5-2.1,3.9-3.3,6.8-3.5
					c2.7-0.2,5.5,0.7,7.9,2.4c2.4,1.7,4.1,4.1,4.8,6.8c0.7,2.8,0.3,5.4-1.3,7.5c-1.5,2.1-3.9,3.3-6.8,3.5
					C43.2,38.6,43,38.6,42.7,38.6z M39.4,21.6c-0.1,0-0.3,0-0.4,0c-1.8,0.1-3.3,0.9-4.3,2.1c-2,2.7-0.8,7.1,2.8,9.6
					c1.8,1.3,3.8,1.9,5.7,1.8c1.8-0.1,3.3-0.9,4.3-2.1c0.9-1.3,1.2-3,0.7-4.7c-0.5-1.9-1.7-3.6-3.5-4.9C43,22.3,41.2,21.6,39.4,21.6
					z"/>
			</g>
			<g>
				<path class="st5" d="M36.4,34.8c-4.3-3.1-5.7-8.5-3.1-12s8.1-3.8,12.3-0.7c0,0-5.3,0.3-8,4.1S36.4,34.8,36.4,34.8z"/>
			</g>
			<g>
				<path class="st2" d="M42.7,38.6c-2.5,0-5.1-0.9-7.3-2.5c-5-3.6-6.6-10.1-3.5-14.3c1.5-2.1,3.9-3.3,6.8-3.5
					c2.7-0.2,5.5,0.7,7.9,2.4c2.4,1.7,4.1,4.1,4.8,6.8c0.7,2.8,0.3,5.4-1.3,7.5c-1.5,2.1-3.9,3.3-6.8,3.5
					C43.2,38.6,43,38.6,42.7,38.6z M39.4,21.6c-0.1,0-0.3,0-0.4,0c-1.8,0.1-3.3,0.9-4.3,2.1c-2,2.7-0.8,7.1,2.8,9.6
					c1.8,1.3,3.8,1.9,5.7,1.8c1.8-0.1,3.3-0.9,4.3-2.1c0.9-1.3,1.2-3,0.7-4.7c-0.5-1.9-1.7-3.6-3.5-4.9C43,22.3,41.2,21.6,39.4,21.6
					z"/>
			</g>
			<g>
				<ellipse transform="matrix(0.8322 -0.5544 0.5544 0.8322 -0.9755 53.669)" class="st4" cx="88.2" cy="28.4" rx="9.6" ry="7.8"/>
				<path class="st2" d="M86.5,38.5c-3.1,0-6-1.3-7.7-3.8c-2.9-4.4-1.1-10.7,4.1-14.1c5.2-3.4,11.7-2.7,14.6,1.7
					c1.4,2.2,1.8,4.9,0.9,7.6c-0.8,2.6-2.6,4.9-5,6.6l0,0C91.3,37.8,88.8,38.5,86.5,38.5z M89.9,21.7c-1.7,0-3.5,0.5-5.1,1.6
					c-3.6,2.4-5,6.7-3.2,9.5c1.9,2.8,6.4,3.2,10,0.7c1.8-1.2,3.1-2.9,3.7-4.8c0.5-1.7,0.3-3.4-0.5-4.7
					C93.7,22.5,91.9,21.7,89.9,21.7z"/>
			</g>
			<g>
				<path class="st5" d="M83.9,21.9c4.4-2.9,9.9-2.4,12.3,1.2c2.4,3.6,0.8,8.9-3.6,11.8c0,0,1.5-5.1-1-8.9
					C88.9,22.2,83.9,21.9,83.9,21.9z"/>
			</g>
			<g>
				<path class="st2" d="M86.5,38.5c-3.1,0-6-1.3-7.7-3.8c-2.9-4.4-1.1-10.7,4.1-14.1c5.2-3.4,11.7-2.7,14.6,1.7
					c1.4,2.2,1.8,4.9,0.9,7.6c-0.8,2.6-2.6,4.9-5,6.6l0,0C91.3,37.8,88.8,38.5,86.5,38.5z M89.9,21.7c-1.7,0-3.5,0.5-5.1,1.6
					c-3.6,2.4-5,6.7-3.2,9.5c1.9,2.8,6.4,3.2,10,0.7c1.8-1.2,3.1-2.9,3.7-4.8c0.5-1.7,0.3-3.4-0.5-4.7
					C93.7,22.5,91.9,21.7,89.9,21.7z"/>
			</g>
			<g>
				<path class="st3" d="M84.9,50.8L70,75.3c-2.6,4.3-8.8,4.3-11.4,0L43.6,50.8c-5.7-9.3-2.8-30.5,20.6-30.5S90.6,41.5,84.9,50.8z"
					/>
				<path class="st2" d="M64.3,80.2c-2.9,0-5.6-1.5-7.1-4L42.2,51.7c-3.1-5.2-4.1-14.3,0.1-21.9c4-7.2,11.8-11.1,22-11.1
					s17.9,3.9,22,11.1c4.2,7.5,3.3,16.7,0.1,21.9L71.4,76.2C69.9,78.7,67.2,80.2,64.3,80.2z M64.3,22c-11.4,0-16.6,5.1-19.1,9.4
					c-3.6,6.4-2.8,14.2-0.2,18.5L60,74.5c0.9,1.5,2.5,2.4,4.3,2.4c1.8,0,3.4-0.9,4.3-2.4l14.9-24.5c2.6-4.3,3.4-12.1-0.2-18.5
					C80.9,27.1,75.6,22,64.3,22z"/>
			</g>
			<g>
				<path class="st4" d="M59,20.9c0,0,1.7,1.8,3,4.4c1.3,2.7,2.2,5.8,2.2,5.8s0.7-3.1,1.9-5.8c1.2-2.7,2.7-4.6,2.7-4.6L59,20.9z"/>
			</g>
			<g>
				<path class="st2" d="M64.3,80.2c-2.9,0-5.6-1.5-7.1-4L42.2,51.7c-3.1-5.2-4.1-14.3,0.1-21.9c4-7.2,11.8-11.1,22-11.1
					s17.9,3.9,22,11.1c4.2,7.5,3.3,16.7,0.1,21.9L71.4,76.2C69.9,78.7,67.2,80.2,64.3,80.2z M64.3,22c-11.4,0-16.6,5.1-19.1,9.4
					c-3.6,6.4-2.8,14.2-0.2,18.5L60,74.5c0.9,1.5,2.5,2.4,4.3,2.4c1.8,0,3.4-0.9,4.3-2.4l14.9-24.5c2.6-4.3,3.4-12.1-0.2-18.5
					C80.9,27.1,75.6,22,64.3,22z"/>
			</g>
			<g>
				<g>
					<ellipse transform="matrix(0.9345 -0.356 0.356 0.9345 -9.4964 21.8808)" class="st6" cx="54.7" cy="36.7" rx="7.1" ry="7.1"/>
				</g>
				<g>
					<ellipse transform="matrix(0.9345 -0.356 0.356 0.9345 -9.5509 22.104)" cx="55.3" cy="37" rx="5.8" ry="5.8"/>
				</g>
				<g>
					<ellipse transform="matrix(0.9345 -0.356 0.356 0.9345 -9.1401 20.6941)" class="st6" cx="51.7" cy="35.2" rx="1.9" ry="1.9"/>
				</g>
			</g>
			<g>
				<g>
					<ellipse transform="matrix(0.9345 -0.356 0.356 0.9345 -8.3245 28.7088)" class="st6" cx="73.8" cy="37" rx="7.1" ry="7.1"/>
				</g>
				<g>
					<ellipse transform="matrix(0.9345 -0.356 0.356 0.9345 -8.379 28.932)" cx="74.4" cy="37.2" rx="5.8" ry="5.8"/>
				</g>
				<g>
					<ellipse transform="matrix(0.9345 -0.356 0.356 0.9345 -7.9682 27.5221)" class="st6" cx="70.8" cy="35.4" rx="1.9" ry="1.9"/>
				</g>
			</g>
			<g>
				<ellipse class="st1" cx="64.3" cy="74.4" rx="6.4" ry="4.7"/>
				<path class="st2" d="M64.3,80.8c-4.5,0-8.1-2.8-8.1-6.4c0-3.6,3.6-6.4,8.1-6.4s8.1,2.8,8.1,6.4C72.4,78,68.8,80.8,64.3,80.8z
					 M64.3,71.4c-2.6,0-4.8,1.4-4.8,3.1c0,1.7,2.2,3.1,4.8,3.1c2.6,0,4.8-1.4,4.8-3.1C69,72.8,66.8,71.4,64.3,71.4z"/>
			</g>
		</g>
		<g>
			<path class="st1" d="M46.3,71.3l0.4,4.9c0,0-5-0.6-4.5,2.6c0.5,3.2,4.5,1.8,4.5,1.8s-0.4,2.8,2.8,3.1c3.3,0.3,2.6-3.2,2.6-3.2
				s3.6,1.7,4.2-1.8c0.5-3-5.5-2.1-5.5-2.1v-5.3"/>
			<path class="st2" d="M49.9,85.3c-0.2,0-0.3,0-0.5,0c-1.9-0.2-2.9-1-3.5-1.7c-0.3-0.4-0.5-0.7-0.6-1.1c-0.9,0.1-2,0-2.9-0.6
				c-0.7-0.4-1.6-1.3-1.8-2.9c-0.2-1.6,0.4-2.6,0.9-3.1c0.9-1,2.3-1.3,3.4-1.4l-0.3-3c-0.1-0.9,0.6-1.7,1.5-1.8
				c0.9-0.1,1.7,0.6,1.8,1.5l0.4,4.9c0,0.5-0.1,1-0.5,1.3c-0.4,0.3-0.8,0.5-1.3,0.5c-1-0.1-2.3,0.1-2.7,0.4c-0.1,0.1,0,0.2,0,0.3
				c0.1,0.4,0.2,0.5,0.3,0.5c0.4,0.3,1.5,0.1,2.1-0.1c0.6-0.2,1.2-0.1,1.6,0.3c0.4,0.4,0.7,0.9,0.6,1.5c0,0,0,0,0,0
				c0,0,0,0.4,0.2,0.7c0.2,0.3,0.7,0.4,1.1,0.4c0.4,0,0.6,0,0.7-0.1c0.2-0.2,0.2-0.8,0.2-1.2c-0.1-0.6,0.1-1.2,0.6-1.6
				c0.5-0.4,1.2-0.4,1.7-0.2c0.4,0.2,1.2,0.3,1.5,0.2c0.1-0.1,0.3-0.4,0.3-0.8c-0.3-0.3-2.1-0.4-3.6-0.1c-0.5,0.1-1-0.1-1.3-0.4
				c-0.4-0.3-0.6-0.8-0.6-1.3v-5.3c0-0.9,0.7-1.7,1.7-1.7c0.9,0,1.7,0.7,1.7,1.7v3.4c1.5-0.1,3.5,0.2,4.6,1.3c0.7,0.7,1,1.7,0.8,2.8
				c-0.3,1.9-1.3,2.8-2.1,3.2c-0.7,0.4-1.5,0.5-2.2,0.4c-0.1,0.6-0.4,1.1-0.9,1.6C52.3,84.7,51.4,85.3,49.9,85.3z"/>
		</g>
		<g>
			<path class="st1" d="M23.1,71l-0.4,4.9c0,0-4.9-1.4-4.9,1.8c0,3.2,4.2,2.5,4.2,2.5s-0.9,2.7,2.3,3.5c3.2,0.8,3.2-2.9,3.2-2.9
				s3.2,2.4,4.4-0.9c1-2.9-5-3.5-5-3.5l0.8-4.6"/>
			<path class="st2" d="M25.1,85.5c-0.4,0-0.8-0.1-1.3-0.2c-1.8-0.5-2.7-1.5-3.1-2.2c-0.2-0.4-0.3-0.8-0.4-1.2
				c-0.9-0.1-2-0.4-2.8-1.1c-0.6-0.5-1.4-1.5-1.3-3.2c0-1.6,0.8-2.5,1.4-2.9c1.1-0.8,2.5-0.9,3.6-0.8l0.2-3c0.1-0.9,0.8-1.6,1.8-1.5
				c0.9,0.1,1.6,0.9,1.5,1.8L24.4,76c0,0.5-0.3,1-0.7,1.2c-0.4,0.3-0.9,0.4-1.4,0.2c-0.9-0.3-2.3-0.3-2.7,0c-0.1,0-0.1,0.2-0.1,0.3
				c0,0.4,0.1,0.5,0.2,0.6c0.4,0.3,1.5,0.4,2.1,0.3c0.6-0.1,1.2,0.1,1.5,0.6c0.4,0.4,0.5,1.1,0.3,1.6h0c0,0-0.1,0.4,0.1,0.7
				c0.2,0.3,0.7,0.5,1,0.6c0.3,0.1,0.6,0.1,0.7,0c0.3-0.2,0.4-1,0.4-1.3c0-0.6,0.4-1.2,0.9-1.5c0.6-0.3,1.2-0.2,1.7,0.2
				c0.4,0.3,1.1,0.6,1.4,0.5c0.1,0,0.3-0.2,0.4-0.6c-0.2-0.5-1.9-1.1-3.6-1.3c-0.5,0-0.9-0.3-1.1-0.7c-0.3-0.4-0.4-0.8-0.3-1.3
				l0.8-4.6c0.2-0.9,1-1.5,1.9-1.4c0.9,0.2,1.5,1,1.4,1.9l-0.5,3c1.5,0.4,3.4,1.1,4.3,2.5c0.6,0.9,0.7,1.9,0.3,2.9
				c-0.6,1.8-1.7,2.5-2.6,2.7c-0.8,0.2-1.5,0.2-2.2,0c-0.3,0.6-0.6,1.1-1.2,1.6C26.9,85.1,26.2,85.5,25.1,85.5z"/>
		</g>
	</g>
</g>
<g>
	<path class="st7" d="M4.5,62.7C3.6,58.9,3.1,55,3.1,51c0-26.7,21.6-48.3,48.3-48.3c3.7,0,7.3,0.4,10.7,1.2
		C72.7,6.3,44.9-1,22.4,22.2S7.2,73.4,4.5,62.7z"/>
	<path class="st8" d="M99.7,51c0,26.7-21.6,48.3-48.3,48.3c-14.7,0-27.8-6.6-36.7-16.9c-4.3-5,31.4,8.1,54.3-13.8s13-55.3,16.6-51.8
		C94.3,25.6,99.7,37.7,99.7,51z"/>
	<circle class="st9" cx="26.9" cy="33.8" r="9"/>
	<circle class="st9" cx="32.5" cy="21.4" r="3.4"/>
	
		<radialGradient id="SVGID_3_" cx="51.4" cy="-563" r="48.3" gradientTransform="matrix(1 0 0 -1 0 -512)" gradientUnits="userSpaceOnUse">
		<stop  offset="0.4322" style="stop-color:#FFFFFF;stop-opacity:0"/>
		<stop  offset="0.9846" style="stop-color:#FFFFFF;stop-opacity:0.2919"/>
		<stop  offset="1" style="stop-color:#FFFFFF;stop-opacity:0.3"/>
	</radialGradient>
	<circle class="st10" cx="51.4" cy="51" r="48.3"/>
</g>
</svg>
