<?xml version="1.0" encoding="utf-8"?>
<!-- Generator: Adobe Illustrator 20.1.0, SVG Export Plug-In . SVG Version: 6.00 Build 0)  -->
<svg version="1.1" id="Layer_1" xmlns="http://www.w3.org/2000/svg" xmlns:xlink="http://www.w3.org/1999/xlink" x="0px" y="0px"
	 viewBox="0 0 60 60" style="enable-background:new 0 0 60 60;" xml:space="preserve">
<style type="text/css">
	.st0{fill:#EFB9E2;stroke:#6D6E71;stroke-width:2;stroke-linecap:round;stroke-linejoin:round;stroke-miterlimit:10;}
	.st1{fill:#E6E7E8;stroke:#6D6E71;stroke-width:2;stroke-miterlimit:10;}
	.st2{fill:#939598;stroke:#6D6E71;stroke-width:2;stroke-miterlimit:10;}
	.st3{fill:#BCBEC0;}
	.st4{fill:none;stroke:#6D6E71;stroke-width:2;stroke-miterlimit:10;}
	.st5{fill:#939598;}
	.st6{fill:#FFFFFF;}
	.st7{fill:#EFB9E2;stroke:#6D6E71;stroke-width:2;stroke-miterlimit:10;}
</style>
<path class="st0" d="M44.2,36l1.7,2.4c0,0-2.7,1-1.5,2.5s2.8-0.6,2.8-0.6s0.4,1.5,2.2,0.7s0.4-2.4,0.4-2.4s2.2,0,1.5-2
	c-0.7-1.7-3.3,0.8-3.3,0.8l-1.7-2.7"/>
<path class="st1" d="M4.8,26.7c0,0-4.4,7.1-1.8,15.6s9.3,12.9,22.6,11.6c14.2-1.4,26.7,1.8,28.1,2.1c3.7,0.9,5.4,0.1,1.5-1.8
	c-2-1-14.2-4.5-30.2-3.2C4.4,52.7,6.9,36.7,6.9,36.7"/>
<path class="st2" d="M46.5,27.5c-0.3,5.7-3.6,11.7-16.4,14.1C17.3,44,6.5,39.2,4.3,31.8C2,24.3,9.9,12.3,25.3,17
	S46.8,21.8,46.5,27.5z"/>
<g>
	<ellipse transform="matrix(0.5886 -0.8084 0.8084 0.5886 -0.5772 25.7288)" class="st2" cx="25" cy="13.4" rx="4.7" ry="5.7"/>
	<path class="st3" d="M22.2,17.2c-2.6-1.9-3.4-5.1-1.9-7.2s4.8-2.3,7.4-0.4c0,0-3.2,0.2-4.8,2.4S22.2,17.2,22.2,17.2z"/>
	<ellipse transform="matrix(0.5886 -0.8084 0.8084 0.5886 -0.5772 25.7288)" class="st4" cx="25" cy="13.4" rx="4.7" ry="5.7"/>
	<ellipse transform="matrix(0.8322 -0.5544 0.5544 0.8322 1.4961 31.8068)" class="st2" cx="53.3" cy="13.4" rx="5.7" ry="4.7"/>
	<path class="st3" d="M50.7,9.5c2.6-1.8,5.9-1.4,7.4,0.7c1.4,2.2,0.5,5.3-2.2,7.1c0,0,0.9-3-0.6-5.3C53.7,9.7,50.7,9.5,50.7,9.5z"/>
	<ellipse transform="matrix(0.8322 -0.5544 0.5544 0.8322 1.4961 31.8068)" class="st4" cx="53.3" cy="13.4" rx="5.7" ry="4.7"/>
	<path class="st1" d="M51.3,26.9l-9,14.7c-1.6,2.6-5.3,2.6-6.8,0l-9-14.7c-3.4-5.6-1.7-18.3,12.4-18.3S54.7,21.3,51.3,26.9z"/>
	<path class="st5" d="M35.8,8.9c0,0,1,1.1,1.8,2.7c0.8,1.6,1.3,3.5,1.3,3.5s0.4-1.9,1.1-3.5s1.6-2.8,1.6-2.8L35.8,8.9z"/>
	<path class="st4" d="M51.3,26.9l-9,14.7c-1.6,2.6-5.3,2.6-6.8,0l-9-14.7c-3.4-5.6-1.7-18.3,12.4-18.3S54.7,21.3,51.3,26.9z"/>
	<g>
		<ellipse transform="matrix(0.9345 -0.356 0.356 0.9345 -4.3808 13.022)" class="st6" cx="33.2" cy="18.4" rx="4.2" ry="4.2"/>
		<ellipse transform="matrix(0.9345 -0.356 0.356 0.9345 -4.4136 13.156)" cx="33.5" cy="18.6" rx="3.5" ry="3.5"/>
		<ellipse transform="matrix(0.9345 -0.356 0.356 0.9345 -4.1668 12.3092)" class="st6" cx="31.4" cy="17.5" rx="1.1" ry="1.1"/>
	</g>
	<g>
		<ellipse transform="matrix(0.9345 -0.356 0.356 0.9345 -3.677 17.1228)" class="st6" cx="44.7" cy="18.6" rx="4.2" ry="4.2"/>
		<ellipse transform="matrix(0.9345 -0.356 0.356 0.9345 -3.7097 17.2568)" cx="45" cy="18.7" rx="3.5" ry="3.5"/>
		<ellipse transform="matrix(0.9345 -0.356 0.356 0.9345 -3.463 16.41)" class="st6" cx="42.9" cy="17.6" rx="1.1" ry="1.1"/>
	</g>
	<ellipse class="st7" cx="38.9" cy="41" rx="3.9" ry="2.8"/>
</g>
<path class="st0" d="M28.1,39.2l0.3,2.9c0,0-3-0.3-2.7,1.6c0.3,1.9,2.7,1.1,2.7,1.1s-0.3,1.7,1.7,1.8c2,0.2,1.6-1.9,1.6-1.9
	s2.2,1,2.5-1.1c0.3-1.8-3.3-1.2-3.3-1.2v-3.2"/>
<path class="st0" d="M14.2,39L14,41.9c0,0-2.9-0.8-2.9,1.1s2.5,1.5,2.5,1.5s-0.5,1.6,1.4,2.1s1.9-1.8,1.9-1.8s1.9,1.5,2.6-0.5
	c0.6-1.7-3-2.1-3-2.1l0.5-2.8"/>
</svg>
