<?xml version="1.0" encoding="utf-8"?>
<!-- Generator: Adobe Illustrator 20.1.0, SVG Export Plug-In . SVG Version: 6.00 Build 0)  -->
<svg version="1.1" id="Layer_1" xmlns="http://www.w3.org/2000/svg" xmlns:xlink="http://www.w3.org/1999/xlink" x="0px" y="0px"
	 viewBox="0 0 60 60" style="enable-background:new 0 0 60 60;" xml:space="preserve">
<style type="text/css">
	.st0{fill:#414042;stroke:#58595B;stroke-width:2;stroke-linecap:round;stroke-linejoin:round;stroke-miterlimit:10;}
	.st1{fill:#6D6E71;stroke:#58595B;stroke-width:2;stroke-linecap:round;stroke-linejoin:round;stroke-miterlimit:10;}
	.st2{fill:#231F20;}
	.st3{fill:#FFFFFF;}
	.st4{fill:#808285;stroke:#58595B;stroke-width:2;stroke-linecap:round;stroke-linejoin:round;stroke-miterlimit:10;}
</style>
<path class="st0" d="M30.2,26.7C16.9,27.1,13.9,36.4,14.4,50c0.1,2.7,0.4,7,0.9,7c0.8,0,6,0,6.7,0c0.4,0-0.2-2-0.7-3.5
	c3.2,1.1,6.8,1.6,10.6,1.5c2.3-0.1,4.5-0.4,6.6-0.9c-0.5,1.5-1.1,3.4-0.7,3.4c0.7,0,5.9,0,6.7,0c0.5,0,0.8-3.5,0.9-6.2
	C46.2,39.9,43.4,26.3,30.2,26.7z"/>
<path class="st1" d="M17.8,49.1c0,0-4.5-0.4-7.7-1.7s-6.5-4.4-6.5-4.4s2.6,0.7,4.6,0.7s3.4-0.5,3.4-0.5S7.9,40.5,5.3,38
	c-2.6-2.5-4.2-4.9-4.2-4.9s3.4,2,5.9,2.8s3.5,0.5,3.5,0.5s-1.3-1.9-3.8-5.8s-3.5-8.7-3.5-8.7S6.4,25,8.8,27s3.5,2,3.5,2
	s-0.5-1.9-2.3-7.8s-1.5-11-1.5-11s3.1,5.8,5,8.4s2.3,3,2.3,3s0.5-2.4,1.1-7.3s2.7-8.3,2.7-8.3s0.4,5.6,1.2,9.2s1.9,3.1,1.9,3.1
	s0.8-0.7,2-5.5c1.3-4.8,3-8.8,3-8.8s-0.3,7.9,0.3,11.2c0.7,3.3,1,2.7,1,2.7s1.2-2,4.1-6.3S38.6,6,38.6,6s-2.2,3.4-2.9,8.6
	c-0.7,5.2-0.4,3.7-0.4,3.7s1.8-0.7,6-4.7s6.7-5,6.7-5s-1.4,2.6-3.4,7.5s-1.6,5.6-1.6,5.6s1.2-0.1,4.5-3.2c3.3-3.1,6.3-6.1,6.3-6.1
	s-0.8,4.7-3.5,9.1c-2.7,4.4-3.3,5.3-3.3,5.3s2.6-0.7,5.9-3.2s5.4-5.3,5.4-5.3s-1.5,5-5.5,10.7S48,34.9,48,34.9s1.9,0.3,5.4-1.6
	c3.5-1.9,5.4-4.2,5.4-4.2s-2.2,5.5-6.2,9.1s-5,4.2-5,4.2s1.3,0.4,5.1-0.8s5.5-2.7,5.5-2.7s-2.5,5-7.3,7.7s-7.5,3.6-10.3,4.2
	c-2.8,0.6-0.7-4.3-1.6-7.8c-0.8-3.5-3.9-7.2-9.5-7.5c-5.7-0.3-8.7,3.4-9.4,6.8C19.2,45.6,20.4,49.7,17.8,49.1z"/>
<path class="st0" d="M41.5,30.8c-0.8-2.3-1.6-4.2-1.6-4.2l-20.8-0.2c0,0-1.1,3.3-1.9,5.7s-1.3,4.8-1.3,5.5
	C16.1,44,22.3,49,29.7,48.8c7.5-0.2,13.3-5.6,13.1-12C42.9,36.2,42.2,33.2,41.5,30.8z"/>
<path class="st2" d="M31.8,41.1c0,1.6-1.4,3-2.6,3c-1.2,0-2.8-1.2-2.8-2.9c0-1.6,1.1-2.2,2.6-2.3C30.5,39,31.8,39.5,31.8,41.1z"/>
<g>
	
		<ellipse transform="matrix(0.9996 -2.976068e-02 2.976068e-02 0.9996 -1.0104 0.7236)" class="st3" cx="23.8" cy="34.3" rx="3.9" ry="3.9"/>
	<ellipse transform="matrix(0.9996 -2.976068e-02 2.976068e-02 0.9996 -1.0174 0.7312)" cx="24.1" cy="34.5" rx="3.2" ry="3.2"/>
	
		<ellipse transform="matrix(0.9996 -2.976068e-02 2.976068e-02 0.9996 -0.9704 0.6842)" class="st3" cx="22.5" cy="32.9" rx="1" ry="1"/>
</g>
<g>
	
		<ellipse transform="matrix(0.9996 -2.976068e-02 2.976068e-02 0.9996 -1.0035 1.0435)" class="st3" cx="34.6" cy="34.2" rx="3.9" ry="3.9"/>
	<ellipse transform="matrix(0.9996 -2.976068e-02 2.976068e-02 0.9996 -1.0105 1.0512)" cx="34.8" cy="34.5" rx="3.2" ry="3.2"/>
	
		<ellipse transform="matrix(0.9996 -2.976068e-02 2.976068e-02 0.9996 -0.9635 1.0042)" class="st3" cx="33.3" cy="32.9" rx="1" ry="1"/>
</g>
<g>
	<path class="st2" d="M27.4,46.6c0,0,0.1-0.3,0.3-0.7c0.1-0.2,0.3-0.4,0.5-0.6c0.1-0.1,0.2-0.2,0.4-0.3c0.1-0.1,0.4-0.2,0.7-0.2
		c0,0,0.2,0,0.3,0.1c0.1,0,0.2,0.1,0.2,0.1c0.1,0.1,0.3,0.2,0.4,0.3c0.2,0.2,0.4,0.4,0.5,0.6c0.2,0.4,0.3,0.7,0.3,0.7
		s-0.3-0.1-0.7-0.4c-0.2-0.1-0.4-0.2-0.6-0.4c-0.1-0.1-0.2-0.1-0.3-0.2c-0.1,0-0.1,0-0.1-0.1c0,0,0,0-0.1,0c0,0-0.1,0-0.2,0.1
		c-0.1,0-0.2,0.1-0.3,0.2c-0.2,0.1-0.4,0.3-0.6,0.4C27.7,46.4,27.4,46.6,27.4,46.6z"/>
</g>
<path class="st4" d="M18.3,23.2c-2.2,2.5,0.3,6.1,11,4.9C40,27,45.2,30.8,45.2,30.8s-0.2-2.5-3.4-4s-5.3-1.9-5.3-1.9
	s2.8-0.1,4.8-0.1S44,25,44,25s0.3-2.2-5.1-2.5S29.6,23,29.6,23s1.1-1.1,2.4-1.8c1.3-0.7,2.2-1.2,2.2-1.2S22.2,18.9,18.3,23.2z"/>
</svg>
