<?xml version="1.0" encoding="utf-8"?>
<!-- Generator: Adobe Illustrator 20.1.0, SVG Export Plug-In . SVG Version: 6.00 Build 0)  -->
<svg version="1.1" id="Layer_1" xmlns="http://www.w3.org/2000/svg" xmlns:xlink="http://www.w3.org/1999/xlink" x="0px" y="0px"
	 viewBox="0 0 102 102" style="enable-background:new 0 0 102 102;" xml:space="preserve">
<style type="text/css">
	.st0{clip-path:url(#SVGID_2_);}
	.st1{fill:#414042;}
	.st2{fill:#58595B;}
	.st3{fill:#6D6E71;}
	.st4{fill:#231F20;}
	.st5{fill:#FFFFFF;}
	.st6{fill:#808285;}
	.st7{opacity:0.1;fill:#FFFFFF;enable-background:new    ;}
	.st8{opacity:0.1;enable-background:new    ;}
	.st9{opacity:0.13;fill:#FFFFFF;enable-background:new    ;}
	.st10{fill:url(#SVGID_3_);stroke:#FFFFFF;stroke-width:3;stroke-miterlimit:10;}
</style>
<g>
	<defs>
		<circle id="SVGID_1_" cx="51.4" cy="51" r="48.3"/>
	</defs>
	<clipPath id="SVGID_2_">
		<use xlink:href="#SVGID_1_"  style="overflow:visible;"/>
	</clipPath>
	<g class="st0">
		<g>
			<path class="st1" d="M50.3,46.2c-21.2,0.6-26,15.5-25.2,37.2c0.2,4.3,0.6,11.3,1.5,11.3c1.3,0,9.6,0,10.8,0
				c0.7,0-0.2-3.1-1.1-5.5c5.1,1.7,10.9,2.6,16.9,2.4c3.7-0.1,7.2-0.6,10.5-1.4c-0.8,2.4-1.8,5.4-1.1,5.4c1.1,0,9.5,0,10.8,0
				c0.8,0,1.3-5.6,1.5-9.9C76,67.3,71.5,45.5,50.3,46.2z"/>
			<path class="st2" d="M73.5,97.3C73.5,97.3,73.4,97.3,73.5,97.3l-10.8,0c-0.6,0-1.1-0.3-1.5-0.8c-0.4-0.6-0.7-1.3,0.2-4.1
				c-2.7,0.5-5.4,0.8-8.1,0.9c-5,0.2-9.9-0.4-14.5-1.6c0.7,2.7,0.5,3.4,0.1,4c-0.3,0.5-0.8,0.8-1.5,0.7l-10.7,0
				c-1.7,0-2.6-0.6-3.1-12.8c-0.6-15.4,1.9-25.4,7.6-31.5c4.4-4.7,10.7-7.1,19.1-7.4c7.1-0.2,13,2,17.3,6.5c9,9.3,9.5,25.8,8.9,34.9
				C76,96.2,75.2,97.3,73.5,97.3z M73.4,94.1L73.4,94.1C73.4,94.1,73.4,94.1,73.4,94.1z M64.3,94l8.2,0c0.2-0.9,0.6-3.1,0.9-8.4
				c0.5-8.5,0.1-24-8-32.4c-3.7-3.8-8.8-5.7-15-5.5c-7.6,0.2-13.1,2.3-16.9,6.4c-5.1,5.5-7.3,14.8-6.7,29.2c0.3,6.2,0.6,8.8,0.9,9.7
				l8.2,0c-0.2-0.7-0.5-1.8-1-3.4c-0.2-0.6,0-1.2,0.4-1.6c0.4-0.4,1.1-0.6,1.6-0.4c5.1,1.7,10.7,2.5,16.4,2.4
				c3.5-0.1,6.9-0.6,10.2-1.4c0.6-0.1,1.2,0,1.6,0.5c0.4,0.4,0.5,1.1,0.3,1.6C64.7,92.3,64.4,93.4,64.3,94z M37.4,93.1L37.4,93.1
				L37.4,93.1z"/>
		</g>
		<g>
			<path class="st3" d="M30.5,81.9c0,0-7.3-0.7-12.4-2.7c-5.1-2-10.5-7.1-10.5-7.1s4.2,1.1,7.4,1.1c3.2,0,5.4-0.8,5.4-0.8
				s-5.7-4.2-9.9-8.1c-4.2-4-6.7-7.9-6.7-7.9s5.5,3.2,9.5,4.5c4,1.3,5.6,0.7,5.6,0.7s-2.1-3-6-9.3S7.2,38.3,7.2,38.3s5,5.1,8.8,8.2
				s5.6,3.2,5.6,3.2s-0.8-3.1-3.7-12.5s-2.4-17.6-2.4-17.6s4.9,9.2,8,13.4s3.7,4.8,3.7,4.8s0.9-3.9,1.8-11.6
				c1-7.8,4.4-13.3,4.4-13.3s0.7,8.9,1.9,14.7c1.3,5.8,3,4.9,3,4.9s1.2-1.2,3.3-8.9s4.8-14.2,4.8-14.2s-0.5,12.7,0.5,18
				s1.7,4.3,1.7,4.3s2-3.2,6.5-10.2s8.6-8.9,8.6-8.9s-3.5,5.5-4.7,13.8c-1.1,8.3-0.7,5.9-0.7,5.9s2.8-1.1,9.6-7.6S78.7,17,78.7,17
				s-2.3,4.2-5.5,12s-2.5,9-2.5,9s2-0.1,7.2-5.1s10-9.8,10-9.8s-1.3,7.5-5.5,14.5S77.1,46,77.1,46s4.1-1.1,9.4-5.1
				c5.2-4,8.7-8.6,8.7-8.6s-2.4,8-8.8,17.1s-7.4,9.8-7.4,9.8s3,0.5,8.6-2.6s8.6-6.7,8.6-6.7s-3.5,8.8-9.9,14.6c-6.4,5.8-8,6.7-8,6.7
				s2.1,0.6,8.2-1.3s8.8-4.4,8.8-4.4s-4,8.1-11.8,12.3C75.8,82,71.4,83.5,67,84.5c-4.4,1-1.2-6.9-2.5-12.5
				c-1.4-5.6-6.2-11.5-15.3-11.9S35.3,65.6,34.1,71C32.8,76.4,34.6,82.9,30.5,81.9z"/>
			<path class="st2" d="M66.2,86.2c-0.8,0-1.5-0.2-2-0.7c-1.5-1.3-1.4-3.7-1.2-6.7c0.1-2.1,0.3-4.4-0.2-6.4
				c-1.2-4.9-5.4-10.3-13.8-10.7c-8.2-0.4-12.4,4.9-13.4,9.7c-0.4,1.6-0.5,3.5-0.5,5.1c-0.1,2.8-0.2,5.3-1.8,6.5
				c-0.8,0.6-1.8,0.8-3,0.5c-0.9-0.1-7.7-0.8-12.7-2.8c-5.4-2.1-10.8-7.2-11-7.5C6,72.8,5.9,72,6.2,71.3c0.4-0.6,1.1-1,1.8-0.8
				c0,0,4,1,7,1c0.6,0,1.1,0,1.6-0.1c-2.1-1.6-4.9-3.9-7.2-6.1c-4.3-4.1-6.8-8-6.9-8.2c-0.4-0.6-0.3-1.4,0.2-2
				c0.5-0.5,1.3-0.7,2-0.3c0.1,0,5.4,3.1,9.2,4.3c0.8,0.2,1.4,0.4,2,0.5c-1-1.6-2.5-3.8-4.3-6.8c-4-6.5-5.7-14.1-5.8-14.4
				c-0.2-0.7,0.2-1.4,0.8-1.8c0.6-0.3,1.4-0.2,1.9,0.3c0.1,0.1,5,5.1,8.7,8.1c0.8,0.7,1.5,1.2,2.1,1.6c-0.6-2-1.4-4.9-2.7-9.1
				c-2.9-9.6-2.5-17.8-2.5-18.2c0-0.7,0.6-1.3,1.3-1.5c0.7-0.2,1.4,0.2,1.8,0.8c0.1,0.1,4.9,9.2,7.9,13.3c0.6,0.8,1.1,1.5,1.5,2.1
				c0.3-1.9,0.7-4.6,1.2-8.2c1-8,4.5-13.7,4.6-13.9c0.4-0.6,1.1-0.9,1.7-0.7c0.7,0.2,1.2,0.7,1.2,1.4c0,0.1,0.7,8.9,1.9,14.5
				c0.3,1.4,0.6,2.3,0.9,2.9c0.5-1.1,1.3-3.2,2.2-6.9C42.1,15.7,44.9,9.3,45,9c0.3-0.7,1.1-1.1,1.8-0.9c0.8,0.2,1.3,0.9,1.2,1.6
				c0,0.1-0.5,12.6,0.5,17.6c0.1,0.5,0.2,0.9,0.3,1.3c1.1-1.7,2.7-4.2,5-7.7c4.8-7.2,9-9.3,9.2-9.4c0.6-0.3,1.4-0.2,1.9,0.4
				c0.5,0.5,0.5,1.3,0.2,1.9c0,0.1-3.3,5.3-4.4,13.2c-0.1,1-0.3,1.9-0.3,2.6c1.5-1.1,3.6-2.8,6.6-5.6c6.9-6.6,11-8.3,11.2-8.4
				c0.6-0.3,1.3-0.1,1.8,0.4c0.5,0.5,0.5,1.2,0.2,1.8c0,0-2.3,4.2-5.4,11.9c-1.1,2.6-1.7,4.3-2,5.6c1-0.7,2.3-1.8,4.1-3.5
				c5.2-4.9,10-9.7,10-9.8c0.5-0.5,1.2-0.6,1.9-0.3c0.6,0.3,1,1,0.8,1.7c-0.1,0.3-1.4,7.9-5.7,15.1c-1,1.6-1.8,2.9-2.5,4
				c1.2-0.7,2.7-1.6,4.2-2.8c5-3.8,8.4-8.2,8.4-8.3c0.5-0.6,1.3-0.8,2-0.5c0.7,0.4,1,1.1,0.8,1.9c-0.1,0.3-2.6,8.4-9.1,17.5
				c-1.9,2.7-3.5,4.9-4.8,6.6c1.1-0.4,2.4-0.9,3.9-1.8c5.3-2.9,8.1-6.3,8.2-6.3c0.5-0.6,1.4-0.8,2.1-0.4c0.7,0.4,1,1.2,0.7,2
				c-0.1,0.4-3.7,9.2-10.3,15.2c-1.5,1.4-2.7,2.5-3.8,3.3c0.7-0.2,1.5-0.4,2.4-0.7c5.6-1.8,8.2-4,8.3-4c0.6-0.5,1.4-0.5,2-0.1
				c0.6,0.5,0.8,1.3,0.5,2c-0.2,0.3-4.4,8.6-12.4,13c-8,4.3-12.4,5.8-16.9,6.9C66.9,86.2,66.6,86.2,66.2,86.2z M48.1,58.5
				c0.4,0,0.7,0,1.1,0C59.3,59,64.5,65.7,66,71.7c0.6,2.4,0.4,5,0.3,7.3c-0.1,1.4-0.2,3.4,0,4c0.1,0,0.2,0,0.3,0
				c4.3-1,8.5-2.4,16.1-6.6c3.1-1.7,5.5-4,7.3-6.1c-0.9,0.4-2,0.8-3.1,1.1c-6.1,1.9-8.6,1.5-9.1,1.3c-0.6-0.2-1.1-0.7-1.2-1.3
				c-0.1-0.6,0.2-1.3,0.8-1.6c0,0,1.7-1.1,7.7-6.5c2.3-2.1,4.2-4.5,5.7-6.8c-0.8,0.5-1.6,1-2.6,1.5c-6,3.2-9.3,2.8-9.7,2.8
				c-0.6-0.1-1.2-0.6-1.3-1.2c-0.2-0.6,0.1-1.3,0.6-1.7l0,0c0,0,1.3-1.3,7.1-9.4c2.2-3.1,3.9-6.1,5.2-8.6c-0.9,0.8-1.8,1.5-2.8,2.3
				c-5.4,4.2-9.8,5.3-10,5.4c-0.7,0.2-1.4-0.1-1.7-0.7c-0.4-0.6-0.4-1.3,0.1-1.8c0-0.1,1.1-1.5,5.2-8.3c1.8-2.9,3-5.9,3.8-8.4
				C83.2,30,81.1,32,79,34c-5.2,5-7.6,5.5-8.2,5.6c-0.6,0-1.1-0.2-1.4-0.7c-0.3-0.5-1.2-1.8,2.4-10.5c1.2-2.8,2.2-5.2,3.1-7
				c-1.5,1.2-3.4,2.7-5.7,4.9c-5.2,5-8.2,6.9-9.4,7.6c-0.5,0.9-1.4,0.8-1.6,0.8c-1.5-0.3-1.4-1.7-1.2-2.9c0.1-0.9,0.3-2.5,0.7-5.1
				c0.4-2.9,1.1-5.4,1.8-7.6c-0.9,1-1.8,2.3-2.8,3.7C52,29.5,50,32.7,50,32.8c-0.4,0.6-1.1,0.9-1.8,0.8c-1.3-0.3-2-1.6-2.8-5.6
				c-0.5-2.2-0.6-5.7-0.7-9.1c-0.5,1.7-1.1,3.5-1.6,5.3c-2,7.3-3.2,9.2-3.7,9.6C39.3,34,39.2,34,39,34.1c-0.2,0.1-1,0.4-2.1,0
				c-1.4-0.7-2.4-2.6-3.2-6c-0.6-2.7-1.1-6.1-1.4-9c-0.7,2-1.4,4.6-1.8,7.4c-1,7.8-1.8,11.6-1.8,11.8c-0.1,0.5-0.5,1-1,1.2
				c-0.5,0.2-1.1,0.1-1.5-0.2c-0.6-0.5-2.1-2.3-4.1-5.1c-1.4-2-3.2-5-4.8-7.7c0.3,2.9,0.9,6.6,2.1,10.5c2.8,9.3,3.7,12.4,3.7,12.5
				c0.1,0.5,0,1-0.3,1.4c-0.3,0.4-0.8,0.6-1.3,0.6c-0.4,0-2.5-0.3-6.5-3.6c-1.4-1.2-3-2.6-4.4-3.9c0.9,2.3,2,5.1,3.6,7.6
				c3.8,6.2,5.9,9.2,5.9,9.3c0.3,0.4,0.4,0.9,0.2,1.4c-0.2,0.5-0.5,0.9-1,1c-0.3,0.1-2.3,0.6-6.6-0.7c-1-0.3-2.1-0.7-3.1-1.2
				c0.6,0.6,1.2,1.3,1.9,1.9c4.1,3.9,9.7,8,9.8,8c0.5,0.3,0.7,0.9,0.6,1.5c-0.1,0.6-0.5,1.1-1,1.3c-0.1,0-2.5,0.9-6,0.9
				c-0.5,0-1.1,0-1.7-0.1c1.6,1.2,3.5,2.3,5.3,3c4.9,1.9,11.9,2.6,12,2.6c0.1,0,0.1,0,0.2,0c0.4,0.1,0.5,0,0.5,0
				c0.4-0.4,0.5-2.7,0.5-4.1c0.1-1.8,0.2-3.8,0.6-5.7C33.9,64.5,39.3,58.5,48.1,58.5z"/>
		</g>
		<g>
			<path class="st1" d="M68.5,52.7c-1.2-3.7-2.5-6.8-2.5-6.8l-33.4-0.4c0,0-1.8,5.3-3,9.1s-2.1,7.7-2.1,8.8
				c0.3,10.3,10.2,18.3,22.2,18c11.9-0.4,21.4-9,21.1-19.3C70.7,61.3,69.7,56.5,68.5,52.7z"/>
			<path class="st2" d="M48.9,83c-5.9,0-11.4-1.9-15.7-5.4c-4.6-3.7-7.1-8.7-7.3-14.2c0-1.5,1.1-6,2.1-9.4c1.2-3.8,3-9.1,3.1-9.2
				c0.2-0.7,0.8-1.1,1.5-1.1L66,44.3c0.6,0,1.2,0.4,1.4,1c0.1,0.1,1.4,3.2,2.6,7l0,0c1.2,3.6,2.3,8.7,2.3,9.9
				c0.2,5.4-2.1,10.6-6.5,14.6c-4.3,3.9-10,6.1-16.2,6.3C49.4,83,49.1,83,48.9,83z M33.7,47.1c-0.6,1.7-1.8,5.3-2.7,8
				c-1.3,4.2-2,7.6-2,8.3c0.1,4.5,2.3,8.7,6.1,11.8c3.9,3.2,9,4.8,14.4,4.6c5.4-0.2,10.4-2.1,14.1-5.5c3.6-3.3,5.5-7.6,5.4-12.1
				c0-0.7-0.9-5.2-2.1-9l0,0c-0.8-2.4-1.6-4.5-2.1-5.7L33.7,47.1z"/>
		</g>
		<g>
			<path class="st4" d="M53,69.2c0.1,2.6-2.2,4.8-4.2,4.9c-2,0.1-4.4-2-4.5-4.6s1.8-3.5,4.2-3.6S52.9,66.6,53,69.2z"/>
		</g>
		<g>
			<g>
				
					<ellipse transform="matrix(0.9996 -2.976068e-02 2.976068e-02 0.9996 -1.7167 1.2201)" class="st5" cx="40.1" cy="58.3" rx="6.2" ry="6.2"/>
			</g>
			<g>
				<ellipse transform="matrix(0.9996 -2.976068e-02 2.976068e-02 0.9996 -1.7279 1.2324)" cx="40.5" cy="58.7" rx="5.1" ry="5.1"/>
			</g>
			<g>
				
					<ellipse transform="matrix(0.9996 -2.976068e-02 2.976068e-02 0.9996 -1.6527 1.1571)" class="st5" cx="38" cy="56.1" rx="1.7" ry="1.7"/>
			</g>
		</g>
		<g>
			<g>
				
					<ellipse transform="matrix(0.9996 -2.976068e-02 2.976068e-02 0.9996 -1.7056 1.7325)" class="st5" cx="57.3" cy="58.2" rx="6.2" ry="6.2"/>
			</g>
			<g>
				<ellipse transform="matrix(0.9996 -2.976068e-02 2.976068e-02 0.9996 -1.7168 1.7448)" cx="57.8" cy="58.5" rx="5.1" ry="5.1"/>
			</g>
			<g>
				
					<ellipse transform="matrix(0.9996 -2.976068e-02 2.976068e-02 0.9996 -1.6416 1.6695)" class="st5" cx="55.3" cy="56" rx="1.7" ry="1.7"/>
			</g>
		</g>
		<g>
			<path class="st4" d="M45.9,77.9c0,0,0.1-0.5,0.5-1.2c0.2-0.3,0.4-0.7,0.8-1c0.2-0.2,0.4-0.4,0.6-0.5c0.2-0.1,0.6-0.3,1.1-0.3
				c0.1,0,0.3,0.1,0.5,0.1c0.1,0.1,0.3,0.1,0.4,0.2c0.2,0.2,0.4,0.3,0.6,0.5c0.3,0.3,0.6,0.7,0.8,1c0.4,0.6,0.5,1.1,0.5,1.1
				s-0.5-0.2-1.1-0.6c-0.3-0.2-0.6-0.4-1-0.6c-0.2-0.1-0.4-0.2-0.5-0.3c-0.1-0.1-0.2-0.1-0.2-0.1c0,0,0,0-0.2,0c0,0-0.1,0-0.3,0.1
				c-0.1,0.1-0.3,0.2-0.5,0.3c-0.3,0.2-0.7,0.5-1,0.6C46.3,77.7,45.9,77.9,45.9,77.9z"/>
		</g>
		<g>
			<path class="st6" d="M31.4,40.6c-3.6,4,0.5,9.7,17.6,7.9s25.5,4.1,25.5,4.1s-0.3-4-5.5-6.4c-5.2-2.4-8.5-3.1-8.5-3.1
				s4.4-0.1,7.6-0.1s4.4,0.4,4.4,0.4s0.5-3.5-8.1-4s-14.9,0.8-14.9,0.8s1.7-1.7,3.9-2.9c2.1-1.2,3.5-1.9,3.5-1.9
				S37.5,33.6,31.4,40.6z"/>
			<path class="st2" d="M74.5,54.2c-0.3,0-0.7-0.1-0.9-0.3c-0.1-0.1-8.2-5.6-24.4-3.8c-10.6,1.2-17.9-0.5-20-4.5c-1-1.9-0.6-4.2,1-6
				v0c6.6-7.5,25.9-5.8,26.7-5.7c0.7,0.1,1.3,0.6,1.4,1.3c0.1,0.7-0.2,1.4-0.9,1.7c0,0-0.7,0.4-1.9,1c2.5-0.2,5.5-0.2,8.9,0
				c4.4,0.3,7.3,1.3,8.7,3.1c1,1.3,0.9,2.5,0.9,2.8c-0.1,0.5-0.3,0.9-0.7,1.1C72.9,45,72.4,45,72,44.9l0,0c0,0-0.8-0.2-2.6-0.3
				c0.1,0,0.2,0.1,0.3,0.1c6,2.8,6.4,7.5,6.4,7.8c0,0.6-0.3,1.2-0.8,1.5C75,54.1,74.7,54.2,74.5,54.2z M55.4,46.5
				c6.6,0,11.6,1.2,14.9,2.4c-0.6-0.4-1.2-0.8-2-1.2c-4.9-2.3-8.2-2.9-8.2-3c-0.8-0.2-1.3-0.9-1.3-1.7c0.1-0.8,0.7-1.4,1.5-1.5
				c0,0,3.9-0.1,7-0.1c-0.9-0.2-1.9-0.3-3.2-0.4c-8.4-0.5-14.5,0.8-14.5,0.8c-0.7,0.2-1.4-0.2-1.7-0.8c-0.3-0.6-0.2-1.4,0.3-1.9
				c0.1-0.1,1.2-1.2,2.7-2.3c-6.4,0.1-15,1-18.4,4.9c-0.5,0.6-1.1,1.5-0.6,2.4c1,2,6.1,3.9,16.8,2.8C51.2,46.6,53.4,46.5,55.4,46.5z
				"/>
		</g>
	</g>
</g>
<g>
	<path class="st7" d="M4.5,62.7C3.6,58.9,3.1,55,3.1,51c0-26.7,21.6-48.3,48.3-48.3c3.7,0,7.3,0.4,10.7,1.2
		C72.7,6.3,44.9-1,22.4,22.2S7.2,73.4,4.5,62.7z"/>
	<path class="st8" d="M99.7,51c0,26.7-21.6,48.3-48.3,48.3c-14.7,0-27.8-6.6-36.7-16.9c-4.3-5,31.4,8.1,54.3-13.8s13-55.3,16.6-51.8
		C94.3,25.6,99.7,37.7,99.7,51z"/>
	<circle class="st9" cx="26.9" cy="33.8" r="9"/>
	<circle class="st9" cx="32.5" cy="21.4" r="3.4"/>
	
		<radialGradient id="SVGID_3_" cx="51.4" cy="-563" r="48.3" gradientTransform="matrix(1 0 0 -1 0 -512)" gradientUnits="userSpaceOnUse">
		<stop  offset="0.4322" style="stop-color:#FFFFFF;stop-opacity:0"/>
		<stop  offset="0.9846" style="stop-color:#FFFFFF;stop-opacity:0.2919"/>
		<stop  offset="1" style="stop-color:#FFFFFF;stop-opacity:0.3"/>
	</radialGradient>
	<circle class="st10" cx="51.4" cy="51" r="48.3"/>
</g>
</svg>
