<?xml version="1.0" encoding="utf-8"?>
<!-- Generator: Adobe Illustrator 20.1.0, SVG Export Plug-In . SVG Version: 6.00 Build 0)  -->
<svg version="1.1" id="Layer_1" xmlns="http://www.w3.org/2000/svg" xmlns:xlink="http://www.w3.org/1999/xlink" x="0px" y="0px"
	 viewBox="0 0 60 60" style="enable-background:new 0 0 60 60;" xml:space="preserve">
<style type="text/css">
	.st0{fill:none;stroke:#FFB84A;stroke-width:2;stroke-linecap:round;stroke-linejoin:round;stroke-miterlimit:10;}
	.st1{fill:#6D6E71;stroke:#58595B;stroke-width:2;stroke-linecap:round;stroke-linejoin:round;stroke-miterlimit:10;}
	.st2{fill:#808285;stroke:#58595B;stroke-width:2;stroke-linecap:round;stroke-linejoin:round;stroke-miterlimit:10;}
	.st3{fill:#E58138;}
	.st4{fill:none;stroke:#58595B;stroke-width:2;stroke-linecap:round;stroke-linejoin:round;stroke-miterlimit:10;}
	.st5{fill:#FFB84A;stroke:#58595B;stroke-width:2;stroke-linecap:round;stroke-linejoin:round;stroke-miterlimit:10;}
	.st6{fill:#FFFFFF;}
</style>
<polyline class="st0" points="27.2,47.1 22,54.7 12.2,56.4 "/>
<polyline class="st0" points="19.2,57.3 22,54.7 15.4,53 "/>
<polyline class="st0" points="33.2,47.5 34.6,56.4 42.2,57.2 "/>
<polyline class="st0" points="39.4,54.5 34.6,56.4 36.9,58.8 "/>
<path class="st1" d="M41.8,53.3c0,0,3.9,0.2,9.7-3.5s6.3-9.9,6.3-9.9L40.1,26.8l-4.4,7.9L41.8,53.3z"/>
<circle class="st2" cx="32.5" cy="31.6" r="19.9"/>
<path class="st3" d="M12.7,31.6c0,11,8.9,19.9,19.9,19.9c1.9,0,3.7-0.3,5.4-0.7c0,0-3.1-8.6-10.3-14S12.7,31.6,12.7,31.6z"/>
<circle class="st4" cx="32.5" cy="31.6" r="19.9"/>
<path class="st1" d="M52.4,31.6C52,20.2,43.5,11.7,32.5,11.7c-1.6,0-3.2,0.2-4.7,0.6c0,0,1.1,14.5,8.6,20.7
	c7.8,6.6,14.8,5.6,14.8,5.6S52.6,35.1,52.4,31.6z"/>
<circle class="st2" cx="19.9" cy="18.2" r="16.8"/>
<path class="st5" d="M7.6,21.6L7.1,35.4l10.6-7.1c0,0-2-2.5-4.4-4.2S7.6,21.6,7.6,21.6z"/>
<g>
	
		<ellipse transform="matrix(0.9996 -2.976068e-02 2.976068e-02 0.9996 -0.4512 0.3563)" class="st6" cx="11.7" cy="15.3" rx="4" ry="4"/>
	<ellipse transform="matrix(0.9996 -2.976068e-02 2.976068e-02 0.9996 -0.4584 0.3642)" cx="12" cy="15.6" rx="3.3" ry="3.3"/>
	
		<ellipse transform="matrix(0.9996 -2.976068e-02 2.976068e-02 0.9996 -0.4096 0.3154)" class="st6" cx="10.4" cy="13.9" rx="1.1" ry="1.1"/>
</g>
<g>
	
		<ellipse transform="matrix(0.9996 -2.976068e-02 2.976068e-02 0.9996 -0.5571 0.6643)" class="st6" cx="22" cy="19" rx="4" ry="4"/>
	<ellipse transform="matrix(0.9996 -2.976068e-02 2.976068e-02 0.9996 -0.5644 0.6723)" cx="22.3" cy="19.3" rx="3.3" ry="3.3"/>
	
		<ellipse transform="matrix(0.9996 -2.976068e-02 2.976068e-02 0.9996 -0.5156 0.6234)" class="st6" cx="20.7" cy="17.6" rx="1.1" ry="1.1"/>
</g>
</svg>
