<?xml version="1.0" encoding="utf-8"?>
<!-- Generator: Adobe Illustrator 20.1.0, SVG Export Plug-In . SVG Version: 6.00 Build 0)  -->
<svg version="1.1" id="Layer_1" xmlns="http://www.w3.org/2000/svg" xmlns:xlink="http://www.w3.org/1999/xlink" x="0px" y="0px"
	 viewBox="0 0 102 102" style="enable-background:new 0 0 102 102;" xml:space="preserve">
<style type="text/css">
	.st0{clip-path:url(#SVGID_2_);}
	.st1{fill:#FFB84A;}
	.st2{fill:#6D6E71;}
	.st3{fill:#58595B;}
	.st4{fill:#808285;}
	.st5{fill:#E58138;}
	.st6{fill:#FFFFFF;}
	.st7{opacity:0.1;fill:#FFFFFF;enable-background:new    ;}
	.st8{opacity:0.1;enable-background:new    ;}
	.st9{opacity:0.13;fill:#FFFFFF;enable-background:new    ;}
	.st10{fill:url(#SVGID_3_);stroke:#FFFFFF;stroke-width:3;stroke-miterlimit:10;}
	.st11{fill:url(#SVGID_4_);stroke:#FFFFFF;stroke-width:3;stroke-miterlimit:10;}
</style>
<g>
	<defs>
		<circle id="SVGID_1_" cx="51.4" cy="51" r="48.3"/>
	</defs>
	<clipPath id="SVGID_2_">
		<use xlink:href="#SVGID_1_"  style="overflow:visible;"/>
	</clipPath>
	<g class="st0">
		<g>
			<path class="st1" d="M25.4,97.2c-0.7,0-1.4-0.5-1.5-1.3c-0.2-0.8,0.4-1.6,1.2-1.8l14.5-2.6l7.8-11.2c0.5-0.7,1.4-0.9,2.2-0.4
				c0.7,0.5,0.9,1.5,0.4,2.2l-8.1,11.7c-0.2,0.3-0.6,0.6-1,0.6l-15.1,2.7C25.6,97.2,25.5,97.2,25.4,97.2z"/>
		</g>
		<g>
			<path class="st1" d="M36.3,98.5c-0.4,0-0.8-0.2-1.1-0.5c-0.6-0.6-0.6-1.6,0.1-2.2l2.2-2.1L30,91.8c-0.8-0.2-1.3-1.1-1.1-1.9
				s1.1-1.3,1.9-1.1l10.2,2.6c0.5,0.1,1,0.6,1.1,1.1c0.1,0.5,0,1.1-0.4,1.5l-4.3,4.1C37,98.4,36.7,98.5,36.3,98.5z"/>
		</g>
		<g>
			<path class="st1" d="M71.9,98.4c-0.1,0-0.1,0-0.2,0l-11.8-1.3c-0.7-0.1-1.3-0.6-1.4-1.3l-2.2-13.8c-0.1-0.8,0.4-1.6,1.3-1.8
				c0.8-0.1,1.6,0.4,1.8,1.3l2,12.7L72,95.4c0.8,0.1,1.5,0.9,1.4,1.7C73.3,97.9,72.6,98.4,71.9,98.4z"/>
		</g>
		<g>
			<path class="st1" d="M63.6,100.9c-0.4,0-0.8-0.2-1.1-0.5L59,96.7c-0.4-0.4-0.5-0.9-0.4-1.4c0.1-0.5,0.5-0.9,0.9-1.1l7.4-3
				c0.8-0.3,1.7,0.1,2,0.8s-0.1,1.7-0.8,2l-5.2,2.1l2,2c0.6,0.6,0.6,1.6,0,2.2C64.4,100.7,64,100.9,63.6,100.9z"/>
		</g>
		<g>
			<path class="st2" d="M71.2,90.7c0,0,6.1,0.3,15.1-5.5C95.3,79.4,96,70,96,70L68.5,49.7L61.7,62L71.2,90.7z"/>
			<path class="st3" d="M71.4,92.3c-0.1,0-0.2,0-0.3,0c-0.6,0-1.2-0.5-1.4-1.1l-9.5-28.7c-0.1-0.4-0.1-0.9,0.1-1.2L67.1,49
				c0.2-0.4,0.6-0.7,1-0.8c0.4-0.1,0.9,0,1.3,0.3l27.5,20.3c0.4,0.3,0.7,0.8,0.6,1.4c0,0.4-0.8,10.3-10.4,16.5
				C78.7,92,72.7,92.3,71.4,92.3z M63.4,62.2l8.9,27c2-0.2,6.8-1.1,13.1-5.2c6.8-4.4,8.5-11,8.9-13.3L69,52L63.4,62.2z"/>
		</g>
		<g>
			<circle class="st4" cx="56.9" cy="57.2" r="30.8"/>
			<path class="st3" d="M56.9,89.5C39,89.5,24.5,75,24.5,57.2S39,24.9,56.9,24.9s32.3,14.5,32.3,32.3S74.7,89.5,56.9,89.5z M56.9,28
				c-16.1,0-29.2,13.1-29.2,29.2s13.1,29.2,29.2,29.2s29.2-13.1,29.2-29.2S73,28,56.9,28z"/>
		</g>
		<g>
			<path class="st5" d="M26.1,57.2c0,17,13.8,30.8,30.8,30.8c2.9,0,5.7-0.4,8.4-1.2c0,0-4.8-13.4-16-21.7S26.1,57.2,26.1,57.2z"/>
		</g>
		<g>
			<path class="st3" d="M56.9,89.5C39,89.5,24.5,75,24.5,57.2S39,24.9,56.9,24.9s32.3,14.5,32.3,32.3S74.7,89.5,56.9,89.5z M56.9,28
				c-16.1,0-29.2,13.1-29.2,29.2s13.1,29.2,29.2,29.2s29.2-13.1,29.2-29.2S73,28,56.9,28z"/>
		</g>
		<g>
			<path class="st2" d="M87.6,57.2c-0.7-17.6-13.8-30.8-30.8-30.8c-2.5,0-4.9,0.3-7.3,0.9c0,0,1.8,22.4,13.3,32.1
				c12.1,10.2,22.8,8.7,22.8,8.7S87.8,62.6,87.6,57.2z"/>
			<path class="st3" d="M84.2,69.7c-3.7,0-12.6-1-22.3-9.1C50,50.6,48.1,28.3,48,27.4c-0.1-0.8,0.4-1.4,1.2-1.6
				c2.5-0.6,5.1-0.9,7.6-0.9c17.7,0,31.6,13.9,32.3,32.2l0,0c0.2,5.6-1.9,11.3-2,11.5c-0.2,0.5-0.7,0.9-1.2,1
				C85.8,69.6,85.2,69.7,84.2,69.7z M85.7,68.1L85.7,68.1L85.7,68.1z M51.3,28.5c0.6,4.9,3.3,21.9,12.6,29.7
				c9.4,7.9,18,8.4,20.7,8.4c0.6-1.7,1.6-5.6,1.5-9.4l0,0c-0.7-17-13-29.3-29.2-29.3C55,28,53.1,28.1,51.3,28.5z"/>
		</g>
		<g>
			<circle class="st4" cx="37.3" cy="36.5" r="25.9"/>
			<path class="st3" d="M37.3,64C22.1,64,9.8,51.7,9.8,36.5C9.8,21.4,22.1,9,37.3,9s27.5,12.3,27.5,27.5C64.8,51.7,52.4,64,37.3,64z
				 M37.3,12.1c-13.4,0-24.4,10.9-24.4,24.4c0,13.4,10.9,24.4,24.4,24.4S61.7,50,61.7,36.5C61.7,23.1,50.7,12.1,37.3,12.1z"/>
		</g>
		<g>
			<path class="st1" d="M18.3,41.8l-0.8,21.3l16.4-10.9c0,0-3.1-3.9-6.8-6.5C23.5,42.9,18.3,41.8,18.3,41.8z"/>
			<path class="st3" d="M17.5,64.6c-0.3,0-0.5-0.1-0.8-0.2c-0.5-0.3-0.8-0.8-0.8-1.4l0.8-21.3c0-0.5,0.2-0.9,0.6-1.2
				c0.4-0.3,0.8-0.4,1.3-0.3c0.2,0,5.6,1.2,9.4,4c3.8,2.7,6.9,6.6,7.1,6.8c0.3,0.3,0.4,0.8,0.3,1.2c-0.1,0.4-0.3,0.8-0.7,1.1
				L18.3,64.3C18.1,64.5,17.8,64.6,17.5,64.6z M19.7,43.8l-0.6,16.3l12.4-8.3c-1.2-1.3-3.2-3.4-5.4-5C24.2,45.3,21.5,44.3,19.7,43.8
				z"/>
		</g>
		<g>
			<g>
				
					<ellipse transform="matrix(0.9996 -2.976068e-02 2.976068e-02 0.9996 -0.9422 0.7478)" class="st6" cx="24.6" cy="32" rx="6.3" ry="6.3"/>
			</g>
			<g>
				<ellipse transform="matrix(0.9996 -2.976068e-02 2.976068e-02 0.9996 -0.9535 0.7601)" cx="25.1" cy="32.4" rx="5.1" ry="5.1"/>
			</g>
			<g>
				
					<ellipse transform="matrix(0.9996 -2.976068e-02 2.976068e-02 0.9996 -0.8779 0.6845)" class="st6" cx="22.6" cy="29.8" rx="1.7" ry="1.7"/>
			</g>
		</g>
		<g>
			<g>
				
					<ellipse transform="matrix(0.9996 -2.976068e-02 2.976068e-02 0.9996 -1.1062 1.2245)" class="st6" cx="40.6" cy="37.8" rx="6.3" ry="6.3"/>
			</g>
			<g>
				<ellipse transform="matrix(0.9996 -2.976068e-02 2.976068e-02 0.9996 -1.1175 1.2369)" cx="41" cy="38.2" rx="5.1" ry="5.1"/>
			</g>
			<g>
				
					<ellipse transform="matrix(0.9996 -2.976068e-02 2.976068e-02 0.9996 -1.042 1.1613)" class="st6" cx="38.5" cy="35.6" rx="1.7" ry="1.7"/>
			</g>
		</g>
	</g>
</g>
<g>
	<path class="st7" d="M4.5,62.7C3.6,58.9,3.1,55,3.1,51c0-26.7,21.6-48.3,48.3-48.3c3.7,0,7.3,0.4,10.7,1.2
		C72.7,6.3,44.9-1,22.4,22.2S7.2,73.4,4.5,62.7z"/>
	<path class="st8" d="M99.7,51c0,26.7-21.6,48.3-48.3,48.3c-14.7,0-27.8-6.6-36.7-16.9c-4.3-5,31.4,8.1,54.3-13.8s13-55.3,16.6-51.8
		C94.3,25.6,99.7,37.7,99.7,51z"/>
	<circle class="st9" cx="26.9" cy="33.8" r="9"/>
	<circle class="st9" cx="32.5" cy="21.4" r="3.4"/>
	
		<radialGradient id="SVGID_3_" cx="51.4" cy="-563" r="48.3" gradientTransform="matrix(1 0 0 -1 0 -512)" gradientUnits="userSpaceOnUse">
		<stop  offset="0.4322" style="stop-color:#FFFFFF;stop-opacity:0"/>
		<stop  offset="0.9846" style="stop-color:#FFFFFF;stop-opacity:0.2919"/>
		<stop  offset="1" style="stop-color:#FFFFFF;stop-opacity:0.3"/>
	</radialGradient>
	<circle class="st10" cx="51.4" cy="51" r="48.3"/>
	
		<radialGradient id="SVGID_4_" cx="51.4" cy="-563" r="48.3" gradientTransform="matrix(1 0 0 -1 0 -512)" gradientUnits="userSpaceOnUse">
		<stop  offset="0.4322" style="stop-color:#FFFFFF;stop-opacity:0"/>
		<stop  offset="0.9846" style="stop-color:#FFFFFF;stop-opacity:0.2919"/>
		<stop  offset="1" style="stop-color:#FFFFFF;stop-opacity:0.3"/>
	</radialGradient>
	<circle class="st11" cx="51.4" cy="51" r="48.3"/>
</g>
</svg>
