<?xml version="1.0" encoding="utf-8"?>
<!-- Generator: Adobe Illustrator 20.1.0, SVG Export Plug-In . SVG Version: 6.00 Build 0)  -->
<svg version="1.1" id="Layer_1" xmlns="http://www.w3.org/2000/svg" xmlns:xlink="http://www.w3.org/1999/xlink" x="0px" y="0px"
	 viewBox="0 0 102 102" style="enable-background:new 0 0 102 102;" xml:space="preserve">
<style type="text/css">
	.st0{clip-path:url(#SVGID_2_);}
	.st1{fill:#8E6A49;}
	.st2{fill:#58595B;}
	.st3{fill:#77573D;}
	.st4{fill:#A88162;}
	.st5{fill:#FFFFFF;}
	.st6{fill:#E8D6C4;}
	.st7{fill:#564131;}
	.st8{opacity:0.1;fill:#FFFFFF;enable-background:new    ;}
	.st9{opacity:0.1;enable-background:new    ;}
	.st10{opacity:0.13;fill:#FFFFFF;enable-background:new    ;}
	.st11{fill:url(#SVGID_3_);stroke:#FFFFFF;stroke-width:3;stroke-miterlimit:10;}
</style>
<g>
	<defs>
		<circle id="SVGID_1_" cx="51.4" cy="51" r="48.3"/>
	</defs>
	<clipPath id="SVGID_2_">
		<use xlink:href="#SVGID_1_"  style="overflow:visible;"/>
	</clipPath>
	<g class="st0">
		<g>
			<ellipse class="st1" cx="57.2" cy="43.2" rx="34.8" ry="25.7"/>
			<path class="st2" d="M57.2,70.5c-20.1,0-36.4-12.3-36.4-27.3c0-15.1,16.3-27.3,36.4-27.3s36.4,12.3,36.4,27.3
				C93.7,58.2,77.3,70.5,57.2,70.5z M57.2,19.1C38.9,19.1,24,29.9,24,43.2c0,13.3,14.9,24.1,33.2,24.1s33.2-10.8,33.2-24.1
				C90.5,29.9,75.6,19.1,57.2,19.1z"/>
		</g>
		<g>
			<path class="st3" d="M85.1,27.8c0,0,12.4,5.5,15.6,16.5c3.6,12.1,3.4,27.9-11.2,41.8S40.1,109,28.5,107.6
				c-11-1.3-16-23.8-8.2-32.6s26.1-1.6,43.7-7.8s25.6-18.7,26.1-25.7S85.1,27.8,85.1,27.8z"/>
			<path class="st2" d="M31,109.3c-1,0-1.9,0-2.7-0.1c-4.8-0.6-8.9-4.6-11.4-11C14,90.6,13.8,79.8,19.1,74
				c4.7-5.3,12.5-5.4,21.5-5.4c7.1-0.1,15.1-0.1,22.9-2.8c17.4-6.1,24.6-18.1,25-24.3c0.5-6.3-4.6-12.6-4.6-12.7l-4.2-5.2l6.1,2.7
				c0.5,0.2,13.1,5.9,16.5,17.6c3.4,11.5,4.2,28.4-11.6,43.4C76.7,100.5,44.8,109.3,31,109.3z M89.8,32.5c1.2,2.6,2.2,5.9,1.9,9.2
				c-0.5,7-8.3,20.5-27.2,27.1c-8.3,2.9-16.6,3-24,3c-8.2,0.1-15.3,0.1-19.1,4.3C17.7,80.4,17,89.4,19.9,97c2,5.3,5.2,8.6,8.7,9
				c11.1,1.3,45.7-7.7,59.8-21.1C103,71,102.3,55.4,99.2,44.8C97.5,39.2,93.3,35,89.8,32.5z"/>
		</g>
		<g>
			<g>
				<circle class="st1" cx="20" cy="33.2" r="8"/>
				<path class="st2" d="M20,42.8c-5.3,0-9.6-4.3-9.6-9.6s4.3-9.6,9.6-9.6s9.6,4.3,9.6,9.6S25.3,42.8,20,42.8z M20,26.9
					c-3.5,0-6.4,2.9-6.4,6.4c0,3.5,2.9,6.4,6.4,6.4s6.4-2.9,6.4-6.4C26.3,29.7,23.5,26.9,20,26.9z"/>
			</g>
			<g>
				<circle class="st1" cx="61.1" cy="33.2" r="8"/>
				<path class="st2" d="M61.1,42.8c-5.3,0-9.6-4.3-9.6-9.6s4.3-9.6,9.6-9.6s9.6,4.3,9.6,9.6S66.4,42.8,61.1,42.8z M61.1,26.9
					c-3.5,0-6.4,2.9-6.4,6.4c0,3.5,2.9,6.4,6.4,6.4s6.4-2.9,6.4-6.4C67.5,29.7,64.6,26.9,61.1,26.9z"/>
			</g>
			<g>
				<ellipse class="st1" cx="40.4" cy="48.5" rx="26.9" ry="23.4"/>
				<path class="st2" d="M40.4,73.5c-15.7,0-28.5-11.2-28.5-25c0-13.8,12.8-25,28.5-25S69,34.7,69,48.5C69,62.3,56.2,73.5,40.4,73.5
					z M40.4,26.7c-14,0-25.3,9.8-25.3,21.8s11.4,21.8,25.3,21.8s25.3-9.8,25.3-21.8S54.4,26.7,40.4,26.7z"/>
			</g>
			<g>
				<path class="st4" d="M53.1,69.2c-3.2,1.2-8.9,2.7-12.6,2.7c-4.1,0-8-0.8-11.5-2.3c0,0,2.9-15.2,11.7-15.2S53.1,69.2,53.1,69.2z"
					/>
			</g>
			<g>
				<g>
					<circle class="st5" cx="31.8" cy="42.3" r="7.1"/>
				</g>
				<g>
					<circle cx="32.2" cy="42.7" r="5.8"/>
				</g>
				<g>
					<circle class="st5" cx="29.5" cy="39.7" r="1.9"/>
				</g>
			</g>
			<g>
				<g>
					<circle class="st5" cx="50.5" cy="42.7" r="7.1"/>
				</g>
				<g>
					<circle cx="50.9" cy="43.2" r="5.8"/>
				</g>
				<g>
					<circle class="st5" cx="48.2" cy="40.2" r="1.9"/>
				</g>
			</g>
			<g>
				<path class="st6" d="M36.5,60.5l-0.9,5.7c0,0.3,0.1,0.5,0.4,0.5l4.1,0.3c0.2,0,0.4-0.2,0.5-0.4l0.4-5.7L36.5,60.5z"/>
			</g>
			<g>
				<path class="st6" d="M40.9,60.9l0.4,5.7c0,0.2,0.2,0.4,0.5,0.4l4.2-0.3c0.3,0,0.4-0.3,0.4-0.5l-1-5.6L40.9,60.9z"/>
			</g>
			<g>
				<path class="st2" d="M40.4,73.5c-15.7,0-28.5-11.2-28.5-25c0-13.8,12.8-25,28.5-25S69,34.7,69,48.5C69,62.3,56.2,73.5,40.4,73.5
					z M40.4,26.7c-14,0-25.3,9.8-25.3,21.8s11.4,21.8,25.3,21.8s25.3-9.8,25.3-21.8S54.4,26.7,40.4,26.7z"/>
			</g>
			<g>
				<path class="st1" d="M47.9,59.7c0,0-0.2,0.2-0.5,0.4c-0.4,0.2-0.9,0.5-1.6,0.7c-1.3,0.5-3.2,0.8-5.1,0.8c-0.9,0-1.9-0.1-2.8-0.2
					c-0.9-0.2-1.7-0.4-2.3-0.6c-0.7-0.2-1.2-0.5-1.5-0.7c-0.4-0.2-0.5-0.4-0.5-0.4s0.9,0.3,2.3,0.4c0.7,0.1,1.5,0.2,2.3,0.2
					c0.9,0,1.7,0.1,2.6,0.1c1.8,0,3.6-0.1,4.9-0.2C47,59.9,47.9,59.7,47.9,59.7z"/>
			</g>
			<g>
				<path class="st2" d="M43.9,57.8c0,1.8-1.7,3.2-3.2,3.2s-3.2-1.4-3.2-3.2s1.4-2,3.2-2S43.9,56.1,43.9,57.8z"/>
			</g>
		</g>
		<g>
			<path class="st7" d="M19.5,86.8c0,0,3.7-0.6,9.2-1.5c2.7-0.5,6-1,9.4-1.6c3.4-0.6,7.1-1.3,10.7-1.9c3.6-0.7,7.3-1.5,10.6-2.5
				c3.4-0.9,6.5-1.8,9.1-2.7c5.3-1.7,8.7-3.1,8.7-3.1s-3.3,1.8-8.5,3.8c-2.6,1-5.7,2.1-9,3.1c-3.4,1-7,1.9-10.6,2.6
				c-1.8,0.4-3.7,0.7-5.5,1c-1.8,0.3-3.6,0.6-5.3,0.8c-1.7,0.2-3.4,0.5-5,0.7c-1.6,0.2-3.1,0.3-4.5,0.5c-2.8,0.3-5.1,0.4-6.7,0.6
				C20.5,86.8,19.5,86.8,19.5,86.8z"/>
		</g>
		<g>
			<path class="st7" d="M73.2,85.2c0,0-0.6,0.3-1.7,0.7c-1.1,0.4-2.7,1.1-4.7,1.7c-2,0.7-4.3,1.4-6.7,2c-2.5,0.7-5.2,1.3-7.9,1.8
				c-5.4,1-10.9,1.7-15,1.9c-2.1,0.2-3.8,0.2-5,0.2c-1.2,0-1.9,0-1.9,0s2.7-0.5,6.7-1.2c4-0.7,9.4-1.6,14.8-2.7
				c2.7-0.5,5.3-1.1,7.8-1.6c2.5-0.6,4.8-1.1,6.8-1.5C70.6,85.8,73.2,85.2,73.2,85.2z"/>
		</g>
		<g>
			<path class="st7" d="M42.6,76.8c0,0,0.7,1.3,1.7,3.4c1,2,2.3,4.7,3.7,7.3c0.7,1.3,1.5,2.6,2.2,3.8c0.7,1.2,1.4,2.3,2.1,3.2
				c1.2,1.9,2.1,3.1,2.1,3.1s-1.1-1-2.6-2.7c-1.5-1.7-3.3-4.2-4.8-6.8c-1.5-2.7-2.6-5.5-3.3-7.6C42.9,78.3,42.6,76.8,42.6,76.8z"/>
		</g>
		<g>
			<path class="st7" d="M56.1,74.5c0,0,0.5,1.2,1.1,3.1c0.6,1.8,1.4,4.3,2.3,6.7c0.9,2.4,1.9,4.8,2.6,6.6c0.7,1.8,1.2,3.1,1.2,3.1
				s-0.8-1-1.9-2.7c-1-1.7-2.2-4-3.1-6.5c-0.9-2.5-1.5-5.1-1.8-7C56.2,75.8,56.1,74.5,56.1,74.5z"/>
		</g>
		<g>
			<path class="st7" d="M32.5,80.4c0,0,0.7,1.1,1.7,2.8c1,1.7,2.2,4,3.6,6.2c1.3,2.2,2.8,4.4,3.8,6c1,1.7,1.7,2.8,1.7,2.8
				s-1-0.9-2.3-2.3c-1.3-1.5-3-3.5-4.3-5.8c-1.4-2.3-2.4-4.7-3.1-6.5C32.9,81.7,32.5,80.4,32.5,80.4z"/>
		</g>
	</g>
</g>
<g>
	<path class="st8" d="M4.5,62.7C3.6,58.9,3.1,55,3.1,51c0-26.7,21.6-48.3,48.3-48.3c3.7,0,7.3,0.4,10.7,1.2
		C72.7,6.3,44.9-1,22.4,22.2S7.2,73.4,4.5,62.7z"/>
	<path class="st9" d="M99.7,51c0,26.7-21.6,48.3-48.3,48.3c-14.7,0-27.8-6.6-36.7-16.9c-4.3-5,31.4,8.1,54.3-13.8s13-55.3,16.6-51.8
		C94.3,25.6,99.7,37.7,99.7,51z"/>
	<circle class="st10" cx="26.9" cy="33.8" r="9"/>
	<circle class="st10" cx="32.5" cy="21.4" r="3.4"/>
	
		<radialGradient id="SVGID_3_" cx="51.4" cy="-563" r="48.3" gradientTransform="matrix(1 0 0 -1 0 -512)" gradientUnits="userSpaceOnUse">
		<stop  offset="0.4322" style="stop-color:#FFFFFF;stop-opacity:0"/>
		<stop  offset="0.9846" style="stop-color:#FFFFFF;stop-opacity:0.2919"/>
		<stop  offset="1" style="stop-color:#FFFFFF;stop-opacity:0.3"/>
	</radialGradient>
	<circle class="st11" cx="51.4" cy="51" r="48.3"/>
</g>
</svg>
