<?xml version="1.0" encoding="utf-8"?>
<!-- Generator: Adobe Illustrator 20.1.0, SVG Export Plug-In . SVG Version: 6.00 Build 0)  -->
<svg version="1.1" id="Layer_1" xmlns="http://www.w3.org/2000/svg" xmlns:xlink="http://www.w3.org/1999/xlink" x="0px" y="0px"
	 viewBox="0 0 102 102" style="enable-background:new 0 0 102 102;" xml:space="preserve">
<style type="text/css">
	.st0{clip-path:url(#SVGID_2_);}
	.st1{fill:#8B5E3C;}
	.st2{fill:#58595B;}
	.st3{fill:#EADFCC;}
	.st4{fill:#FFFFFF;}
	.st5{fill:#9B9387;}
	.st6{opacity:0.1;fill:#FFFFFF;enable-background:new    ;}
	.st7{opacity:0.1;enable-background:new    ;}
	.st8{opacity:0.13;fill:#FFFFFF;enable-background:new    ;}
	.st9{fill:url(#SVGID_3_);stroke:#FFFFFF;stroke-width:3;stroke-miterlimit:10;}
</style>
<g>
	<defs>
		<circle id="SVGID_1_" cx="51.4" cy="51" r="48.3"/>
	</defs>
	<clipPath id="SVGID_2_">
		<use xlink:href="#SVGID_1_"  style="overflow:visible;"/>
	</clipPath>
	<g class="st0">
		<g>
			<path class="st1" d="M68.3,77.1c5.8-1.3-0.5-31.8,8.8-50.1S103.6,2.3,99.6-3.4S78.8-8,63.5,5.8s-19,34-12.9,48.5
				S62.7,78.4,68.3,77.1z"/>
			<path class="st2" d="M67.3,78.9c-5.7,0-11.5-7.7-18.3-24c-6.8-16.5-1.3-37.3,13.4-50.5C74.2-6.2,86.5-9,93.4-8.3
				c3.6,0.4,6.2,1.7,7.7,3.9c2.8,4.1-1.2,7.8-6.4,12.6c-4.8,4.5-11.5,10.6-16,19.6c-5,9.8-5.3,23.7-5.6,33.9
				c-0.3,10.1-0.4,16.3-4.3,17.2l0,0C68.2,78.9,67.8,78.9,67.3,78.9z M91-4.9c-6.4,0-16.4,3.1-26.3,12
				C51.1,19.3,45.9,38.5,52.2,53.7c8.3,20.1,13.4,22.3,15.7,21.7c1.3-0.7,1.5-8.3,1.6-13.9c0.3-10.5,0.7-24.8,6-35.3
				c4.8-9.5,11.7-15.9,16.7-20.5c4.5-4.1,7-6.5,5.9-8.1c-0.9-1.2-2.7-2.1-5.2-2.4C92.4-4.9,91.7-4.9,91-4.9z"/>
		</g>
		<g>
			<path class="st3" d="M58.1,72.7c0,0-15.6-23.9,0-52S95.4-5.8,95.4-5.8S74.5-5.3,61.4,22.9C48.2,51.1,58.1,72.7,58.1,72.7z"/>
		</g>
		<g>
			<path class="st3" d="M98.7-3.3c0,0-20.4,6.4-30.1,29.4s-4.2,46.1-4.2,46.1s-1-23.9,6.9-44S98.7-3.3,98.7-3.3z"/>
		</g>
		<g>
			<path class="st2" d="M67.3,78.9c-5.7,0-11.5-7.7-18.3-24c-6.8-16.5-1.3-37.3,13.4-50.5C74.2-6.2,86.5-9,93.4-8.3
				c3.6,0.4,6.2,1.7,7.7,3.9c2.8,4.1-1.2,7.8-6.4,12.6c-4.8,4.5-11.5,10.6-16,19.6c-5,9.8-5.3,23.7-5.6,33.9
				c-0.3,10.1-0.4,16.3-4.3,17.2l0,0C68.2,78.9,67.8,78.9,67.3,78.9z M91-4.9c-6.4,0-16.4,3.1-26.3,12
				C51.1,19.3,45.9,38.5,52.2,53.7c8.3,20.1,13.4,22.3,15.7,21.7c1.3-0.7,1.5-8.3,1.6-13.9c0.3-10.5,0.7-24.8,6-35.3
				c4.8-9.5,11.7-15.9,16.7-20.5c4.5-4.1,7-6.5,5.9-8.1c-0.9-1.2-2.7-2.1-5.2-2.4C92.4-4.9,91.7-4.9,91-4.9z"/>
		</g>
		<g>
			<ellipse class="st1" cx="49.1" cy="64.2" rx="29.2" ry="21.1"/>
			<path class="st2" d="M49.1,87c-17.1,0-30.9-10.2-30.9-22.8s13.9-22.8,30.9-22.8s30.9,10.2,30.9,22.8S66.2,87,49.1,87z M49.1,44.8
				c-15.1,0-27.5,8.7-27.5,19.3S34,83.5,49.1,83.5s27.5-8.7,27.5-19.3S64.3,44.8,49.1,44.8z"/>
		</g>
		<g>
			<path class="st1" d="M39.7,82.6c-5.5,0-7.2,5.2-7.7,7.3c-0.1,0.4,0.3,0.8,0.7,0.7l4-0.8l2.1,2.2c0.2,0.2,0.6,0.3,0.8,0.1l2.4-1.8
				l2.8,1.5c0.4,0.2,0.9-0.1,0.9-0.5C45.8,88.8,45.3,82.6,39.7,82.6z"/>
			<path class="st2" d="M39.2,94c-0.6,0-1.3-0.3-1.7-0.8l-1.4-1.5l-3,0.6c-0.8,0.2-1.6-0.1-2.1-0.6c-0.6-0.6-0.8-1.4-0.6-2.1
				c1.2-5.4,4.7-8.7,9.3-8.7c2.1,0,3.8,0.7,5.1,2c2.4,2.4,2.7,6.3,2.7,8.4c0,0.8-0.4,1.5-1.1,2c-0.7,0.4-1.5,0.4-2.3,0.1l-1.9-1
				l-1.6,1.2C40.2,93.8,39.7,94,39.2,94z M37.3,87.9l2,2.2l2.5-1.9l2.1,1.1c-0.2-1.4-0.6-3-1.6-4.1c-0.7-0.7-1.5-1-2.6-1
				c-3.1,0-4.7,2.2-5.5,4.2L37.3,87.9z M32.4,88.9C32.4,88.9,32.4,88.9,32.4,88.9L32.4,88.9z"/>
		</g>
		<g>
			<path class="st1" d="M54.5,82.6c-5.7,0.8-6.1,6.5-6.1,8.4c0,0.3,0.3,0.5,0.6,0.4l3.5-1.2l2.5,2c0.2,0.1,0.4,0.1,0.6,0l2.3-2.2
				l3.3,0.9c0.3,0.1,0.6-0.2,0.6-0.5C61.5,88.3,60.3,81.8,54.5,82.6z"/>
			<path class="st2" d="M55.3,94c-0.5,0-1-0.2-1.4-0.5l-1.7-1.4L49.6,93c-0.7,0.2-1.4,0.1-2-0.3c-0.6-0.4-0.9-1-0.9-1.7
				c-0.1-4.4,1.9-9.4,7.6-10.1h0c2.1-0.3,3.9,0.2,5.4,1.3c2.7,2.1,3.5,5.9,3.7,8c0.1,0.7-0.2,1.4-0.7,1.9c-0.5,0.5-1.3,0.6-2,0.4
				l-2.3-0.6l-1.6,1.5C56.4,93.8,55.8,94,55.3,94z M52.9,88.2l2.3,1.9l2.1-2.1l2.3,0.6c-0.3-1.3-0.9-2.8-2-3.7
				c-0.8-0.6-1.7-0.8-2.8-0.6c-3.1,0.4-4.2,2.7-4.5,4.8L52.9,88.2z M48.4,89.8C48.4,89.8,48.4,89.8,48.4,89.8L48.4,89.8z"/>
		</g>
		<g>
			<path class="st1" d="M71.5,59.3c-5.6,4.7,0,20.4-0.8,21.4c-0.8,1-5.1,3.2-6.2,5.1c-0.8,1.5-0.5,4.1-0.3,5.3
				c0.1,0.3,0.4,0.5,0.7,0.3l2.9-1.8c0,0,0.8,2.3,0.9,2.6c0.1,0.3,0.4,0.1,0.5,0.1s2.6-2.5,2.6-2.5l3,1.8c0.3,0.2,0.7,0,0.7-0.4
				c0-1.3,0-4,0.4-4.8c0.6-1.1,5.2-8.5,5.3-15.3S77,54.6,71.5,59.3z"/>
			<path class="st2" d="M68.9,94c-0.1,0-0.3,0-0.4,0c-0.6-0.1-1.2-0.6-1.4-1.2c0-0.1-0.1-0.3-0.2-0.6l-1,0.7
				c-0.6,0.4-1.4,0.4-2.1,0.1c-0.7-0.3-1.1-0.9-1.2-1.6C62.2,89.5,62,86.8,63,85c0.9-1.6,2.9-2.9,4.7-4.1c0.4-0.3,1-0.7,1.4-1
				c-0.1-0.6-0.3-1.7-0.5-2.6C67.4,71.6,65.6,62,70.4,58c2.7-2.3,5.1-1.7,6.3-1.1c4,1.9,6.3,8.8,6.2,14.2
				c-0.1,6.5-3.9,13.3-5.2,15.5c-0.1,0.3-0.3,0.5-0.3,0.6c-0.1,0.2-0.3,1.4-0.2,4c0,0.8-0.4,1.5-1.1,1.9c-0.7,0.4-1.5,0.4-2.2,0
				L72,91.9c-0.7,0.7-1.6,1.5-1.7,1.6C70,93.8,69.5,94,68.9,94z M65.9,90.8C65.9,90.8,65.9,90.8,65.9,90.8
				C65.9,90.8,65.9,90.8,65.9,90.8z M68.7,87l0.7,2c0,0,0.1,0.2,0.2,0.4c0.6-0.5,1.1-1,1.1-1l1-0.9l2.2,1.3c0.1-2.4,0.4-3,0.6-3.3
				c0.1-0.1,0.2-0.4,0.4-0.7c1.1-2,4.6-8.3,4.8-13.9c0.1-4.6-2-9.9-4.2-11c-0.3-0.2-1.2-0.5-2.6,0.7l0,0c-3.2,2.7-1.5,11.7-0.7,16
				c0.6,3.2,0.8,4.3,0.1,5.2c-0.5,0.6-1.2,1.1-2.5,2c-1.2,0.8-3.1,2.1-3.6,2.9c-0.2,0.4-0.3,1.2-0.3,2.1L68.7,87z"/>
		</g>
		<g>
			<path class="st1" d="M19.5,39.3c0,0-5.8-9.1-5.8-14.5s3.9-4.4,6.6-3.5s10.5,5.9,10.5,5.9"/>
			<path class="st2" d="M18,40.3c-0.2-0.4-6.1-9.6-6.1-15.4c0-2.4,0.7-4.1,2.1-5.1c2-1.4,4.6-0.8,6.9,0c2.9,1,10,5.5,10.8,6
				l-1.9,2.9c-2.1-1.3-8-4.9-10.1-5.7c-1.9-0.7-3.2-0.8-3.7-0.5c-0.4,0.3-0.6,1.1-0.6,2.3c0,4,4,11.2,5.6,13.6L18,40.3z"/>
		</g>
		<g>
			<path class="st1" d="M54.8,39.3c0,0,5.8-9.1,5.8-14.5s-3.9-4.4-6.6-3.5s-10.5,5.9-10.5,5.9"/>
			<path class="st2" d="M56.3,40.3l-2.9-1.9c1.5-2.4,5.6-9.6,5.6-13.6c0-1.2-0.2-2-0.6-2.3c-0.5-0.4-1.8-0.2-3.7,0.5
				c-2.1,0.7-8,4.4-10.1,5.7l-1.9-2.9c0.8-0.5,8-5,10.8-6c2.3-0.8,4.9-1.4,6.9,0c1.4,1,2.1,2.7,2.1,5.1
				C62.4,30.6,56.5,39.9,56.3,40.3z"/>
		</g>
		<g>
			<path class="st1" d="M37.2,26.1c16.7,0,23.1,15.9,25.8,28.8c2.7,12.9-2.2,28.8-25.8,28.8S8.3,66.5,11.4,54.8S20.5,26.1,37.2,26.1
				z"/>
			<path class="st2" d="M37.2,85.4c-13.3,0-20.1-5.3-23.6-9.7c-4.4-5.8-5.9-13.7-3.9-21.2c2.2-8.2,8-30.1,27.5-30.1
				c14,0,23.3,10.1,27.5,30.2c1.8,8.4,0.2,16.3-4.3,21.9C55.6,82.3,47.8,85.4,37.2,85.4z M37.2,27.8c-14.9,0-20.7,14.7-24.1,27.5
				c-1.3,5-1.2,12.4,3.3,18.2c4.2,5.5,11.4,8.4,20.8,8.4c9.5,0,16.4-2.6,20.5-7.7c3.8-4.7,5.1-11.6,3.6-19
				C57.5,37,49.4,27.8,37.2,27.8z"/>
		</g>
		<g>
			<g>
				<circle class="st4" cx="29.2" cy="43.3" r="5.1"/>
			</g>
			<g>
				<circle cx="29.5" cy="43.6" r="4.2"/>
			</g>
			<g>
				<circle class="st4" cx="27.6" cy="41.4" r="1.4"/>
			</g>
		</g>
		<g>
			<g>
				<circle class="st4" cx="45" cy="43.6" r="5.1"/>
			</g>
			<g>
				<circle cx="45.3" cy="43.9" r="4.2"/>
			</g>
			<g>
				<circle class="st4" cx="43.3" cy="41.8" r="1.4"/>
			</g>
		</g>
		<g>
			<path class="st3" d="M13.1,49.1L32.9,57l8.3-0.2l20.2-8.1c0,0,12.6,34.9-24.2,34.9S13.1,49.1,13.1,49.1z"/>
		</g>
		<g>
			<path class="st5" d="M37.1,62.2c2.7,0,4.1-4.8,4.1-5.5c0-0.6-1.4-1.9-4.1-1.9s-4.2,1.5-4.2,2.1C32.9,57.6,34.4,62.2,37.1,62.2z"
				/>
		</g>
		<g>
			<path class="st4" d="M41.7,69.5l-4.6,0.3l-5-0.2l-0.6,5.4c0,0.3,0.2,0.5,0.4,0.5l4.4,0.2c0.3,0,0.4-0.2,0.5-0.4l0.1-0.5l0.1,0.3
				c0.1,0.4,0.4,0.7,0.7,0.6l4-0.3c0.4,0,0.7-0.4,0.6-0.7L41.7,69.5z"/>
		</g>
		<g>
			<path class="st5" d="M37.6,69c-4.9,0-13.1-0.2-13.1-0.2s6.9,1.5,13.1,1.5S50,68.7,50,68.7S42.5,69,37.6,69z"/>
		</g>
		<g>
			<path class="st3" d="M31.1,26.1c0,0,0.9,1.5,1.5,3.7c0.6,2.1,1.2,5.6,1.2,5.6s1.1-2.6,1.5-5.4c0.4-2.8,0.4-4.9,0.4-4.9L31.1,26.1
				z"/>
		</g>
		<g>
			<path class="st3" d="M43,26.3c0,0-0.9,1.5-1.5,3.7c-0.6,2.1-1.2,5.6-1.2,5.6s-1.1-2.6-1.5-5.4c-0.4-2.8-0.4-4.9-0.4-4.9L43,26.3z
				"/>
		</g>
		<g>
			<path class="st2" d="M37.2,85.4c-13.3,0-20.1-5.3-23.6-9.7c-4.4-5.8-5.9-13.7-3.9-21.2c2.2-8.2,8-30.1,27.5-30.1
				c14,0,23.3,10.1,27.5,30.2c1.8,8.4,0.2,16.3-4.3,21.9C55.6,82.3,47.8,85.4,37.2,85.4z M37.2,27.8c-14.9,0-20.7,14.7-24.1,27.5
				c-1.3,5-1.2,12.4,3.3,18.2c4.2,5.5,11.4,8.4,20.8,8.4c9.5,0,16.4-2.6,20.5-7.7c3.8-4.7,5.1-11.6,3.6-19
				C57.5,37,49.4,27.8,37.2,27.8z"/>
		</g>
		<g>
			<path class="st2" d="M42.7,58.5c0,0,1.4-0.7,3.7-1.5c2.2-0.8,5.3-1.8,8.4-2.5c3.1-0.7,6.3-1.2,8.7-1.4c2.4-0.2,4-0.2,4-0.2
				S61.2,54,55,55.4c-3.1,0.7-6.2,1.5-8.5,2.1C44.2,58.1,42.7,58.5,42.7,58.5z"/>
		</g>
		<g>
			<path class="st2" d="M43.2,60.1c0,0,1.5-0.4,3.9-0.8c2.4-0.4,5.5-0.8,8.7-0.8c3.2-0.1,6.4,0.1,8.8,0.3c2.4,0.2,3.9,0.6,3.9,0.6
				s-6.4-0.2-12.7,0c-3.2,0.1-6.3,0.2-8.7,0.4C44.8,59.9,43.2,60.1,43.2,60.1z"/>
		</g>
		<g>
			<path class="st2" d="M31.2,58.8c0,0-1.5-0.4-3.9-1c-2.3-0.6-5.4-1.3-8.5-1.9c-6.2-1.2-12.5-2.2-12.5-2.2s1.6-0.1,4,0.1
				c2.4,0.2,5.6,0.5,8.7,1.2c3.1,0.6,6.2,1.5,8.5,2.3C29.8,58.1,31.2,58.8,31.2,58.8z"/>
		</g>
		<g>
			<path class="st2" d="M30.8,60.3c0,0-1.6-0.1-4-0.2c-2.4-0.1-5.5-0.2-8.7-0.2c-6.3,0-12.7,0.3-12.7,0.3s1.6-0.4,3.9-0.7
				c2.4-0.3,5.6-0.5,8.8-0.5c3.2,0,6.4,0.3,8.7,0.6C29.2,60,30.8,60.3,30.8,60.3z"/>
		</g>
	</g>
</g>
<g>
	<path class="st6" d="M4.5,62.7C3.6,58.9,3.1,55,3.1,51c0-26.7,21.6-48.3,48.3-48.3c3.7,0,7.3,0.4,10.7,1.2
		C72.7,6.3,44.9-1,22.4,22.2S7.2,73.4,4.5,62.7z"/>
	<path class="st7" d="M99.7,51c0,26.7-21.6,48.3-48.3,48.3c-14.7,0-27.8-6.6-36.7-16.9c-4.3-5,31.4,8.1,54.3-13.8s13-55.3,16.6-51.8
		C94.3,25.6,99.7,37.7,99.7,51z"/>
	<circle class="st8" cx="26.9" cy="33.8" r="9"/>
	<circle class="st8" cx="32.5" cy="21.4" r="3.4"/>
	
		<radialGradient id="SVGID_3_" cx="51.4" cy="667" r="48.3" gradientTransform="matrix(1 0 0 1 0 -616)" gradientUnits="userSpaceOnUse">
		<stop  offset="0.4322" style="stop-color:#FFFFFF;stop-opacity:0"/>
		<stop  offset="0.9846" style="stop-color:#FFFFFF;stop-opacity:0.2919"/>
		<stop  offset="1" style="stop-color:#FFFFFF;stop-opacity:0.3"/>
	</radialGradient>
	<circle class="st9" cx="51.4" cy="51" r="48.3"/>
</g>
</svg>
