<?xml version="1.0" encoding="utf-8"?>
<!-- Generator: Adobe Illustrator 20.1.0, SVG Export Plug-In . SVG Version: 6.00 Build 0)  -->
<svg version="1.1" id="Layer_1" xmlns="http://www.w3.org/2000/svg" xmlns:xlink="http://www.w3.org/1999/xlink" x="0px" y="0px"
	 viewBox="0 0 60 60" style="enable-background:new 0 0 60 60;" xml:space="preserve">
<style type="text/css">
	.st0{fill:#8B5E3C;stroke:#58595B;stroke-width:2;stroke-miterlimit:10;}
	.st1{fill:#EADFCC;}
	.st2{fill:none;stroke:#58595B;stroke-width:2;stroke-miterlimit:10;}
	.st3{fill:#FFFFFF;}
	.st4{fill:#9B9387;}
	.st5{fill:#58595B;}
</style>
<path class="st0" d="M40.4,50.1c3.3-0.8-0.3-18.4,5.1-29s15.3-14.2,13-17.6S46.4,1,37.6,8.9s-11,19.6-7.5,28.1S37.1,50.9,40.4,50.1z
	"/>
<path class="st1" d="M34.4,47.6c0,0-9-13.8,0-30S56,2.3,56,2.3S43.9,2.6,36.3,18.8C28.7,35.1,34.4,47.6,34.4,47.6z"/>
<path class="st1" d="M57.9,3.7c0,0-11.8,3.7-17.4,17s-2.4,26.6-2.4,26.6s-0.6-13.8,4-25.4S57.9,3.7,57.9,3.7z"/>
<path class="st2" d="M40.4,50.1c3.3-0.8-0.3-18.4,5.1-29s15.3-14.2,13-17.6S46.4,1,37.6,8.9s-11,19.6-7.5,28.1S37.1,50.9,40.4,50.1z
	"/>
<ellipse class="st0" cx="29.2" cy="42.7" rx="16.9" ry="12.2"/>
<path class="st0" d="M23.8,53.3c-3.2,0-4.2,3-4.4,4.2c-0.1,0.2,0.2,0.5,0.4,0.4l2.3-0.5l1.2,1.3c0.1,0.1,0.3,0.2,0.5,0l1.4-1.1
	l1.6,0.8c0.2,0.1,0.5,0,0.5-0.3C27.3,56.9,27.1,53.3,23.8,53.3z"/>
<path class="st0" d="M32.4,53.3c-3.3,0.5-3.5,3.8-3.5,4.9c0,0.2,0.2,0.3,0.3,0.2l2-0.7l1.4,1.2c0.1,0.1,0.2,0.1,0.3,0l1.3-1.3
	l1.9,0.5c0.2,0,0.3-0.1,0.3-0.3C36.4,56.6,35.7,52.9,32.4,53.3z"/>
<path class="st0" d="M42.2,39.9c-3.2,2.7,0,11.8-0.5,12.4c-0.5,0.6-3,1.8-3.6,3c-0.5,0.8-0.3,2.3-0.2,3c0,0.2,0.2,0.3,0.4,0.2l1.7-1
	c0,0,0.5,1.3,0.5,1.5c0.1,0.2,0.2,0.1,0.3,0c0.1-0.1,1.5-1.4,1.5-1.4l1.7,1c0.2,0.1,0.4,0,0.4-0.2c0-0.8,0-2.3,0.2-2.8
	c0.3-0.7,3-4.9,3.1-8.9S45.4,37.2,42.2,39.9z"/>
<path class="st0" d="M12.1,28.3c0,0-3.4-5.3-3.4-8.4s2.2-2.6,3.8-2s6,3.4,6,3.4"/>
<path class="st0" d="M32.5,28.3c0,0,3.4-5.3,3.4-8.4s-2.2-2.6-3.8-2c-1.6,0.6-6,3.4-6,3.4"/>
<path class="st0" d="M22.4,20.7c9.6,0,13.3,9.2,14.9,16.6S36,53.9,22.4,53.9S5.7,44,7.5,37.3S12.7,20.7,22.4,20.7z"/>
<g>
	<circle class="st3" cx="17.7" cy="30.6" r="3"/>
	<circle cx="17.9" cy="30.8" r="2.4"/>
	<circle class="st3" cx="16.8" cy="29.5" r="0.8"/>
</g>
<g>
	<circle class="st3" cx="26.9" cy="30.8" r="3"/>
	<circle cx="27" cy="31" r="2.4"/>
	<circle class="st3" cx="25.9" cy="29.7" r="0.8"/>
</g>
<path class="st1" d="M8.4,34l11.5,4.5l4.8-0.1l11.7-4.7c0,0,7.3,20.2-14,20.2S8.4,34,8.4,34z"/>
<path class="st4" d="M22.3,41.6c1.6,0,2.4-2.8,2.4-3.2s-0.8-1.1-2.4-1.1s-2.4,0.8-2.4,1.2S20.8,41.6,22.3,41.6z"/>
<path class="st3" d="M24.9,45.8l-2.6,0.2l-2.9-0.1l-0.3,3.1c0,0.1,0.1,0.3,0.3,0.3l2.6,0.1c0.1,0,0.3-0.1,0.3-0.3l0-0.3l0,0.2
	c0,0.2,0.2,0.4,0.4,0.4l2.3-0.2c0.2,0,0.4-0.2,0.4-0.4L24.9,45.8z"/>
<path class="st4" d="M22.6,45.5c-2.8,0-7.6-0.1-7.6-0.1s4,0.9,7.6,0.9s7.2-0.9,7.2-0.9S25.4,45.5,22.6,45.5z"/>
<path class="st1" d="M18.8,20.7c0,0,0.5,0.9,0.9,2.1c0.4,1.2,0.7,3.2,0.7,3.2s0.6-1.5,0.9-3.1s0.2-2.8,0.2-2.8L18.8,20.7z"/>
<path class="st1" d="M25.7,20.8c0,0-0.5,0.9-0.9,2.1c-0.4,1.2-0.7,3.2-0.7,3.2s-0.6-1.5-0.9-3.1S23,20.2,23,20.2L25.7,20.8z"/>
<path class="st2" d="M22.4,20.7c9.6,0,13.3,9.2,14.9,16.6S36,53.9,22.4,53.9S5.7,44,7.5,37.3S12.7,20.7,22.4,20.7z"/>
<g>
	<path class="st5" d="M25.5,39.4c0,0,0.8-0.4,2.1-0.9c1.3-0.5,3.1-1,4.9-1.4c1.8-0.4,3.6-0.7,5-0.8c1.4-0.1,2.3-0.1,2.3-0.1
		s-3.6,0.6-7.2,1.4c-1.8,0.4-3.6,0.8-4.9,1.2C26.4,39.2,25.5,39.4,25.5,39.4z"/>
</g>
<g>
	<path class="st5" d="M25.8,40.3c0,0,0.9-0.2,2.3-0.5c1.4-0.2,3.2-0.4,5-0.5c1.8-0.1,3.7,0,5.1,0.2c1.4,0.1,2.3,0.3,2.3,0.3
		s-3.7-0.1-7.3,0c-1.8,0.1-3.7,0.1-5,0.2C26.8,40.2,25.8,40.3,25.8,40.3z"/>
</g>
<g>
	<path class="st5" d="M18.9,39.6c0,0-0.9-0.2-2.2-0.6c-1.3-0.3-3.1-0.7-4.9-1.1c-3.6-0.7-7.2-1.3-7.2-1.3s0.9,0,2.3,0.1
		c1.4,0.1,3.2,0.3,5,0.7c1.8,0.4,3.6,0.9,4.9,1.3C18.1,39.2,18.9,39.6,18.9,39.6z"/>
</g>
<g>
	<path class="st5" d="M18.6,40.5c0,0-0.9,0-2.3-0.1c-1.4-0.1-3.2-0.1-5-0.1c-3.7,0-7.3,0.2-7.3,0.2s0.9-0.2,2.3-0.4
		c1.4-0.2,3.2-0.3,5.1-0.3c1.8,0,3.7,0.2,5.1,0.4C17.7,40.3,18.6,40.5,18.6,40.5z"/>
</g>
</svg>
