<?xml version="1.0" encoding="utf-8"?>
<!-- Generator: Adobe Illustrator 20.1.0, SVG Export Plug-In . SVG Version: 6.00 Build 0)  -->
<svg version="1.1" id="Layer_1" xmlns="http://www.w3.org/2000/svg" xmlns:xlink="http://www.w3.org/1999/xlink" x="0px" y="0px"
	 viewBox="0 0 60 60" style="enable-background:new 0 0 60 60;" xml:space="preserve">
<style type="text/css">
	.st0{fill:#D69254;stroke:#58595B;stroke-width:2;stroke-linecap:round;stroke-linejoin:round;stroke-miterlimit:10;}
	.st1{fill:#EFC2A3;}
	.st2{fill:none;stroke:#58595B;stroke-width:2;stroke-linecap:round;stroke-linejoin:round;stroke-miterlimit:10;}
	.st3{fill:#D69254;stroke:#58595B;stroke-width:2;stroke-linecap:round;stroke-miterlimit:10;}
	.st4{fill:#58595B;}
	.st5{fill:#D69254;stroke:#58595B;stroke-width:2;stroke-miterlimit:10;}
	.st6{fill:#FFFFFF;}
</style>
<g>
	<path class="st0" d="M51,28.7c0,0-1.6-3.1-1.2-7.2c0.5-4.1,4.1-5.9,4.1-5.9l0.4,1.9l3.2-2.1l-0.8,3.3l2-0.4c0,0-1.9,2-3.4,6
		c-1.4,4-1.9,7.6-1.9,7.6L51,28.7z"/>
	<path class="st1" d="M56.7,18.7l0.4-3.1c0,0-2.6,3.8-4,7.3c-1.4,3.5-1.5,5.6-1.5,5.6l2.1,2.6c0,0,0.7-4.7,1.9-7.3s3.2-5.4,3.2-5.4
		L56.7,18.7z"/>
	<path class="st2" d="M51,28.7c0,0-1.6-3.1-1.2-7.2c0.5-4.1,4.1-5.9,4.1-5.9l0.4,1.9l3.2-2.1l-0.8,3.3l2-0.4c0,0-1.9,2-3.4,6
		c-1.4,4-1.9,7.6-1.9,7.6L51,28.7z"/>
</g>
<polyline class="st3" points="23.2,32.8 22.2,42.6 22.6,56.8 28.4,56.9 27.6,45.2 28.4,35 "/>
<rect x="22.3" y="53.5" class="st4" width="5.2" height="3.4"/>
<polyline class="st3" points="46.6,35.9 47,48.5 45.8,56.9 41.3,56.9 42.2,48.3 41,37.7 "/>
<ellipse transform="matrix(7.173605e-02 -0.9974 0.9974 7.173605e-02 1.0224 61.448)" class="st5" cx="33.5" cy="30.2" rx="10.1" ry="20"/>
<polyline class="st3" points="52.5,31.9 52.6,45.5 51.2,57 45.9,57.1 47.4,45.4 46.9,36.4 "/>
<polyline class="st3" points="25.2,38.6 26.4,47.4 26.6,56.8 31.8,56.9 31.8,46.8 31.8,38.8 "/>
<rect x="26.6" y="53.5" class="st4" width="5.2" height="3.4"/>
<rect x="41.4" y="53.6" class="st4" width="4.7" height="3.4"/>
<rect x="46.3" y="53.9" class="st4" width="5.2" height="3.4"/>
<circle class="st1" cx="36.5" cy="24.7" r="1.8"/>
<circle class="st1" cx="42.6" cy="28" r="1.2"/>
<circle class="st1" cx="34.1" cy="28.2" r="1.1"/>
<circle class="st1" cx="46" cy="30.5" r="0.9"/>
<circle class="st1" cx="44.6" cy="25.1" r="0.9"/>
<circle class="st1" cx="49.8" cy="30.5" r="0.9"/>
<circle class="st1" cx="40.9" cy="24.6" r="1.4"/>
<circle class="st1" cx="38.7" cy="29.2" r="1.4"/>
<g>
	<path class="st0" d="M13.9,13.9c0,0-0.3-2.7-4.1-4S1.4,4.6,1.4,4.6S1.3,9.8,4.6,14.7s7.1,3.5,7.1,3.5"/>
	<path class="st0" d="M29.7,13.8c0,0,0.6-2.7,6.4-3.1c5.8-0.4,8.7-2.2,8.7-2.2s0.2,5.4-4.3,7.9s-7.3,1.7-7.3,1.7"/>
	<path class="st5" d="M22.6,11.8c-17.9-0.6-9.3,17-7.9,25.1s10.5,9.8,13.1,1.2C30.6,29.1,40.5,12.4,22.6,11.8z"/>
	<path class="st4" d="M26.1,41.5c-2.8,3.4-7.4,2.8-9.9-0.8c0,0,2.1-2.3,5.1-2.2S26.1,41.5,26.1,41.5z"/>
	<g>
		<circle class="st6" cx="17.3" cy="22" r="3.9"/>
		<circle cx="17.6" cy="22.2" r="3.2"/>
		<circle class="st6" cx="16" cy="20.6" r="1"/>
	</g>
	<g>
		<circle class="st6" cx="26.9" cy="22.2" r="3.9"/>
		<circle cx="27.1" cy="22.5" r="3.2"/>
		<circle class="st6" cx="25.6" cy="20.8" r="1"/>
	</g>
	<circle class="st1" cx="21.4" cy="14.3" r="0.9"/>
	<circle class="st1" cx="22.2" cy="17" r="0.9"/>
	<circle class="st1" cx="25.4" cy="15" r="1.4"/>
	<circle class="st1" cx="17.6" cy="15.1" r="1.4"/>
</g>
<circle class="st1" cx="47.6" cy="27.6" r="1.4"/>
</svg>
