<?xml version="1.0" encoding="utf-8"?>
<!-- Generator: Adobe Illustrator 20.1.0, SVG Export Plug-In . SVG Version: 6.00 Build 0)  -->
<svg version="1.1" id="Layer_1" xmlns="http://www.w3.org/2000/svg" xmlns:xlink="http://www.w3.org/1999/xlink" x="0px" y="0px"
	 viewBox="0 0 102 102" style="enable-background:new 0 0 102 102;" xml:space="preserve">
<style type="text/css">
	.st0{clip-path:url(#SVGID_2_);}
	.st1{fill:#D69254;}
	.st2{fill:#58595B;}
	.st3{fill:#EFC2A3;}
	.st4{fill:#FFFFFF;}
	.st5{opacity:0.1;fill:#FFFFFF;enable-background:new    ;}
	.st6{opacity:0.1;enable-background:new    ;}
	.st7{opacity:0.13;fill:#FFFFFF;enable-background:new    ;}
	.st8{fill:url(#SVGID_3_);stroke:#FFFFFF;stroke-width:3;stroke-miterlimit:10;}
</style>
<g>
	<defs>
		<circle id="SVGID_1_" cx="51.4" cy="51" r="48.3"/>
	</defs>
	<clipPath id="SVGID_2_">
		<use xlink:href="#SVGID_1_"  style="overflow:visible;"/>
	</clipPath>
	<g class="st0">
		<g>
			<g>
				<path class="st1" d="M94.3,52.9c0,0-3-5.7-2.1-13.2s7.5-10.8,7.5-10.8l0.8,3.4l5.8-3.9l-1.5,6.1l3.6-0.7c0,0-3.5,3.6-6.2,10.9
					c-2.6,7.3-3.5,14-3.5,14L94.3,52.9z"/>
				<path class="st2" d="M98.8,60.6c-0.6,0-1.1-0.3-1.5-0.7L92.8,54c-0.1-0.1-0.1-0.2-0.2-0.3c-0.1-0.3-3.2-6.3-2.3-14.3
					c1-8.4,8.2-12,8.5-12.2c0.5-0.2,1.1-0.3,1.6,0c0.5,0.2,0.9,0.7,1,1.2l0.2,0.8l3.6-2.4c0.6-0.4,1.5-0.4,2.1,0
					c0.6,0.4,0.9,1.2,0.7,1.9l-0.8,3.3l0.9-0.2c0.8-0.2,1.6,0.2,1.9,0.9c0.4,0.7,0.3,1.6-0.3,2.1c0,0-3.3,3.5-5.8,10.3
					c-2.5,7-3.4,13.5-3.4,13.6c-0.1,0.7-0.6,1.4-1.3,1.5C99.1,60.6,98.9,60.6,98.8,60.6z M95.9,51.9l1.8,2.4
					c0.5-2.7,1.4-6.3,2.8-10.2c1.2-3.4,2.6-6,3.8-7.9c-0.3-0.1-0.6-0.3-0.9-0.5c-0.4-0.5-0.6-1.1-0.4-1.7l0.4-1.5l-1.9,1.3
					c-0.5,0.3-1.1,0.4-1.7,0.2c-0.6-0.2-1-0.7-1.1-1.3l-0.2-0.8c-1.7,1.4-4,4-4.5,8C93.3,46.1,95.5,51.1,95.9,51.9z"/>
			</g>
			<g>
				<path class="st3" d="M104.8,34.5l0.7-5.7c0,0-4.8,6.9-7.4,13.3s-2.8,10.2-2.8,10.2l3.8,4.8c0,0,1.4-8.5,3.5-13.4
					c2.1-4.8,5.9-9.9,5.9-9.9L104.8,34.5z"/>
			</g>
			<g>
				<path class="st2" d="M98.8,60.6c-0.6,0-1.1-0.3-1.5-0.7L92.8,54c-0.1-0.1-0.1-0.2-0.2-0.3c-0.1-0.3-3.2-6.3-2.3-14.3
					c1-8.4,8.2-12,8.5-12.2c0.5-0.2,1.1-0.3,1.6,0c0.5,0.2,0.9,0.7,1,1.2l0.2,0.8l3.6-2.4c0.6-0.4,1.5-0.4,2.1,0
					c0.6,0.4,0.9,1.2,0.7,1.9l-0.8,3.3l0.9-0.2c0.8-0.2,1.6,0.2,1.9,0.9c0.4,0.7,0.3,1.6-0.3,2.1c0,0-3.3,3.5-5.8,10.3
					c-2.5,7-3.4,13.5-3.4,13.6c-0.1,0.7-0.6,1.4-1.3,1.5C99.1,60.6,98.9,60.6,98.8,60.6z M95.9,51.9l1.8,2.4
					c0.5-2.7,1.4-6.3,2.8-10.2c1.2-3.4,2.6-6,3.8-7.9c-0.3-0.1-0.6-0.3-0.9-0.5c-0.4-0.5-0.6-1.1-0.4-1.7l0.4-1.5l-1.9,1.3
					c-0.5,0.3-1.1,0.4-1.7,0.2c-0.6-0.2-1-0.7-1.1-1.3l-0.2-0.8c-1.7,1.4-4,4-4.5,8C93.3,46.1,95.5,51.1,95.9,51.9z"/>
			</g>
		</g>
		<g>
			<polyline class="st1" points="43.3,60.4 41.4,78.3 42.1,104.4 52.7,104.5 51.3,83 52.7,64.3 			"/>
			<path class="st2" d="M54.7,106.4l-14.4-0.2l-0.7-27.9l1.9-18c0.1-1,1-1.7,2-1.6c1,0.1,1.7,1,1.6,2l-1.9,17.8l0.6,24.2l6.9,0.1
				L49.5,83l0-0.1l1.4-18.7c0.1-1,1-1.8,2-1.7c1,0.1,1.8,1,1.7,2L53.2,83L54.7,106.4z"/>
		</g>
		<g>
			<rect x="41.6" y="98.2" class="st2" width="9.5" height="6.2"/>
		</g>
		<g>
			<polyline class="st1" points="86.1,66 87,89.1 84.7,104.5 76.4,104.5 78.2,88.8 76,69.3 			"/>
			<path class="st2" d="M86.3,106.3h-12l2-17.5l-2.2-19.3c-0.1-1,0.6-1.9,1.6-2c1-0.1,1.9,0.6,2,1.6L80,88.8l0,0.2l-1.5,13.7h4.7
				l2-13.6L84.3,66c0-1,0.8-1.9,1.8-1.9c1-0.1,1.9,0.8,1.9,1.8l0.9,23.3l0,0.2L86.3,106.3z"/>
		</g>
		<g>
			
				<ellipse transform="matrix(7.173605e-02 -0.9974 0.9974 7.173605e-02 2.3465 113.5574)" class="st1" cx="62.2" cy="55.5" rx="18.5" ry="36.8"/>
			<path class="st2" d="M66.2,76c-1.8,0-3.6-0.1-5.5-0.2c-10.1-0.7-19.4-3.4-26.3-7.5c-7.3-4.4-11.1-9.9-10.7-15.5
				c0.8-11.4,18.4-19.1,39.9-17.5c10.1,0.7,19.4,3.4,26.3,7.5c7.3,4.4,11.1,9.9,10.7,15.5C99.9,68.7,85.2,76,66.2,76z M58.4,38.7
				c-16.7,0-30.4,6.1-31,14.3c-0.3,4.2,2.9,8.5,8.9,12.1c6.4,3.8,15.2,6.3,24.7,7c18.9,1.3,35.4-5.1,36-14.1
				c0.3-4.2-2.9-8.5-8.9-12.1c-6.4-3.8-15.2-6.3-24.7-7C61.7,38.7,60,38.7,58.4,38.7z"/>
		</g>
		<g>
			<polyline class="st1" points="97,58.7 97.2,83.7 94.6,104.7 84.9,104.8 87.6,83.5 86.8,67 			"/>
			<path class="st2" d="M82.8,106.7l2.9-23.3L85,67.1c0-1,0.7-1.9,1.7-1.9c1-0.1,1.9,0.7,1.9,1.7l0.8,16.6L87,103l6-0.1l2.3-19.3
				l-0.2-24.8c0-1,0.8-1.8,1.8-1.8c0,0,0,0,0,0c1,0,1.8,0.8,1.8,1.8L99,83.8l0,0.1l-2.7,22.6L82.8,106.7z"/>
		</g>
		<g>
			<polyline class="st1" points="46.9,70.9 49.2,87.1 49.6,104.4 59,104.5 59.1,86.1 59,71.4 			"/>
			<path class="st2" d="M60.8,106.4l-13.1-0.2l-0.4-18.9l-2.3-16.1c-0.1-1,0.6-1.9,1.6-2.1c1-0.2,1.9,0.6,2.1,1.6L51,87.1l0.3,15.5
				l5.8,0.1l0.1-16.6l-0.1-14.7c0-1,0.8-1.8,1.8-1.8c0,0,0,0,0,0c1,0,1.8,0.8,1.8,1.8l0.1,14.7L60.8,106.4z"/>
		</g>
		<g>
			<rect x="49.6" y="98.2" class="st2" width="9.5" height="6.2"/>
		</g>
		<g>
			<rect x="76.7" y="98.5" class="st2" width="8.6" height="6.2"/>
		</g>
		<g>
			<rect x="85.6" y="99" class="st2" width="9.5" height="6.2"/>
		</g>
		<g>
			<circle class="st3" cx="67.7" cy="45.5" r="3.3"/>
		</g>
		<g>
			<circle class="st3" cx="78.9" cy="51.5" r="2.2"/>
		</g>
		<g>
			<circle class="st3" cx="63.2" cy="52" r="2"/>
		</g>
		<g>
			<circle class="st3" cx="85" cy="56.2" r="1.7"/>
		</g>
		<g>
			<circle class="st3" cx="82.6" cy="46.2" r="1.7"/>
		</g>
		<g>
			<circle class="st3" cx="92" cy="56.2" r="1.7"/>
		</g>
		<g>
			<circle class="st3" cx="75.8" cy="45.3" r="2.6"/>
		</g>
		<g>
			<circle class="st3" cx="71.6" cy="53.8" r="2.6"/>
		</g>
		<g>
			<g>
				<path class="st1" d="M26.3,25.7c0,0-0.5-5-7.6-7.3S3.3,8.6,3.3,8.6s-0.2,9.6,5.8,18.6s13,6.5,13,6.5"/>
				<path class="st2" d="M19.7,35.8c-3,0-7.9-1.2-12.2-7.6C1.3,18.8,1.5,8.9,1.5,8.5c0-0.7,0.5-1.4,1.1-1.6c0.7-0.3,1.4-0.2,2,0.3
					c0.1,0.1,8.1,7.4,14.7,9.5c8.2,2.6,8.8,8.6,8.8,8.8c0.1,1-0.6,1.9-1.7,2c-1,0.1-1.9-0.6-2-1.6c0-0.2-0.6-3.9-6.3-5.7
					c-4.5-1.5-9.4-4.9-12.6-7.4c0.5,3.4,1.9,8.5,5.1,13.3c5.1,7.7,10.8,5.8,10.8,5.8c0.9-0.3,2,0.2,2.3,1.1c0.3,1-0.2,2-1.1,2.3
					C22.6,35.4,21.4,35.8,19.7,35.8z"/>
			</g>
			<g>
				<path class="st1" d="M55.1,25.4c0,0,1.1-4.9,11.8-5.7s16-4.1,16-4.1s0.3,9.8-7.9,14.5s-13.4,3.2-13.4,3.2"/>
				<path class="st2" d="M63.8,35.3c-1.6,0-2.5-0.2-2.6-0.3c-1-0.3-1.6-1.3-1.3-2.3c0.3-1,1.3-1.6,2.3-1.3c0,0,4.7,1.1,12-3
					c4.5-2.5,6.1-6.9,6.6-9.8c-2.8,1.1-7.3,2.5-13.8,2.9c-8.9,0.6-10.1,4.2-10.1,4.3c-0.3,0.9-1.3,1.5-2.2,1.3
					c-1-0.2-1.6-1.2-1.4-2.1c0.1-0.6,1.7-6.3,13.4-7.1c10.1-0.7,15.1-3.8,15.2-3.8c0.6-0.4,1.3-0.4,1.8-0.1c0.6,0.3,1,0.9,1,1.6
					c0,0.4,0.2,11-8.8,16.1C70.6,34.7,66.4,35.3,63.8,35.3z"/>
			</g>
			<g>
				<path class="st1" d="M42.2,21.8c-32.8-1.1-17,31.2-14.5,46s19.2,18,24,2.2C56.8,53.6,75.1,22.8,42.2,21.8z"/>
				<path class="st2" d="M40.2,82.3c-0.3,0-0.5,0-0.7,0c-5.6-0.4-11.9-4.9-13.5-14.2c-0.4-2.6-1.3-5.8-2.2-9.2
					c-3-10.9-6.7-24.6-0.3-32.6c3.6-4.5,9.9-6.7,18.9-6.4c9.1,0.3,15.2,2.8,18.4,7.6c5.8,8.7,0.4,22.8-3.9,34.1
					c-1.2,3.2-2.4,6.3-3.2,8.9C50.9,79.3,45,82.3,40.2,82.3z M40.7,23.6c-6.9,0-11.8,1.7-14.4,5c-5.2,6.6-1.8,19.2,1,29.4
					c0.9,3.5,1.8,6.8,2.3,9.5c1.2,7.3,6,10.9,10.1,11.1c4.6,0.3,8.5-3.1,10.3-9.1c0.8-2.7,2-5.9,3.3-9.1c4-10.5,9-23.6,4.3-30.8
					c-2.5-3.7-7.7-5.7-15.4-6C41.7,23.6,41.2,23.6,40.7,23.6z"/>
			</g>
			<g>
				<path class="st2" d="M48.5,76.3c-5.2,6.3-13.6,5.2-18.1-1.4c0,0,3.8-4.2,9.3-4.1C45.3,70.9,48.5,76.3,48.5,76.3z"/>
			</g>
			<g>
				<g>
					<circle class="st4" cx="32.4" cy="40.5" r="7.2"/>
				</g>
				<g>
					<circle cx="32.9" cy="41" r="5.9"/>
				</g>
				<g>
					<circle class="st4" cx="30.1" cy="37.9" r="1.9"/>
				</g>
			</g>
			<g>
				<g>
					<circle class="st4" cx="50" cy="41" r="7.2"/>
				</g>
				<g>
					<circle cx="50.5" cy="41.4" r="5.9"/>
				</g>
				<g>
					<circle class="st4" cx="47.7" cy="38.4" r="1.9"/>
				</g>
			</g>
			<g>
				<circle class="st3" cx="39.9" cy="26.4" r="1.7"/>
			</g>
			<g>
				<circle class="st3" cx="41.4" cy="31.4" r="1.7"/>
			</g>
			<g>
				<circle class="st3" cx="47.2" cy="27.6" r="2.6"/>
			</g>
			<g>
				<circle class="st3" cx="33" cy="27.9" r="2.6"/>
			</g>
		</g>
		<g>
			<circle class="st3" cx="88" cy="50.8" r="2.6"/>
		</g>
	</g>
</g>
<g>
	<path class="st5" d="M4.5,62.7C3.6,58.9,3.1,55,3.1,51c0-26.7,21.6-48.3,48.3-48.3c3.7,0,7.3,0.4,10.7,1.2
		C72.7,6.3,44.9-1,22.4,22.2S7.2,73.4,4.5,62.7z"/>
	<path class="st6" d="M99.7,51c0,26.7-21.6,48.3-48.3,48.3c-14.7,0-27.8-6.6-36.7-16.9c-4.3-5,31.4,8.1,54.3-13.8s13-55.3,16.6-51.8
		C94.3,25.6,99.7,37.7,99.7,51z"/>
	<circle class="st7" cx="26.9" cy="33.8" r="9"/>
	<circle class="st7" cx="32.5" cy="21.4" r="3.4"/>
	
		<radialGradient id="SVGID_3_" cx="51.4" cy="-563" r="48.3" gradientTransform="matrix(1 0 0 -1 0 -512)" gradientUnits="userSpaceOnUse">
		<stop  offset="0.4322" style="stop-color:#FFFFFF;stop-opacity:0"/>
		<stop  offset="0.9846" style="stop-color:#FFFFFF;stop-opacity:0.2919"/>
		<stop  offset="1" style="stop-color:#FFFFFF;stop-opacity:0.3"/>
	</radialGradient>
	<circle class="st8" cx="51.4" cy="51" r="48.3"/>
</g>
</svg>
