<?xml version="1.0" encoding="utf-8"?>
<!-- Generator: Adobe Illustrator 20.1.0, SVG Export Plug-In . SVG Version: 6.00 Build 0)  -->
<svg version="1.1" id="Layer_1" xmlns="http://www.w3.org/2000/svg" xmlns:xlink="http://www.w3.org/1999/xlink" x="0px" y="0px"
	 viewBox="0 0 102 102" style="enable-background:new 0 0 102 102;" xml:space="preserve">
<style type="text/css">
	.st0{clip-path:url(#SVGID_2_);}
	.st1{fill:#E87952;}
	.st2{fill:#58595B;}
	.st3{fill:#FFFFFF;}
	.st4{fill:#414042;}
	.st5{opacity:0.1;fill:#FFFFFF;enable-background:new    ;}
	.st6{opacity:0.1;enable-background:new    ;}
	.st7{opacity:0.13;fill:#FFFFFF;enable-background:new    ;}
	.st8{fill:url(#SVGID_3_);stroke:#FFFFFF;stroke-width:3;stroke-miterlimit:10;}
</style>
<g>
	<defs>
		<circle id="SVGID_1_" cx="51.4" cy="51" r="48.3"/>
	</defs>
	<clipPath id="SVGID_2_">
		<use xlink:href="#SVGID_1_"  style="overflow:visible;"/>
	</clipPath>
	<g class="st0">
		<g>
			<path class="st1" d="M38.9,75.1c0,0,0.7,3.7-0.1,11.1c-0.7,6.2-1.6,9.5-1.8,10.4c0,0.1-0.2,0.2-0.3,0.1c-0.8-0.4-4-1.9-5.6,0.4
				c-1.9,2.7,0.7,4.2,0.7,4.2h9.1c0,0,2.4-8.2,3.1-12.3s1.3-9.9,1.3-9.9"/>
			<path class="st2" d="M42,102.9H31.2l-0.4-0.2c-0.2-0.1-1.7-1-2.1-2.8c-0.2-0.8-0.2-2.1,0.9-3.7c1.5-2.1,3.9-2.3,6.1-1.6
				c0.4-1.6,0.9-4.5,1.4-8.6c0.8-7,0.2-10.6,0.1-10.7l3.2-0.6c0,0.2,0.7,4.1-0.1,11.6c-0.7,6.4-1.6,9.8-1.9,10.7
				c-0.2,0.5-0.5,0.9-1,1.2c-0.5,0.2-1.1,0.2-1.5-0.1c-0.5-0.2-2.7-1.3-3.6-0.1c-0.2,0.3-0.5,0.8-0.4,1.1c0,0.2,0.2,0.4,0.3,0.5h7.3
				c0.7-2.4,2.2-7.9,2.7-11c0.7-4.1,1.3-9.8,1.3-9.8l3.2,0.4c0,0.1-0.7,5.8-1.3,10c-0.7,4.2-3,12.2-3.1,12.5L42,102.9z"/>
		</g>
		<g>
			<path class="st1" d="M60.4,82.3c0,0,11.6-5.5,11.5-15.3S68.9,48.1,73,36.1S89.6,11.4,91.9,12c2.3,0.6,8,20,7.5,35.1
				C98.9,62.2,89.9,75,79,81C68,87.1,60.4,82.3,60.4,82.3z"/>
			<path class="st2" d="M67.9,85.7c-5.1,0-8.2-1.9-8.4-2L57,82.2l2.6-1.3c0.1-0.1,10.6-5.2,10.6-13.8c0-2.7-0.3-5.2-0.5-7.9
				c-0.6-7.1-1.3-14.5,1.8-23.5c3.4-9.9,16.2-26.3,20.8-25.1c4.1,1.1,9.2,22.7,8.7,36.7c-0.5,14.6-8.9,28.5-21.2,35.3
				C75.2,85,71.2,85.7,67.9,85.7z M64,82.1c2.9,0.7,7.9,1,14.2-2.4C89.6,73.3,97.3,60.5,97.8,47c0.5-13.9-4.4-30.5-6.4-33.3
				C88.5,15.1,78.2,26,74.5,36.6C71.7,45,72.3,52,72.9,58.8c0.2,2.7,0.5,5.4,0.5,8.2C73.5,74.5,67.7,79.6,64,82.1z M91.8,13.6
				L91.8,13.6z"/>
		</g>
		<g>
			<path class="st3" d="M91.9,12c0,0-5.9,3.5-10,9.1s-7.1,11.4-7.1,11.4l7.4-2.9l5,6.7l5.5-5.5l6.3,5.9c0,0-0.8-7.5-2.7-14.5
				S91.9,12,91.9,12z"/>
		</g>
		<g>
			<path class="st2" d="M67.9,85.7c-5.1,0-8.2-1.9-8.4-2L57,82.2l2.6-1.3c0.1-0.1,10.6-5.2,10.6-13.8c0-2.7-0.3-5.2-0.5-7.9
				c-0.6-7.1-1.3-14.5,1.8-23.5c3.4-9.9,16.2-26.3,20.8-25.1c4.1,1.1,9.2,22.7,8.7,36.7c-0.5,14.6-8.9,28.5-21.2,35.3
				C75.2,85,71.2,85.7,67.9,85.7z M64,82.1c2.9,0.7,7.9,1,14.2-2.4C89.6,73.3,97.3,60.5,97.8,47c0.5-13.9-4.4-30.5-6.4-33.3
				C88.5,15.1,78.2,26,74.5,36.6C71.7,45,72.3,52,72.9,58.8c0.2,2.7,0.5,5.4,0.5,8.2C73.5,74.5,67.7,79.6,64,82.1z M91.8,13.6
				L91.8,13.6z"/>
		</g>
		<g>
			<path class="st1" d="M75.2,97.3c-7.8,7-21.8,2.2-31.2-10.5s-10.8-28.7-3-35.7s21.8-2.2,31.2,10.5S83,90.4,75.2,97.3z"/>
			<path class="st2" d="M66.4,102.1c-0.6,0-1.3,0-1.9-0.1c-7.6-0.8-15.8-6.1-21.8-14.3C32.8,74.4,31.5,57.4,40,49.9
				c3.1-2.8,7.2-4,11.8-3.5c7.6,0.8,15.8,6.1,21.8,14.3c9.9,13.4,11.1,30.4,2.7,37.8l0,0C73.6,100.9,70.2,102.1,66.4,102.1z
				 M49.9,49.5c-3,0-5.7,1-7.8,2.8c-7.2,6.4-5.8,21.4,3.2,33.5c5.5,7.4,12.8,12.3,19.5,13c3.7,0.4,6.9-0.6,9.3-2.7l0,0
				c7.2-6.4,5.8-21.4-3.2-33.5c-5.5-7.4-12.8-12.3-19.5-13C50.9,49.5,50.4,49.5,49.9,49.5z"/>
		</g>
		<g>
			<path class="st3" d="M42.8,71.1c0,0,3,7.2,6.2,11.7c3.4,4.8,6.1,6,6.9,8.9c0.9,2.9-0.3,4.7-0.3,4.7s-8-5.4-12.6-11
				c-4.6-5.6-5.1-9.1-5.1-9.1L42.8,71.1z"/>
		</g>
		<g>
			<path class="st2" d="M66.4,102.1c-0.6,0-1.3,0-1.9-0.1c-7.6-0.8-15.8-6.1-21.8-14.3C32.8,74.4,31.5,57.4,40,49.9
				c3.1-2.8,7.2-4,11.8-3.5c7.6,0.8,15.8,6.1,21.8,14.3c9.9,13.4,11.1,30.4,2.7,37.8l0,0C73.6,100.9,70.2,102.1,66.4,102.1z
				 M49.9,49.5c-3,0-5.7,1-7.8,2.8c-7.2,6.4-5.8,21.4,3.2,33.5c5.5,7.4,12.8,12.3,19.5,13c3.7,0.4,6.9-0.6,9.3-2.7l0,0
				c7.2-6.4,5.8-21.4-3.2-33.5c-5.5-7.4-12.8-12.3-19.5-13C50.9,49.5,50.4,49.5,49.9,49.5z"/>
		</g>
		<g>
			<path class="st1" d="M48.9,75.1c0,0,0.7,3.7-0.1,11.1c-0.7,6.2-1.6,9.5-1.8,10.4c0,0.1-0.2,0.2-0.3,0.1c-0.8-0.4-4-1.9-5.6,0.4
				c-1.9,2.7,0.7,4.2,0.7,4.2h9.1c0,0,2.4-8.2,3.1-12.3c0.7-4.2,1.3-9.9,1.3-9.9"/>
			<path class="st2" d="M52,102.9H41.3l-0.4-0.2c-0.2-0.1-1.7-1-2.1-2.8c-0.2-0.8-0.2-2.1,0.9-3.7c1.5-2.1,3.9-2.3,6.1-1.6
				c0.4-1.6,0.9-4.5,1.4-8.6c0.8-7,0.2-10.6,0.1-10.7c-0.2-0.9,0.4-1.7,1.3-1.9c0.9-0.2,1.7,0.4,1.9,1.3c0,0.2,0.7,4.1-0.1,11.6
				c-0.7,6.4-1.6,9.8-1.9,10.7c-0.2,0.5-0.5,0.9-1,1.2c-0.5,0.2-1.1,0.2-1.5-0.1c-0.5-0.2-2.7-1.3-3.6-0.1c-0.2,0.3-0.5,0.8-0.4,1.1
				c0,0.2,0.2,0.4,0.3,0.5h7.3c0.7-2.4,2.2-7.9,2.7-11c0.7-4.1,1.3-9.8,1.3-9.8c0.1-0.9,0.9-1.5,1.8-1.4c0.9,0.1,1.5,0.9,1.4,1.8
				c0,0.1-0.7,5.8-1.3,10c-0.7,4.2-3,12.2-3.1,12.5L52,102.9z"/>
		</g>
		<g>
			<path class="st1" d="M72.8,69.4c-6.5,0.4-9.5,5.8-8.9,12.4c0.5,6.6,6.3,12.3,7,13.9c0.1,0.2,0,0.3-0.2,0.3
				c-4.6,0.1-15.4-4.8-12.4,4.9c0.1,0.3,0.3,0.6,0.7,0.6l16.7,0c0.4,0,0.9-0.2,1.1-0.6c0,0,3.5-6.2,4.4-15.3
				C82,76.7,79.3,69,72.8,69.4z"/>
			<path class="st2" d="M75.7,103.2H59c-1,0-1.9-0.7-2.2-1.7c-0.9-3-0.8-5.2,0.5-6.6c2-2.3,6-1.6,9.6-0.9c0.3,0.1,0.7,0.1,1,0.2
				c-2.1-2.8-5.1-7.2-5.5-12.2c-0.4-4.3,0.7-8,2.8-10.5c1.8-2.1,4.4-3.4,7.6-3.6c2.5-0.2,4.7,0.7,6.4,2.4c3,3,4.3,8.7,3.6,15.6
				c-0.9,9.3-4.4,15.6-4.6,15.9C77.8,102.7,76.8,103.2,75.7,103.2z M75.3,100.3C75.3,100.3,75.3,100.3,75.3,100.3
				C75.3,100.3,75.3,100.3,75.3,100.3z M59.7,100h15.7c0.7-1.3,3.4-6.9,4.1-14.5c0.6-5.9-0.4-10.7-2.7-13.1
				c-1.1-1.1-2.3-1.6-3.9-1.5l0,0c-2.3,0.2-4.1,1-5.3,2.5c-1.6,1.9-2.4,4.8-2.1,8.2c0.4,4.5,3.5,8.7,5.4,11.2c0.7,1,1.2,1.6,1.5,2.2
				c0.3,0.6,0.2,1.2-0.1,1.7c-0.3,0.5-0.9,0.8-1.5,0.9c-1.3,0-2.8-0.3-4.5-0.6c-2.3-0.4-5.7-1.1-6.6-0.1
				C59.3,97.5,59.3,98.6,59.7,100z M70.7,94.5C70.7,94.5,70.7,94.5,70.7,94.5C70.7,94.5,70.7,94.5,70.7,94.5z"/>
		</g>
		<g>
			<path class="st1" d="M53.5,28.3c0,0,13.1-8.3,15.2-6.6c2.1,1.7-8,17.8-8,17.8"/>
			<path class="st2" d="M62,40.4l-2.7-1.7c3.7-5.9,7.5-13,8-15.6c-2.1,0.4-7.6,3.2-12.9,6.5L52.6,27C66.7,18,69,19.9,69.7,20.5
				C70.6,21.3,72.8,23.1,62,40.4z"/>
		</g>
		<g>
			<path class="st3" d="M56.8,30.4l5.4-2.7c0.4-0.1,0.7,0.3,0.6,0.6l-3,5.5L56.8,30.4z"/>
		</g>
		<g>
			<path class="st1" d="M32.7,23.5c0,0-7.5-13.6-10.1-13.1C20,10.9,21,29.9,21,29.9"/>
			<path class="st2" d="M19.4,30C18.3,9.6,21.1,9,22.4,8.8c0.9-0.2,3.8-0.7,11.8,13.9l-2.8,1.5c-3-5.5-6.5-10.6-8.2-12
				c-0.8,2.5-0.9,10.6-0.5,17.5L19.4,30z M22.6,12L22.6,12L22.6,12z"/>
		</g>
		<g>
			<path class="st3" d="M29.1,23.4l-4-5.2c-0.3-0.3-0.7-0.1-0.8,0.3l0,7.6L29.1,23.4z"/>
		</g>
		<g>
			<path class="st2" d="M19.4,30C18.3,9.6,21.1,9,22.4,8.8c0.9-0.2,3.8-0.7,11.8,13.9l-2.8,1.5c-3-5.5-6.5-10.6-8.2-12
				c-0.8,2.5-0.9,10.6-0.5,17.5L19.4,30z M22.6,12L22.6,12L22.6,12z"/>
		</g>
		<g>
			<path class="st2" d="M62,40.4l-2.7-1.7c3.7-5.9,7.5-13,8-15.6c-2.1,0.4-7.6,3.2-12.9,6.5L52.6,27C66.7,18,69,19.9,69.7,20.5
				C70.6,21.3,72.8,23.1,62,40.4z"/>
		</g>
		<g>
			<path class="st1" d="M44.7,24.3C85,37.1,38.9,81,28,77.5C17.2,74.1,4.5,11.5,44.7,24.3z"/>
			<path class="st2" d="M29.4,79.3c-0.7,0-1.3-0.1-1.8-0.3c-8.1-2.6-15.3-28.8-10.3-44.6c2.2-7,8.8-17.8,28-11.7l0,0
				c9.7,3.1,15.4,8.2,16.9,15.1c2.4,10.9-6.4,23.6-15.4,31.8C41.6,74.4,34.4,79.3,29.4,79.3z M34.8,24.1c-7.3,0-12.1,3.8-14.5,11.2
				c-4.9,15.3,2.9,38.9,8.2,40.6c2.4,0.8,8.8-2,16.1-8.6c8-7.3,16.5-19.2,14.4-28.8c-1.3-5.7-6.2-10-14.8-12.8l0,0
				C40.8,24.7,37.6,24.1,34.8,24.1z"/>
		</g>
		<g>
			<g>
				<circle class="st3" cx="31.3" cy="39.4" r="5.6"/>
			</g>
			<g>
				<circle cx="31.7" cy="39.7" r="4.6"/>
			</g>
			<g>
				<circle class="st3" cx="29.5" cy="37.3" r="1.5"/>
			</g>
		</g>
		<g>
			<g>
				<circle class="st3" cx="46.7" cy="43.2" r="5.6"/>
			</g>
			<g>
				<circle cx="47.1" cy="43.5" r="4.6"/>
			</g>
			<g>
				<circle class="st3" cx="44.9" cy="41.1" r="1.5"/>
			</g>
		</g>
		<g>
			<path class="st3" d="M20.9,67.2c0,0,4.8-0.5,9.4,0.8s8.8,5.6,8.8,5.6s-5.3,5.7-11.1,3.9C22.3,75.7,20.9,67.2,20.9,67.2z"/>
		</g>
		<g>
			<path class="st2" d="M29.4,79.3c-0.7,0-1.3-0.1-1.8-0.3c-8.1-2.6-15.3-28.8-10.3-44.6c2.2-7,8.8-17.8,28-11.7l0,0
				c9.7,3.1,15.4,8.2,16.9,15.1c2.4,10.9-6.4,23.6-15.4,31.8C41.6,74.4,34.4,79.3,29.4,79.3z M34.8,24.1c-7.3,0-12.1,3.8-14.5,11.2
				c-4.9,15.3,2.9,38.9,8.2,40.6c2.4,0.8,8.8-2,16.1-8.6c8-7.3,16.5-19.2,14.4-28.8c-1.3-5.7-6.2-10-14.8-12.8l0,0
				C40.8,24.7,37.6,24.1,34.8,24.1z"/>
		</g>
		<g>
			<path class="st4" d="M31.1,66.2c7.5,2.2-0.1,5.7-1.5,5.2C28.1,71,23.6,64,31.1,66.2z"/>
		</g>
		<g>
			<path class="st4" d="M35.4,69.3c0,0,0.7-0.1,1.9-0.2c1.1,0,2.6,0,4.1,0.2c1.5,0.2,3,0.6,4,1c1.1,0.4,1.7,0.7,1.7,0.7
				s-0.8-0.1-1.9-0.2c-1.1-0.2-2.6-0.4-4-0.6c-1.5-0.2-2.9-0.4-4-0.6C36.1,69.4,35.4,69.3,35.4,69.3z"/>
		</g>
		<g>
			<path class="st4" d="M34.6,70.5c0,0,0.7,0.1,1.8,0.5c1.1,0.4,2.5,0.9,3.8,1.6c1.3,0.7,2.6,1.6,3.5,2.3c0.9,0.7,1.4,1.3,1.4,1.3
				s-0.7-0.3-1.7-0.9c-1-0.5-2.3-1.2-3.6-1.9c-1.3-0.7-2.6-1.4-3.6-1.9C35.3,70.8,34.6,70.5,34.6,70.5z"/>
		</g>
		<g>
			<path class="st4" d="M25,66.2c0,0-0.7-0.2-1.8-0.6c-1.1-0.4-2.5-0.8-3.9-1.3c-1.4-0.5-2.8-0.9-3.9-1.3c-1.1-0.4-1.8-0.6-1.8-0.6
				s0.8,0,1.9,0.2c1.1,0.2,2.6,0.5,4,1c1.4,0.5,2.8,1.1,3.8,1.7C24.4,65.8,25,66.2,25,66.2z"/>
		</g>
		<g>
			<path class="st4" d="M25.1,67.6c0,0-0.8,0-1.9,0.1c-1.1,0-2.6,0.1-4.1,0.1c-1.5,0-3,0.1-4.1,0.1c-1.1,0-1.9,0-1.9,0
				s0.7-0.3,1.8-0.5c1.1-0.2,2.6-0.4,4.1-0.4c1.5,0,3,0.1,4.1,0.3C24.4,67.4,25.1,67.6,25.1,67.6z"/>
		</g>
	</g>
</g>
<g>
	<path class="st5" d="M4.5,62.7C3.6,58.9,3.1,55,3.1,51c0-26.7,21.6-48.3,48.3-48.3c3.7,0,7.3,0.4,10.7,1.2
		C72.7,6.3,44.9-1,22.4,22.2S7.2,73.4,4.5,62.7z"/>
	<path class="st6" d="M99.7,51c0,26.7-21.6,48.3-48.3,48.3c-14.7,0-27.8-6.6-36.7-16.9c-4.3-5,31.4,8.1,54.3-13.8s13-55.3,16.6-51.8
		C94.3,25.6,99.7,37.7,99.7,51z"/>
	<circle class="st7" cx="26.9" cy="33.8" r="9"/>
	<circle class="st7" cx="32.5" cy="21.4" r="3.4"/>
	
		<radialGradient id="SVGID_3_" cx="51.4" cy="667" r="48.3" gradientTransform="matrix(1 0 0 1 0 -616)" gradientUnits="userSpaceOnUse">
		<stop  offset="0.4322" style="stop-color:#FFFFFF;stop-opacity:0"/>
		<stop  offset="0.9846" style="stop-color:#FFFFFF;stop-opacity:0.2919"/>
		<stop  offset="1" style="stop-color:#FFFFFF;stop-opacity:0.3"/>
	</radialGradient>
	<circle class="st8" cx="51.4" cy="51" r="48.3"/>
</g>
</svg>
