<?xml version="1.0" encoding="utf-8"?>
<!-- Generator: Adobe Illustrator 20.1.0, SVG Export Plug-In . SVG Version: 6.00 Build 0)  -->
<svg version="1.1" id="Layer_1" xmlns="http://www.w3.org/2000/svg" xmlns:xlink="http://www.w3.org/1999/xlink" x="0px" y="0px"
	 viewBox="0 0 60 60" style="enable-background:new 0 0 60 60;" xml:space="preserve">
<style type="text/css">
	.st0{fill:#E87952;stroke:#58595B;stroke-width:2;stroke-miterlimit:10;}
	.st1{fill:#FFFFFF;}
	.st2{fill:none;stroke:#58595B;stroke-width:2;stroke-miterlimit:10;}
	.st3{fill:#E87952;stroke:#58595B;stroke-width:2;stroke-linecap:round;stroke-miterlimit:10;}
	.st4{fill:#414042;}
</style>
<path class="st0" d="M18.4,41.6c0,0,0.4,2.3-0.1,6.9c-0.4,3.9-1,5.9-1.1,6.5c0,0.1-0.1,0.1-0.2,0.1c-0.5-0.3-2.5-1.2-3.5,0.3
	c-1.2,1.7,0.4,2.6,0.4,2.6h5.7c0,0,1.5-5.1,1.9-7.7s0.8-6.2,0.8-6.2"/>
<path class="st0" d="M31.8,46.1c0,0,7.2-3.4,7.1-9.5s-1.8-11.7,0.8-19.2C42.2,9.8,50,1.9,51.4,2.3s5,12.4,4.7,21.8
	c-0.3,9.4-5.9,17.4-12.7,21.1C36.5,49.1,31.8,46.1,31.8,46.1z"/>
<path class="st1" d="M51.4,2.3c0,0-3.7,2.2-6.2,5.7c-2.6,3.5-4.4,7.1-4.4,7.1l4.6-1.8l3.1,4.2l3.4-3.4l3.9,3.7c0,0-0.5-4.7-1.7-9
	C52.9,4.3,51.4,2.3,51.4,2.3z"/>
<path class="st2" d="M31.8,46.1c0,0,7.2-3.4,7.1-9.5s-1.8-11.7,0.8-19.2C42.2,9.8,50,1.9,51.4,2.3s5,12.4,4.7,21.8
	c-0.3,9.4-5.9,17.4-12.7,21.1C36.5,49.1,31.8,46.1,31.8,46.1z"/>
<path class="st0" d="M41,55.4c-4.9,4.3-13.6,1.4-19.4-6.5S14.9,31,19.8,26.7s13.6-1.4,19.4,6.5S45.9,51.1,41,55.4z"/>
<path class="st1" d="M20.8,39.1c0,0,1.8,4.5,3.8,7.3c2.1,3,3.8,3.7,4.3,5.5c0.5,1.8-0.2,2.9-0.2,2.9s-5-3.4-7.8-6.8
	c-2.8-3.5-3.2-5.7-3.2-5.7L20.8,39.1z"/>
<path class="st2" d="M41,55.4c-4.9,4.3-13.6,1.4-19.4-6.5S14.9,31,19.8,26.7s13.6-1.4,19.4,6.5S45.9,51.1,41,55.4z"/>
<path class="st3" d="M24.7,41.6c0,0,0.4,2.3-0.1,6.9c-0.4,3.9-1,5.9-1.1,6.5c0,0.1-0.1,0.1-0.2,0.1c-0.5-0.3-2.5-1.2-3.5,0.3
	c-1.2,1.7,0.4,2.6,0.4,2.6h5.7c0,0,1.5-5.1,1.9-7.7s0.8-6.2,0.8-6.2"/>
<path class="st0" d="M39.5,38.1c-4.1,0.3-5.9,3.6-5.5,7.7s3.9,7.7,4.4,8.7c0,0.1,0,0.2-0.1,0.2c-2.8,0.1-9.6-3-7.7,3.1
	c0.1,0.2,0.2,0.4,0.4,0.4l10.4,0c0.2,0,0.5-0.1,0.7-0.4c0,0,2.2-3.9,2.7-9.5C45.3,42.6,43.6,37.8,39.5,38.1z"/>
<path class="st0" d="M27.5,12.5c0,0,8.2-5.2,9.5-4.1s-5,11.1-5,11.1"/>
<path class="st1" d="M29.6,13.8l3.3-1.7c0.2-0.1,0.5,0.2,0.4,0.4L31.4,16L29.6,13.8z"/>
<path class="st0" d="M14.6,9.5c0,0-4.6-8.5-6.3-8.2s-1,12.1-1,12.1"/>
<path class="st1" d="M12.3,9.4L9.9,6.2C9.7,6,9.4,6.1,9.4,6.4l0,4.7L12.3,9.4z"/>
<path class="st2" d="M14.6,9.5c0,0-4.6-8.5-6.3-8.2s-1,12.1-1,12.1"/>
<path class="st2" d="M27.5,12.5c0,0,8.2-5.2,9.5-4.1s-5,11.1-5,11.1"/>
<path class="st0" d="M22.1,10c25.1,8-3.6,35.3-10.4,33.1S-3,2,22.1,10z"/>
<g>
	<circle class="st1" cx="13.7" cy="19.4" r="3.5"/>
	<circle cx="13.9" cy="19.6" r="2.9"/>
	<circle class="st1" cx="12.6" cy="18.1" r="0.9"/>
</g>
<g>
	<circle class="st1" cx="23.3" cy="21.7" r="3.5"/>
	<circle cx="23.5" cy="22" r="2.9"/>
	<circle class="st1" cx="22.2" cy="20.5" r="0.9"/>
</g>
<path class="st1" d="M7.2,36.7c0,0,3-0.3,5.8,0.5c2.8,0.8,5.5,3.5,5.5,3.5s-3.3,3.6-6.9,2.4S7.2,36.7,7.2,36.7z"/>
<path class="st2" d="M22.1,10c25.1,8-3.6,35.3-10.4,33.1S-3,2,22.1,10z"/>
<path class="st4" d="M13.6,36.1c4.7,1.4,0,3.5-1,3.3C11.7,39.1,8.9,34.7,13.6,36.1z"/>
<g>
	<path class="st4" d="M16.2,38c0,0,0.5-0.1,1.2-0.1c0.7,0,1.6,0,2.6,0.2c0.9,0.1,1.8,0.4,2.5,0.6c0.7,0.2,1.1,0.4,1.1,0.4
		s-0.5-0.1-1.2-0.2c-0.7-0.1-1.6-0.2-2.5-0.4c-0.9-0.1-1.8-0.3-2.5-0.4C16.7,38.1,16.2,38,16.2,38z"/>
</g>
<g>
	<path class="st4" d="M15.8,38.7c0,0,0.5,0.1,1.1,0.3c0.7,0.2,1.5,0.6,2.4,1c0.8,0.4,1.6,1,2.2,1.4c0.6,0.4,0.9,0.8,0.9,0.8
		s-0.4-0.2-1-0.5c-0.6-0.3-1.4-0.8-2.2-1.2c-0.8-0.4-1.6-0.9-2.2-1.2C16.2,39,15.8,38.7,15.8,38.7z"/>
</g>
<g>
	<path class="st4" d="M9.8,36.1c0,0-0.5-0.1-1.1-0.4c-0.7-0.2-1.5-0.5-2.4-0.8c-0.9-0.3-1.8-0.6-2.4-0.8c-0.7-0.2-1.1-0.4-1.1-0.4
		s0.5,0,1.2,0.1c0.7,0.1,1.6,0.3,2.5,0.6c0.9,0.3,1.7,0.7,2.4,1C9.4,35.8,9.8,36.1,9.8,36.1z"/>
</g>
<g>
	<path class="st4" d="M9.8,36.9c0,0-0.5,0-1.2,0C8,37,7.1,37,6.1,37c-0.9,0-1.8,0-2.5,0.1c-0.7,0-1.2,0-1.2,0s0.4-0.2,1.1-0.3
		c0.7-0.1,1.6-0.3,2.6-0.3c0.9,0,1.9,0.1,2.6,0.2C9.4,36.8,9.8,36.9,9.8,36.9z"/>
</g>
</svg>
