<?xml version="1.0" encoding="utf-8"?>
<!-- Generator: Adobe Illustrator 20.1.0, SVG Export Plug-In . SVG Version: 6.00 Build 0)  -->
<svg version="1.1" id="Layer_1" xmlns="http://www.w3.org/2000/svg" xmlns:xlink="http://www.w3.org/1999/xlink" x="0px" y="0px"
	 viewBox="0 0 102 102" style="enable-background:new 0 0 102 102;" xml:space="preserve">
<style type="text/css">
	.st0{clip-path:url(#SVGID_2_);}
	.st1{fill:#EADFCC;}
	.st2{fill:#58595B;}
	.st3{fill:#875D32;}
	.st4{fill:#99704A;}
	.st5{fill:#AA805E;}
	.st6{fill:#FFFFFF;}
	.st7{opacity:0.1;fill:#FFFFFF;enable-background:new    ;}
	.st8{opacity:0.1;enable-background:new    ;}
	.st9{opacity:0.13;fill:#FFFFFF;enable-background:new    ;}
	.st10{fill:url(#SVGID_3_);stroke:#FFFFFF;stroke-width:3;stroke-miterlimit:10;}
</style>
<g>
	<defs>
		<circle id="SVGID_1_" cx="51.4" cy="51" r="48.3"/>
	</defs>
	<clipPath id="SVGID_2_">
		<use xlink:href="#SVGID_1_"  style="overflow:visible;"/>
	</clipPath>
	<g class="st0">
		<g>
			<path class="st1" d="M42.8,88l-2.5,5.1l-9.9,3.8c-1.1,0.4-0.9,2,0.3,2.1l5.6,0.7l1.4,3.7c0.3,0.7,1.2,0.9,1.8,0.4l3.8-3.4
				l5.5,2.9c0.9,0.5,2-0.5,1.5-1.5l-3.5-7l2.9-5.5L42.8,88z"/>
			<path class="st2" d="M38.7,105.9c-0.2,0-0.4,0-0.7-0.1c-0.9-0.2-1.6-0.9-1.9-1.7l-1-2.7l-4.6-0.6c-1.3-0.2-2.3-1.1-2.4-2.4
				c-0.2-1.3,0.5-2.5,1.8-2.9l9.3-3.6l2.8-5.7l10.4,2.1L48.7,95l3.1,6.2c0.5,1.1,0.3,2.4-0.5,3.2c-0.9,0.8-2.2,1-3.3,0.5l-4.5-2.4
				l-2.9,2.7C40.1,105.6,39.4,105.9,38.7,105.9z M33.2,97.6l4.3,0.5L39,102l4-3.7L48,101l-3-6.1l2.3-4.3l-3.5-0.7l-2.2,4.5
				L33.2,97.6z"/>
		</g>
		<g>
			<path class="st1" d="M63.8,88l2.5,5.1l9.9,3.8c1.1,0.4,0.9,2-0.3,2.1l-5.6,0.7l-1.4,3.7c-0.3,0.7-1.2,0.9-1.8,0.4l-3.8-3.4
				l-5.5,2.9c-0.9,0.5-2-0.5-1.5-1.5l3.5-7l-2.9-5.5L63.8,88z"/>
			<path class="st2" d="M67.9,105.9c-0.7,0-1.3-0.3-1.9-0.7l-2.9-2.7l-4.5,2.4c-1.1,0.6-2.4,0.4-3.2-0.5c-0.9-0.9-1.1-2.2-0.5-3.2
				l3.1-6.2l-3.5-6.8l10.4-2.1l2.8,5.7l9.3,3.6c1.2,0.5,1.9,1.6,1.8,2.9c-0.2,1.3-1.1,2.3-2.4,2.4l-4.6,0.6l-1,2.7
				c-0.3,0.9-1.1,1.5-1.9,1.7C68.3,105.8,68.1,105.9,67.9,105.9z M63.6,98.4l4,3.7l1.4-3.8l4.3-0.5l-8.3-3.2l-2.2-4.5l-3.5,0.7
				l2.3,4.3l-3,6.1L63.6,98.4z"/>
		</g>
		<g>
			<path class="st3" d="M52.8,92.6c-43.2,0-24.1-45.1-24.1-45.1H77C77,47.5,96.1,92.6,52.8,92.6z"/>
			<path class="st2" d="M52.8,94.3c-12.4,0-21.1-3.7-25.9-10.9c-9.2-13.9-0.2-35.7,0.2-36.6l0.4-1h50.5l0.4,1
				c0.4,0.9,9.4,22.7,0.2,36.6C74,90.7,65.3,94.3,52.8,94.3z M29.9,49.2c-1.6,4.4-7.3,21.6-0.1,32.4c4.1,6.2,11.9,9.3,23.1,9.3
				s19-3.1,23.1-9.3c7.2-10.8,1.5-28.1-0.1-32.4H29.9z"/>
		</g>
		<g>
			<path class="st4" d="M36.7,57.3c0,0-9.5,27.4,16.9,27.4S69.5,57,69.5,57L36.7,57.3z"/>
		</g>
		<g>
			<polygon class="st5" points="39.3,62.3 43.5,62.3 41.4,64.6 			"/>
		</g>
		<g>
			<polygon class="st5" points="45,66.8 49.2,66.8 47.1,69.1 			"/>
		</g>
		<g>
			<polygon class="st5" points="52,63.4 56.2,63.4 54.1,65.8 			"/>
		</g>
		<g>
			<polygon class="st5" points="61.6,67.7 65.7,67.7 63.6,70.1 			"/>
		</g>
		<g>
			<polygon class="st5" points="54.1,70.9 58.3,70.9 56.2,73.2 			"/>
		</g>
		<g>
			<polygon class="st5" points="39.3,71.2 43.5,71.2 41.4,73.6 			"/>
		</g>
		<g>
			<polygon class="st5" points="48.4,74.3 52.5,74.3 50.4,76.7 			"/>
		</g>
		<g>
			<polygon class="st5" points="56.9,78.9 61,78.9 58.9,81.3 			"/>
		</g>
		<g>
			<polygon class="st5" points="43.9,78.9 48,78.9 45.9,81.3 			"/>
		</g>
		<g>
			<polygon class="st5" points="62.4,74.3 66.5,74.3 64.4,76.7 			"/>
		</g>
		<g>
			<polygon class="st5" points="63.1,61.9 67.3,61.9 65.2,64.2 			"/>
		</g>
		<g>
			<path class="st3" d="M35.3,54c0,0-0.4,13.8-2.8,21c-2.3,7.2-6.4,10.4-6.4,10.4s-7-8.2-5-21.7s6-19,6-19L35.3,54z"/>
			<path class="st2" d="M25.9,87.7l-1.1-1.2c-0.3-0.4-7.4-8.9-5.4-23c2-13.7,6.2-19.6,6.3-19.8l1.2-1.7L37,53.4l0,0.7
				c0,0.6-0.5,14.1-2.8,21.5c-2.5,7.6-6.7,11.1-6.9,11.2L25.9,87.7z M27.5,47.6c-1.3,2.6-3.4,7.8-4.7,16.4
				c-1.3,9.3,1.8,15.9,3.6,18.8c1.3-1.5,3.2-4.2,4.5-8.3c1.9-6,2.5-17.1,2.7-19.9L27.5,47.6z"/>
		</g>
		<g>
			<path class="st3" d="M70.8,54c0,0,0.4,13.8,2.8,21c2.3,7.2,6.4,10.4,6.4,10.4s7-8.2,5-21.7s-6-19-6-19L70.8,54z"/>
			<path class="st2" d="M80.1,87.7l-1.3-1c-0.2-0.1-4.5-3.6-6.9-11.2c-2.4-7.4-2.8-20.9-2.8-21.5l0-0.7L79,42l1.2,1.7
				c0.2,0.2,4.4,6.1,6.3,19.8c2,14.1-5.1,22.6-5.4,23L80.1,87.7z M72.5,54.6c0.1,2.8,0.7,13.9,2.7,19.9c1.3,4.2,3.3,6.9,4.5,8.3
				c1.7-2.8,4.9-9.5,3.6-18.8c-1.2-8.5-3.4-13.8-4.7-16.4L72.5,54.6z"/>
		</g>
		<g>
			<path class="st3" d="M81.3,25.1l1.2-16.9l-29.7,3.9L23.1,8.2l1.1,15.8c-0.3,1.3-0.5,2.6-0.5,4c0,2.2,0.5,4.2,1.3,6.1l0.1,1.7
				c0,13,12.4,23.6,27.7,23.6s27.7-10.6,27.7-23.6l0.2-2.8c0.5-1.5,0.8-3.2,0.8-4.9C81.6,26.9,81.5,26,81.3,25.1z"/>
			<path class="st2" d="M52.8,61c-16.2,0-29.4-11.3-29.4-25.3l-0.1-1.3c-0.9-2.1-1.3-4.2-1.3-6.5c0-1.4,0.2-2.8,0.5-4.1L21.3,6.2
				l31.5,4.2l31.5-4.2L83,25c0.2,1,0.3,2,0.3,3c0,1.8-0.3,3.5-0.9,5.3l-0.2,2.6C82.3,49.6,69.1,61,52.8,61z M25,10.1l1,14l-0.1,0.3
				c-0.3,1.2-0.5,2.4-0.5,3.5c0,1.9,0.4,3.7,1.1,5.4l0.1,0.3l0.1,2c0,12.2,11.7,22,26,22s26-9.8,26-21.9l0.3-3.4
				c0.5-1.4,0.7-2.9,0.7-4.4c0-0.8-0.1-1.7-0.2-2.6l0-0.2l1.1-15l-27.9,3.7L25,10.1z"/>
		</g>
		<g>
			<path class="st4" d="M65.6,13.6c-5.7,0-10.6,3.4-12.9,8.2c-2.3-4.8-7.2-8.2-12.9-8.2c-7.9,0-14.3,6.4-14.3,14.3
				c0,7.9,6.4,14.3,14.3,14.3c5.7,0,10.6-3.4,12.9-8.2c2.3,4.8,7.2,8.2,12.9,8.2c7.9,0,14.3-6.4,14.3-14.3
				C79.9,20,73.5,13.6,65.6,13.6z"/>
		</g>
		<g>
			<polygon class="st1" points="52.7,48.9 56.2,41.6 49.2,41.6 			"/>
		</g>
		<g>
			<g>
				<circle class="st6" cx="42" cy="27.7" r="5.8"/>
			</g>
			<g>
				<circle cx="42.3" cy="28.1" r="4.7"/>
			</g>
			<g>
				<circle class="st6" cx="40.1" cy="25.7" r="1.5"/>
			</g>
		</g>
		<g>
			<g>
				<circle class="st6" cx="63.7" cy="28.1" r="5.8"/>
			</g>
			<g>
				<circle cx="64.1" cy="28.5" r="4.7"/>
			</g>
			<g>
				<circle class="st6" cx="61.8" cy="26" r="1.5"/>
			</g>
		</g>
	</g>
</g>
<g>
	<path class="st7" d="M4.5,62.7C3.6,58.9,3.1,55,3.1,51c0-26.7,21.6-48.3,48.3-48.3c3.7,0,7.3,0.4,10.7,1.2
		C72.7,6.3,44.9-1,22.4,22.2S7.2,73.4,4.5,62.7z"/>
	<path class="st8" d="M99.7,51c0,26.7-21.6,48.3-48.3,48.3c-14.7,0-27.8-6.6-36.7-16.9c-4.3-5,31.4,8.1,54.3-13.8s13-55.3,16.6-51.8
		C94.3,25.6,99.7,37.7,99.7,51z"/>
	<circle class="st9" cx="26.9" cy="33.8" r="9"/>
	<circle class="st9" cx="32.5" cy="21.4" r="3.4"/>
	
		<radialGradient id="SVGID_3_" cx="51.4" cy="667" r="48.3" gradientTransform="matrix(1 0 0 1 0 -616)" gradientUnits="userSpaceOnUse">
		<stop  offset="0.4322" style="stop-color:#FFFFFF;stop-opacity:0"/>
		<stop  offset="0.9846" style="stop-color:#FFFFFF;stop-opacity:0.2919"/>
		<stop  offset="1" style="stop-color:#FFFFFF;stop-opacity:0.3"/>
	</radialGradient>
	<circle class="st10" cx="51.4" cy="51" r="48.3"/>
</g>
</svg>
