<?xml version="1.0" encoding="utf-8"?>
<!-- Generator: Adobe Illustrator 20.1.0, SVG Export Plug-In . SVG Version: 6.00 Build 0)  -->
<svg version="1.1" id="Layer_1" xmlns="http://www.w3.org/2000/svg" xmlns:xlink="http://www.w3.org/1999/xlink" x="0px" y="0px"
	 viewBox="0 0 60 60" style="enable-background:new 0 0 60 60;" xml:space="preserve">
<style type="text/css">
	.st0{fill:#EADFCC;stroke:#58595B;stroke-width:2;stroke-miterlimit:10;}
	.st1{fill:#875D32;stroke:#58595B;stroke-width:2;stroke-miterlimit:10;}
	.st2{fill:#99704A;}
	.st3{fill:#AA805E;}
	.st4{fill:#EADFCC;}
	.st5{fill:#FFFFFF;}
</style>
<path class="st0" d="M24,49.1l-1.5,3l-5.8,2.3c-0.6,0.2-0.5,1.2,0.2,1.2l3.3,0.4l0.8,2.2c0.2,0.4,0.7,0.6,1,0.3l2.3-2l3.3,1.7
	c0.6,0.3,1.2-0.3,0.9-0.9l-2.1-4.1l1.7-3.3L24,49.1z"/>
<path class="st0" d="M36.5,49.1l1.5,3l5.8,2.3c0.6,0.2,0.5,1.2-0.2,1.2L40.3,56l-0.8,2.2c-0.2,0.4-0.7,0.6-1,0.3l-2.3-2l-3.3,1.7
	c-0.6,0.3-1.2-0.3-0.9-0.9l2.1-4.1l-1.7-3.3L36.5,49.1z"/>
<path class="st1" d="M30,51.8c-25.6,0-14.3-26.7-14.3-26.7h28.5C44.3,25.1,55.5,51.8,30,51.8z"/>
<path class="st2" d="M20.4,30.9c0,0-5.6,16.2,10,16.2s9.4-16.3,9.4-16.3L20.4,30.9z"/>
<polygon class="st3" points="22,33.9 24.5,33.9 23.2,35.3 "/>
<polygon class="st3" points="25.4,36.5 27.8,36.5 26.6,37.9 "/>
<polygon class="st3" points="29.5,34.6 32,34.6 30.7,35.9 "/>
<polygon class="st3" points="35.1,37.1 37.6,37.1 36.4,38.5 "/>
<polygon class="st3" points="30.7,38.9 33.2,38.9 32,40.3 "/>
<polygon class="st3" points="22,39.2 24.5,39.2 23.2,40.6 "/>
<polygon class="st3" points="27.3,41 29.8,41 28.6,42.4 "/>
<polygon class="st3" points="32.4,43.7 34.8,43.7 33.6,45.1 "/>
<polygon class="st3" points="24.7,43.7 27.1,43.7 25.9,45.1 "/>
<polygon class="st3" points="35.6,41 38.1,41 36.9,42.4 "/>
<polygon class="st3" points="36.1,33.6 38.5,33.6 37.3,35 "/>
<path class="st1" d="M19.6,28.9c0,0-0.3,8.2-1.6,12.4s-3.8,6.1-3.8,6.1s-4.1-4.8-3-12.8s3.6-11.3,3.6-11.3L19.6,28.9z"/>
<path class="st1" d="M40.6,28.9c0,0,0.3,8.2,1.6,12.4c1.4,4.3,3.8,6.1,3.8,6.1s4.1-4.8,3-12.8s-3.6-11.3-3.6-11.3L40.6,28.9z"/>
<path class="st1" d="M46.8,11.9l0.7-10L30,4.2L12.4,1.9l0.7,9.3c-0.2,0.8-0.3,1.5-0.3,2.4c0,1.3,0.3,2.5,0.7,3.6l0.1,1
	c0,7.7,7.3,14,16.4,14s16.4-6.2,16.4-14l0.1-1.7c0.3-0.9,0.5-1.9,0.5-2.9C47,13,46.9,12.4,46.8,11.9z"/>
<path class="st2" d="M37.5,5.1c-3.4,0-6.3,2-7.6,4.8c-1.4-2.9-4.3-4.8-7.6-4.8c-4.7,0-8.5,3.8-8.5,8.5c0,4.7,3.8,8.5,8.5,8.5
	c3.4,0,6.3-2,7.6-4.8c1.4,2.9,4.3,4.8,7.6,4.8c4.7,0,8.5-3.8,8.5-8.5C46,8.9,42.2,5.1,37.5,5.1z"/>
<polygon class="st4" points="29.9,25.9 32,21.6 27.8,21.6 "/>
<g>
	<circle class="st5" cx="23.6" cy="13.4" r="3.4"/>
	<circle cx="23.8" cy="13.7" r="2.8"/>
	<circle class="st5" cx="22.5" cy="12.2" r="0.9"/>
</g>
<g>
	<circle class="st5" cx="36.4" cy="13.7" r="3.4"/>
	<circle cx="36.6" cy="13.9" r="2.8"/>
	<circle class="st5" cx="35.3" cy="12.4" r="0.9"/>
</g>
</svg>
