<?xml version="1.0" encoding="utf-8"?>
<!-- Generator: Adobe Illustrator 20.1.0, SVG Export Plug-In . SVG Version: 6.00 Build 0)  -->
<svg version="1.1" id="Layer_1" xmlns="http://www.w3.org/2000/svg" xmlns:xlink="http://www.w3.org/1999/xlink" x="0px" y="0px"
	 viewBox="0 0 60 60" style="enable-background:new 0 0 60 60;" xml:space="preserve">
<style type="text/css">
	.st0{fill:#E8D6C4;stroke:#58595B;stroke-width:2;stroke-miterlimit:10;}
	.st1{fill:#CEB69F;}
	.st2{fill:none;stroke:#58595B;stroke-width:2;stroke-miterlimit:10;}
	.st3{fill:#E8D6C4;stroke:#58595B;stroke-width:2;stroke-linecap:round;stroke-miterlimit:10;}
	.st4{fill:#FFFFFF;stroke:#58595B;stroke-width:2;stroke-miterlimit:10;}
	.st5{fill:#FFFFFF;}
	.st6{fill:#E8D6C4;}
	.st7{fill:#E8A3B7;}
	.st8{fill:#808285;}
</style>
<path class="st0" d="M49.2,49.4c-3.5,0.4-6.9,1.1-10.9,1.9c-0.2,0-0.3-0.2-0.2-0.4c1.2-3.6,4.9-8.4,0.4-14.8
	c-3.4-4.8-9.8-1.9-11,2.8c-2.4,9.1,2.7,17.2,2.7,17.2c0,0.7,0.6,1.2,1.2,1.2l24.9,0c0.4,0,0.7-0.3,0.7-0.7
	C56.9,52.1,55.6,48.6,49.2,49.4z"/>
<path class="st1" d="M53.8,57.1c0,0,0.4-1.5-0.4-3.6c-0.7-2.1-2.3-4.1-2.3-4.1s0.9,2.1,1.2,4.3s0.2,3.5,0.2,3.5L53.8,57.1z"/>
<path class="st1" d="M50.6,57.1c0,0,0.4-1.5-0.4-3.6c-0.7-2.1-2.3-4.1-2.3-4.1s0.9,2.1,1.2,4.3c0.4,2.2,0.2,3.5,0.2,3.5L50.6,57.1z"
	/>
<path class="st2" d="M49.2,49.4c-3.5,0.4-6.9,1.1-10.9,1.9c-0.2,0-0.3-0.2-0.2-0.4c1.2-3.6,4.9-8.4,0.4-14.8
	c-3.4-4.8-9.8-1.9-11,2.8c-2.4,9.1,2.7,17.2,2.7,17.2c0,0.7,0.6,1.2,1.2,1.2l24.9,0c0.4,0,0.7-0.3,0.7-0.7
	C56.9,52.1,55.6,48.6,49.2,49.4z"/>
<path class="st3" d="M30.8,37.2c0,0,5.1-1,7.4-1.8c3.2-1.2,5.3,0,6.3,0.6c1,0.6,1.5,2.4,0.4,3.2c-0.9,0.7-2.4,0.2-3,0
	c-0.1,0-0.2,0.1-0.1,0.1c0.6,0.5,1.3,2.2-0.4,3.1c-1.8,1-2.5-0.9-2.8-1.3c0,0-0.1,0-0.1,0c-0.1,0.3-0.1,1.6-1,1.9
	c-0.9,0.3-2.2-0.1-2.6-1.5c0,0,0-0.1-0.1-0.1l-3.4,0.2"/>
<path class="st4" d="M16,43.4c0,0,1.8-3.4-1.6-4.9c-3.1-1.4-5,1.7-5.3,2.2c0,0-0.1,0.1-0.1,0c-0.5-0.3-3.6-2.2-5.2,0.4
	c-1.6,2.5,1.2,4.3,1.9,4.7c0.1,0,0.1,0.1,0,0.1c-0.8,0.3-4.2,1.9-3,4.6c1.1,2.7,4.3,1.9,5,1.7c0.1,0,0.1,0,0.1,0.1
	c-0.1,0.6-0.5,3.1,2.4,4c3.3,1.1,5.1-3.5,5.1-3.5"/>
<path class="st0" d="M37.7,41.8c-2.7,8.8-8,15.8-13.5,14.6C12.9,54.2,13.8,45.7,15.6,37s8.9-14.5,15.6-13.1S40.3,33.3,37.7,41.8z"/>
<path class="st5" d="M27.1,32.1c0,0-4.1,9,1,12.8s8.3-0.1,8.3-0.1s2-1.9,1.9-7c-0.1-5.1-0.6-7.1-0.6-7.1S35.9,32,33,32.3
	C30.1,32.7,27.1,32.1,27.1,32.1z"/>
<path class="st2" d="M37.7,41.8c-2.7,8.8-8,15.8-13.5,14.6C12.9,54.2,13.8,45.7,15.6,37s8.9-14.5,15.6-13.1S40.3,33.3,37.7,41.8z"/>
<ellipse class="st0" cx="30.5" cy="17.9" rx="16.7" ry="14.5"/>
<g>
	<circle class="st5" cx="25.1" cy="14" r="4.4"/>
	<circle cx="25.4" cy="14.3" r="3.6"/>
	<circle class="st5" cx="23.7" cy="12.5" r="1.2"/>
</g>
<g>
	<circle class="st5" cx="36.7" cy="14.3" r="4.4"/>
	<circle cx="36.9" cy="14.6" r="3.6"/>
	<circle class="st5" cx="35.2" cy="12.7" r="1.2"/>
</g>
<polygon class="st6" points="18.7,7.5 22.8,8.8 25.5,6.5 22.3,3.2 "/>
<path class="st3" d="M25.1,4.6c0,0-9.5-4.5-13.7,6.4S2,28.8,6,32.4s10,2.7,11.8-1.6c1.9-4.3,0.9-20.7,0.7-22.1
	c-0.2-1.5,2.3-0.8,2.3-0.8"/>
<polygon class="st6" points="38.8,4.2 36.6,6.7 41.6,10.6 42.9,7.7 "/>
<path class="st3" d="M36.7,4.9c0,0,8.3-5,12.5,5.9s9.9,18.7,6,22.2c-3.9,3.5-9.4,3-11.3-1.2S42.8,10.6,43,9.1
	c0.2-1.5-2.3-0.8-2.3-0.8"/>
<ellipse class="st5" cx="30.7" cy="25.4" rx="6.3" ry="5.3"/>
<path class="st7" d="M30.7,19.3c6.1,0,1.2,4.6,0,4.6S24.7,19.3,30.7,19.3z"/>
<path class="st8" d="M30.7,25.5c0,0-0.6,1.8-1.9,1.9c-1.3,0.1-2-0.4-2-0.4s1.1,1,3.7,1s3.7-0.9,3.7-0.9s-1.7,0.5-2.5,0
	C30.8,26.5,30.7,25.5,30.7,25.5z"/>
<circle class="st8" cx="27.8" cy="24.4" r="0.5"/>
<circle class="st8" cx="33.5" cy="24.3" r="0.5"/>
<circle class="st8" cx="34.8" cy="23.4" r="0.5"/>
<circle class="st8" cx="35.6" cy="24.9" r="0.5"/>
<circle class="st8" cx="26" cy="25.3" r="0.5"/>
<circle class="st8" cx="26.3" cy="23.6" r="0.5"/>
<path class="st3" d="M25.3,39.6c0,0,4.6-2.4,6.6-3.9c2.7-2.1,5.1-1.6,6.2-1.3c1.2,0.3,2.1,1.8,1.3,3c-0.6,0.9-2.2,0.9-2.9,0.9
	c-0.1,0-0.2,0.1-0.1,0.2c0.7,0.3,1.9,1.7,0.5,3.1c-1.4,1.4-2.7-0.2-3.1-0.4c0,0-0.1,0-0.1,0c0,0.4,0.4,1.5-0.4,2.1
	c-0.8,0.6-2.1,0.5-2.9-0.7c0,0-0.1,0-0.1,0l-3.2,1.2"/>
<path class="st0" d="M32.8,49.4c-3.5,0.4-9,2-13,2.8c-0.2,0-0.4-0.2-0.2-0.4c1.7-2.7,8.6-5.1,8.2-12.1s-7.9-8.3-12.7-1.4
	s-1.3,17.8-1.3,17.8c0,0.7,0.6,1.2,1.2,1.2l24.9,0c0.4,0,0.7-0.3,0.7-0.7C40.5,52.1,39.2,48.6,32.8,49.4z"/>
<path class="st1" d="M37.3,57.1c0,0,0.4-1.5-0.4-3.6c-0.7-2.1-2.3-4.1-2.3-4.1s0.9,2.1,1.2,4.3s0.2,3.5,0.2,3.5L37.3,57.1z"/>
<path class="st1" d="M34.2,57.1c0,0,0.4-1.5-0.4-3.6c-0.7-2.1-2.3-4.1-2.3-4.1s0.9,2.1,1.2,4.3c0.4,2.2,0.2,3.5,0.2,3.5L34.2,57.1z"
	/>
<path class="st2" d="M32.8,49.4c-3.5,0.4-9,2-13,2.8c-0.2,0-0.4-0.2-0.2-0.4c1.7-2.7,8.6-5.1,8.2-12.1s-7.9-8.3-12.7-1.4
	s-1.3,17.8-1.3,17.8c0,0.7,0.6,1.2,1.2,1.2l24.9,0c0.4,0,0.7-0.3,0.7-0.7C40.5,52.1,39.2,48.6,32.8,49.4z"/>
</svg>
