<?xml version="1.0" encoding="utf-8"?>
<!-- Generator: Adobe Illustrator 20.1.0, SVG Export Plug-In . SVG Version: 6.00 Build 0)  -->
<svg version="1.1" id="Layer_1" xmlns="http://www.w3.org/2000/svg" xmlns:xlink="http://www.w3.org/1999/xlink" x="0px" y="0px"
	 viewBox="0 0 102 102" style="enable-background:new 0 0 102 102;" xml:space="preserve">
<style type="text/css">
	.st0{clip-path:url(#SVGID_2_);}
	.st1{fill:#E8D6C4;}
	.st2{fill:#58595B;}
	.st3{fill:#CEB69F;}
	.st4{fill:#FFFFFF;}
	.st5{fill:#E8A3B7;}
	.st6{fill:#808285;}
	.st7{opacity:0.1;fill:#FFFFFF;enable-background:new    ;}
	.st8{opacity:0.1;enable-background:new    ;}
	.st9{opacity:0.13;fill:#FFFFFF;enable-background:new    ;}
	.st10{fill:url(#SVGID_3_);stroke:#FFFFFF;stroke-width:3;stroke-miterlimit:10;}
</style>
<g>
	<defs>
		<circle id="SVGID_1_" cx="51.4" cy="51" r="48.3"/>
	</defs>
	<clipPath id="SVGID_2_">
		<use xlink:href="#SVGID_1_"  style="overflow:visible;"/>
	</clipPath>
	<g class="st0">
		<g>
			<path class="st1" d="M82.5,87.4c-5.8,0.6-11.3,1.8-17.8,3.1c-0.3,0.1-0.5-0.3-0.4-0.6c2-5.9,8-13.8,0.6-24.2
				c-5.6-7.9-15.9-3.1-18,4.5c-4,14.8,4.4,28.1,4.4,28.1c0,1.1,0.9,2,2,2H94c0.6,0,1.1-0.5,1.1-1.1C95.2,91.9,93,86.3,82.5,87.4z"/>
			<path class="st2" d="M94,102.1H53.4c-1.9,0-3.4-1.4-3.6-3.2c-1.4-2.3-8.2-14.9-4.4-29.1c1.3-4.8,5.5-8.7,10.3-9.6
				c4.1-0.7,8,0.9,10.6,4.6c6.5,9.3,3.3,16.8,0.9,22.4c-0.2,0.4-0.4,0.9-0.6,1.3l0.1,0c5.6-1.1,10.5-2.1,15.6-2.7
				c4.9-0.5,8.4,0.3,10.9,2.4c3.3,2.9,3.6,7.7,3.6,11C96.8,100.8,95.6,102.1,94,102.1z M57.6,63.3c-0.4,0-0.9,0-1.3,0.1
				c-3.6,0.6-6.8,3.6-7.7,7.2c-3.7,13.9,4.1,26.7,4.2,26.9l0.2,0.4l0,0.5c0,0.2,0.2,0.4,0.4,0.4h40.1c-0.1-4-0.9-6.6-2.5-8.1
				c-1.7-1.5-4.4-2.1-8.3-1.6l0,0c-5,0.6-9.8,1.5-15.3,2.6L65,92.1c-0.7,0.1-1.4-0.1-1.9-0.6c-0.5-0.6-0.6-1.4-0.4-2.1
				c0.4-1.1,0.9-2.3,1.4-3.5c2.3-5.4,4.9-11.4-0.6-19.2C62,64.5,59.9,63.3,57.6,63.3z"/>
		</g>
		<g>
			<path class="st3" d="M90,100.1c0,0,0.6-2.4-0.6-5.9s-3.8-6.8-3.8-6.8s1.5,3.4,2,7.1c0.6,3.6,0.4,5.7,0.4,5.7L90,100.1z"/>
		</g>
		<g>
			<path class="st3" d="M84.9,100.1c0,0,0.6-2.4-0.6-5.9c-1.1-3.4-3.8-6.8-3.8-6.8s1.5,3.4,2,7.1c0.6,3.6,0.4,5.7,0.4,5.7
				L84.9,100.1z"/>
		</g>
		<g>
			<path class="st2" d="M94,102.1H53.4c-1.9,0-3.4-1.4-3.6-3.2c-1.4-2.3-8.2-14.9-4.4-29.1c1.3-4.8,5.5-8.7,10.3-9.6
				c4.1-0.7,8,0.9,10.6,4.6c6.5,9.3,3.3,16.8,0.9,22.4c-0.2,0.4-0.4,0.9-0.6,1.3l0.1,0c5.6-1.1,10.5-2.1,15.6-2.7
				c4.9-0.5,8.4,0.3,10.9,2.4c3.3,2.9,3.6,7.7,3.6,11C96.8,100.8,95.6,102.1,94,102.1z M57.6,63.3c-0.4,0-0.9,0-1.3,0.1
				c-3.6,0.6-6.8,3.6-7.7,7.2c-3.7,13.9,4.1,26.7,4.2,26.9l0.2,0.4l0,0.5c0,0.2,0.2,0.4,0.4,0.4h40.1c-0.1-4-0.9-6.6-2.5-8.1
				c-1.7-1.5-4.4-2.1-8.3-1.6l0,0c-5,0.6-9.8,1.5-15.3,2.6L65,92.1c-0.7,0.1-1.4-0.1-1.9-0.6c-0.5-0.6-0.6-1.4-0.4-2.1
				c0.4-1.1,0.9-2.3,1.4-3.5c2.3-5.4,4.9-11.4-0.6-19.2C62,64.5,59.9,63.3,57.6,63.3z"/>
		</g>
		<g>
			<path class="st1" d="M52.4,67.5c0,0,8.4-1.6,12.1-2.9c5.3-1.9,8.7-0.1,10.4,1s2.4,3.8,0.7,5.3c-1.4,1.2-3.9,0.3-5-0.1
				c-0.1,0-0.3,0.1-0.2,0.2c1,0.9,2.1,3.5-0.7,5.1c-2.9,1.6-4.1-1.5-4.6-2.1c-0.1-0.1-0.1,0-0.2,0c-0.1,0.6-0.2,2.6-1.7,3.1
				c-1.5,0.6-3.6-0.2-4.2-2.5c0-0.1-0.1-0.1-0.1-0.1l-5.5,0.3"/>
			<path class="st2" d="M62.2,79c-0.7,0-1.5-0.2-2.1-0.5c-0.9-0.5-1.7-1.2-2.2-2.2l-4.5,0.2c-0.9,0.1-1.7-0.6-1.7-1.5
				c0-0.9,0.6-1.7,1.5-1.7l6.8-0.3l0.5,1.3c0.2,0.6,0.5,1.1,1,1.3c0.4,0.2,0.8,0.2,1.1,0.1c0.4-0.1,0.5-1,0.6-1.5
				c0-0.2,0.1-0.4,0.1-0.5l0.2-1l2-0.5l0.8,0.8c0.1,0.1,0.3,0.4,0.5,0.7c1,1.5,1.3,1.5,2.1,1.1c0.9-0.5,0.9-1,1-1.1
				c0.1-0.6-0.3-1.2-0.5-1.4l-1-0.9l0.7-1.3c0.4-0.8,1.4-1.1,2.2-0.8c2.3,0.8,3.1,0.6,3.4,0.3c0.1-0.1,0.5-0.4,0.4-1.1
				c0-0.6-0.4-1.3-0.9-1.6c-1.3-0.8-4.2-2.6-9-0.8c-3.8,1.4-12,2.9-12.4,3c-0.9,0.2-1.7-0.4-1.9-1.3c-0.2-0.9,0.4-1.7,1.3-1.9
				c0.1,0,8.3-1.6,11.9-2.8c5.6-2,9.4-0.3,11.8,1.1c1.4,0.8,2.4,2.5,2.5,4.2c0.1,1.5-0.5,2.9-1.6,3.8c-1,0.8-2.3,1-3.5,0.9
				c0,0.3,0,0.6,0,0.9c-0.1,1.1-0.7,2.5-2.6,3.6c-1.8,1-3.4,0.9-4.9-0.3c-0.4,0.6-1,1.1-1.8,1.4C63.3,78.9,62.7,79,62.2,79z"/>
		</g>
		<g>
			<path class="st4" d="M28.3,77.7c0,0,3-5.5-2.6-8c-5.1-2.3-8.2,2.8-8.7,3.6c0,0.1-0.1,0.1-0.2,0C16,72.8,11,69.7,8.2,74
				c-2.6,4.1,2,7,3.1,7.7c0.1,0.1,0.1,0.2,0,0.2c-1.3,0.5-6.8,3.1-5,7.5c1.8,4.4,7,3.1,8.1,2.7c0.1,0,0.2,0.1,0.2,0.1
				c-0.2,1-0.8,5,4,6.6C24.1,100.6,27,93,27,93"/>
			<path class="st2" d="M20.3,100.7c-0.7,0-1.4-0.1-2.2-0.4c-3.6-1.2-5-3.8-5.2-6.3c-3.1,0.4-6.6-0.5-8.1-4.1
				c-0.6-1.5-0.7-3.1-0.1-4.5c0.7-1.8,2.2-3,3.6-3.9c-1-0.9-2.1-2.2-2.5-3.7c-0.4-1.6-0.1-3.2,0.9-4.7c1-1.5,2.3-2.5,4-2.8
				c2.1-0.4,4.2,0.3,5.6,1c2.1-2.8,5.7-5,10-3.1c2,0.9,3.4,2.3,4,4.1c1,3-0.5,5.9-0.7,6.2l-2.9-1.6l1.4,0.8l-1.4-0.8
				c0,0,1-1.9,0.4-3.6c-0.3-0.9-1-1.6-2.2-2.1c-3.7-1.6-6,1.8-6.6,3l-0.4,0.6L17.3,75c-0.5,0.1-1,0-1.4-0.2c-1.2-0.8-3-1.6-4.4-1.3
				c-0.8,0.2-1.4,0.6-1.9,1.4C9.1,75.6,9,76.3,9.1,77c0.3,1.3,1.8,2.5,3,3.2l0.9,0.5l0,1.1c0,0.7-0.5,1.3-1.1,1.5
				c-1.5,0.6-3.5,1.9-4.1,3.3c-0.3,0.6-0.2,1.3,0.1,2c1.3,3,5,2.1,6.2,1.8l0.9-0.3l0.8,0.7c0.5,0.4,0.7,1.1,0.5,1.7
				c-0.3,1.3-0.3,3.6,2.9,4.7c3.8,1.3,6.2-4.8,6.3-4.8l3.1,1.2C27.5,96.3,24.6,100.7,20.3,100.7z"/>
		</g>
		<g>
			<path class="st1" d="M63.7,75.2c-4.4,14.3-13.1,25.7-22,23.9c-18.5-3.8-17.1-17.6-14-31.8s14.5-23.8,25.5-21.4S68,61.3,63.7,75.2
				z"/>
			<path class="st2" d="M43.6,100.9c-0.7,0-1.5-0.1-2.2-0.2c-6.8-1.4-11.5-4.1-14.2-8.4c-4.5-6.9-2.9-16.7-1-25.3
				c3.3-15.1,15.6-25.2,27.5-22.6c4.5,1,8.2,3.6,10.5,7.7c3.5,6,4,14.7,1.2,23.6C61.2,88.6,53.1,100.9,43.6,100.9z M49.8,47.2
				c-9.1,0-17.9,8.5-20.5,20.5c-1.7,8-3.3,17,0.6,22.9c2.3,3.5,6.2,5.8,12.2,7c7.2,1.5,15.5-7.9,20.1-22.8l0,0
				c2.5-8.1,2.2-15.8-0.9-21c-1.9-3.3-4.7-5.3-8.4-6.1C51.9,47.3,50.8,47.2,49.8,47.2z"/>
		</g>
		<g>
			<path class="st4" d="M46.4,59.2c0,0-6.7,14.7,1.6,21s13.6-0.1,13.6-0.1s3.3-3.1,3.1-11.4c-0.1-8.3-1-11.6-1-11.6s-3,2-7.8,2.6
				S46.4,59.2,46.4,59.2z"/>
		</g>
		<g>
			<path class="st2" d="M43.6,100.9c-0.7,0-1.5-0.1-2.2-0.2c-6.8-1.4-11.5-4.1-14.2-8.4c-4.5-6.9-2.9-16.7-1-25.3
				c3.3-15.1,15.6-25.2,27.5-22.6c4.5,1,8.2,3.6,10.5,7.7c3.5,6,4,14.7,1.2,23.6C61.2,88.6,53.1,100.9,43.6,100.9z M49.8,47.2
				c-9.1,0-17.9,8.5-20.5,20.5c-1.7,8-3.3,17,0.6,22.9c2.3,3.5,6.2,5.8,12.2,7c7.2,1.5,15.5-7.9,20.1-22.8l0,0
				c2.5-8.1,2.2-15.8-0.9-21c-1.9-3.3-4.7-5.3-8.4-6.1C51.9,47.3,50.8,47.2,49.8,47.2z"/>
		</g>
		<g>
			<ellipse class="st1" cx="51.9" cy="36" rx="27.3" ry="23.7"/>
			<path class="st2" d="M51.9,61.3C36,61.3,23,50,23,36s13-25.3,28.9-25.3S80.8,22,80.8,36S67.8,61.3,51.9,61.3z M51.9,13.9
				c-14.1,0-25.6,9.9-25.6,22.1C26.3,48.2,37.8,58,51.9,58S77.5,48.2,77.5,36C77.5,23.8,66,13.9,51.9,13.9z"/>
		</g>
		<g>
			<g>
				<circle class="st4" cx="43.1" cy="29.7" r="7.2"/>
			</g>
			<g>
				<circle cx="43.6" cy="30.2" r="5.8"/>
			</g>
			<g>
				<circle class="st4" cx="40.8" cy="27.2" r="1.9"/>
			</g>
		</g>
		<g>
			<g>
				<circle class="st4" cx="62.1" cy="30.2" r="7.2"/>
			</g>
			<g>
				<circle cx="62.5" cy="30.6" r="5.8"/>
			</g>
			<g>
				<circle class="st4" cx="59.7" cy="27.6" r="1.9"/>
			</g>
		</g>
		<g>
			<polygon class="st1" points="32.6,19 39.3,21.2 43.8,17.4 38.6,12 			"/>
		</g>
		<g>
			<path class="st1" d="M43.2,14.3c0,0-15.5-7.4-22.5,10.5S5.4,53.9,11.9,59.7s16.3,4.4,19.4-2.5s1.5-33.8,1.2-36.2s3.7-1.4,3.7-1.4
				"/>
			<path class="st2" d="M21.1,64.9c-3.7,0-7.4-1.4-10.3-4c-5.7-5.1-2-13.1,3-24.2c1.7-3.7,3.6-7.9,5.4-12.5c2.4-6,5.9-10,10.6-11.9
				c7-2.8,13.8,0.4,14.1,0.5c0.8,0.4,1.2,1.4,0.8,2.2c-0.4,0.8-1.4,1.2-2.2,0.8c-0.1-0.1-5.9-2.7-11.5-0.4c-3.8,1.5-6.7,4.9-8.7,10
				c-1.8,4.7-3.8,8.9-5.5,12.7c-5,11.1-7.5,17.1-3.8,20.4c2.9,2.6,6.9,3.7,10.5,3c2.9-0.6,5.2-2.4,6.3-4.9
				c2.7-6.3,1.5-32.2,1.1-35.3c-0.1-1,0.2-1.9,0.9-2.6c1.5-1.3,4.1-0.8,4.9-0.6c0.9,0.2,1.4,1.1,1.2,2c-0.2,0.9-1.1,1.4-2,1.2
				c-0.6-0.1-1.3-0.2-1.7-0.2c0.3,3.6,1.9,29.4-1.3,36.8c-1.5,3.5-4.7,6-8.6,6.8C23.1,64.8,22.1,64.9,21.1,64.9z"/>
		</g>
		<g>
			<polygon class="st1" points="65.6,13.7 62,17.7 70.1,24.2 72.2,19.4 			"/>
		</g>
		<g>
			<path class="st1" d="M62.1,14.8c0,0,13.5-8.2,20.5,9.6c7,17.8,16.2,30.6,9.8,36.3s-15.4,4.9-18.5-2c-3.1-7-1.9-34.6-1.5-36.9
				s-3.7-1.4-3.7-1.4"/>
			<path class="st2" d="M83.1,66.2c-0.9,0-1.8-0.1-2.7-0.3c-3.6-0.8-6.5-3.1-8-6.6c-3.2-7.2-2.1-33.8-1.7-37.5c-0.4,0-1.2,0-1.7,0.2
				c-0.9,0.2-1.8-0.3-2-1.2c-0.2-0.9,0.3-1.8,1.2-2c0.8-0.2,3.4-0.7,4.9,0.6c0.7,0.6,1,1.5,0.9,2.6c-0.4,2.9-1.4,29.6,1.4,36
				c1.1,2.5,3.1,4.1,5.7,4.7c3.4,0.7,7.2-0.5,10.2-3.2c3.8-3.4,0.4-10.8-4.4-21.1c-1.9-4-4-8.6-5.9-13.5c-2.1-5.4-5-8.7-8.6-9.9
				c-4.9-1.6-9.5,1.1-9.5,1.1c-0.8,0.5-1.8,0.2-2.2-0.5c-0.5-0.8-0.2-1.8,0.5-2.2c0.2-0.1,6-3.6,12.3-1.4c4.6,1.5,8.1,5.5,10.6,11.8
				c1.9,4.8,4,9.3,5.8,13.3c5.3,11.5,9.2,19.9,3.6,24.9C90.4,64.7,86.7,66.2,83.1,66.2z"/>
		</g>
		<g>
			<ellipse class="st4" cx="52.3" cy="48.3" rx="10.3" ry="8.7"/>
		</g>
		<g>
			<path class="st5" d="M52.4,38.3c9.9,0,2,7.6,0,7.6S42.5,38.3,52.4,38.3z"/>
		</g>
		<g>
			<path class="st6" d="M52.3,48.5c0,0-0.9,3-3.1,3.1c-2.1,0.2-3.3-0.7-3.3-0.7s1.9,1.6,6.1,1.6s6-1.5,6-1.5s-2.7,0.8-4.2,0
				C52.5,50.2,52.3,48.5,52.3,48.5z"/>
		</g>
		<g>
			<circle class="st6" cx="47.6" cy="46.6" r="0.8"/>
		</g>
		<g>
			<circle class="st6" cx="56.9" cy="46.5" r="0.8"/>
		</g>
		<g>
			<circle class="st6" cx="59" cy="45.1" r="0.8"/>
		</g>
		<g>
			<circle class="st6" cx="60.3" cy="47.5" r="0.8"/>
		</g>
		<g>
			<circle class="st6" cx="44.6" cy="48.1" r="0.8"/>
		</g>
		<g>
			<circle class="st6" cx="45.1" cy="45.3" r="0.8"/>
		</g>
		<g>
			<path class="st1" d="M43.5,71.6c0,0,7.6-4,10.7-6.4c4.5-3.4,8.3-2.6,10.2-2.1c1.9,0.5,3.5,3,2.2,4.9c-1,1.5-3.7,1.5-4.8,1.4
				c-0.1,0-0.3,0.2-0.1,0.3c1.2,0.5,3.1,2.7,0.8,5.1s-4.3-0.3-5-0.7c-0.1,0-0.1,0-0.1,0.1c0,0.6,0.6,2.5-0.7,3.5
				c-1.3,1-3.5,0.9-4.8-1.1c0,0-0.1-0.1-0.1-0.1l-5.2,1.9"/>
			<path class="st2" d="M46.5,80c-0.7,0-1.3-0.4-1.5-1.1c-0.3-0.8,0.1-1.8,1-2.1l6.4-2.4l0.9,1.1c0.4,0.5,0.8,0.9,1.3,0.9
				c0.4,0.1,0.8,0,1.1-0.2c0.3-0.2,0.2-1.2,0.1-1.6c0-0.2-0.1-0.4-0.1-0.5l-0.1-1l0.9-0.6c0.6-0.3,1.2-0.3,1.8,0
				c0.2,0.1,0.4,0.3,0.7,0.5c1.4,1.2,1.7,1.1,2.3,0.4c0.7-0.7,0.6-1.2,0.6-1.3c-0.1-0.6-0.6-1-0.9-1.1l-1.2-0.6l0.3-1.4
				c0.2-0.8,1-1.4,1.9-1.4c2.4,0.1,3.1-0.4,3.3-0.7c0.1-0.1,0.3-0.5,0.1-1.1c-0.2-0.6-0.8-1.1-1.3-1.2c-1.4-0.4-4.8-1.2-8.8,1.8
				C52,69,44.6,72.9,44.3,73c-0.8,0.4-1.8,0.1-2.2-0.7c-0.4-0.8-0.1-1.8,0.7-2.2c0.1,0,7.5-3.9,10.5-6.2c4.7-3.6,8.9-3.1,11.6-2.4
				c1.6,0.4,3,1.7,3.6,3.2c0.5,1.4,0.4,2.9-0.4,4.1c-0.7,1.1-1.9,1.7-3.1,1.9c0.1,0.3,0.2,0.5,0.2,0.8c0.2,1,0.1,2.6-1.4,4.2
				c-1.4,1.5-3,1.8-4.7,1.1c-0.2,0.7-0.6,1.4-1.3,1.9c-1,0.8-2.3,1.1-3.6,0.9c-1-0.2-2-0.7-2.7-1.4l-4.2,1.5
				C46.9,80,46.7,80,46.5,80z"/>
		</g>
		<g>
			<path class="st1" d="M55.7,87.4C49.9,88.1,41,90.8,34.5,92c-0.3,0.1-0.6-0.3-0.4-0.6c2.8-4.4,14-8.3,13.4-19.8S34.6,58,26.7,69.4
				s-2.1,29-2.1,29c0,1.1,0.9,2,2,2h40.6c0.6,0,1.1-0.5,1.1-1.1C68.4,91.9,66.2,86.3,55.7,87.4z"/>
			<path class="st2" d="M67.2,102.1H26.6c-1.9,0-3.5-1.5-3.7-3.4c-0.7-2.2-5.5-19,2.4-30.3c4.4-6.3,10.7-9.3,16.1-7.8
				c4.5,1.3,7.3,5.4,7.7,10.9c0.5,8.9-5.4,13.6-9.7,17.1c-0.4,0.3-0.7,0.6-1.1,0.9c1.3-0.3,2.6-0.6,4-1c4.7-1.1,9.6-2.3,13.2-2.7
				l0,0c4.9-0.5,8.4,0.3,10.9,2.4c3.3,2.9,3.6,7.7,3.6,11C70,100.8,68.8,102.1,67.2,102.1z M38.6,63.5C35,63.5,31,66,28,70.3
				c-7.3,10.5-2,27.4-1.9,27.6l0.1,0.5c0,0.2,0.2,0.4,0.4,0.4h40.1c-0.1-4-0.9-6.6-2.5-8.1c-1.7-1.5-4.4-2.1-8.3-1.6l0,0
				c-3.5,0.4-8.2,1.5-12.8,2.7c-3,0.7-5.7,1.4-8.2,1.9c-0.8,0.2-1.6-0.2-2.1-0.8c-0.5-0.7-0.5-1.5,0-2.2c1-1.6,2.7-2.9,4.6-4.4
				c4.2-3.4,8.9-7.2,8.5-14.4c-0.2-4.2-2.2-7.1-5.3-8C39.9,63.6,39.2,63.5,38.6,63.5z"/>
		</g>
		<g>
			<path class="st3" d="M63.1,100.1c0,0,0.6-2.4-0.6-5.9c-1.1-3.4-3.8-6.8-3.8-6.8s1.5,3.4,2,7.1c0.6,3.6,0.4,5.7,0.4,5.7
				L63.1,100.1z"/>
		</g>
		<g>
			<path class="st3" d="M58,100.1c0,0,0.6-2.4-0.6-5.9c-1.1-3.4-3.8-6.8-3.8-6.8s1.5,3.4,2,7.1c0.6,3.6,0.4,5.7,0.4,5.7L58,100.1z"
				/>
		</g>
		<g>
			<path class="st2" d="M67.2,102.1H26.6c-1.9,0-3.5-1.5-3.7-3.4c-0.7-2.2-5.5-19,2.4-30.3c4.4-6.3,10.7-9.3,16.1-7.8
				c4.5,1.3,7.3,5.4,7.7,10.9c0.5,8.9-5.4,13.6-9.7,17.1c-0.4,0.3-0.7,0.6-1.1,0.9c1.3-0.3,2.6-0.6,4-1c4.7-1.1,9.6-2.3,13.2-2.7
				l0,0c4.9-0.5,8.4,0.3,10.9,2.4c3.3,2.9,3.6,7.7,3.6,11C70,100.8,68.8,102.1,67.2,102.1z M38.6,63.5C35,63.5,31,66,28,70.3
				c-7.3,10.5-2,27.4-1.9,27.6l0.1,0.5c0,0.2,0.2,0.4,0.4,0.4h40.1c-0.1-4-0.9-6.6-2.5-8.1c-1.7-1.5-4.4-2.1-8.3-1.6l0,0
				c-3.5,0.4-8.2,1.5-12.8,2.7c-3,0.7-5.7,1.4-8.2,1.9c-0.8,0.2-1.6-0.2-2.1-0.8c-0.5-0.7-0.5-1.5,0-2.2c1-1.6,2.7-2.9,4.6-4.4
				c4.2-3.4,8.9-7.2,8.5-14.4c-0.2-4.2-2.2-7.1-5.3-8C39.9,63.6,39.2,63.5,38.6,63.5z"/>
		</g>
	</g>
</g>
<g>
	<path class="st7" d="M4.5,62.7C3.6,58.9,3.1,55,3.1,51c0-26.7,21.6-48.3,48.3-48.3c3.7,0,7.3,0.4,10.7,1.2
		C72.7,6.3,44.9-1,22.4,22.2S7.2,73.4,4.5,62.7z"/>
	<path class="st8" d="M99.7,51c0,26.7-21.6,48.3-48.3,48.3c-14.7,0-27.8-6.6-36.7-16.9c-4.3-5,31.4,8.1,54.3-13.8s13-55.3,16.6-51.8
		C94.3,25.6,99.7,37.7,99.7,51z"/>
	<circle class="st9" cx="26.9" cy="33.8" r="9"/>
	<circle class="st9" cx="32.5" cy="21.4" r="3.4"/>
	
		<radialGradient id="SVGID_3_" cx="51.4" cy="667" r="48.3" gradientTransform="matrix(1 0 0 1 0 -616)" gradientUnits="userSpaceOnUse">
		<stop  offset="0.4322" style="stop-color:#FFFFFF;stop-opacity:0"/>
		<stop  offset="0.9846" style="stop-color:#FFFFFF;stop-opacity:0.2919"/>
		<stop  offset="1" style="stop-color:#FFFFFF;stop-opacity:0.3"/>
	</radialGradient>
	<circle class="st10" cx="51.4" cy="51" r="48.3"/>
</g>
</svg>
