<?xml version="1.0" encoding="utf-8"?>
<!-- Generator: Adobe Illustrator 20.1.0, SVG Export Plug-In . SVG Version: 6.00 Build 0)  -->
<svg version="1.1" id="Layer_1" xmlns="http://www.w3.org/2000/svg" xmlns:xlink="http://www.w3.org/1999/xlink" x="0px" y="0px"
	 viewBox="0 0 60 60" style="enable-background:new 0 0 60 60;" xml:space="preserve">
<style type="text/css">
	.st0{fill:#58595B;stroke:#414042;stroke-width:2;stroke-miterlimit:10;}
	.st1{fill:#808285;stroke:#414042;stroke-width:2;stroke-miterlimit:10;}
	.st2{fill:#231F20;}
	.st3{fill:#EDEDED;}
	.st4{fill:#58595B;}
	.st5{fill:none;stroke:#414042;stroke-width:2;stroke-miterlimit:10;}
	.st6{fill:#FFFFFF;}
</style>
<path class="st0" d="M15.9,35.3C14.9,42,18,49.6,32.8,47.5S52.4,38.6,52,35.1s-7.7-8.8-19.3-8.5S16.9,29,15.9,35.3z"/>
<path class="st1" d="M35.6,43.8c-10.9,1.3-15.5-6.8-24.1-6.3s-12.1,13,0,15.6c12.1,2.6,27.5,1.5,35.2-2.1c8.2-3.8,11.7-9,10.3-13.5
	c-1.3-4.5-6.5-5.7-7.2-5.8c-0.6-0.1,3,2.4,1.8,4.3C49.7,38.9,43.8,42.8,35.6,43.8z"/>
<path class="st0" d="M47.2,19.1l2.4-10.5c0.4-2-1.3-3.6-2.9-2.8l-9.6,5"/>
<path class="st0" d="M11.5,19.1L9.1,8.6C8.6,6.6,10.4,5,12,5.8l9.6,5"/>
<path class="st2" d="M13.5,15.4l-0.7-3c-0.3-1.4,1.2-2.5,2.5-1.7l2.2,1.4L13.5,15.4z"/>
<path class="st2" d="M45.6,15.4l0.6-2.8c0.3-1.5-1.3-2.6-2.6-1.8L41.6,12L45.6,15.4z"/>
<path class="st0" d="M49,25.4c0,8.8-13.3,13.4-19.6,13.4S9.8,34.2,9.8,25.4S18.5,9.5,29.4,9.5S49,16.6,49,25.4z"/>
<path class="st3" d="M29.4,22.6c3.1,0,4.9,3.3,5.4,5.5s1.4,6.3-5.3,6.3s-6-3.9-5.6-6.2S26.2,22.6,29.4,22.6z"/>
<path d="M30.7,27.8H28c-0.7,0-1.3-0.6-1.3-1.3v0c0-1.3,1.1-2.4,2.4-2.4h0.6c1.3,0,2.4,1.1,2.4,2.4v0C32,27.3,31.5,27.8,30.7,27.8z"
	/>
<path class="st4" d="M18.2,38.8c0,0-0.3,3.9-4.2,7.7s-7,4.8-7,4.8l3.6,1.6c0,0,3.6-1,6.9-5s3.2-7.8,3.2-7.8L18.2,38.8z"/>
<path class="st4" d="M25.4,42.6c0,0,0.3,2.8-2.2,6.4s-6,4.8-6,4.8l5.4,0.3c0,0,3.2-1.3,5-5c1.8-3.7,1.8-5.8,1.8-5.8L25.4,42.6z"/>
<path class="st4" d="M34.5,43.9c0,0,0,2.7-0.8,5.5c-0.8,2.8-1.9,5-1.9,5l4.6-0.6c0,0,1-1.5,1.4-5.1c0.4-3.6-0.1-5.4-0.1-5.4
	L34.5,43.9z"/>
<path class="st4" d="M43.5,41.3c0,0,0.4,2.6,0.2,5.2c-0.2,2.7-1,5.7-1,5.7l4-1.2c0,0,0.6-1.7,0.4-5.2s-1.8-5.7-1.8-5.7L43.5,41.3z"
	/>
<path class="st4" d="M49.5,37.5c0,0,1.8,1.4,2.4,4.7c0.7,3.2,0.2,5.8,0.2,5.8l2.6-2c0,0,1-2.7-0.2-5.6c-1.2-2.9-3.1-3.7-3.1-3.7
	L49.5,37.5z"/>
<path class="st5" d="M35.6,43.8c-10.9,1.3-15.5-6.8-24.1-6.3s-12.1,13,0,15.6c12.1,2.6,27.5,1.5,35.2-2.1c8.2-3.8,11.7-9,10.3-13.5
	c-1.3-4.5-6.5-5.7-7.2-5.8c-0.6-0.1,3,2.4,1.8,4.3C49.7,38.9,43.8,42.8,35.6,43.8z"/>
<path class="st2" d="M29.6,30.7c0,0-0.3,0.7-1.4,0.7s-0.8,0.7,1.4,0.7s2.4-0.7,1.3-0.7C29.9,31.4,29.6,30.7,29.6,30.7z"/>
<path class="st2" d="M11.5,19.1c0,0,7.1-2.7,10.5-3.4s5.4,2.2,7.4,2.2s5.6-3.1,8.3-2.1s9.5,2.8,9.5,2.8l1.9,6c0,0-8.5,3.1-13,2.2
	s-3.6-4.4-6.7-4.4s-2.3,3.6-6.9,5S10,24.8,10,24.8L11.5,19.1z"/>
<g>
	<circle class="st6" cx="23.8" cy="20.9" r="3"/>
	<circle cx="23.9" cy="21.1" r="2.4"/>
	<circle class="st6" cx="22.8" cy="19.8" r="0.8"/>
</g>
<g>
	<circle class="st6" cx="34.9" cy="21.1" r="3"/>
	<circle cx="35" cy="21.3" r="2.4"/>
	<circle class="st6" cx="33.9" cy="20" r="0.8"/>
</g>
<path class="st3" d="M11.2,19.5c0,0,7.6-3,10.8-3.4c1.4-0.1,2.4,0,2.6-0.5c0.2-0.6-0.7-1.9-2.9-1.5c-3.8,0.6-9.4,3-9.6,3.4
	S11.2,19.5,11.2,19.5z"/>
<path class="st3" d="M47.6,19.5c0,0-7.6-3-10.8-3.4c-1.4-0.1-2.1,0.1-2.3-0.4c-0.2-0.6,0.5-2,2.6-1.7c3.8,0.6,9.4,3,9.6,3.4
	S47.6,19.5,47.6,19.5z"/>
<path class="st5" d="M49,25.4c0,8.8-13.3,13.4-19.6,13.4S9.8,34.2,9.8,25.4S18.5,9.5,29.4,9.5S49,16.6,49,25.4z"/>
</svg>
