<?xml version="1.0" encoding="utf-8"?>
<!-- Generator: Adobe Illustrator 20.1.0, SVG Export Plug-In . SVG Version: 6.00 Build 0)  -->
<svg version="1.1" xmlns="http://www.w3.org/2000/svg" xmlns:xlink="http://www.w3.org/1999/xlink" x="0px" y="0px"
	 viewBox="0 0 102 102" style="enable-background:new 0 0 102 102;" xml:space="preserve">
<style type="text/css">
	.st0{clip-path:url(#SVGID_2_);}
	.st1{fill:#58595B;stroke:#414042;stroke-width:2;stroke-miterlimit:10;}
	.st2{fill:#808285;stroke:#414042;stroke-width:2;stroke-miterlimit:10;}
	.st3{fill:#231F20;}
	.st4{fill:#EDEDED;}
	.st5{fill:#58595B;}
	.st6{fill:none;stroke:#414042;stroke-width:2;stroke-miterlimit:10;}
	.st7{fill:#FFFFFF;}
	.st8{opacity:0.1;fill:#FFFFFF;enable-background:new    ;}
	.st9{opacity:0.1;enable-background:new    ;}
	.st10{opacity:0.13;fill:#FFFFFF;enable-background:new    ;}
	.st11{fill:url(#SVGID_3_);stroke:#FFFFFF;stroke-width:3;stroke-miterlimit:10;}
</style>
<g id="Layer_2">
	<g>
		<defs>
			<circle id="SVGID_1_" cx="51.4" cy="51" r="48.3"/>
		</defs>
		<clipPath id="SVGID_2_">
			<use xlink:href="#SVGID_1_"  style="overflow:visible;"/>
		</clipPath>
		<g class="st0">
			<path class="st1" d="M22.3,68.2c-2.1,13.3,4.2,28.4,33.6,24.3s39.1-17.7,38.4-24.7c-0.7-7-15.3-17.5-38.4-17S24.3,55.6,22.3,68.2
				z"/>
			<path class="st2" d="M61.6,85.2c-21.8,2.7-30.9-13.5-48-12.6s-24.1,25.9,0,31.1s54.9,3,70.1-4.2c16.3-7.6,23.3-17.9,20.6-26.9
				c-2.7-9-13-11.4-14.3-11.6c-1.3-0.2,6,4.8,3.5,8.6C89.6,75.4,77.9,83.2,61.6,85.2z"/>
			<path class="st1" d="M84.8,36l4.8-21c0.9-3.9-2.6-7.2-5.9-5.6l-19.2,9.9"/>
			<path class="st1" d="M13.4,36l-4.8-21c-0.9-3.9,2.6-7.2,5.9-5.6l19.2,9.9"/>
			<path class="st3" d="M17.5,28.6l-1.3-6.1c-0.6-2.8,2.5-5,4.9-3.5l4.4,2.7L17.5,28.6z"/>
			<path class="st3" d="M81.5,28.6l1.2-5.7c0.6-3-2.6-5.2-5.2-3.6l-4.1,2.5L81.5,28.6z"/>
			<path class="st1" d="M88.3,48.4c0,17.5-26.5,26.7-39.1,26.7S10,66,10,48.4s17.5-31.7,39.1-31.7S88.3,30.9,88.3,48.4z"/>
			<path class="st4" d="M49.1,42.8c6.1,0,9.7,6.6,10.8,10.9C61,58,62.7,66.3,49.3,66.3s-12-7.9-11.2-12.4S42.8,42.8,49.1,42.8z"/>
			<path d="M53.2,53.3h-8c-0.7,0-1.3-0.6-1.3-1.3v-3.6c0-1.3,1.1-2.4,2.4-2.4h5.9c1.3,0,2.4,1.1,2.4,2.4V52
				C54.5,52.7,53.9,53.3,53.2,53.3z"/>
			<path class="st5" d="M26.9,75.2c0,0-0.7,7.8-8.3,15.3S4.6,100,4.6,100l7.2,3.2c0,0,7.2-2,13.8-10s6.5-15.6,6.5-15.6L26.9,75.2z"
				/>
			<path class="st5" d="M41.2,82.7c0,0,0.7,5.6-4.3,12.8s-12,9.6-12,9.6l10.8,0.7c0,0,6.3-2.7,10-10s3.5-11.5,3.5-11.5L41.2,82.7z"
				/>
			<path class="st5" d="M59.3,85.4c0,0,0,5.3-1.5,11c-1.5,5.6-3.8,10-3.8,10l9.1-1.2c0,0,2-3,2.8-10.1c0.8-7.1-0.2-10.8-0.2-10.8
				L59.3,85.4z"/>
			<path class="st5" d="M77.4,80.2c0,0,0.8,5.1,0.3,10.5s-2,11.3-2,11.3l8-2.5c0,0,1.2-3.3,0.8-10.3c-0.3-7-3.7-11.3-3.7-11.3
				L77.4,80.2z"/>
			<path class="st5" d="M89.3,72.6c0,0,3.5,2.8,4.8,9.3c1.3,6.5,0.3,11.5,0.3,11.5l5.1-4c0,0,2-5.3-0.5-11.1
				c-2.5-5.8-6.1-7.3-6.1-7.3L89.3,72.6z"/>
			<path class="st6" d="M61.6,85.2c-21.8,2.7-30.9-13.5-48-12.6s-24.1,25.9,0,31.1s54.9,3,70.1-4.2c16.3-7.6,23.3-17.9,20.6-26.9
				c-2.7-9-13-11.4-14.3-11.6c-1.3-0.2,6,4.8,3.5,8.6C89.6,75.4,77.9,83.2,61.6,85.2z"/>
			<path class="st3" d="M49.5,59c0,0-0.5,1.4-2.7,1.4c-2.2,0-1.6,1.5,2.7,1.5s4.7-1.5,2.7-1.5C50.2,60.4,49.5,59,49.5,59z"/>
			<path class="st3" d="M13.4,36c0,0,14.2-5.4,21-6.8s10.7,4.5,14.7,4.5s11.1-6.2,16.6-4.1s18.9,5.6,18.9,5.6l3.7,12
				c0,0-16.9,6.1-25.9,4.4s-7.3-8.7-13.3-8.7s-4.6,7.2-13.8,10c-9.2,2.7-24.8-5.5-24.8-5.5L13.4,36z"/>
			<g>
				<circle class="st7" cx="37.9" cy="39.5" r="5.9"/>
				<circle cx="38.3" cy="39.8" r="4.8"/>
				<circle class="st7" cx="36" cy="37.3" r="1.6"/>
			</g>
			<g>
				<circle class="st7" cx="60.1" cy="39.8" r="5.9"/>
				<circle cx="60.4" cy="40.2" r="4.8"/>
				<circle class="st7" cx="58.2" cy="37.7" r="1.6"/>
			</g>
			<path class="st4" d="M13,36.6c0,0,15.1-6.1,21.6-6.7c2.8-0.3,4.8,0,5.1-1c0.5-1.3-1.4-3.7-5.7-3c-7.6,1.2-18.8,5.9-19.1,6.8
				S13,36.6,13,36.6z"/>
			<path class="st4" d="M85.6,36.6c0,0-15.1-6.1-21.6-6.7c-2.8-0.3-4.2,0.3-4.6-0.7c-0.5-1.3,0.9-4,5.2-3.3
				c7.6,1.2,18.8,5.9,19.1,6.8C84.1,33.4,85.6,36.6,85.6,36.6z"/>
			<path class="st6" d="M88.3,48.4c0,17.5-26.5,26.7-39.1,26.7S10,66,10,48.4s17.5-31.7,39.1-31.7S88.3,30.9,88.3,48.4z"/>
		</g>
	</g>
</g>
<g id="Layer_3">
	<g>
		<path class="st8" d="M4.5,62.7C3.6,58.9,3.1,55,3.1,51c0-26.7,21.6-48.3,48.3-48.3c3.7,0,7.3,0.4,10.7,1.2
			C72.7,6.3,44.9-1,22.4,22.2S7.2,73.4,4.5,62.7z"/>
		<path class="st9" d="M99.7,51c0,26.7-21.6,48.3-48.3,48.3c-14.7,0-27.8-6.6-36.7-16.9c-4.3-5,31.4,8.1,54.3-13.8
			s13-55.3,16.6-51.8C94.3,25.6,99.7,37.7,99.7,51z"/>
		<circle class="st10" cx="26.9" cy="33.8" r="9"/>
		<circle class="st10" cx="32.5" cy="21.4" r="3.4"/>
		
			<radialGradient id="SVGID_3_" cx="51.4333" cy="53" r="48.3" gradientTransform="matrix(1 0 0 -1 0 104)" gradientUnits="userSpaceOnUse">
			<stop  offset="0.4322" style="stop-color:#FFFFFF;stop-opacity:0"/>
			<stop  offset="0.9846" style="stop-color:#FFFFFF;stop-opacity:0.2919"/>
			<stop  offset="1" style="stop-color:#FFFFFF;stop-opacity:0.3"/>
		</radialGradient>
		<circle class="st11" cx="51.4" cy="51" r="48.3"/>
	</g>
</g>
</svg>
