<?xml version="1.0" encoding="utf-8"?>
<!-- Generator: Adobe Illustrator 20.1.0, SVG Export Plug-In . SVG Version: 6.00 Build 0)  -->
<svg version="1.1" id="Layer_1" xmlns="http://www.w3.org/2000/svg" xmlns:xlink="http://www.w3.org/1999/xlink" x="0px" y="0px"
	 viewBox="0 0 60 60" style="enable-background:new 0 0 60 60;" xml:space="preserve">
<style type="text/css">
	.st0{fill:#231F20;stroke:#58595B;stroke-width:2;stroke-miterlimit:10;}
	.st1{fill:#FFFFFF;}
	.st2{fill:none;stroke:#58595B;stroke-width:2;stroke-miterlimit:10;}
	.st3{fill:#E8A3B7;}
	.st4{fill:#231F20;stroke:#58595B;stroke-width:2;stroke-linecap:round;stroke-miterlimit:10;}
</style>
<path class="st0" d="M30.7,42.7c0,0,12.3-7.3,6.9-26.1C33.1,0.9,53.2,3.5,58.3,4.4c0.4,0.1,0.5,0.6,0.1,0.8
	c-2.8,1.7-10,8.2-5.2,28.2C57.6,51.6,30.7,42.7,30.7,42.7z"/>
<path class="st1" d="M50.2,3.8c0,0-3.2,0.5-6.3,5.8c-3,5.1-0.8,9.6-0.3,15.4c0.6,5.8-1.4,11.3-1.4,11.3l2.2,2.5
	c0,0,5.9-0.6,2.2-17.9c-2.1-10.1,4-17.1,4-17.1L50.2,3.8z"/>
<path class="st0" d="M18.8,46.3c0,0-6.5-3.6-6.4-3.1c0.2,0.6,1,3.4,1.2,4.5c0.1,1.1,0.2,2.1,0.2,2.7c-1.4,0.6-2.4,2.1-2.4,3.7
	c0,0.2,0.1,0.3,0.3,0.3H20c0.2,0,0.3-0.1,0.3-0.3C20.3,52.4,18.8,46.3,18.8,46.3z"/>
<path class="st2" d="M30.7,42.7c0,0,12.3-7.3,6.9-26.1C33.1,0.9,53.2,3.5,58.3,4.4c0.4,0.1,0.5,0.6,0.1,0.8
	c-2.8,1.7-10,8.2-5.2,28.2C57.6,51.6,30.7,42.7,30.7,42.7z"/>
<ellipse class="st0" cx="29.1" cy="41.3" rx="16.9" ry="11.3"/>
<path class="st0" d="M10.4,16.8c0,0-7.4-6.2-8.8-5.4S5,23.1,5,23.1"/>
<path class="st1" d="M29.6,34.4c0,0,3.2-0.6,8.3,0.4c5.1,1.1,6.9,2.4,6.9,2.4s-2.1-3.4-5.6-5c-3.5-1.6-7.3-1.9-7.3-1.9L29.6,34.4z"
	/>
<ellipse class="st2" cx="29.1" cy="41.3" rx="16.9" ry="11.3"/>
<path class="st0" d="M27.2,16.5c0,0,7.3-6.3,8.7-5.5s-3.3,11.7-3.3,11.7"/>
<path class="st0" d="M18.5,14.6c29.5,0,8.1,28.8,0.2,28.8S-10.9,14.6,18.5,14.6z"/>
<path class="st1" d="M13.2,14.9c0,0,1.6,1.9,2.8,4.2s2.3,6,2.3,6s1.4-4.2,2.7-6.1c1.3-1.9,3.4-3.9,3.4-3.9s-2.1-0.6-5.9-0.6
	S13.2,14.9,13.2,14.9z"/>
<path class="st3" d="M18.6,35.3c4.9,0,1,3.7,0,3.7S13.7,35.3,18.6,35.3z"/>
<g>
	<circle class="st1" cx="12.7" cy="24.9" r="3.5"/>
	<circle cx="12.9" cy="25.1" r="2.9"/>
	<circle class="st1" cx="11.6" cy="23.6" r="0.9"/>
</g>
<g>
	<circle class="st1" cx="24.1" cy="25.1" r="3.5"/>
	<circle cx="24.3" cy="25.3" r="2.9"/>
	<circle class="st1" cx="23" cy="23.8" r="0.9"/>
</g>
<path class="st4" d="M22.1,47.6l0.1,2.5c-2.3,0-4.1,1.8-4.1,4.1v0c0,0.2,0.1,0.3,0.3,0.3h8.2c0.2,0,0.3-0.1,0.3-0.3v0
	c0,0,0.6-1.2,0.5-3.6c-0.1-2.4-0.8-4.6-0.8-4.6"/>
<path class="st0" d="M41,39.2c-3.2,0.2-3.8,3.9-3.7,5.7c0.1,1.8,1.4,5.1,1.4,5.1H38c-2.3,0-4.1,1.8-4.1,4.1c0,0.2,0.1,0.3,0.3,0.3
	h8.2c0.2,0,0.3-0.1,0.3-0.3c0,0,2-3.1,2.4-7.5C45.6,42.2,44.2,39,41,39.2z"/>
<path class="st2" d="M18.5,14.6c29.5,0,8.1,28.8,0.2,28.8S-10.9,14.6,18.5,14.6z"/>
</svg>
