<?xml version="1.0" encoding="utf-8"?>
<!-- Generator: Adobe Illustrator 20.1.0, SVG Export Plug-In . SVG Version: 6.00 Build 0)  -->
<svg version="1.1" xmlns="http://www.w3.org/2000/svg" xmlns:xlink="http://www.w3.org/1999/xlink" x="0px" y="0px"
	 viewBox="0 0 102 102" style="enable-background:new 0 0 102 102;" xml:space="preserve">
<style type="text/css">
	.st0{clip-path:url(#SVGID_2_);}
	.st1{fill:#231F20;stroke:#58595B;stroke-width:2;stroke-miterlimit:10;}
	.st2{fill:#FFFFFF;}
	.st3{fill:none;stroke:#58595B;stroke-width:2;stroke-miterlimit:10;}
	.st4{fill:#E8A3B7;}
	.st5{fill:#231F20;stroke:#58595B;stroke-width:2;stroke-linecap:round;stroke-miterlimit:10;}
	.st6{opacity:0.1;fill:#FFFFFF;enable-background:new    ;}
	.st7{opacity:0.1;enable-background:new    ;}
	.st8{opacity:0.13;fill:#FFFFFF;enable-background:new    ;}
	.st9{fill:url(#SVGID_3_);stroke:#FFFFFF;stroke-width:3;stroke-miterlimit:10;}
</style>
<g id="Layer_2">
	<g>
		<defs>
			<circle id="SVGID_1_" cx="50.6" cy="51" r="48.3"/>
		</defs>
		<clipPath id="SVGID_2_">
			<use xlink:href="#SVGID_1_"  style="overflow:visible;"/>
		</clipPath>
		<g class="st0">
			<path class="st1" d="M66.3,73.5c0,0,24.6-14.6,13.9-52.2c-9-31.5,31.1-26.3,41.4-24.5c0.8,0.1,0.9,1.1,0.3,1.5
				c-5.6,3.4-20,16.5-10.5,56.5C120.2,91.3,66.3,73.5,66.3,73.5z"/>
			<path class="st2" d="M105.3-4.4c0,0-6.5,1.1-12.6,11.6c-5.9,10.2-1.7,19.3-0.5,30.9c1.2,11.6-2.7,22.5-2.7,22.5l4.4,5
				c0,0,11.7-1.2,4.4-35.9C94,9.6,106.2-4.4,106.2-4.4L105.3-4.4z"/>
			<path class="st1" d="M42.6,80.8c0,0-13.1-7.3-12.7-6.3c0.4,1.2,2.1,6.9,2.3,9.1c0.3,2.2,0.4,4.2,0.5,5.4
				c-2.8,1.3-4.8,4.1-4.8,7.4c0,0.4,0.3,0.6,0.6,0.6h16.5c0.4,0,0.6-0.3,0.6-0.6C45.6,93,42.6,80.8,42.6,80.8z"/>
			<path class="st3" d="M66.3,73.5c0,0,24.6-14.6,13.9-52.2c-9-31.5,31.1-26.3,41.4-24.5c0.8,0.1,0.9,1.1,0.3,1.5
				c-5.6,3.4-20,16.5-10.5,56.5C120.2,91.3,66.3,73.5,66.3,73.5z"/>
			<ellipse class="st1" cx="63" cy="70.8" rx="33.8" ry="22.7"/>
			<path class="st1" d="M25.6,21.6c0,0-14.8-12.5-17.6-10.7s6.9,23.4,6.9,23.4"/>
			<path class="st2" d="M64.1,56.9c0,0,6.4-1.3,16.7,0.9s13.7,4.7,13.7,4.7s-4.2-6.9-11.2-10c-7-3.2-14.6-3.9-14.6-3.9L64.1,56.9z"
				/>
			<ellipse class="st3" cx="63" cy="70.8" rx="33.8" ry="22.7"/>
			<path class="st1" d="M59.3,21.1c0,0,14.6-12.7,17.5-10.9c2.9,1.7-6.6,23.5-6.6,23.5"/>
			<path class="st1" d="M42,17.2c59,0,16.3,57.7,0.3,57.7S-17.1,17.2,42,17.2z"/>
			<path class="st2" d="M31.3,17.9c0,0,3.3,3.8,5.6,8.5c2.3,4.7,4.7,12.1,4.7,12.1s2.8-8.4,5.3-12.2c2.5-3.9,6.8-7.8,6.8-7.8
				s-4.1-1.3-11.7-1.3S31.3,17.9,31.3,17.9z"/>
			<path class="st4" d="M42.1,58.6c9.7,0,1.9,7.5,0,7.5S32.4,58.6,42.1,58.6z"/>
			<g>
				<circle class="st2" cx="30.3" cy="37.8" r="7"/>
				<circle cx="30.7" cy="38.3" r="5.7"/>
				<circle class="st2" cx="28" cy="35.3" r="1.9"/>
			</g>
			<g>
				<circle class="st2" cx="53.2" cy="38.3" r="7"/>
				<circle cx="53.6" cy="38.7" r="5.7"/>
				<circle class="st2" cx="50.9" cy="35.7" r="1.9"/>
			</g>
			<path class="st5" d="M49.1,83.3l0.1,4.9c-4.5,0-8.2,3.7-8.2,8.2v0c0,0.4,0.3,0.6,0.6,0.6h16.5c0.4,0,0.6-0.3,0.6-0.6v0
				c0,0,1.2-2.4,1-7.3c-0.2-4.8-1.7-9.1-1.7-9.1"/>
			<path class="st1" d="M87,66.6c-6.4,0.4-7.6,7.7-7.4,11.3c0.3,3.6,2.7,10.3,2.7,10.3H81c-4.5,0-8.2,3.7-8.2,8.2
				c0,0.4,0.3,0.6,0.6,0.6h16.5c0.4,0,0.6-0.3,0.6-0.6c0,0,3.9-6.1,4.8-15.1C96.2,72.4,93.4,66.2,87,66.6z"/>
			<path class="st3" d="M42,17.2c59,0,16.3,57.7,0.3,57.7S-17.1,17.2,42,17.2z"/>
		</g>
	</g>
</g>
<g id="Layer_3">
	<g>
		<path class="st6" d="M4.5,62.7C3.6,58.9,3.1,55,3.1,51c0-26.7,21.6-48.3,48.3-48.3c3.7,0,7.3,0.4,10.7,1.2
			C72.7,6.3,44.9-1,22.4,22.2S7.2,73.4,4.5,62.7z"/>
		<path class="st7" d="M99.7,51c0,26.7-21.6,48.3-48.3,48.3c-14.7,0-27.8-6.6-36.7-16.9c-4.3-5,31.4,8.1,54.3-13.8
			s13-55.3,16.6-51.8C94.3,25.6,99.7,37.7,99.7,51z"/>
		<circle class="st8" cx="26.9" cy="33.8" r="9"/>
		<circle class="st8" cx="32.5" cy="21.4" r="3.4"/>
		
			<radialGradient id="SVGID_3_" cx="51.4333" cy="53" r="48.3" gradientTransform="matrix(1 0 0 -1 0 104)" gradientUnits="userSpaceOnUse">
			<stop  offset="0.4322" style="stop-color:#FFFFFF;stop-opacity:0"/>
			<stop  offset="0.9846" style="stop-color:#FFFFFF;stop-opacity:0.2919"/>
			<stop  offset="1" style="stop-color:#FFFFFF;stop-opacity:0.3"/>
		</radialGradient>
		<circle class="st9" cx="51.4" cy="51" r="48.3"/>
	</g>
</g>
</svg>
